<svg width="17" height="18" viewBox="0 0 17 18" fill="none" xmlns="http://www.w3.org/2000/svg">
<path d="M6.20922 3.50962L6.31922 3.56462C6.7638 3.79379 7.12589 4.15587 7.35505 4.60045L7.41005 4.71045C7.63005 5.14587 8.25339 5.14587 8.47797 4.71045L8.53297 4.60045C8.76214 4.15587 9.12422 3.79379 9.5688 3.56462L9.6788 3.50962C10.1142 3.28962 10.1142 2.66629 9.6788 2.4417L9.5688 2.3867C9.12422 2.15754 8.76214 1.79545 8.53297 1.35087L8.47797 1.24087C8.25797 0.805452 7.63464 0.805452 7.41005 1.24087L7.35505 1.35087C7.12589 1.79545 6.7638 2.15754 6.31922 2.3867L6.20922 2.4417C5.7738 2.6617 5.7738 3.28504 6.20922 3.50962Z" fill="url(#paint0_linear_272_1501)"/>
<path d="M7.07547 7.8042C7.52464 7.57504 7.52464 6.93795 7.07547 6.70879L6.4063 6.36504C5.81047 6.05795 5.32464 5.57212 5.01755 4.97629L4.6738 4.30712C4.44464 3.85795 3.80755 3.85795 3.57839 4.30712L3.23464 4.97629C2.92755 5.57212 2.44172 6.05795 1.84589 6.36504L1.17672 6.70879C0.727552 6.93795 0.727552 7.57504 1.17672 7.8042L1.84589 8.14795C2.44172 8.45504 2.92755 8.94087 3.23464 9.5367L3.57839 10.2059C3.80755 10.655 4.44464 10.655 4.6738 10.2059L5.01755 9.5367C5.32464 8.94087 5.81047 8.45504 6.4063 8.14795L7.07547 7.8042Z" fill="url(#paint1_linear_272_1501)"/>
<path d="M15.6738 10.545L14.9955 10.1967C14.1751 9.77962 13.5196 9.1242 13.1026 8.30379L12.7542 7.62545C12.4471 7.02045 11.833 6.64462 11.1546 6.64462C10.4763 6.64462 9.86214 7.02045 9.55505 7.62545L9.20672 8.30379C8.78964 9.1242 8.13422 9.77962 7.3138 10.1967L6.63547 10.545C6.03047 10.8521 5.65464 11.4663 5.65464 12.1446C5.65464 12.823 6.03047 13.4371 6.63547 13.7442L7.3138 14.0925C8.13422 14.5096 8.78964 15.165 9.20672 15.9855L9.55505 16.6638C9.86214 17.2688 10.4763 17.6446 11.1546 17.6446C11.833 17.6446 12.4471 17.2688 12.7542 16.6638L13.1026 15.9855C13.5196 15.165 14.1751 14.5096 14.9955 14.0925L15.6738 13.7442C16.2788 13.4371 16.6546 12.823 16.6546 12.1446C16.6546 11.4663 16.2788 10.8521 15.6738 10.545ZM15.0505 12.5205L14.3721 12.8688C13.2905 13.4188 12.4288 14.2805 11.8788 15.3621L11.5305 16.0405C11.4251 16.2467 11.2326 16.2696 11.1546 16.2696C11.0767 16.2696 10.8842 16.2467 10.7788 16.0405L10.4305 15.3621C9.88047 14.2805 9.0188 13.4188 7.93714 12.8688L7.2588 12.5205C7.05255 12.415 7.02964 12.2225 7.02964 12.1446C7.02964 12.0667 7.05255 11.8742 7.2588 11.7688L7.93714 11.4205C9.0188 10.8705 9.88047 10.0088 10.4305 8.92712L10.7788 8.24879C10.8842 8.04254 11.0767 8.01962 11.1546 8.01962C11.2326 8.01962 11.4251 8.04254 11.5305 8.24879L11.8788 8.92712C12.4288 10.0088 13.2905 10.8705 14.3721 11.4205L15.0505 11.7688C15.2567 11.8742 15.2796 12.0667 15.2796 12.1446C15.2796 12.2225 15.2567 12.415 15.0505 12.5205Z" fill="url(#paint2_linear_272_1501)"/>
<defs>
<linearGradient id="paint0_linear_272_1501" x1="8.74724" y1="0.914307" x2="8.74724" y2="17.6446" gradientUnits="userSpaceOnUse">
<stop stop-color="white"/>
<stop offset="1" stop-color="#A2AAFF"/>
</linearGradient>
<linearGradient id="paint1_linear_272_1501" x1="8.74724" y1="0.914307" x2="8.74724" y2="17.6446" gradientUnits="userSpaceOnUse">
<stop stop-color="white"/>
<stop offset="1" stop-color="#A2AAFF"/>
</linearGradient>
<linearGradient id="paint2_linear_272_1501" x1="8.74724" y1="0.914307" x2="8.74724" y2="17.6446" gradientUnits="userSpaceOnUse">
<stop stop-color="white"/>
<stop offset="1" stop-color="#A2AAFF"/>
</linearGradient>
</defs>
</svg>
