<svg width="64" height="65" viewBox="0 0 64 65" fill="none" xmlns="http://www.w3.org/2000/svg">
<g clip-path="url(#clip0_706_2511)">
<path d="M59.996 15.1634C59.2043 14.5943 58.3573 14.2076 57.4548 14.0034C56.9706 13.8934 56.1418 13.8388 54.9685 13.8397C45.4702 13.8438 35.9718 13.8426 26.4735 13.8359C25.256 13.8351 24.4327 13.7701 24.0035 13.6409C22.9335 13.3193 22.1218 12.6055 21.5685 11.4997C21.4702 11.303 21.3243 10.9176 21.131 10.3434C20.2598 7.75343 17.7123 5.89093 14.9685 5.84843C13.9752 5.8326 11.6939 5.82176 8.12477 5.81593C6.65893 5.81343 5.3356 6.23676 4.15477 7.08593C4.11227 7.11676 4.06393 7.12093 4.00977 7.09843" stroke="black" stroke-width="0.25"/>
<path d="M33.4026 45.1323C34.2593 45.9707 35.1084 46.8165 35.9501 47.6698C36.3126 48.0382 36.5976 48.2678 36.8051 48.3586C37.8151 48.7986 38.9338 47.8086 38.5651 46.7398C38.4884 46.5165 38.2509 46.2053 37.8526 45.8061C36.3068 44.2553 34.7584 42.7065 33.2076 41.1598C32.2488 40.2036 31.5988 40.3548 30.6601 41.2898C29.1343 42.8123 27.6101 44.3369 26.0876 45.8636C25.7543 46.1978 25.5455 46.4653 25.4613 46.6661C25.0263 47.6986 26.0738 48.7861 27.1276 48.3898C27.3484 48.3065 27.673 48.0482 28.1013 47.6148C28.9247 46.7807 29.7572 45.9519 30.5988 45.1286C30.6397 45.0886 30.6605 45.0973 30.6613 45.1548C30.6688 49.2173 30.6697 53.2798 30.6638 57.3423C30.6638 58.0523 30.7326 58.6373 31.3463 58.9736C32.0576 59.3623 32.9413 59.0723 33.2301 58.2948C33.3018 58.1015 33.3372 57.7857 33.3363 57.3473C33.3255 53.284 33.3268 49.2211 33.3401 45.1586C33.3401 45.1011 33.3609 45.0923 33.4026 45.1323Z" stroke="black" stroke-width="0.25"/>
<path d="M10.3235 0.5H53.6573C57.241 0.77875 59.9948 3.58625 59.9998 7.22C60.0039 9.835 60.0027 12.4829 59.996 15.1638C59.2044 14.5946 58.3573 14.2079 57.4548 14.0038C56.9706 13.8938 56.1419 13.8392 54.9685 13.84C45.4702 13.8442 35.9719 13.8429 26.4735 13.8363C25.256 13.8354 24.4327 13.7704 24.0035 13.6413C22.9335 13.3196 22.1219 12.6058 21.5685 11.5C21.4702 11.3033 21.3244 10.9179 21.131 10.3438C20.2598 7.75375 17.7123 5.89125 14.9685 5.84875C13.9752 5.83292 11.6939 5.82208 8.12477 5.81625C6.65893 5.81375 5.3356 6.23708 4.15477 7.08625C4.11227 7.11708 4.06393 7.12125 4.00977 7.09875C4.05102 3.50875 6.77977 0.79875 10.3235 0.5Z" fill="#FFC505"/>
<path d="M59.9964 15.1634C60.1847 15.3259 60.3851 15.5097 60.5976 15.7147C61.5751 16.6622 62.2072 17.7718 62.4939 19.0434C62.6055 19.5384 62.6614 20.368 62.6614 21.5322C62.6589 28.7405 62.6605 35.9488 62.6664 43.1572C62.6672 44.353 62.6272 45.1843 62.5464 45.6509C61.9951 48.8184 59.2326 51.1597 55.9676 51.1647C53.7626 51.1672 51.5568 51.1643 49.3501 51.1559C49.3076 51.1559 49.2872 51.1347 49.2889 51.0922C49.538 46.3205 48.1818 42.1705 45.2201 38.6422C38.3701 30.4834 25.6289 30.4834 18.7826 38.6409C15.8193 42.1709 14.4618 46.3213 14.7101 51.0922C14.7126 51.1347 14.6926 51.1563 14.6501 51.1572C12.6135 51.1655 10.576 51.1655 8.53762 51.1572C7.62845 51.153 6.93012 51.0918 6.44262 50.9734C3.47012 50.2497 1.33762 47.5672 1.33887 44.4684C1.3397 33.8643 1.34012 23.2601 1.34012 12.6559C1.34012 10.4126 2.20595 8.60885 3.93762 7.24468C3.98137 7.20968 4.00762 7.14968 4.01012 7.09843C4.06428 7.12093 4.11262 7.11676 4.15512 7.08593C5.33595 6.23676 6.65928 5.81343 8.12512 5.81593C11.6943 5.82176 13.9755 5.8326 14.9689 5.84843C17.7126 5.89093 20.2601 7.75343 21.1314 10.3434C21.3247 10.9176 21.4705 11.303 21.5689 11.4997C22.1222 12.6055 22.9339 13.3193 24.0039 13.6409C24.433 13.7701 25.2564 13.8351 26.4739 13.8359C35.9722 13.8426 45.4705 13.8438 54.9689 13.8397C56.1422 13.8388 56.971 13.8934 57.4551 14.0034C58.3576 14.2076 59.2047 14.5943 59.9964 15.1634Z" fill="#FFB10A"/>
<path d="M32.2989 64.5H31.6889C28.2356 64.3792 25.236 63.2654 22.6902 61.1587C16.4502 55.9962 15.5389 46.73 20.7052 40.4862C25.8427 34.2775 35.1077 33.3962 41.3239 38.52C47.9352 43.9675 48.4964 54.0637 42.3927 60.16C39.6635 62.8858 36.2989 64.3325 32.2989 64.5ZM33.4039 45.1325C34.2606 45.9708 35.1097 46.8167 35.9514 47.67C36.3139 48.0383 36.5989 48.2679 36.8064 48.3587C37.8164 48.7987 38.9352 47.8087 38.5664 46.74C38.4897 46.5167 38.2522 46.2054 37.8539 45.8062C36.3081 44.2554 34.7597 42.7067 33.2089 41.16C32.2502 40.2037 31.6002 40.355 30.6614 41.29C29.1356 42.8125 27.6114 44.3371 26.0889 45.8637C25.7556 46.1979 25.5468 46.4654 25.4627 46.6662C25.0277 47.6987 26.0752 48.7862 27.1289 48.39C27.3497 48.3067 27.6743 48.0483 28.1027 47.615C28.926 46.7808 29.7585 45.9521 30.6002 45.1287C30.641 45.0887 30.6618 45.0975 30.6627 45.155C30.6702 49.2175 30.671 53.28 30.6652 57.3425C30.6652 58.0525 30.7339 58.6375 31.3477 58.9737C32.0589 59.3625 32.9427 59.0725 33.2314 58.295C33.3031 58.1017 33.3385 57.7858 33.3377 57.3475C33.3268 53.2842 33.3281 49.2212 33.3414 45.1587C33.3414 45.1012 33.3622 45.0925 33.4039 45.1325Z" fill="#07378C"/>
<path d="M33.3411 45.1591C33.3277 49.2216 33.3265 53.2845 33.3373 57.3478C33.3382 57.7862 33.3027 58.102 33.2311 58.2953C32.9423 59.0728 32.0586 59.3628 31.3473 58.9741C30.7336 58.6378 30.6648 58.0528 30.6648 57.3428C30.6707 53.2803 30.6698 49.2178 30.6623 45.1553C30.6615 45.0978 30.6407 45.0891 30.5998 45.1291C29.7582 45.9524 28.9257 46.7812 28.1023 47.6153C27.674 48.0487 27.3494 48.307 27.1286 48.3903C26.0748 48.7866 25.0273 47.6991 25.4623 46.6666C25.5465 46.4657 25.7552 46.1982 26.0886 45.8641C27.6111 44.3374 29.1352 42.8128 30.6611 41.2903C31.5998 40.3553 32.2498 40.2041 33.2086 41.1603C34.7594 42.707 36.3077 44.2557 37.8536 45.8066C38.2519 46.2057 38.4894 46.517 38.5661 46.7403C38.9348 47.8091 37.8161 48.7991 36.8061 48.3591C36.5986 48.2682 36.3136 48.0387 35.9511 47.6703C35.1094 46.817 34.2602 45.9712 33.4036 45.1328C33.3619 45.0928 33.3411 45.1016 33.3411 45.1591Z" fill="white"/>
</g>
<defs>
<clipPath id="clip0_706_2511">
<rect width="64" height="64" fill="white" transform="translate(0 0.5)"/>
</clipPath>
</defs>
</svg>
