<svg width="32" height="33" viewBox="0 0 32 33" fill="none" xmlns="http://www.w3.org/2000/svg">
<path opacity="0.4" d="M28 9.83317V23.1665C28 27.1665 26 29.8332 21.3333 29.8332H10.6667C6 29.8332 4 27.1665 4 23.1665V9.83317C4 5.83317 6 3.1665 10.6667 3.1665H21.3333C26 3.1665 28 5.83317 28 9.83317Z" fill="white"/>
<path d="M24.6663 12.8333H21.9997C19.973 12.8333 18.333 11.1933 18.333 9.16667V6.5C18.333 5.95333 18.7863 5.5 19.333 5.5C19.8797 5.5 20.333 5.95333 20.333 6.5V9.16667C20.333 10.0867 21.0797 10.8333 21.9997 10.8333H24.6663C25.213 10.8333 25.6663 11.2867 25.6663 11.8333C25.6663 12.38 25.213 12.8333 24.6663 12.8333Z" fill="white"/>
<path d="M16.0003 18.8335H10.667C10.1203 18.8335 9.66699 18.3802 9.66699 17.8335C9.66699 17.2868 10.1203 16.8335 10.667 16.8335H16.0003C16.547 16.8335 17.0003 17.2868 17.0003 17.8335C17.0003 18.3802 16.547 18.8335 16.0003 18.8335Z" fill="white"/>
<path d="M21.3337 24.1665H10.667C10.1203 24.1665 9.66699 23.7132 9.66699 23.1665C9.66699 22.6198 10.1203 22.1665 10.667 22.1665H21.3337C21.8803 22.1665 22.3337 22.6198 22.3337 23.1665C22.3337 23.7132 21.8803 24.1665 21.3337 24.1665Z" fill="white"/>
</svg>
