<svg width="6" height="6" viewBox="0 0 6 6" fill="none" xmlns="http://www.w3.org/2000/svg">
<g clip-path="url(#clip0_1055_5766)">
<path d="M2.4375 0.5625C2.4375 0.512772 2.41775 0.465081 2.38258 0.429917C2.34742 0.394754 2.29973 0.375 2.25 0.375C2.20027 0.375 2.15258 0.394754 2.11742 0.429917C2.08225 0.465081 2.0625 0.512772 2.0625 0.5625V0.75H1.3125C1.16332 0.75 1.02024 0.809263 0.914752 0.914752C0.809263 1.02024 0.75 1.16332 0.75 1.3125V2.4375C0.75 2.58668 0.809263 2.72976 0.914752 2.83525C1.02024 2.94074 1.16332 3 1.3125 3H2.283C2.299 2.957 2.3205 2.91638 2.3475 2.87813C2.41125 2.78813 2.50125 2.72063 2.60625 2.68275L2.78625 2.625H1.3125C1.26277 2.625 1.21508 2.60525 1.17992 2.57008C1.14475 2.53492 1.125 2.48723 1.125 2.4375V1.3125C1.125 1.26277 1.14475 1.21508 1.17992 1.17992C1.21508 1.14475 1.26277 1.125 1.3125 1.125H3.1875C3.23723 1.125 3.28492 1.14475 3.32008 1.17992C3.35525 1.21508 3.375 1.26277 3.375 1.3125V2.01638L3.42487 1.86375C3.46612 1.75125 3.53362 1.66125 3.62362 1.5975C3.66337 1.569 3.7055 1.54688 3.75 1.53113V1.3125C3.75 1.16332 3.69074 1.02024 3.58525 0.914752C3.47976 0.809263 3.33668 0.75 3.1875 0.75H2.4375V0.5625ZM0.9375 3.5625H2.40487C2.46327 3.622 2.535 3.66673 2.61412 3.693L3.01162 3.82425C3.06825 3.84338 3.12075 3.87338 3.18825 3.93338L3.192 3.9375H0.9375C0.887772 3.9375 0.840081 3.95725 0.804917 3.99242C0.769754 4.02758 0.75 4.07527 0.75 4.125V4.25625C0.75 4.61063 0.903 4.84688 1.15575 5.004C1.41975 5.16825 1.80187 5.25 2.25 5.25C2.70112 5.25 3.08325 5.16788 3.34612 5.004C3.45187 4.93838 3.54 4.8585 3.60675 4.76175L3.62737 4.77863C3.67987 4.81613 3.73612 4.84238 3.79612 4.85738C3.75277 4.95067 3.74004 5.05528 3.75975 5.15625C3.69394 5.21893 3.62181 5.2746 3.5445 5.32238C3.198 5.53875 2.73637 5.625 2.25 5.625C1.76625 5.625 1.30462 5.538 0.95775 5.32238C0.599625 5.1 0.375 4.74563 0.375 4.25625V4.125C0.375 3.97582 0.434263 3.83274 0.539752 3.72725C0.645242 3.62176 0.788316 3.5625 0.9375 3.5625ZM1.96875 1.875C1.96875 1.94959 1.93912 2.02113 1.88637 2.07387C1.83363 2.12662 1.76209 2.15625 1.6875 2.15625C1.61291 2.15625 1.54137 2.12662 1.48863 2.07387C1.43588 2.02113 1.40625 1.94959 1.40625 1.875C1.40625 1.80041 1.43588 1.72887 1.48863 1.67613C1.54137 1.62338 1.61291 1.59375 1.6875 1.59375C1.76209 1.59375 1.83363 1.62338 1.88637 1.67613C1.93912 1.72887 1.96875 1.80041 1.96875 1.875ZM2.8125 2.15625C2.88709 2.15625 2.95863 2.12662 3.01137 2.07387C3.06412 2.02113 3.09375 1.94959 3.09375 1.875C3.09375 1.80041 3.06412 1.72887 3.01137 1.67613C2.95863 1.62338 2.88709 1.59375 2.8125 1.59375C2.73791 1.59375 2.66637 1.62338 2.61363 1.67613C2.56088 1.72887 2.53125 1.80041 2.53125 1.875C2.53125 1.94959 2.56088 2.02113 2.61363 2.07387C2.66637 2.12662 2.73791 2.15625 2.8125 2.15625ZM4.07925 1.98075L4.20975 2.38238C4.25022 2.50453 4.31871 2.61553 4.40974 2.7065C4.50077 2.79746 4.61181 2.86587 4.734 2.90625L5.136 3.03675L5.14387 3.039C5.17485 3.0499 5.20168 3.07015 5.22066 3.09695C5.23964 3.12376 5.24983 3.15579 5.24983 3.18863C5.24983 3.22146 5.23964 3.2535 5.22066 3.2803C5.20168 3.3071 5.17485 3.32735 5.14387 3.33825L4.74225 3.46875C4.61999 3.50908 4.50887 3.57747 4.41777 3.66844C4.32668 3.7594 4.25813 3.87043 4.21762 3.99263L4.08712 4.39388C4.07622 4.42485 4.05597 4.45168 4.02917 4.47066C4.00237 4.48964 3.97034 4.49983 3.9375 4.49983C3.90466 4.49983 3.87263 4.48964 3.84583 4.47066C3.81903 4.45168 3.79878 4.42485 3.78787 4.39388L3.65737 3.99263C3.61048 3.85056 3.52583 3.72391 3.4125 3.62625C3.33054 3.55509 3.23535 3.50081 3.13237 3.4665L2.73037 3.336C2.6994 3.3251 2.67257 3.30485 2.65359 3.27805C2.63461 3.25124 2.62442 3.21921 2.62442 3.18638C2.62442 3.15354 2.63461 3.12151 2.65359 3.0947C2.67257 3.0679 2.6994 3.04765 2.73037 3.03675L3.13237 2.90625C3.25311 2.86483 3.36258 2.79595 3.45218 2.70505C3.54178 2.61415 3.60907 2.50369 3.64875 2.38238L3.77925 1.98113C3.79008 1.95002 3.81031 1.92305 3.83716 1.90397C3.86401 1.88489 3.89613 1.87464 3.92906 1.87464C3.962 1.87464 3.99412 1.88489 4.02096 1.90397C4.04781 1.92305 4.06805 1.95002 4.07887 1.98113M5.91825 4.95525L5.63137 4.86225C5.54411 4.83325 5.4648 4.78433 5.39971 4.71937C5.33463 4.65442 5.28555 4.5752 5.25637 4.488L5.16337 4.20113C5.15561 4.17897 5.14116 4.15978 5.12201 4.14621C5.10286 4.13263 5.07997 4.12534 5.0565 4.12534C5.03303 4.12534 5.01014 4.13263 4.99099 4.14621C4.97184 4.15978 4.95739 4.17897 4.94962 4.20113L4.85587 4.488C4.82734 4.57452 4.77924 4.6533 4.7153 4.71821C4.65137 4.78312 4.57333 4.83241 4.48725 4.86225L4.20037 4.95525C4.18387 4.96113 4.16894 4.97075 4.15677 4.98335C4.14459 4.99596 4.1355 5.01121 4.1302 5.02792C4.1249 5.04462 4.12353 5.06232 4.12621 5.07964C4.12888 5.09696 4.13553 5.11343 4.14562 5.12775C4.15912 5.1465 4.17825 5.1615 4.20037 5.169L4.48725 5.26238C4.57467 5.29153 4.65409 5.34067 4.71919 5.4059C4.78428 5.47113 4.83327 5.55065 4.86225 5.63813L4.95525 5.92463C4.96301 5.94678 4.97747 5.96597 4.99661 5.97954C5.01576 5.99312 5.03865 6.00041 5.06212 6.00041C5.0856 6.00041 5.10849 5.99312 5.12763 5.97954C5.14678 5.96597 5.16124 5.94678 5.169 5.92463L5.26237 5.63813C5.29147 5.55089 5.34046 5.47163 5.40548 5.40661C5.4705 5.34159 5.54977 5.29259 5.637 5.2635L5.92387 5.1705C5.94603 5.16274 5.96522 5.14828 5.97879 5.12914C5.99237 5.10999 5.99966 5.0871 5.99966 5.06363C5.99966 5.04015 5.99237 5.01726 5.97879 4.99812C5.96522 4.97897 5.94603 4.96451 5.92387 4.95675L5.91825 4.95525Z" fill="#73726D"/>
</g>
<defs>
<clipPath id="clip0_1055_5766">
<rect width="6" height="6" fill="white"/>
</clipPath>
</defs>
</svg>
