<svg width="1412" height="285" viewBox="0 0 1412 285" fill="none" xmlns="http://www.w3.org/2000/svg">
<path d="M446.405 231.24C420.625 231.24 399.255 222.72 382.295 205.67C365.325 188.62 356.845 167.54 356.845 142.41C356.845 117.29 365.325 96.2001 382.295 79.1501C399.255 62.1101 420.635 53.5801 446.405 53.5801C461.905 53.5801 476.215 57.2501 489.355 64.5901C502.485 71.9301 512.725 81.8801 520.065 94.4501L495.595 108.64C491.025 100.16 484.385 93.4301 475.655 88.4501C466.925 83.4801 457.185 80.9901 446.415 80.9901C428.145 80.9901 413.335 86.7801 402.005 98.3601C390.665 109.95 384.995 124.63 384.995 142.41C384.995 160.19 390.665 174.88 402.005 186.46C413.345 198.04 428.145 203.83 446.415 203.83C457.185 203.83 466.975 201.35 475.785 196.37C484.595 191.4 491.205 184.67 495.605 176.18L520.075 190.13C512.895 202.7 502.735 212.69 489.605 220.11C476.455 227.53 462.065 231.24 446.405 231.24Z" fill="#010233"/>
<path d="M599.095 231.24C581.145 231.24 565.895 225.04 553.335 212.64C540.775 200.24 534.495 184.99 534.495 166.88C534.495 148.77 540.775 133.52 553.335 121.12C565.895 108.72 581.145 102.52 599.095 102.52C617.205 102.52 632.495 108.72 644.975 121.12C657.455 133.52 663.695 148.77 663.695 166.88C663.695 184.99 657.455 200.24 644.975 212.64C632.505 225.04 617.205 231.24 599.095 231.24ZM571.935 194.53C579.275 201.87 588.325 205.54 599.095 205.54C609.865 205.54 618.915 201.87 626.255 194.53C633.595 187.19 637.265 177.98 637.265 166.88C637.265 155.78 633.595 146.57 626.255 139.23C618.915 131.89 609.865 128.22 599.095 128.22C588.325 128.22 579.275 131.89 571.935 139.23C564.595 146.57 560.925 155.79 560.925 166.88C560.925 177.97 564.595 187.19 571.935 194.53Z" fill="#010233"/>
<path d="M821.285 102.52C835.155 102.52 846.325 107.01 854.815 115.98C863.295 124.96 867.545 137.03 867.545 152.2V228.06H841.115V153.91C841.115 145.43 838.995 138.86 834.755 134.21C830.505 129.56 824.725 127.24 817.385 127.24C809.225 127.24 802.735 129.93 797.925 135.31C793.115 140.69 790.705 148.77 790.705 159.54V228.06H764.275V153.91C764.275 145.43 762.275 138.86 758.275 134.21C754.275 129.56 748.615 127.24 741.265 127.24C733.275 127.24 726.745 129.97 721.685 135.44C716.625 140.91 714.095 148.94 714.095 159.54V228.06H687.665V105.7H714.095V120.38C721.925 108.47 733.585 102.52 749.085 102.52C764.745 102.52 776.325 108.96 783.835 121.85C792.005 108.97 804.485 102.52 821.285 102.52Z" fill="#010233"/>
<path d="M965.175 102.52C981.975 102.52 996.335 108.76 1008.24 121.24C1020.15 133.72 1026.11 148.93 1026.11 166.88C1026.11 184.99 1020.15 200.24 1008.24 212.64C996.335 225.04 981.975 231.24 965.175 231.24C946.575 231.24 932.295 224.39 922.355 210.69V277H895.925V105.7H922.355V123.32C932.295 109.46 946.575 102.52 965.175 102.52ZM933.365 194.9C940.705 202.33 949.915 206.04 961.015 206.04C972.105 206.04 981.325 202.33 988.665 194.9C996.005 187.48 999.675 178.14 999.675 166.88C999.675 155.62 996.005 146.28 988.665 138.86C981.325 131.44 972.105 127.72 961.015 127.72C949.915 127.72 940.705 131.43 933.365 138.86C926.025 146.28 922.355 155.62 922.355 166.88C922.355 178.14 926.025 187.48 933.365 194.9Z" fill="#010233"/>
<path d="M1050.08 228.06V49.4199H1076.51V228.05H1050.08V228.06Z" fill="#010233"/>
<path d="M1108.81 166.39V140.94H1199.35V166.39H1108.81Z" fill="#010233"/>
<path d="M1337.86 228.06L1325.78 193.56H1252.94L1240.96 228.06H1210.37L1272.52 56.77H1306.29L1368.2 228.06H1337.86ZM1262.25 167.13H1316.52L1289.45 89.8L1262.25 167.13Z" fill="#010233"/>
<path d="M1411.26 56.7598H1384.83V228.05H1411.26V56.7598Z" fill="#010233"/>
<path d="M281.745 142.4H246.425C244.805 142.4 243.525 143.68 243.525 145.3C241.905 202.09 193.485 247.26 135.355 243.35C81.945 239.7 39.945 193.25 41.295 139.84C41.495 130.32 43.055 121.2 45.685 112.56C50.005 98.65 57.165 86.09 66.545 75.49C85.115 54.49 112.195 41.2599 142.375 41.2599C168.165 41.2599 191.665 50.92 209.495 66.78C212.605 69.48 215.505 72.38 218.205 75.49L247.445 46.25C244.675 43.21 241.775 40.31 238.735 37.54C213.345 14.24 179.515 0 142.375 0C100.845 0 63.375 17.83 37.305 46.25C27.915 56.51 20.015 68.1299 13.945 80.8199C3.88501 101.82 -1.18498 125.59 0.235023 150.77C4.21502 221.47 61.345 279.4 131.975 284.47C214.355 290.28 283.095 226.06 284.785 145.51C284.785 143.81 283.435 142.4 281.745 142.4Z" fill="url(#paint0_linear_1333_11140)"/>
<path d="M326.055 18.4902C328.695 18.4902 330.025 21.6902 328.155 23.5602L270.895 80.8802L239.095 112.62L171.435 180.35L166.095 185.69C153.045 198.74 131.885 198.74 118.835 185.69L113.435 180.28L64.8154 131.66L68.1154 128.36C82.2954 114.18 105.275 114.18 119.455 128.36L142.405 151.31L218.235 75.4802L274.355 19.3602C274.915 18.8002 275.665 18.4902 276.455 18.4902H326.055Z" fill="url(#paint1_linear_1333_11140)"/>
<path opacity="0.1" d="M247.445 46.2398L218.205 75.4798C215.505 72.3698 212.605 69.4698 209.495 66.7698L238.735 37.5298C241.765 40.2998 244.675 43.1998 247.445 46.2398Z" fill="#181919"/>
<defs>
<linearGradient id="paint0_linear_1333_11140" x1="142.392" y1="-2.8711" x2="142.392" y2="272.696" gradientUnits="userSpaceOnUse">
<stop stop-color="#25F9BB"/>
<stop offset="1" stop-color="#5976CC"/>
</linearGradient>
<linearGradient id="paint1_linear_1333_11140" x1="196.918" y1="-2.87087" x2="196.918" y2="272.696" gradientUnits="userSpaceOnUse">
<stop stop-color="#25F9BB"/>
<stop offset="1" stop-color="#5976CC"/>
</linearGradient>
</defs>
</svg>
