<svg width="268" height="74" viewBox="0 0 268 74" fill="none" xmlns="http://www.w3.org/2000/svg">
<g filter="url(#filter0_d_833_12169)">
<rect x="11" y="9" width="246" height="52" rx="8" fill="white"/>
<rect x="12" y="10" width="244" height="50" rx="7" stroke="#F0F0F0" stroke-width="2"/>
<path d="M32.488 40.098C31.5827 40.098 30.7473 39.888 29.982 39.468C29.226 39.0387 28.624 38.446 28.176 37.69C27.7373 36.9247 27.518 36.066 27.518 35.114C27.518 34.162 27.7373 33.308 28.176 32.552C28.624 31.796 29.226 31.208 29.982 30.788C30.7473 30.3587 31.5827 30.144 32.488 30.144C33.4027 30.144 34.238 30.3587 34.994 30.788C35.7593 31.208 36.3613 31.796 36.8 32.552C37.2387 33.308 37.458 34.162 37.458 35.114C37.458 36.066 37.2387 36.9247 36.8 37.69C36.3613 38.446 35.7593 39.0387 34.994 39.468C34.238 39.888 33.4027 40.098 32.488 40.098ZM32.488 38.712C33.132 38.712 33.706 38.5673 34.21 38.278C34.714 37.9793 35.106 37.5593 35.386 37.018C35.6753 36.4673 35.82 35.8327 35.82 35.114C35.82 34.3953 35.6753 33.7653 35.386 33.224C35.106 32.6827 34.714 32.2673 34.21 31.978C33.706 31.6887 33.132 31.544 32.488 31.544C31.844 31.544 31.27 31.6887 30.766 31.978C30.262 32.2673 29.8653 32.6827 29.576 33.224C29.296 33.7653 29.156 34.3953 29.156 35.114C29.156 35.8327 29.296 36.4673 29.576 37.018C29.8653 37.5593 30.262 37.9793 30.766 38.278C31.27 38.5673 31.844 38.712 32.488 38.712ZM42.2625 33.588H40.8345V40H39.2245V33.588H38.3145V32.286H39.2245V31.74C39.2245 30.8533 39.4578 30.2093 39.9245 29.808C40.4005 29.3973 41.1425 29.192 42.1505 29.192V30.522C41.6652 30.522 41.3245 30.6153 41.1285 30.802C40.9325 30.9793 40.8345 31.292 40.8345 31.74V32.286H42.2625V33.588ZM46.7817 36.136C46.7817 35.3427 46.9403 34.6473 47.2577 34.05C47.5843 33.4433 48.0323 32.9767 48.6017 32.65C49.171 32.3233 49.8243 32.16 50.5617 32.16C51.495 32.16 52.265 32.384 52.8717 32.832C53.4877 33.2707 53.903 33.9007 54.1177 34.722H52.3957C52.2557 34.3393 52.0317 34.0407 51.7237 33.826C51.4157 33.6113 51.0283 33.504 50.5617 33.504C49.9083 33.504 49.3857 33.7373 48.9937 34.204C48.611 34.6613 48.4197 35.3053 48.4197 36.136C48.4197 36.9667 48.611 37.6153 48.9937 38.082C49.3857 38.5487 49.9083 38.782 50.5617 38.782C51.4857 38.782 52.097 38.376 52.3957 37.564H54.1177C53.8937 38.348 53.4737 38.9733 52.8577 39.44C52.2417 39.8973 51.4763 40.126 50.5617 40.126C49.8243 40.126 49.171 39.9627 48.6017 39.636C48.0323 39.3 47.5843 38.8333 47.2577 38.236C46.9403 37.6293 46.7817 36.9293 46.7817 36.136ZM59.0542 40.126C58.3262 40.126 57.6682 39.9627 57.0802 39.636C56.4922 39.3 56.0302 38.8333 55.6942 38.236C55.3582 37.6293 55.1902 36.9293 55.1902 36.136C55.1902 35.352 55.3629 34.6567 55.7082 34.05C56.0535 33.4433 56.5249 32.9767 57.1222 32.65C57.7195 32.3233 58.3869 32.16 59.1242 32.16C59.8615 32.16 60.5289 32.3233 61.1262 32.65C61.7235 32.9767 62.1949 33.4433 62.5402 34.05C62.8855 34.6567 63.0582 35.352 63.0582 36.136C63.0582 36.92 62.8809 37.6153 62.5262 38.222C62.1715 38.8287 61.6862 39.3 61.0702 39.636C60.4635 39.9627 59.7915 40.126 59.0542 40.126ZM59.0542 38.74C59.4649 38.74 59.8475 38.642 60.2022 38.446C60.5662 38.25 60.8602 37.956 61.0842 37.564C61.3082 37.172 61.4202 36.696 61.4202 36.136C61.4202 35.576 61.3129 35.1047 61.0982 34.722C60.8835 34.33 60.5989 34.036 60.2442 33.84C59.8895 33.644 59.5069 33.546 59.0962 33.546C58.6855 33.546 58.3029 33.644 57.9482 33.84C57.6029 34.036 57.3275 34.33 57.1222 34.722C56.9169 35.1047 56.8142 35.576 56.8142 36.136C56.8142 36.9667 57.0242 37.6107 57.4442 38.068C57.8735 38.516 58.4102 38.74 59.0542 38.74ZM71.6219 32.286V40H70.0259V39.09C69.7739 39.4073 69.4426 39.6593 69.0319 39.846C68.6306 40.0233 68.2013 40.112 67.7439 40.112C67.1373 40.112 66.5913 39.986 66.1059 39.734C65.6299 39.482 65.2519 39.1087 64.9719 38.614C64.7013 38.1193 64.5659 37.522 64.5659 36.822V32.286H66.1479V36.584C66.1479 37.2747 66.3206 37.8067 66.6659 38.18C67.0113 38.544 67.4826 38.726 68.0799 38.726C68.6773 38.726 69.1486 38.544 69.4939 38.18C69.8486 37.8067 70.0259 37.2747 70.0259 36.584V32.286H71.6219ZM75.3237 33.406C75.5571 33.014 75.8651 32.7107 76.2477 32.496C76.6397 32.272 77.1017 32.16 77.6337 32.16V33.812H77.2277C76.6024 33.812 76.1264 33.9707 75.7997 34.288C75.4824 34.6053 75.3237 35.156 75.3237 35.94V40H73.7277V32.286H75.3237V33.406ZM81.9008 40.126C81.2941 40.126 80.7481 40.0187 80.2628 39.804C79.7868 39.58 79.4088 39.2813 79.1288 38.908C78.8488 38.5253 78.6994 38.1007 78.6808 37.634H80.3328C80.3608 37.9607 80.5148 38.236 80.7948 38.46C81.0841 38.6747 81.4434 38.782 81.8728 38.782C82.3208 38.782 82.6661 38.698 82.9088 38.53C83.1608 38.3527 83.2868 38.1287 83.2868 37.858C83.2868 37.5687 83.1468 37.354 82.8668 37.214C82.5961 37.074 82.1621 36.92 81.5648 36.752C80.9861 36.5933 80.5148 36.4393 80.1508 36.29C79.7868 36.1407 79.4694 35.912 79.1988 35.604C78.9374 35.296 78.8068 34.89 78.8068 34.386C78.8068 33.9753 78.9281 33.602 79.1708 33.266C79.4134 32.9207 79.7588 32.65 80.2068 32.454C80.6641 32.258 81.1868 32.16 81.7748 32.16C82.6521 32.16 83.3568 32.384 83.8888 32.832C84.4301 33.2707 84.7194 33.8727 84.7568 34.638H83.1608C83.1328 34.2927 82.9928 34.0173 82.7408 33.812C82.4888 33.6067 82.1481 33.504 81.7188 33.504C81.2988 33.504 80.9768 33.5833 80.7528 33.742C80.5288 33.9007 80.4168 34.1107 80.4168 34.372C80.4168 34.5773 80.4914 34.75 80.6408 34.89C80.7901 35.03 80.9721 35.142 81.1868 35.226C81.4014 35.3007 81.7188 35.3987 82.1388 35.52C82.6988 35.6693 83.1561 35.8233 83.5108 35.982C83.8748 36.1313 84.1874 36.3553 84.4488 36.654C84.7101 36.9527 84.8454 37.3493 84.8548 37.844C84.8548 38.2827 84.7334 38.6747 84.4908 39.02C84.2481 39.3653 83.9028 39.636 83.4548 39.832C83.0161 40.028 82.4981 40.126 81.9008 40.126ZM93.6493 35.954C93.6493 36.2433 93.6306 36.5047 93.5933 36.738H87.6993C87.746 37.354 87.9746 37.8487 88.3853 38.222C88.796 38.5953 89.3 38.782 89.8973 38.782C90.756 38.782 91.3626 38.4227 91.7173 37.704H93.4393C93.206 38.4133 92.7813 38.9967 92.1653 39.454C91.5586 39.902 90.8026 40.126 89.8973 40.126C89.16 40.126 88.4973 39.9627 87.9093 39.636C87.3306 39.3 86.8733 38.8333 86.5373 38.236C86.2106 37.6293 86.0473 36.9293 86.0473 36.136C86.0473 35.3427 86.206 34.6473 86.5233 34.05C86.85 33.4433 87.3026 32.9767 87.8813 32.65C88.4693 32.3233 89.1413 32.16 89.8973 32.16C90.6253 32.16 91.274 32.3187 91.8433 32.636C92.4126 32.9533 92.856 33.4013 93.1733 33.98C93.4906 34.5493 93.6493 35.2073 93.6493 35.954ZM91.9833 35.45C91.974 34.862 91.764 34.3907 91.3533 34.036C90.9426 33.6813 90.434 33.504 89.8273 33.504C89.2766 33.504 88.8053 33.6813 88.4133 34.036C88.0213 34.3813 87.788 34.8527 87.7133 35.45H91.9833ZM97.2219 30.27L97.0399 37.06H95.7099L95.5279 30.27H97.2219ZM96.4239 40.098C96.1346 40.098 95.8919 40 95.6959 39.804C95.4999 39.608 95.4019 39.3653 95.4019 39.076C95.4019 38.7867 95.4999 38.544 95.6959 38.348C95.8919 38.152 96.1346 38.054 96.4239 38.054C96.7039 38.054 96.9419 38.152 97.1379 38.348C97.3339 38.544 97.4319 38.7867 97.4319 39.076C97.4319 39.3653 97.3339 39.608 97.1379 39.804C96.9419 40 96.7039 40.098 96.4239 40.098ZM111.125 30.27V40H109.529V35.744H104.951V40H103.355V30.27H104.951V34.442H109.529V30.27H111.125ZM120.296 35.954C120.296 36.2433 120.277 36.5047 120.24 36.738H114.346C114.392 37.354 114.621 37.8487 115.032 38.222C115.442 38.5953 115.946 38.782 116.544 38.782C117.402 38.782 118.009 38.4227 118.364 37.704H120.086C119.852 38.4133 119.428 38.9967 118.812 39.454C118.205 39.902 117.449 40.126 116.544 40.126C115.806 40.126 115.144 39.9627 114.556 39.636C113.977 39.3 113.52 38.8333 113.184 38.236C112.857 37.6293 112.694 36.9293 112.694 36.136C112.694 35.3427 112.852 34.6473 113.17 34.05C113.496 33.4433 113.949 32.9767 114.528 32.65C115.116 32.3233 115.788 32.16 116.544 32.16C117.272 32.16 117.92 32.3187 118.49 32.636C119.059 32.9533 119.502 33.4013 119.82 33.98C120.137 34.5493 120.296 35.2073 120.296 35.954ZM118.63 35.45C118.62 34.862 118.41 34.3907 118 34.036C117.589 33.6813 117.08 33.504 116.474 33.504C115.923 33.504 115.452 33.6813 115.06 34.036C114.668 34.3813 114.434 34.8527 114.36 35.45H118.63ZM123.462 33.406C123.696 33.014 124.004 32.7107 124.386 32.496C124.778 32.272 125.24 32.16 125.772 32.16V33.812H125.366C124.741 33.812 124.265 33.9707 123.938 34.288C123.621 34.6053 123.462 35.156 123.462 35.94V40H121.866V32.286H123.462V33.406ZM134.309 35.954C134.309 36.2433 134.291 36.5047 134.253 36.738H128.359C128.406 37.354 128.635 37.8487 129.045 38.222C129.456 38.5953 129.96 38.782 130.557 38.782C131.416 38.782 132.023 38.4227 132.377 37.704H134.099C133.866 38.4133 133.441 38.9967 132.825 39.454C132.219 39.902 131.463 40.126 130.557 40.126C129.82 40.126 129.157 39.9627 128.569 39.636C127.991 39.3 127.533 38.8333 127.197 38.236C126.871 37.6293 126.707 36.9293 126.707 36.136C126.707 35.3427 126.866 34.6473 127.183 34.05C127.51 33.4433 127.963 32.9767 128.541 32.65C129.129 32.3233 129.801 32.16 130.557 32.16C131.285 32.16 131.934 32.3187 132.503 32.636C133.073 32.9533 133.516 33.4013 133.833 33.98C134.151 34.5493 134.309 35.2073 134.309 35.954ZM132.643 35.45C132.634 34.862 132.424 34.3907 132.013 34.036C131.603 33.6813 131.094 33.504 130.487 33.504C129.937 33.504 129.465 33.6813 129.073 34.036C128.681 34.3813 128.448 34.8527 128.373 35.45H132.643ZM136.748 28.842L136.58 31.712H135.488L135.306 28.842H136.748ZM141.086 40.126C140.48 40.126 139.934 40.0187 139.448 39.804C138.972 39.58 138.594 39.2813 138.314 38.908C138.034 38.5253 137.885 38.1007 137.866 37.634H139.518C139.546 37.9607 139.7 38.236 139.98 38.46C140.27 38.6747 140.629 38.782 141.058 38.782C141.506 38.782 141.852 38.698 142.094 38.53C142.346 38.3527 142.472 38.1287 142.472 37.858C142.472 37.5687 142.332 37.354 142.052 37.214C141.782 37.074 141.348 36.92 140.75 36.752C140.172 36.5933 139.7 36.4393 139.336 36.29C138.972 36.1407 138.655 35.912 138.384 35.604C138.123 35.296 137.992 34.89 137.992 34.386C137.992 33.9753 138.114 33.602 138.356 33.266C138.599 32.9207 138.944 32.65 139.392 32.454C139.85 32.258 140.372 32.16 140.96 32.16C141.838 32.16 142.542 32.384 143.074 32.832C143.616 33.2707 143.905 33.8727 143.942 34.638H142.346C142.318 34.2927 142.178 34.0173 141.926 33.812C141.674 33.6067 141.334 33.504 140.904 33.504C140.484 33.504 140.162 33.5833 139.938 33.742C139.714 33.9007 139.602 34.1107 139.602 34.372C139.602 34.5773 139.677 34.75 139.826 34.89C139.976 35.03 140.158 35.142 140.372 35.226C140.587 35.3007 140.904 35.3987 141.324 35.52C141.884 35.6693 142.342 35.8233 142.696 35.982C143.06 36.1313 143.373 36.3553 143.634 36.654C143.896 36.9527 144.031 37.3493 144.04 37.844C144.04 38.2827 143.919 38.6747 143.676 39.02C143.434 39.3653 143.088 39.636 142.64 39.832C142.202 40.028 141.684 40.126 141.086 40.126ZM151.264 33.588V37.858C151.264 38.1473 151.329 38.3573 151.46 38.488C151.6 38.6093 151.833 38.67 152.16 38.67H153.14V40H151.88C151.161 40 150.61 39.832 150.228 39.496C149.845 39.16 149.654 38.614 149.654 37.858V33.588H148.744V32.286H149.654V30.368H151.264V32.286H153.14V33.588H151.264ZM158.601 32.16C159.189 32.16 159.711 32.286 160.169 32.538C160.635 32.79 160.999 33.1633 161.261 33.658C161.531 34.1527 161.667 34.75 161.667 35.45V40H160.085V35.688C160.085 34.9973 159.912 34.47 159.567 34.106C159.221 33.7327 158.75 33.546 158.153 33.546C157.555 33.546 157.079 33.7327 156.725 34.106C156.379 34.47 156.207 34.9973 156.207 35.688V40H154.611V29.64H156.207V33.182C156.477 32.8553 156.818 32.6033 157.229 32.426C157.649 32.2487 158.106 32.16 158.601 32.16ZM170.772 35.954C170.772 36.2433 170.754 36.5047 170.716 36.738H164.822C164.869 37.354 165.098 37.8487 165.508 38.222C165.919 38.5953 166.423 38.782 167.02 38.782C167.879 38.782 168.486 38.4227 168.84 37.704H170.562C170.329 38.4133 169.904 38.9967 169.288 39.454C168.682 39.902 167.926 40.126 167.02 40.126C166.283 40.126 165.62 39.9627 165.032 39.636C164.454 39.3 163.996 38.8333 163.66 38.236C163.334 37.6293 163.17 36.9293 163.17 36.136C163.17 35.3427 163.329 34.6473 163.646 34.05C163.973 33.4433 164.426 32.9767 165.004 32.65C165.592 32.3233 166.264 32.16 167.02 32.16C167.748 32.16 168.397 32.3187 168.966 32.636C169.536 32.9533 169.979 33.4013 170.296 33.98C170.614 34.5493 170.772 35.2073 170.772 35.954ZM169.106 35.45C169.097 34.862 168.887 34.3907 168.476 34.036C168.066 33.6813 167.557 33.504 166.95 33.504C166.4 33.504 165.928 33.6813 165.536 34.036C165.144 34.3813 164.911 34.8527 164.836 35.45H169.106ZM175.448 36.136C175.448 35.3427 175.606 34.6473 175.924 34.05C176.25 33.4433 176.698 32.9767 177.268 32.65C177.837 32.3233 178.49 32.16 179.228 32.16C180.161 32.16 180.931 32.384 181.538 32.832C182.154 33.2707 182.569 33.9007 182.784 34.722H181.062C180.922 34.3393 180.698 34.0407 180.39 33.826C180.082 33.6113 179.694 33.504 179.228 33.504C178.574 33.504 178.052 33.7373 177.66 34.204C177.277 34.6613 177.086 35.3053 177.086 36.136C177.086 36.9667 177.277 37.6153 177.66 38.082C178.052 38.5487 178.574 38.782 179.228 38.782C180.152 38.782 180.763 38.376 181.062 37.564H182.784C182.56 38.348 182.14 38.9733 181.524 39.44C180.908 39.8973 180.142 40.126 179.228 40.126C178.49 40.126 177.837 39.9627 177.268 39.636C176.698 39.3 176.25 38.8333 175.924 38.236C175.606 37.6293 175.448 36.9293 175.448 36.136ZM188.364 32.16C188.952 32.16 189.475 32.286 189.932 32.538C190.399 32.79 190.763 33.1633 191.024 33.658C191.295 34.1527 191.43 34.75 191.43 35.45V40H189.848V35.688C189.848 34.9973 189.676 34.47 189.33 34.106C188.985 33.7327 188.514 33.546 187.916 33.546C187.319 33.546 186.843 33.7327 186.488 34.106C186.143 34.47 185.97 34.9973 185.97 35.688V40H184.374V29.64H185.97V33.182C186.241 32.8553 186.582 32.6033 186.992 32.426C187.412 32.2487 187.87 32.16 188.364 32.16ZM200.536 35.954C200.536 36.2433 200.517 36.5047 200.48 36.738H194.586C194.633 37.354 194.861 37.8487 195.272 38.222C195.683 38.5953 196.187 38.782 196.784 38.782C197.643 38.782 198.249 38.4227 198.604 37.704H200.326C200.093 38.4133 199.668 38.9967 199.052 39.454C198.445 39.902 197.689 40.126 196.784 40.126C196.047 40.126 195.384 39.9627 194.796 39.636C194.217 39.3 193.76 38.8333 193.424 38.236C193.097 37.6293 192.934 36.9293 192.934 36.136C192.934 35.3427 193.093 34.6473 193.41 34.05C193.737 33.4433 194.189 32.9767 194.768 32.65C195.356 32.3233 196.028 32.16 196.784 32.16C197.512 32.16 198.161 32.3187 198.73 32.636C199.299 32.9533 199.743 33.4013 200.06 33.98C200.377 34.5493 200.536 35.2073 200.536 35.954ZM198.87 35.45C198.861 34.862 198.651 34.3907 198.24 34.036C197.829 33.6813 197.321 33.504 196.714 33.504C196.163 33.504 195.692 33.6813 195.3 34.036C194.908 34.3813 194.675 34.8527 194.6 35.45H198.87ZM201.575 36.136C201.575 35.3427 201.733 34.6473 202.051 34.05C202.377 33.4433 202.825 32.9767 203.395 32.65C203.964 32.3233 204.617 32.16 205.355 32.16C206.288 32.16 207.058 32.384 207.665 32.832C208.281 33.2707 208.696 33.9007 208.911 34.722H207.189C207.049 34.3393 206.825 34.0407 206.517 33.826C206.209 33.6113 205.821 33.504 205.355 33.504C204.701 33.504 204.179 33.7373 203.787 34.204C203.404 34.6613 203.213 35.3053 203.213 36.136C203.213 36.9667 203.404 37.6153 203.787 38.082C204.179 38.5487 204.701 38.782 205.355 38.782C206.279 38.782 206.89 38.376 207.189 37.564H208.911C208.687 38.348 208.267 38.9733 207.651 39.44C207.035 39.8973 206.269 40.126 205.355 40.126C204.617 40.126 203.964 39.9627 203.395 39.636C202.825 39.3 202.377 38.8333 202.051 38.236C201.733 37.6293 201.575 36.9293 201.575 36.136ZM213.553 36.15L217.109 40H214.953L212.097 36.682V40H210.501V29.64H212.097V35.66L214.897 32.286H217.109L213.553 36.15ZM219.849 29.64V40H218.253V29.64H219.849ZM222.757 31.264C222.467 31.264 222.225 31.166 222.029 30.97C221.833 30.774 221.735 30.5313 221.735 30.242C221.735 29.9527 221.833 29.71 222.029 29.514C222.225 29.318 222.467 29.22 222.757 29.22C223.037 29.22 223.275 29.318 223.471 29.514C223.667 29.71 223.765 29.9527 223.765 30.242C223.765 30.5313 223.667 30.774 223.471 30.97C223.275 31.166 223.037 31.264 222.757 31.264ZM223.541 32.286V40H221.945V32.286H223.541ZM228.436 40.126C227.829 40.126 227.283 40.0187 226.798 39.804C226.322 39.58 225.944 39.2813 225.664 38.908C225.384 38.5253 225.235 38.1007 225.216 37.634H226.868C226.896 37.9607 227.05 38.236 227.33 38.46C227.619 38.6747 227.979 38.782 228.408 38.782C228.856 38.782 229.201 38.698 229.444 38.53C229.696 38.3527 229.822 38.1287 229.822 37.858C229.822 37.5687 229.682 37.354 229.402 37.214C229.131 37.074 228.697 36.92 228.1 36.752C227.521 36.5933 227.05 36.4393 226.686 36.29C226.322 36.1407 226.005 35.912 225.734 35.604C225.473 35.296 225.342 34.89 225.342 34.386C225.342 33.9753 225.463 33.602 225.706 33.266C225.949 32.9207 226.294 32.65 226.742 32.454C227.199 32.258 227.722 32.16 228.31 32.16C229.187 32.16 229.892 32.384 230.424 32.832C230.965 33.2707 231.255 33.8727 231.292 34.638H229.696C229.668 34.2927 229.528 34.0173 229.276 33.812C229.024 33.6067 228.683 33.504 228.254 33.504C227.834 33.504 227.512 33.5833 227.288 33.742C227.064 33.9007 226.952 34.1107 226.952 34.372C226.952 34.5773 227.027 34.75 227.176 34.89C227.325 35.03 227.507 35.142 227.722 35.226C227.937 35.3007 228.254 35.3987 228.674 35.52C229.234 35.6693 229.691 35.8233 230.046 35.982C230.41 36.1313 230.723 36.3553 230.984 36.654C231.245 36.9527 231.381 37.3493 231.39 37.844C231.39 38.2827 231.269 38.6747 231.026 39.02C230.783 39.3653 230.438 39.636 229.99 39.832C229.551 40.028 229.033 40.126 228.436 40.126ZM234.976 33.588V37.858C234.976 38.1473 235.042 38.3573 235.172 38.488C235.312 38.6093 235.546 38.67 235.872 38.67H236.852V40H235.592C234.874 40 234.323 39.832 233.94 39.496C233.558 39.16 233.366 38.614 233.366 37.858V33.588H232.456V32.286H233.366V30.368H234.976V32.286H236.852V33.588H234.976ZM238.967 40.098C238.678 40.098 238.435 40 238.239 39.804C238.043 39.608 237.945 39.3653 237.945 39.076C237.945 38.7867 238.043 38.544 238.239 38.348C238.435 38.152 238.678 38.054 238.967 38.054C239.247 38.054 239.485 38.152 239.681 38.348C239.877 38.544 239.975 38.7867 239.975 39.076C239.975 39.3653 239.877 39.608 239.681 39.804C239.485 40 239.247 40.098 238.967 40.098Z" fill="black"/>
</g>
<defs>
<filter id="filter0_d_833_12169" x="0.7" y="0.7" width="266.6" height="72.6" filterUnits="userSpaceOnUse" color-interpolation-filters="sRGB">
<feFlood flood-opacity="0" result="BackgroundImageFix"/>
<feColorMatrix in="SourceAlpha" type="matrix" values="0 0 0 0 0 0 0 0 0 0 0 0 0 0 0 0 0 0 127 0" result="hardAlpha"/>
<feOffset dy="2"/>
<feGaussianBlur stdDeviation="5.15"/>
<feComposite in2="hardAlpha" operator="out"/>
<feColorMatrix type="matrix" values="0 0 0 0 0 0 0 0 0 0 0 0 0 0 0 0 0 0 0.1 0"/>
<feBlend mode="normal" in2="BackgroundImageFix" result="effect1_dropShadow_833_12169"/>
<feBlend mode="normal" in="SourceGraphic" in2="effect1_dropShadow_833_12169" result="shape"/>
</filter>
</defs>
</svg>
