<svg width="482" height="74" viewBox="0 0 482 74" fill="none" xmlns="http://www.w3.org/2000/svg">
<g filter="url(#filter0_d_833_11663)">
<rect x="11" y="9" width="460" height="52" rx="8" fill="white"/>
<rect x="12" y="10" width="458" height="50" rx="7" stroke="#F0F0F0" stroke-width="2"/>
<path d="M35.82 30.27V40H34.224V35.744H29.646V40H28.05V30.27H29.646V34.442H34.224V30.27H35.82ZM44.9911 35.954C44.9911 36.2433 44.9724 36.5047 44.9351 36.738H39.0411C39.0878 37.354 39.3164 37.8487 39.7271 38.222C40.1378 38.5953 40.6418 38.782 41.2391 38.782C42.0978 38.782 42.7044 38.4227 43.0591 37.704H44.7811C44.5478 38.4133 44.1231 38.9967 43.5071 39.454C42.9004 39.902 42.1444 40.126 41.2391 40.126C40.5018 40.126 39.8391 39.9627 39.2511 39.636C38.6724 39.3 38.2151 38.8333 37.8791 38.236C37.5524 37.6293 37.3891 36.9293 37.3891 36.136C37.3891 35.3427 37.5478 34.6473 37.8651 34.05C38.1918 33.4433 38.6444 32.9767 39.2231 32.65C39.8111 32.3233 40.4831 32.16 41.2391 32.16C41.9671 32.16 42.6158 32.3187 43.1851 32.636C43.7544 32.9533 44.1978 33.4013 44.5151 33.98C44.8324 34.5493 44.9911 35.2073 44.9911 35.954ZM43.3251 35.45C43.3158 34.862 43.1058 34.3907 42.6951 34.036C42.2844 33.6813 41.7758 33.504 41.1691 33.504C40.6184 33.504 40.1471 33.6813 39.7551 34.036C39.3631 34.3813 39.1298 34.8527 39.0551 35.45H43.3251ZM48.1577 33.406C48.3911 33.014 48.6991 32.7107 49.0817 32.496C49.4737 32.272 49.9357 32.16 50.4677 32.16V33.812H50.0617C49.4364 33.812 48.9604 33.9707 48.6337 34.288C48.3164 34.6053 48.1577 35.156 48.1577 35.94V40H46.5617V32.286H48.1577V33.406ZM59.0048 35.954C59.0048 36.2433 58.9861 36.5047 58.9488 36.738H53.0548C53.1014 37.354 53.3301 37.8487 53.7408 38.222C54.1514 38.5953 54.6554 38.782 55.2528 38.782C56.1114 38.782 56.7181 38.4227 57.0728 37.704H58.7948C58.5614 38.4133 58.1368 38.9967 57.5208 39.454C56.9141 39.902 56.1581 40.126 55.2528 40.126C54.5154 40.126 53.8528 39.9627 53.2648 39.636C52.6861 39.3 52.2288 38.8333 51.8928 38.236C51.5661 37.6293 51.4028 36.9293 51.4028 36.136C51.4028 35.3427 51.5614 34.6473 51.8788 34.05C52.2054 33.4433 52.6581 32.9767 53.2368 32.65C53.8248 32.3233 54.4968 32.16 55.2528 32.16C55.9808 32.16 56.6294 32.3187 57.1988 32.636C57.7681 32.9533 58.2114 33.4013 58.5288 33.98C58.8461 34.5493 59.0048 35.2073 59.0048 35.954ZM57.3388 35.45C57.3294 34.862 57.1194 34.3907 56.7088 34.036C56.2981 33.6813 55.7894 33.504 55.1828 33.504C54.6321 33.504 54.1608 33.6813 53.7688 34.036C53.3768 34.3813 53.1434 34.8527 53.0688 35.45H57.3388ZM60.8274 30.27H62.5634L61.0934 33.602H59.9734L60.8274 30.27ZM66.766 40.126C66.1593 40.126 65.6133 40.0187 65.128 39.804C64.652 39.58 64.274 39.2813 63.994 38.908C63.714 38.5253 63.5647 38.1007 63.546 37.634H65.198C65.226 37.9607 65.38 38.236 65.66 38.46C65.9493 38.6747 66.3087 38.782 66.738 38.782C67.186 38.782 67.5313 38.698 67.774 38.53C68.026 38.3527 68.152 38.1287 68.152 37.858C68.152 37.5687 68.012 37.354 67.732 37.214C67.4613 37.074 67.0273 36.92 66.43 36.752C65.8513 36.5933 65.38 36.4393 65.016 36.29C64.652 36.1407 64.3347 35.912 64.064 35.604C63.8027 35.296 63.672 34.89 63.672 34.386C63.672 33.9753 63.7933 33.602 64.036 33.266C64.2787 32.9207 64.624 32.65 65.072 32.454C65.5293 32.258 66.052 32.16 66.64 32.16C67.5173 32.16 68.222 32.384 68.754 32.832C69.2953 33.2707 69.5847 33.8727 69.622 34.638H68.026C67.998 34.2927 67.858 34.0173 67.606 33.812C67.354 33.6067 67.0133 33.504 66.584 33.504C66.164 33.504 65.842 33.5833 65.618 33.742C65.394 33.9007 65.282 34.1107 65.282 34.372C65.282 34.5773 65.3567 34.75 65.506 34.89C65.6553 35.03 65.8373 35.142 66.052 35.226C66.2667 35.3007 66.584 35.3987 67.004 35.52C67.564 35.6693 68.0213 35.8233 68.376 35.982C68.74 36.1313 69.0527 36.3553 69.314 36.654C69.5753 36.9527 69.7107 37.3493 69.72 37.844C69.72 38.2827 69.5987 38.6747 69.356 39.02C69.1133 39.3653 68.768 39.636 68.32 39.832C67.8813 40.028 67.3633 40.126 66.766 40.126ZM74.5493 36.108C74.5493 35.3333 74.7079 34.6473 75.0253 34.05C75.3519 33.4527 75.7906 32.9907 76.3413 32.664C76.9013 32.328 77.5173 32.16 78.1893 32.16C78.7959 32.16 79.3233 32.2813 79.7713 32.524C80.2286 32.7573 80.5926 33.0513 80.8633 33.406V32.286H82.4733V40H80.8633V38.852C80.5926 39.216 80.2239 39.5193 79.7573 39.762C79.2906 40.0047 78.7586 40.126 78.1613 40.126C77.4986 40.126 76.8919 39.958 76.3413 39.622C75.7906 39.2767 75.3519 38.8007 75.0253 38.194C74.7079 37.578 74.5493 36.8827 74.5493 36.108ZM80.8633 36.136C80.8633 35.604 80.7513 35.142 80.5273 34.75C80.3126 34.358 80.0279 34.0593 79.6733 33.854C79.3186 33.6487 78.9359 33.546 78.5253 33.546C78.1146 33.546 77.7319 33.6487 77.3773 33.854C77.0226 34.05 76.7333 34.344 76.5093 34.736C76.2946 35.1187 76.1873 35.576 76.1873 36.108C76.1873 36.64 76.2946 37.1067 76.5093 37.508C76.7333 37.9093 77.0226 38.2173 77.3773 38.432C77.7413 38.6373 78.1239 38.74 78.5253 38.74C78.9359 38.74 79.3186 38.6373 79.6733 38.432C80.0279 38.2267 80.3126 37.928 80.5273 37.536C80.7513 37.1347 80.8633 36.668 80.8633 36.136ZM89.8023 33.406C90.0356 33.014 90.3436 32.7107 90.7263 32.496C91.1183 32.272 91.5803 32.16 92.1123 32.16V33.812H91.7063C91.0809 33.812 90.6049 33.9707 90.2783 34.288C89.9609 34.6053 89.8023 35.156 89.8023 35.94V40H88.2063V32.286H89.8023V33.406ZM100.649 35.954C100.649 36.2433 100.631 36.5047 100.593 36.738H94.6993C94.746 37.354 94.9746 37.8487 95.3853 38.222C95.796 38.5953 96.3 38.782 96.8973 38.782C97.756 38.782 98.3626 38.4227 98.7173 37.704H100.439C100.206 38.4133 99.7813 38.9967 99.1653 39.454C98.5586 39.902 97.8026 40.126 96.8973 40.126C96.16 40.126 95.4973 39.9627 94.9093 39.636C94.3306 39.3 93.8733 38.8333 93.5373 38.236C93.2106 37.6293 93.0473 36.9293 93.0473 36.136C93.0473 35.3427 93.206 34.6473 93.5233 34.05C93.85 33.4433 94.3026 32.9767 94.8813 32.65C95.4693 32.3233 96.1413 32.16 96.8973 32.16C97.6253 32.16 98.274 32.3187 98.8433 32.636C99.4126 32.9533 99.856 33.4013 100.173 33.98C100.491 34.5493 100.649 35.2073 100.649 35.954ZM98.9833 35.45C98.974 34.862 98.764 34.3907 98.3533 34.036C97.9426 33.6813 97.434 33.504 96.8273 33.504C96.2766 33.504 95.8053 33.6813 95.4133 34.036C95.0213 34.3813 94.788 34.8527 94.7133 35.45H98.9833ZM105.202 38.572L107.386 32.286H109.08L106.14 40H104.236L101.31 32.286H103.018L105.202 38.572ZM111.098 31.264C110.809 31.264 110.566 31.166 110.37 30.97C110.174 30.774 110.076 30.5313 110.076 30.242C110.076 29.9527 110.174 29.71 110.37 29.514C110.566 29.318 110.809 29.22 111.098 29.22C111.378 29.22 111.616 29.318 111.812 29.514C112.008 29.71 112.106 29.9527 112.106 30.242C112.106 30.5313 112.008 30.774 111.812 30.97C111.616 31.166 111.378 31.264 111.098 31.264ZM111.882 32.286V40H110.286V32.286H111.882ZM121.048 35.954C121.048 36.2433 121.029 36.5047 120.992 36.738H115.098C115.144 37.354 115.373 37.8487 115.784 38.222C116.194 38.5953 116.698 38.782 117.296 38.782C118.154 38.782 118.761 38.4227 119.116 37.704H120.838C120.604 38.4133 120.18 38.9967 119.564 39.454C118.957 39.902 118.201 40.126 117.296 40.126C116.558 40.126 115.896 39.9627 115.308 39.636C114.729 39.3 114.272 38.8333 113.936 38.236C113.609 37.6293 113.446 36.9293 113.446 36.136C113.446 35.3427 113.604 34.6473 113.922 34.05C114.248 33.4433 114.701 32.9767 115.28 32.65C115.868 32.3233 116.54 32.16 117.296 32.16C118.024 32.16 118.672 32.3187 119.242 32.636C119.811 32.9533 120.254 33.4013 120.572 33.98C120.889 34.5493 121.048 35.2073 121.048 35.954ZM119.382 35.45C119.372 34.862 119.162 34.3907 118.752 34.036C118.341 33.6813 117.832 33.504 117.226 33.504C116.675 33.504 116.204 33.6813 115.812 34.036C115.42 34.3813 115.186 34.8527 115.112 35.45H119.382ZM132.978 32.286L130.584 40H128.904L127.35 34.302L125.796 40H124.116L121.708 32.286H123.332L124.942 38.488L126.58 32.286H128.246L129.814 38.46L131.41 32.286H132.978ZM141.154 40.126C140.426 40.126 139.768 39.9627 139.18 39.636C138.592 39.3 138.13 38.8333 137.794 38.236C137.458 37.6293 137.29 36.9293 137.29 36.136C137.29 35.352 137.462 34.6567 137.808 34.05C138.153 33.4433 138.624 32.9767 139.222 32.65C139.819 32.3233 140.486 32.16 141.224 32.16C141.961 32.16 142.628 32.3233 143.226 32.65C143.823 32.9767 144.294 33.4433 144.64 34.05C144.985 34.6567 145.158 35.352 145.158 36.136C145.158 36.92 144.98 37.6153 144.626 38.222C144.271 38.8287 143.786 39.3 143.17 39.636C142.563 39.9627 141.891 40.126 141.154 40.126ZM141.154 38.74C141.564 38.74 141.947 38.642 142.302 38.446C142.666 38.25 142.96 37.956 143.184 37.564C143.408 37.172 143.52 36.696 143.52 36.136C143.52 35.576 143.412 35.1047 143.198 34.722C142.983 34.33 142.698 34.036 142.344 33.84C141.989 33.644 141.606 33.546 141.196 33.546C140.785 33.546 140.402 33.644 140.048 33.84C139.702 34.036 139.427 34.33 139.222 34.722C139.016 35.1047 138.914 35.576 138.914 36.136C138.914 36.9667 139.124 37.6107 139.544 38.068C139.973 38.516 140.51 38.74 141.154 38.74ZM149.97 33.588H148.542V40H146.932V33.588H146.022V32.286H146.932V31.74C146.932 30.8533 147.165 30.2093 147.632 29.808C148.108 29.3973 148.85 29.192 149.858 29.192V30.522C149.372 30.522 149.032 30.6153 148.836 30.802C148.64 30.9793 148.542 31.292 148.542 31.74V32.286H149.97V33.588ZM161.965 32.286L157.233 43.626H155.581L157.149 39.874L154.111 32.286H155.889L158.059 38.166L160.313 32.286H161.965ZM166.515 40.126C165.787 40.126 165.129 39.9627 164.541 39.636C163.953 39.3 163.491 38.8333 163.155 38.236C162.819 37.6293 162.651 36.9293 162.651 36.136C162.651 35.352 162.824 34.6567 163.169 34.05C163.514 33.4433 163.986 32.9767 164.583 32.65C165.18 32.3233 165.848 32.16 166.585 32.16C167.322 32.16 167.99 32.3233 168.587 32.65C169.184 32.9767 169.656 33.4433 170.001 34.05C170.346 34.6567 170.519 35.352 170.519 36.136C170.519 36.92 170.342 37.6153 169.987 38.222C169.632 38.8287 169.147 39.3 168.531 39.636C167.924 39.9627 167.252 40.126 166.515 40.126ZM166.515 38.74C166.926 38.74 167.308 38.642 167.663 38.446C168.027 38.25 168.321 37.956 168.545 37.564C168.769 37.172 168.881 36.696 168.881 36.136C168.881 35.576 168.774 35.1047 168.559 34.722C168.344 34.33 168.06 34.036 167.705 33.84C167.35 33.644 166.968 33.546 166.557 33.546C166.146 33.546 165.764 33.644 165.409 33.84C165.064 34.036 164.788 34.33 164.583 34.722C164.378 35.1047 164.275 35.576 164.275 36.136C164.275 36.9667 164.485 37.6107 164.905 38.068C165.334 38.516 165.871 38.74 166.515 38.74ZM179.083 32.286V40H177.487V39.09C177.235 39.4073 176.904 39.6593 176.493 39.846C176.092 40.0233 175.662 40.112 175.205 40.112C174.598 40.112 174.052 39.986 173.567 39.734C173.091 39.482 172.713 39.1087 172.433 38.614C172.162 38.1193 172.027 37.522 172.027 36.822V32.286H173.609V36.584C173.609 37.2747 173.782 37.8067 174.127 38.18C174.472 38.544 174.944 38.726 175.541 38.726C176.138 38.726 176.61 38.544 176.955 38.18C177.31 37.8067 177.487 37.2747 177.487 36.584V32.286H179.083ZM182.785 33.406C183.018 33.014 183.326 32.7107 183.709 32.496C184.101 32.272 184.563 32.16 185.095 32.16V33.812H184.689C184.063 33.812 183.587 33.9707 183.261 34.288C182.943 34.6053 182.785 35.156 182.785 35.94V40H181.189V32.286H182.785V33.406ZM196.064 38.012H191.99L191.29 40H189.624L193.11 30.256H194.958L198.444 40H196.764L196.064 38.012ZM195.616 36.71L194.034 32.188L192.438 36.71H195.616ZM210.208 30.27V40H208.612V33.336L205.644 40H204.538L201.556 33.336V40H199.96V30.27H201.682L205.098 37.9L208.5 30.27H210.208ZM213.902 38.712H217.192V40H212.306V30.27H213.902V38.712ZM228.967 33.168C228.967 33.6627 228.851 34.1293 228.617 34.568C228.384 35.0067 228.011 35.366 227.497 35.646C226.984 35.9167 226.326 36.052 225.523 36.052H223.759V40H222.163V30.27H225.523C226.27 30.27 226.9 30.4007 227.413 30.662C227.936 30.914 228.323 31.2593 228.575 31.698C228.837 32.1367 228.967 32.6267 228.967 33.168ZM225.523 34.75C226.13 34.75 226.583 34.6147 226.881 34.344C227.18 34.064 227.329 33.672 227.329 33.168C227.329 32.104 226.727 31.572 225.523 31.572H223.759V34.75H225.523ZM233.835 40.126C233.107 40.126 232.449 39.9627 231.861 39.636C231.273 39.3 230.811 38.8333 230.475 38.236C230.139 37.6293 229.971 36.9293 229.971 36.136C229.971 35.352 230.144 34.6567 230.489 34.05C230.835 33.4433 231.306 32.9767 231.903 32.65C232.501 32.3233 233.168 32.16 233.905 32.16C234.643 32.16 235.31 32.3233 235.907 32.65C236.505 32.9767 236.976 33.4433 237.321 34.05C237.667 34.6567 237.839 35.352 237.839 36.136C237.839 36.92 237.662 37.6153 237.307 38.222C236.953 38.8287 236.467 39.3 235.851 39.636C235.245 39.9627 234.573 40.126 233.835 40.126ZM233.835 38.74C234.246 38.74 234.629 38.642 234.983 38.446C235.347 38.25 235.641 37.956 235.865 37.564C236.089 37.172 236.201 36.696 236.201 36.136C236.201 35.576 236.094 35.1047 235.879 34.722C235.665 34.33 235.38 34.036 235.025 33.84C234.671 33.644 234.288 33.546 233.877 33.546C233.467 33.546 233.084 33.644 232.729 33.84C232.384 34.036 232.109 34.33 231.903 34.722C231.698 35.1047 231.595 35.576 231.595 36.136C231.595 36.9667 231.805 37.6107 232.225 38.068C232.655 38.516 233.191 38.74 233.835 38.74ZM241.013 29.64V40H239.417V29.64H241.013ZM243.921 31.264C243.631 31.264 243.389 31.166 243.193 30.97C242.997 30.774 242.899 30.5313 242.899 30.242C242.899 29.9527 242.997 29.71 243.193 29.514C243.389 29.318 243.631 29.22 243.921 29.22C244.201 29.22 244.439 29.318 244.635 29.514C244.831 29.71 244.929 29.9527 244.929 30.242C244.929 30.5313 244.831 30.774 244.635 30.97C244.439 31.166 244.201 31.264 243.921 31.264ZM244.705 32.286V40H243.109V32.286H244.705ZM246.268 36.136C246.268 35.3427 246.427 34.6473 246.744 34.05C247.071 33.4433 247.519 32.9767 248.088 32.65C248.657 32.3233 249.311 32.16 250.048 32.16C250.981 32.16 251.751 32.384 252.358 32.832C252.974 33.2707 253.389 33.9007 253.604 34.722H251.882C251.742 34.3393 251.518 34.0407 251.21 33.826C250.902 33.6113 250.515 33.504 250.048 33.504C249.395 33.504 248.872 33.7373 248.48 34.204C248.097 34.6613 247.906 35.3053 247.906 36.136C247.906 36.9667 248.097 37.6153 248.48 38.082C248.872 38.5487 249.395 38.782 250.048 38.782C250.972 38.782 251.583 38.376 251.882 37.564H253.604C253.38 38.348 252.96 38.9733 252.344 39.44C251.728 39.8973 250.963 40.126 250.048 40.126C249.311 40.126 248.657 39.9627 248.088 39.636C247.519 39.3 247.071 38.8333 246.744 38.236C246.427 37.6293 246.268 36.9293 246.268 36.136ZM262.139 32.286L257.407 43.626H255.755L257.323 39.874L254.285 32.286H256.063L258.233 38.166L260.487 32.286H262.139ZM270.214 33.588H268.786V40H267.176V33.588H266.266V32.286H267.176V31.74C267.176 30.8533 267.409 30.2093 267.876 29.808C268.352 29.3973 269.094 29.192 270.102 29.192V30.522C269.616 30.522 269.276 30.6153 269.08 30.802C268.884 30.9793 268.786 31.292 268.786 31.74V32.286H270.214V33.588ZM274.974 40.126C274.246 40.126 273.588 39.9627 273 39.636C272.412 39.3 271.95 38.8333 271.614 38.236C271.278 37.6293 271.11 36.9293 271.11 36.136C271.11 35.352 271.283 34.6567 271.628 34.05C271.973 33.4433 272.445 32.9767 273.042 32.65C273.639 32.3233 274.307 32.16 275.044 32.16C275.781 32.16 276.449 32.3233 277.046 32.65C277.643 32.9767 278.115 33.4433 278.46 34.05C278.805 34.6567 278.978 35.352 278.978 36.136C278.978 36.92 278.801 37.6153 278.446 38.222C278.091 38.8287 277.606 39.3 276.99 39.636C276.383 39.9627 275.711 40.126 274.974 40.126ZM274.974 38.74C275.385 38.74 275.767 38.642 276.122 38.446C276.486 38.25 276.78 37.956 277.004 37.564C277.228 37.172 277.34 36.696 277.34 36.136C277.34 35.576 277.233 35.1047 277.018 34.722C276.803 34.33 276.519 34.036 276.164 33.84C275.809 33.644 275.427 33.546 275.016 33.546C274.605 33.546 274.223 33.644 273.868 33.84C273.523 34.036 273.247 34.33 273.042 34.722C272.837 35.1047 272.734 35.576 272.734 36.136C272.734 36.9667 272.944 37.6107 273.364 38.068C273.793 38.516 274.33 38.74 274.974 38.74ZM282.152 33.406C282.385 33.014 282.693 32.7107 283.076 32.496C283.468 32.272 283.93 32.16 284.462 32.16V33.812H284.056C283.431 33.812 282.955 33.9707 282.628 34.288C282.311 34.6053 282.152 35.156 282.152 35.94V40H280.556V32.286H282.152V33.406ZM291.162 38.712H294.452V40H289.566V30.27H291.162V38.712ZM298.992 40.098C298.339 40.098 297.751 39.986 297.228 39.762C296.706 39.5287 296.295 39.202 295.996 38.782C295.698 38.362 295.548 37.872 295.548 37.312H297.256C297.294 37.732 297.457 38.0773 297.746 38.348C298.045 38.6187 298.46 38.754 298.992 38.754C299.543 38.754 299.972 38.6233 300.28 38.362C300.588 38.0913 300.742 37.746 300.742 37.326C300.742 36.9993 300.644 36.7333 300.448 36.528C300.262 36.3227 300.024 36.164 299.734 36.052C299.454 35.94 299.062 35.8187 298.558 35.688C297.924 35.52 297.406 35.352 297.004 35.184C296.612 35.0067 296.276 34.736 295.996 34.372C295.716 34.008 295.576 33.5227 295.576 32.916C295.576 32.356 295.716 31.866 295.996 31.446C296.276 31.026 296.668 30.704 297.172 30.48C297.676 30.256 298.26 30.144 298.922 30.144C299.865 30.144 300.635 30.382 301.232 30.858C301.839 31.3247 302.175 31.9687 302.24 32.79H300.476C300.448 32.4353 300.28 32.132 299.972 31.88C299.664 31.628 299.258 31.502 298.754 31.502C298.297 31.502 297.924 31.6187 297.634 31.852C297.345 32.0853 297.2 32.4213 297.2 32.86C297.2 33.1587 297.289 33.406 297.466 33.602C297.653 33.7887 297.886 33.938 298.166 34.05C298.446 34.162 298.829 34.2833 299.314 34.414C299.958 34.5913 300.481 34.7687 300.882 34.946C301.293 35.1233 301.638 35.3987 301.918 35.772C302.208 36.136 302.352 36.626 302.352 37.242C302.352 37.7367 302.217 38.2033 301.946 38.642C301.685 39.0807 301.298 39.4353 300.784 39.706C300.28 39.9673 299.683 40.098 298.992 40.098ZM310.102 38.012H306.028L305.328 40H303.662L307.148 30.256H308.996L312.482 40H310.802L310.102 38.012ZM309.654 36.71L308.072 32.188L306.476 36.71H309.654ZM321.039 33.07C320.787 32.5847 320.437 32.2207 319.989 31.978C319.541 31.726 319.023 31.6 318.435 31.6C317.791 31.6 317.217 31.7447 316.713 32.034C316.209 32.3233 315.813 32.734 315.523 33.266C315.243 33.798 315.103 34.414 315.103 35.114C315.103 35.814 315.243 36.4347 315.523 36.976C315.813 37.508 316.209 37.9187 316.713 38.208C317.217 38.4973 317.791 38.642 318.435 38.642C319.303 38.642 320.008 38.3993 320.549 37.914C321.091 37.4287 321.422 36.7707 321.543 35.94H317.889V34.666H323.251V35.912C323.149 36.668 322.878 37.3633 322.439 37.998C322.01 38.6327 321.445 39.1413 320.745 39.524C320.055 39.8973 319.285 40.084 318.435 40.084C317.521 40.084 316.685 39.874 315.929 39.454C315.173 39.0247 314.571 38.432 314.123 37.676C313.685 36.92 313.465 36.066 313.465 35.114C313.465 34.162 313.685 33.308 314.123 32.552C314.571 31.796 315.173 31.208 315.929 30.788C316.695 30.3587 317.53 30.144 318.435 30.144C319.471 30.144 320.391 30.4007 321.193 30.914C322.005 31.418 322.593 32.1367 322.957 33.07H321.039ZM329.134 37.83C330.03 37.0553 330.735 36.4207 331.248 35.926C331.771 35.422 332.205 34.8993 332.55 34.358C332.895 33.8167 333.068 33.2753 333.068 32.734C333.068 32.174 332.933 31.7353 332.662 31.418C332.401 31.1007 331.985 30.942 331.416 30.942C330.865 30.942 330.436 31.1193 330.128 31.474C329.829 31.8193 329.671 32.286 329.652 32.874H328.112C328.14 31.81 328.457 30.998 329.064 30.438C329.68 29.8687 330.459 29.584 331.402 29.584C332.419 29.584 333.213 29.864 333.782 30.424C334.361 30.984 334.65 31.7307 334.65 32.664C334.65 33.336 334.477 33.9847 334.132 34.61C333.796 35.226 333.39 35.7813 332.914 36.276C332.447 36.7613 331.85 37.326 331.122 37.97L330.492 38.53H334.93V39.86H328.126V38.698L329.134 37.83ZM336.332 34.764C336.332 33.1493 336.603 31.8893 337.144 30.984C337.695 30.0693 338.638 29.612 339.972 29.612C341.307 29.612 342.245 30.0693 342.786 30.984C343.337 31.8893 343.612 33.1493 343.612 34.764C343.612 36.3973 343.337 37.676 342.786 38.6C342.245 39.5147 341.307 39.972 339.972 39.972C338.638 39.972 337.695 39.5147 337.144 38.6C336.603 37.676 336.332 36.3973 336.332 34.764ZM342.044 34.764C342.044 34.008 341.993 33.3687 341.89 32.846C341.797 32.3233 341.601 31.8987 341.302 31.572C341.004 31.236 340.56 31.068 339.972 31.068C339.384 31.068 338.941 31.236 338.642 31.572C338.344 31.8987 338.143 32.3233 338.04 32.846C337.947 33.3687 337.9 34.008 337.9 34.764C337.9 35.548 337.947 36.206 338.04 36.738C338.134 37.27 338.33 37.6993 338.628 38.026C338.936 38.3527 339.384 38.516 339.972 38.516C340.56 38.516 341.004 38.3527 341.302 38.026C341.61 37.6993 341.811 37.27 341.904 36.738C341.998 36.206 342.044 35.548 342.044 34.764ZM346.183 37.83C347.079 37.0553 347.784 36.4207 348.297 35.926C348.82 35.422 349.254 34.8993 349.599 34.358C349.944 33.8167 350.117 33.2753 350.117 32.734C350.117 32.174 349.982 31.7353 349.711 31.418C349.45 31.1007 349.034 30.942 348.465 30.942C347.914 30.942 347.485 31.1193 347.177 31.474C346.878 31.8193 346.72 32.286 346.701 32.874H345.161C345.189 31.81 345.506 30.998 346.113 30.438C346.729 29.8687 347.508 29.584 348.451 29.584C349.468 29.584 350.262 29.864 350.831 30.424C351.41 30.984 351.699 31.7307 351.699 32.664C351.699 33.336 351.526 33.9847 351.181 34.61C350.845 35.226 350.439 35.7813 349.963 36.276C349.496 36.7613 348.899 37.326 348.171 37.97L347.541 38.53H351.979V39.86H345.175V38.698L346.183 37.83ZM353.353 32.314C353.409 31.446 353.74 30.7693 354.347 30.284C354.963 29.7987 355.747 29.556 356.699 29.556C357.352 29.556 357.917 29.6727 358.393 29.906C358.869 30.1393 359.228 30.4567 359.471 30.858C359.714 31.2593 359.835 31.712 359.835 32.216C359.835 32.7947 359.681 33.2893 359.373 33.7C359.065 34.1107 358.696 34.386 358.267 34.526V34.582C358.818 34.75 359.247 35.058 359.555 35.506C359.863 35.9447 360.017 36.5093 360.017 37.2C360.017 37.7507 359.891 38.2407 359.639 38.67C359.387 39.0993 359.014 39.44 358.519 39.692C358.024 39.9347 357.432 40.056 356.741 40.056C355.733 40.056 354.902 39.7993 354.249 39.286C353.605 38.7633 353.26 38.0167 353.213 37.046H354.753C354.79 37.5407 354.982 37.9467 355.327 38.264C355.672 38.572 356.139 38.726 356.727 38.726C357.296 38.726 357.735 38.572 358.043 38.264C358.351 37.9467 358.505 37.5407 358.505 37.046C358.505 36.3927 358.295 35.9307 357.875 35.66C357.464 35.38 356.83 35.24 355.971 35.24H355.607V33.924H355.985C356.741 33.9147 357.315 33.7887 357.707 33.546C358.108 33.3033 358.309 32.9207 358.309 32.398C358.309 31.95 358.164 31.5953 357.875 31.334C357.586 31.0633 357.175 30.928 356.643 30.928C356.12 30.928 355.714 31.0633 355.425 31.334C355.136 31.5953 354.963 31.922 354.907 32.314H353.353ZM365.008 35.114C365.008 34.162 365.228 33.308 365.666 32.552C366.114 31.796 366.716 31.208 367.472 30.788C368.238 30.3587 369.073 30.144 369.978 30.144C371.014 30.144 371.934 30.4007 372.736 30.914C373.548 31.418 374.136 32.1367 374.5 33.07H372.582C372.33 32.5567 371.98 32.174 371.532 31.922C371.084 31.67 370.566 31.544 369.978 31.544C369.334 31.544 368.76 31.6887 368.256 31.978C367.752 32.2673 367.356 32.6827 367.066 33.224C366.786 33.7653 366.646 34.3953 366.646 35.114C366.646 35.8327 366.786 36.4627 367.066 37.004C367.356 37.5453 367.752 37.9653 368.256 38.264C368.76 38.5533 369.334 38.698 369.978 38.698C370.566 38.698 371.084 38.572 371.532 38.32C371.98 38.068 372.33 37.6853 372.582 37.172H374.5C374.136 38.1053 373.548 38.824 372.736 39.328C371.934 39.832 371.014 40.084 369.978 40.084C369.064 40.084 368.228 39.874 367.472 39.454C366.716 39.0247 366.114 38.432 365.666 37.676C365.228 36.92 365.008 36.066 365.008 35.114ZM379.714 40.126C378.986 40.126 378.328 39.9627 377.74 39.636C377.152 39.3 376.69 38.8333 376.354 38.236C376.018 37.6293 375.85 36.9293 375.85 36.136C375.85 35.352 376.023 34.6567 376.368 34.05C376.714 33.4433 377.185 32.9767 377.782 32.65C378.38 32.3233 379.047 32.16 379.784 32.16C380.522 32.16 381.189 32.3233 381.786 32.65C382.384 32.9767 382.855 33.4433 383.2 34.05C383.546 34.6567 383.718 35.352 383.718 36.136C383.718 36.92 383.541 37.6153 383.186 38.222C382.832 38.8287 382.346 39.3 381.73 39.636C381.124 39.9627 380.452 40.126 379.714 40.126ZM379.714 38.74C380.125 38.74 380.508 38.642 380.862 38.446C381.226 38.25 381.52 37.956 381.744 37.564C381.968 37.172 382.08 36.696 382.08 36.136C382.08 35.576 381.973 35.1047 381.758 34.722C381.544 34.33 381.259 34.036 380.904 33.84C380.55 33.644 380.167 33.546 379.756 33.546C379.346 33.546 378.963 33.644 378.608 33.84C378.263 34.036 377.988 34.33 377.782 34.722C377.577 35.1047 377.474 35.576 377.474 36.136C377.474 36.9667 377.684 37.6107 378.104 38.068C378.534 38.516 379.07 38.74 379.714 38.74ZM394.634 32.16C395.241 32.16 395.782 32.286 396.258 32.538C396.743 32.79 397.121 33.1633 397.392 33.658C397.672 34.1527 397.812 34.75 397.812 35.45V40H396.23V35.688C396.23 34.9973 396.057 34.47 395.712 34.106C395.367 33.7327 394.895 33.546 394.298 33.546C393.701 33.546 393.225 33.7327 392.87 34.106C392.525 34.47 392.352 34.9973 392.352 35.688V40H390.77V35.688C390.77 34.9973 390.597 34.47 390.252 34.106C389.907 33.7327 389.435 33.546 388.838 33.546C388.241 33.546 387.765 33.7327 387.41 34.106C387.065 34.47 386.892 34.9973 386.892 35.688V40H385.296V32.286H386.892V33.168C387.153 32.8507 387.485 32.6033 387.886 32.426C388.287 32.2487 388.717 32.16 389.174 32.16C389.79 32.16 390.341 32.2907 390.826 32.552C391.311 32.8133 391.685 33.1913 391.946 33.686C392.179 33.2193 392.543 32.8507 393.038 32.58C393.533 32.3 394.065 32.16 394.634 32.16ZM401.439 33.42C401.71 33.0653 402.078 32.7667 402.545 32.524C403.012 32.2813 403.539 32.16 404.127 32.16C404.799 32.16 405.41 32.328 405.961 32.664C406.521 32.9907 406.96 33.4527 407.277 34.05C407.594 34.6473 407.753 35.3333 407.753 36.108C407.753 36.8827 407.594 37.578 407.277 38.194C406.96 38.8007 406.521 39.2767 405.961 39.622C405.41 39.958 404.799 40.126 404.127 40.126C403.539 40.126 403.016 40.0093 402.559 39.776C402.102 39.5333 401.728 39.2347 401.439 38.88V43.668H399.843V32.286H401.439V33.42ZM406.129 36.108C406.129 35.576 406.017 35.1187 405.793 34.736C405.578 34.344 405.289 34.05 404.925 33.854C404.57 33.6487 404.188 33.546 403.777 33.546C403.376 33.546 402.993 33.6487 402.629 33.854C402.274 34.0593 401.985 34.358 401.761 34.75C401.546 35.142 401.439 35.604 401.439 36.136C401.439 36.668 401.546 37.1347 401.761 37.536C401.985 37.928 402.274 38.2267 402.629 38.432C402.993 38.6373 403.376 38.74 403.777 38.74C404.188 38.74 404.57 38.6373 404.925 38.432C405.289 38.2173 405.578 37.9093 405.793 37.508C406.017 37.1067 406.129 36.64 406.129 36.108ZM410.927 29.64V40H409.331V29.64H410.927ZM413.835 31.264C413.545 31.264 413.303 31.166 413.107 30.97C412.911 30.774 412.813 30.5313 412.813 30.242C412.813 29.9527 412.911 29.71 413.107 29.514C413.303 29.318 413.545 29.22 413.835 29.22C414.115 29.22 414.353 29.318 414.549 29.514C414.745 29.71 414.843 29.9527 414.843 30.242C414.843 30.5313 414.745 30.774 414.549 30.97C414.353 31.166 414.115 31.264 413.835 31.264ZM414.619 32.286V40H413.023V32.286H414.619ZM416.182 36.108C416.182 35.3333 416.341 34.6473 416.658 34.05C416.985 33.4527 417.423 32.9907 417.974 32.664C418.534 32.328 419.15 32.16 419.822 32.16C420.429 32.16 420.956 32.2813 421.404 32.524C421.861 32.7573 422.225 33.0513 422.496 33.406V32.286H424.106V40H422.496V38.852C422.225 39.216 421.857 39.5193 421.39 39.762C420.923 40.0047 420.391 40.126 419.794 40.126C419.131 40.126 418.525 39.958 417.974 39.622C417.423 39.2767 416.985 38.8007 416.658 38.194C416.341 37.578 416.182 36.8827 416.182 36.108ZM422.496 36.136C422.496 35.604 422.384 35.142 422.16 34.75C421.945 34.358 421.661 34.0593 421.306 33.854C420.951 33.6487 420.569 33.546 420.158 33.546C419.747 33.546 419.365 33.6487 419.01 33.854C418.655 34.05 418.366 34.344 418.142 34.736C417.927 35.1187 417.82 35.576 417.82 36.108C417.82 36.64 417.927 37.1067 418.142 37.508C418.366 37.9093 418.655 38.2173 419.01 38.432C419.374 38.6373 419.757 38.74 420.158 38.74C420.569 38.74 420.951 38.6373 421.306 38.432C421.661 38.2267 421.945 37.928 422.16 37.536C422.384 37.1347 422.496 36.668 422.496 36.136ZM430.094 32.16C430.701 32.16 431.242 32.286 431.718 32.538C432.204 32.79 432.582 33.1633 432.852 33.658C433.123 34.1527 433.258 34.75 433.258 35.45V40H431.676V35.688C431.676 34.9973 431.504 34.47 431.158 34.106C430.813 33.7327 430.342 33.546 429.744 33.546C429.147 33.546 428.671 33.7327 428.316 34.106C427.971 34.47 427.798 34.9973 427.798 35.688V40H426.202V32.286H427.798V33.168C428.06 32.8507 428.391 32.6033 428.792 32.426C429.203 32.2487 429.637 32.16 430.094 32.16ZM434.762 36.136C434.762 35.3427 434.921 34.6473 435.238 34.05C435.565 33.4433 436.013 32.9767 436.582 32.65C437.151 32.3233 437.805 32.16 438.542 32.16C439.475 32.16 440.245 32.384 440.852 32.832C441.468 33.2707 441.883 33.9007 442.098 34.722H440.376C440.236 34.3393 440.012 34.0407 439.704 33.826C439.396 33.6113 439.009 33.504 438.542 33.504C437.889 33.504 437.366 33.7373 436.974 34.204C436.591 34.6613 436.4 35.3053 436.4 36.136C436.4 36.9667 436.591 37.6153 436.974 38.082C437.366 38.5487 437.889 38.782 438.542 38.782C439.466 38.782 440.077 38.376 440.376 37.564H442.098C441.874 38.348 441.454 38.9733 440.838 39.44C440.222 39.8973 439.457 40.126 438.542 40.126C437.805 40.126 437.151 39.9627 436.582 39.636C436.013 39.3 435.565 38.8333 435.238 38.236C434.921 37.6293 434.762 36.9293 434.762 36.136ZM450.759 35.954C450.759 36.2433 450.74 36.5047 450.703 36.738H444.809C444.855 37.354 445.084 37.8487 445.495 38.222C445.905 38.5953 446.409 38.782 447.007 38.782C447.865 38.782 448.472 38.4227 448.827 37.704H450.549C450.315 38.4133 449.891 38.9967 449.275 39.454C448.668 39.902 447.912 40.126 447.007 40.126C446.269 40.126 445.607 39.9627 445.019 39.636C444.44 39.3 443.983 38.8333 443.647 38.236C443.32 37.6293 443.157 36.9293 443.157 36.136C443.157 35.3427 443.315 34.6473 443.633 34.05C443.959 33.4433 444.412 32.9767 444.991 32.65C445.579 32.3233 446.251 32.16 447.007 32.16C447.735 32.16 448.383 32.3187 448.953 32.636C449.522 32.9533 449.965 33.4013 450.283 33.98C450.6 34.5493 450.759 35.2073 450.759 35.954ZM449.093 35.45C449.083 34.862 448.873 34.3907 448.463 34.036C448.052 33.6813 447.543 33.504 446.937 33.504C446.386 33.504 445.915 33.6813 445.523 34.036C445.131 34.3813 444.897 34.8527 444.823 35.45H449.093ZM452.973 40.098C452.684 40.098 452.441 40 452.245 39.804C452.049 39.608 451.951 39.3653 451.951 39.076C451.951 38.7867 452.049 38.544 452.245 38.348C452.441 38.152 452.684 38.054 452.973 38.054C453.253 38.054 453.491 38.152 453.687 38.348C453.883 38.544 453.981 38.7867 453.981 39.076C453.981 39.3653 453.883 39.608 453.687 39.804C453.491 40 453.253 40.098 452.973 40.098Z" fill="black"/>
</g>
<defs>
<filter id="filter0_d_833_11663" x="0.7" y="0.7" width="480.6" height="72.6" filterUnits="userSpaceOnUse" color-interpolation-filters="sRGB">
<feFlood flood-opacity="0" result="BackgroundImageFix"/>
<feColorMatrix in="SourceAlpha" type="matrix" values="0 0 0 0 0 0 0 0 0 0 0 0 0 0 0 0 0 0 127 0" result="hardAlpha"/>
<feOffset dy="2"/>
<feGaussianBlur stdDeviation="5.15"/>
<feComposite in2="hardAlpha" operator="out"/>
<feColorMatrix type="matrix" values="0 0 0 0 0 0 0 0 0 0 0 0 0 0 0 0 0 0 0.1 0"/>
<feBlend mode="normal" in2="BackgroundImageFix" result="effect1_dropShadow_833_11663"/>
<feBlend mode="normal" in="SourceGraphic" in2="effect1_dropShadow_833_11663" result="shape"/>
</filter>
</defs>
</svg>
