<svg width="620" height="80" viewBox="0 0 620 80" fill="none" xmlns="http://www.w3.org/2000/svg">
<g clip-path="url(#clip0_840_1101)">
<rect y="80" width="80" height="620" rx="12" transform="rotate(-90 0 80)" fill="#F0F0F0"/>
<path fill-rule="evenodd" clip-rule="evenodd" d="M27.3333 57.0002C27.3333 53.3182 30.318 50.3335 34 50.3335C37.682 50.3335 40.6666 53.3182 40.6666 57.0002C40.6666 60.6822 37.682 63.6668 34 63.6668C30.318 63.6668 27.3333 60.6822 27.3333 57.0002ZM34 51.6668C32.5855 51.6668 31.2289 52.2287 30.2287 53.2289C29.2285 54.2291 28.6666 55.5857 28.6666 57.0002C28.6666 58.4146 29.2285 59.7712 30.2287 60.7714C31.2289 61.7716 32.5855 62.3335 34 62.3335C35.4145 62.3335 36.771 61.7716 37.7712 60.7714C38.7714 59.7712 39.3333 58.4146 39.3333 57.0002C39.3333 55.5857 38.7714 54.2291 37.7712 53.2289C36.771 52.2287 35.4145 51.6668 34 51.6668Z" fill="#73726D"/>
<path fill-rule="evenodd" clip-rule="evenodd" d="M34.6667 53.6667C34.6667 53.4899 34.5964 53.3203 34.4714 53.1953C34.3464 53.0702 34.1768 53 34 53C33.8232 53 33.6536 53.0702 33.5286 53.1953C33.4036 53.3203 33.3333 53.4899 33.3333 53.6667V56.3333H30.6667C30.4899 56.3333 30.3203 56.4036 30.1953 56.5286C30.0702 56.6536 30 56.8232 30 57C30 57.1768 30.0702 57.3464 30.1953 57.4714C30.3203 57.5964 30.4899 57.6667 30.6667 57.6667H33.3333V60.3333C33.3333 60.5101 33.4036 60.6797 33.5286 60.8047C33.6536 60.9298 33.8232 61 34 61C34.1768 61 34.3464 60.9298 34.4714 60.8047C34.5964 60.6797 34.6667 60.5101 34.6667 60.3333V57.6667H37.3333C37.5101 57.6667 37.6797 57.5964 37.8047 57.4714C37.9298 57.3464 38 57.1768 38 57C38 56.8232 37.9298 56.6536 37.8047 56.5286C37.6797 56.4036 37.5101 56.3333 37.3333 56.3333H34.6667V53.6667Z" fill="#73726D"/>
<path d="M47.992 52.636V57.928C47.992 58.672 48.172 59.224 48.532 59.584C48.9 59.944 49.408 60.124 50.056 60.124C50.696 60.124 51.196 59.944 51.556 59.584C51.924 59.224 52.108 58.672 52.108 57.928V52.636H53.2V57.916C53.2 58.612 53.06 59.2 52.78 59.68C52.5 60.152 52.12 60.504 51.64 60.736C51.168 60.968 50.636 61.084 50.044 61.084C49.452 61.084 48.916 60.968 48.436 60.736C47.964 60.504 47.588 60.152 47.308 59.68C47.036 59.2 46.9 58.612 46.9 57.916V52.636H47.992ZM56.1137 55.636C56.3297 55.26 56.6497 54.948 57.0737 54.7C57.5057 54.444 58.0057 54.316 58.5737 54.316C59.1577 54.316 59.6857 54.456 60.1577 54.736C60.6377 55.016 61.0137 55.412 61.2857 55.924C61.5577 56.428 61.6937 57.016 61.6937 57.688C61.6937 58.352 61.5577 58.944 61.2857 59.464C61.0137 59.984 60.6377 60.388 60.1577 60.676C59.6857 60.964 59.1577 61.108 58.5737 61.108C58.0137 61.108 57.5177 60.984 57.0857 60.736C56.6617 60.48 56.3377 60.164 56.1137 59.788V64.12H55.0217V54.424H56.1137V55.636ZM60.5777 57.688C60.5777 57.192 60.4777 56.76 60.2777 56.392C60.0777 56.024 59.8057 55.744 59.4617 55.552C59.1257 55.36 58.7537 55.264 58.3457 55.264C57.9457 55.264 57.5737 55.364 57.2297 55.564C56.8937 55.756 56.6217 56.04 56.4137 56.416C56.2137 56.784 56.1137 57.212 56.1137 57.7C56.1137 58.196 56.2137 58.632 56.4137 59.008C56.6217 59.376 56.8937 59.66 57.2297 59.86C57.5737 60.052 57.9457 60.148 58.3457 60.148C58.7537 60.148 59.1257 60.052 59.4617 59.86C59.8057 59.66 60.0777 59.376 60.2777 59.008C60.4777 58.632 60.5777 58.192 60.5777 57.688ZM64.223 52.12V61H63.131V52.12H64.223ZM68.9522 61.108C68.3362 61.108 67.7762 60.968 67.2722 60.688C66.7762 60.408 66.3842 60.012 66.0962 59.5C65.8162 58.98 65.6762 58.38 65.6762 57.7C65.6762 57.028 65.8202 56.436 66.1082 55.924C66.4042 55.404 66.8042 55.008 67.3082 54.736C67.8122 54.456 68.3762 54.316 69.0002 54.316C69.6242 54.316 70.1882 54.456 70.6922 54.736C71.1962 55.008 71.5922 55.4 71.8802 55.912C72.1762 56.424 72.3242 57.02 72.3242 57.7C72.3242 58.38 72.1722 58.98 71.8682 59.5C71.5722 60.012 71.1682 60.408 70.6562 60.688C70.1442 60.968 69.5762 61.108 68.9522 61.108ZM68.9522 60.148C69.3442 60.148 69.7122 60.056 70.0562 59.872C70.4002 59.688 70.6762 59.412 70.8842 59.044C71.1002 58.676 71.2082 58.228 71.2082 57.7C71.2082 57.172 71.1042 56.724 70.8962 56.356C70.6882 55.988 70.4162 55.716 70.0802 55.54C69.7442 55.356 69.3802 55.264 68.9882 55.264C68.5882 55.264 68.2202 55.356 67.8842 55.54C67.5562 55.716 67.2922 55.988 67.0922 56.356C66.8922 56.724 66.7922 57.172 66.7922 57.7C66.7922 58.236 66.8882 58.688 67.0802 59.056C67.2802 59.424 67.5442 59.7 67.8722 59.884C68.2002 60.06 68.5602 60.148 68.9522 60.148ZM73.3519 57.688C73.3519 57.016 73.4879 56.428 73.7599 55.924C74.0319 55.412 74.4039 55.016 74.8759 54.736C75.3559 54.456 75.8879 54.316 76.4719 54.316C77.0479 54.316 77.5479 54.44 77.9719 54.688C78.3959 54.936 78.7119 55.248 78.9199 55.624V54.424H80.0239V61H78.9199V59.776C78.7039 60.16 78.3799 60.48 77.9479 60.736C77.5239 60.984 77.0279 61.108 76.4599 61.108C75.8759 61.108 75.3479 60.964 74.8759 60.676C74.4039 60.388 74.0319 59.984 73.7599 59.464C73.4879 58.944 73.3519 58.352 73.3519 57.688ZM78.9199 57.7C78.9199 57.204 78.8199 56.772 78.6199 56.404C78.4199 56.036 78.1479 55.756 77.8039 55.564C77.4679 55.364 77.0959 55.264 76.6879 55.264C76.2799 55.264 75.9079 55.36 75.5719 55.552C75.2359 55.744 74.9679 56.024 74.7679 56.392C74.5679 56.76 74.4679 57.192 74.4679 57.688C74.4679 58.192 74.5679 58.632 74.7679 59.008C74.9679 59.376 75.2359 59.66 75.5719 59.86C75.9079 60.052 76.2799 60.148 76.6879 60.148C77.0959 60.148 77.4679 60.052 77.8039 59.86C78.1479 59.66 78.4199 59.376 78.6199 59.008C78.8199 58.632 78.9199 58.196 78.9199 57.7ZM81.4613 57.688C81.4613 57.016 81.5973 56.428 81.8693 55.924C82.1413 55.412 82.5133 55.016 82.9853 54.736C83.4653 54.456 84.0013 54.316 84.5933 54.316C85.1053 54.316 85.5813 54.436 86.0213 54.676C86.4613 54.908 86.7973 55.216 87.0293 55.6V52.12H88.1333V61H87.0293V59.764C86.8133 60.156 86.4933 60.48 86.0693 60.736C85.6453 60.984 85.1493 61.108 84.5813 61.108C83.9973 61.108 83.4653 60.964 82.9853 60.676C82.5133 60.388 82.1413 59.984 81.8693 59.464C81.5973 58.944 81.4613 58.352 81.4613 57.688ZM87.0293 57.7C87.0293 57.204 86.9293 56.772 86.7293 56.404C86.5293 56.036 86.2573 55.756 85.9133 55.564C85.5773 55.364 85.2053 55.264 84.7973 55.264C84.3893 55.264 84.0173 55.36 83.6813 55.552C83.3453 55.744 83.0773 56.024 82.8773 56.392C82.6773 56.76 82.5773 57.192 82.5773 57.688C82.5773 58.192 82.6773 58.632 82.8773 59.008C83.0773 59.376 83.3453 59.66 83.6813 59.86C84.0173 60.052 84.3893 60.148 84.7973 60.148C85.2053 60.148 85.5773 60.052 85.9133 59.86C86.2573 59.66 86.5293 59.376 86.7293 59.008C86.9293 58.632 87.0293 58.196 87.0293 57.7ZM97.9059 52.636V53.524H94.2699V56.344H97.2219V57.232H94.2699V61H93.1779V52.636H97.9059ZM99.7888 53.356C99.5808 53.356 99.4048 53.284 99.2608 53.14C99.1168 52.996 99.0448 52.82 99.0448 52.612C99.0448 52.404 99.1168 52.228 99.2608 52.084C99.4048 51.94 99.5808 51.868 99.7888 51.868C99.9888 51.868 100.157 51.94 100.293 52.084C100.437 52.228 100.509 52.404 100.509 52.612C100.509 52.82 100.437 52.996 100.293 53.14C100.157 53.284 99.9888 53.356 99.7888 53.356ZM100.317 54.424V61H99.2248V54.424H100.317ZM103.27 52.12V61H102.178V52.12H103.27ZM111.131 57.46C111.131 57.668 111.119 57.888 111.095 58.12H105.839C105.879 58.768 106.099 59.276 106.499 59.644C106.907 60.004 107.399 60.184 107.975 60.184C108.447 60.184 108.839 60.076 109.151 59.86C109.471 59.636 109.695 59.34 109.823 58.972H110.999C110.823 59.604 110.471 60.12 109.943 60.52C109.415 60.912 108.759 61.108 107.975 61.108C107.351 61.108 106.791 60.968 106.295 60.688C105.807 60.408 105.423 60.012 105.143 59.5C104.863 58.98 104.723 58.38 104.723 57.7C104.723 57.02 104.859 56.424 105.131 55.912C105.403 55.4 105.783 55.008 106.271 54.736C106.767 54.456 107.335 54.316 107.975 54.316C108.599 54.316 109.151 54.452 109.631 54.724C110.111 54.996 110.479 55.372 110.735 55.852C110.999 56.324 111.131 56.86 111.131 57.46ZM110.003 57.232C110.003 56.816 109.911 56.46 109.727 56.164C109.543 55.86 109.291 55.632 108.971 55.48C108.659 55.32 108.311 55.24 107.927 55.24C107.375 55.24 106.903 55.416 106.511 55.768C106.127 56.12 105.907 56.608 105.851 57.232H110.003ZM114.9 61.108C114.396 61.108 113.944 61.024 113.544 60.856C113.144 60.68 112.828 60.44 112.596 60.136C112.364 59.824 112.236 59.468 112.212 59.068H113.34C113.372 59.396 113.524 59.664 113.796 59.872C114.076 60.08 114.44 60.184 114.888 60.184C115.304 60.184 115.632 60.092 115.872 59.908C116.112 59.724 116.232 59.492 116.232 59.212C116.232 58.924 116.104 58.712 115.848 58.576C115.592 58.432 115.196 58.292 114.66 58.156C114.172 58.028 113.772 57.9 113.46 57.772C113.156 57.636 112.892 57.44 112.668 57.184C112.452 56.92 112.344 56.576 112.344 56.152C112.344 55.816 112.444 55.508 112.644 55.228C112.844 54.948 113.128 54.728 113.496 54.568C113.864 54.4 114.284 54.316 114.756 54.316C115.484 54.316 116.072 54.5 116.52 54.868C116.968 55.236 117.208 55.74 117.24 56.38H116.148C116.124 56.036 115.984 55.76 115.728 55.552C115.48 55.344 115.144 55.24 114.72 55.24C114.328 55.24 114.016 55.324 113.784 55.492C113.552 55.66 113.436 55.88 113.436 56.152C113.436 56.368 113.504 56.548 113.64 56.692C113.784 56.828 113.96 56.94 114.168 57.028C114.384 57.108 114.68 57.2 115.056 57.304C115.528 57.432 115.912 57.56 116.208 57.688C116.504 57.808 116.756 57.992 116.964 58.24C117.18 58.488 117.292 58.812 117.3 59.212C117.3 59.572 117.2 59.896 117 60.184C116.8 60.472 116.516 60.7 116.148 60.868C115.788 61.028 115.372 61.108 114.9 61.108Z" fill="#73726D"/>
<circle cx="583" cy="57" r="12" fill="#07378C"/>
<path fill-rule="evenodd" clip-rule="evenodd" d="M586.637 57.6222L581.687 62.5721L580.45 61.3348L584.781 57.0036L580.45 52.6723L581.687 51.4351L586.637 56.3849C586.801 56.549 586.894 56.7715 586.894 57.0036C586.894 57.2356 586.801 57.4581 586.637 57.6222Z" fill="white"/>
<path d="M40.526 19.49V32H38.474V23.432L34.658 32H33.236L29.402 23.432V32H27.35V19.49H29.564L33.956 29.3L38.33 19.49H40.526ZM52.313 26.798C52.313 27.17 52.289 27.506 52.241 27.806H44.663C44.723 28.598 45.017 29.234 45.545 29.714C46.073 30.194 46.721 30.434 47.489 30.434C48.593 30.434 49.373 29.972 49.829 29.048H52.043C51.743 29.96 51.197 30.71 50.405 31.298C49.625 31.874 48.653 32.162 47.489 32.162C46.541 32.162 45.689 31.952 44.933 31.532C44.189 31.1 43.601 30.5 43.169 29.732C42.749 28.952 42.539 28.052 42.539 27.032C42.539 26.012 42.743 25.118 43.151 24.35C43.571 23.57 44.153 22.97 44.897 22.55C45.653 22.13 46.517 21.92 47.489 21.92C48.425 21.92 49.259 22.124 49.991 22.532C50.723 22.94 51.293 23.516 51.701 24.26C52.109 24.992 52.313 25.838 52.313 26.798ZM50.171 26.15C50.159 25.394 49.889 24.788 49.361 24.332C48.833 23.876 48.179 23.648 47.399 23.648C46.691 23.648 46.085 23.876 45.581 24.332C45.077 24.776 44.777 25.382 44.681 26.15H50.171ZM57.9324 32.162C57.1524 32.162 56.4504 32.024 55.8264 31.748C55.2144 31.46 54.7284 31.076 54.3684 30.596C54.0084 30.104 53.8164 29.558 53.7924 28.958H55.9164C55.9524 29.378 56.1504 29.732 56.5104 30.02C56.8824 30.296 57.3444 30.434 57.8964 30.434C58.4724 30.434 58.9164 30.326 59.2284 30.11C59.5524 29.882 59.7144 29.594 59.7144 29.246C59.7144 28.874 59.5344 28.598 59.1744 28.418C58.8264 28.238 58.2684 28.04 57.5004 27.824C56.7564 27.62 56.1504 27.422 55.6824 27.23C55.2144 27.038 54.8064 26.744 54.4584 26.348C54.1224 25.952 53.9544 25.43 53.9544 24.782C53.9544 24.254 54.1104 23.774 54.4224 23.342C54.7344 22.898 55.1784 22.55 55.7544 22.298C56.3424 22.046 57.0144 21.92 57.7704 21.92C58.8984 21.92 59.8044 22.208 60.4884 22.784C61.1844 23.348 61.5564 24.122 61.6044 25.106H59.5524C59.5164 24.662 59.3364 24.308 59.0124 24.044C58.6884 23.78 58.2504 23.648 57.6984 23.648C57.1584 23.648 56.7444 23.75 56.4564 23.954C56.1684 24.158 56.0244 24.428 56.0244 24.764C56.0244 25.028 56.1204 25.25 56.3124 25.43C56.5044 25.61 56.7384 25.754 57.0144 25.862C57.2904 25.958 57.6984 26.084 58.2384 26.24C58.9584 26.432 59.5464 26.63 60.0024 26.834C60.4704 27.026 60.8724 27.314 61.2084 27.698C61.5444 28.082 61.7184 28.592 61.7304 29.228C61.7304 29.792 61.5744 30.296 61.2624 30.74C60.9504 31.184 60.5064 31.532 59.9304 31.784C59.3664 32.036 58.7004 32.162 57.9324 32.162ZM67.5477 32.162C66.7677 32.162 66.0657 32.024 65.4417 31.748C64.8297 31.46 64.3437 31.076 63.9837 30.596C63.6237 30.104 63.4317 29.558 63.4077 28.958H65.5317C65.5677 29.378 65.7657 29.732 66.1257 30.02C66.4977 30.296 66.9597 30.434 67.5117 30.434C68.0877 30.434 68.5317 30.326 68.8437 30.11C69.1677 29.882 69.3297 29.594 69.3297 29.246C69.3297 28.874 69.1497 28.598 68.7897 28.418C68.4417 28.238 67.8837 28.04 67.1157 27.824C66.3717 27.62 65.7657 27.422 65.2977 27.23C64.8297 27.038 64.4217 26.744 64.0737 26.348C63.7377 25.952 63.5697 25.43 63.5697 24.782C63.5697 24.254 63.7257 23.774 64.0377 23.342C64.3497 22.898 64.7937 22.55 65.3697 22.298C65.9577 22.046 66.6297 21.92 67.3857 21.92C68.5137 21.92 69.4197 22.208 70.1037 22.784C70.7997 23.348 71.1717 24.122 71.2197 25.106H69.1677C69.1317 24.662 68.9517 24.308 68.6277 24.044C68.3037 23.78 67.8657 23.648 67.3137 23.648C66.7737 23.648 66.3597 23.75 66.0717 23.954C65.7837 24.158 65.6397 24.428 65.6397 24.764C65.6397 25.028 65.7357 25.25 65.9277 25.43C66.1197 25.61 66.3537 25.754 66.6297 25.862C66.9057 25.958 67.3137 26.084 67.8537 26.24C68.5737 26.432 69.1617 26.63 69.6177 26.834C70.0857 27.026 70.4877 27.314 70.8237 27.698C71.1597 28.082 71.3337 28.592 71.3457 29.228C71.3457 29.792 71.1897 30.296 70.8777 30.74C70.5657 31.184 70.1217 31.532 69.5457 31.784C68.9817 32.036 68.3157 32.162 67.5477 32.162ZM72.8789 26.996C72.8789 26 73.0829 25.118 73.4909 24.35C73.9109 23.582 74.4749 22.988 75.1829 22.568C75.9029 22.136 76.6949 21.92 77.5589 21.92C78.3389 21.92 79.0169 22.076 79.5929 22.388C80.1809 22.688 80.6489 23.066 80.9969 23.522V22.082H83.0669V32H80.9969V30.524C80.6489 30.992 80.1749 31.382 79.5749 31.694C78.9749 32.006 78.2909 32.162 77.5229 32.162C76.6709 32.162 75.8909 31.946 75.1829 31.514C74.4749 31.07 73.9109 30.458 73.4909 29.678C73.0829 28.886 72.8789 27.992 72.8789 26.996ZM80.9969 27.032C80.9969 26.348 80.8529 25.754 80.5649 25.25C80.2889 24.746 79.9229 24.362 79.4669 24.098C79.0109 23.834 78.5189 23.702 77.9909 23.702C77.4629 23.702 76.9709 23.834 76.5149 24.098C76.0589 24.35 75.6869 24.728 75.3989 25.232C75.1229 25.724 74.9849 26.312 74.9849 26.996C74.9849 27.68 75.1229 28.28 75.3989 28.796C75.6869 29.312 76.0589 29.708 76.5149 29.984C76.9829 30.248 77.4749 30.38 77.9909 30.38C78.5189 30.38 79.0109 30.248 79.4669 29.984C79.9229 29.72 80.2889 29.336 80.5649 28.832C80.8529 28.316 80.9969 27.716 80.9969 27.032ZM89.7581 21.92C90.5261 21.92 91.2041 22.076 91.7921 22.388C92.3921 22.688 92.8601 23.066 93.1961 23.522V22.082H95.2661V32.162C95.2661 33.074 95.0741 33.884 94.6901 34.592C94.3061 35.312 93.7481 35.876 93.0161 36.284C92.2961 36.692 91.4321 36.896 90.4241 36.896C89.0801 36.896 87.9641 36.578 87.0761 35.942C86.1881 35.318 85.6841 34.466 85.5641 33.386H87.5981C87.7541 33.902 88.0841 34.316 88.5881 34.628C89.1041 34.952 89.7161 35.114 90.4241 35.114C91.2521 35.114 91.9181 34.862 92.4221 34.358C92.9381 33.854 93.1961 33.122 93.1961 32.162V30.506C92.8481 30.974 92.3741 31.37 91.7741 31.694C91.1861 32.006 90.5141 32.162 89.7581 32.162C88.8941 32.162 88.1021 31.946 87.3821 31.514C86.6741 31.07 86.1101 30.458 85.6901 29.678C85.2821 28.886 85.0781 27.992 85.0781 26.996C85.0781 26 85.2821 25.118 85.6901 24.35C86.1101 23.582 86.6741 22.988 87.3821 22.568C88.1021 22.136 88.8941 21.92 89.7581 21.92ZM93.1961 27.032C93.1961 26.348 93.0521 25.754 92.7641 25.25C92.4881 24.746 92.1221 24.362 91.6661 24.098C91.2101 23.834 90.7181 23.702 90.1901 23.702C89.6621 23.702 89.1701 23.834 88.7141 24.098C88.2581 24.35 87.8861 24.728 87.5981 25.232C87.3221 25.724 87.1841 26.312 87.1841 26.996C87.1841 27.68 87.3221 28.28 87.5981 28.796C87.8861 29.312 88.2581 29.708 88.7141 29.984C89.1821 30.248 89.6741 30.38 90.1901 30.38C90.7181 30.38 91.2101 30.248 91.6661 29.984C92.1221 29.72 92.4881 29.336 92.7641 28.832C93.0521 28.316 93.1961 27.716 93.1961 27.032ZM107.051 26.798C107.051 27.17 107.027 27.506 106.979 27.806H99.4013C99.4613 28.598 99.7553 29.234 100.283 29.714C100.811 30.194 101.459 30.434 102.227 30.434C103.331 30.434 104.111 29.972 104.567 29.048H106.781C106.481 29.96 105.935 30.71 105.143 31.298C104.363 31.874 103.391 32.162 102.227 32.162C101.279 32.162 100.427 31.952 99.6713 31.532C98.9273 31.1 98.3393 30.5 97.9073 29.732C97.4873 28.952 97.2773 28.052 97.2773 27.032C97.2773 26.012 97.4813 25.118 97.8893 24.35C98.3093 23.57 98.8913 22.97 99.6353 22.55C100.391 22.13 101.255 21.92 102.227 21.92C103.163 21.92 103.997 22.124 104.729 22.532C105.461 22.94 106.031 23.516 106.439 24.26C106.847 24.992 107.051 25.838 107.051 26.798ZM104.909 26.15C104.897 25.394 104.627 24.788 104.099 24.332C103.571 23.876 102.917 23.648 102.137 23.648C101.429 23.648 100.823 23.876 100.319 24.332C99.8153 24.776 99.5153 25.382 99.4193 26.15H104.909ZM113.062 25.718C113.062 24.494 113.344 23.396 113.908 22.424C114.484 21.452 115.258 20.696 116.23 20.156C117.214 19.604 118.288 19.328 119.452 19.328C120.784 19.328 121.966 19.658 122.998 20.318C124.042 20.966 124.798 21.89 125.266 23.09H122.8C122.476 22.43 122.026 21.938 121.45 21.614C120.874 21.29 120.208 21.128 119.452 21.128C118.624 21.128 117.886 21.314 117.238 21.686C116.59 22.058 116.08 22.592 115.708 23.288C115.348 23.984 115.168 24.794 115.168 25.718C115.168 26.642 115.348 27.452 115.708 28.148C116.08 28.844 116.59 29.384 117.238 29.768C117.886 30.14 118.624 30.326 119.452 30.326C120.208 30.326 120.874 30.164 121.45 29.84C122.026 29.516 122.476 29.024 122.8 28.364H125.266C124.798 29.564 124.042 30.488 122.998 31.136C121.966 31.784 120.784 32.108 119.452 32.108C118.276 32.108 117.202 31.838 116.23 31.298C115.258 30.746 114.484 29.984 113.908 29.012C113.344 28.04 113.062 26.942 113.062 25.718ZM131.97 32.162C131.034 32.162 130.188 31.952 129.432 31.532C128.676 31.1 128.082 30.5 127.65 29.732C127.218 28.952 127.002 28.052 127.002 27.032C127.002 26.024 127.224 25.13 127.668 24.35C128.112 23.57 128.718 22.97 129.486 22.55C130.254 22.13 131.112 21.92 132.06 21.92C133.008 21.92 133.866 22.13 134.634 22.55C135.402 22.97 136.008 23.57 136.452 24.35C136.896 25.13 137.118 26.024 137.118 27.032C137.118 28.04 136.89 28.934 136.434 29.714C135.978 30.494 135.354 31.1 134.562 31.532C133.782 31.952 132.918 32.162 131.97 32.162ZM131.97 30.38C132.498 30.38 132.99 30.254 133.446 30.002C133.914 29.75 134.292 29.372 134.58 28.868C134.868 28.364 135.012 27.752 135.012 27.032C135.012 26.312 134.874 25.706 134.598 25.214C134.322 24.71 133.956 24.332 133.5 24.08C133.044 23.828 132.552 23.702 132.024 23.702C131.496 23.702 131.004 23.828 130.548 24.08C130.104 24.332 129.75 24.71 129.486 25.214C129.222 25.706 129.09 26.312 129.09 27.032C129.09 28.1 129.36 28.928 129.9 29.516C130.452 30.092 131.142 30.38 131.97 30.38ZM151.153 21.92C151.933 21.92 152.629 22.082 153.241 22.406C153.865 22.73 154.351 23.21 154.699 23.846C155.059 24.482 155.239 25.25 155.239 26.15V32H153.205V26.456C153.205 25.568 152.983 24.89 152.539 24.422C152.095 23.942 151.489 23.702 150.721 23.702C149.953 23.702 149.341 23.942 148.885 24.422C148.441 24.89 148.219 25.568 148.219 26.456V32H146.185V26.456C146.185 25.568 145.963 24.89 145.519 24.422C145.075 23.942 144.469 23.702 143.701 23.702C142.933 23.702 142.321 23.942 141.865 24.422C141.421 24.89 141.199 25.568 141.199 26.456V32H139.147V22.082H141.199V23.216C141.535 22.808 141.961 22.49 142.477 22.262C142.993 22.034 143.545 21.92 144.133 21.92C144.925 21.92 145.633 22.088 146.257 22.424C146.881 22.76 147.361 23.246 147.697 23.882C147.997 23.282 148.465 22.808 149.101 22.46C149.737 22.1 150.421 21.92 151.153 21.92ZM159.902 23.54C160.25 23.084 160.724 22.7 161.324 22.388C161.924 22.076 162.602 21.92 163.358 21.92C164.222 21.92 165.008 22.136 165.716 22.568C166.436 22.988 167 23.582 167.408 24.35C167.816 25.118 168.02 26 168.02 26.996C168.02 27.992 167.816 28.886 167.408 29.678C167 30.458 166.436 31.07 165.716 31.514C165.008 31.946 164.222 32.162 163.358 32.162C162.602 32.162 161.93 32.012 161.342 31.712C160.754 31.4 160.274 31.016 159.902 30.56V36.716H157.85V22.082H159.902V23.54ZM165.932 26.996C165.932 26.312 165.788 25.724 165.5 25.232C165.224 24.728 164.852 24.35 164.384 24.098C163.928 23.834 163.436 23.702 162.908 23.702C162.392 23.702 161.9 23.834 161.432 24.098C160.976 24.362 160.604 24.746 160.316 25.25C160.04 25.754 159.902 26.348 159.902 27.032C159.902 27.716 160.04 28.316 160.316 28.832C160.604 29.336 160.976 29.72 161.432 29.984C161.9 30.248 162.392 30.38 162.908 30.38C163.436 30.38 163.928 30.248 164.384 29.984C164.852 29.708 165.224 29.312 165.5 28.796C165.788 28.28 165.932 27.68 165.932 26.996ZM172.101 18.68V32H170.049V18.68H172.101ZM182.409 24.62V26.348H175.011V24.62H182.409ZM192.867 29.444H187.629L186.729 32H184.587L189.069 19.472H191.445L195.927 32H193.767L192.867 29.444ZM192.291 27.77L190.257 21.956L188.205 27.77H192.291ZM199.927 19.49V32H197.875V19.49H199.927Z" fill="#838383"/>
</g>
<defs>
<clipPath id="clip0_840_1101">
<rect y="80" width="80" height="620" rx="12" transform="rotate(-90 0 80)" fill="white"/>
</clipPath>
</defs>
</svg>
