<svg width="494" height="74" viewBox="0 0 494 74" fill="none" xmlns="http://www.w3.org/2000/svg">
<g filter="url(#filter0_d_833_12127)">
<rect x="11" y="9" width="472" height="52" rx="8" fill="#F8F9FF" shape-rendering="crispEdges"/>
<rect x="12" y="10" width="470" height="50" rx="7" stroke="#F0F0F0" stroke-width="2" shape-rendering="crispEdges"/>
<path d="M43.555 34.765C43.555 33.745 43.79 32.83 44.26 32.02C44.74 31.21 45.385 30.58 46.195 30.13C47.015 29.67 47.91 29.44 48.88 29.44C49.99 29.44 50.975 29.715 51.835 30.265C52.705 30.805 53.335 31.575 53.725 32.575H51.67C51.4 32.025 51.025 31.615 50.545 31.345C50.065 31.075 49.51 30.94 48.88 30.94C48.19 30.94 47.575 31.095 47.035 31.405C46.495 31.715 46.07 32.16 45.76 32.74C45.46 33.32 45.31 33.995 45.31 34.765C45.31 35.535 45.46 36.21 45.76 36.79C46.07 37.37 46.495 37.82 47.035 38.14C47.575 38.45 48.19 38.605 48.88 38.605C49.51 38.605 50.065 38.47 50.545 38.2C51.025 37.93 51.4 37.52 51.67 36.97H53.725C53.335 37.97 52.705 38.74 51.835 39.28C50.975 39.82 49.99 40.09 48.88 40.09C47.9 40.09 47.005 39.865 46.195 39.415C45.385 38.955 44.74 38.32 44.26 37.51C43.79 36.7 43.555 35.785 43.555 34.765ZM57.3466 32.935C57.5966 32.515 57.9266 32.19 58.3366 31.96C58.7566 31.72 59.2516 31.6 59.8216 31.6V33.37H59.3866C58.7166 33.37 58.2066 33.54 57.8566 33.88C57.5166 34.22 57.3466 34.81 57.3466 35.65V40H55.6366V31.735H57.3466V32.935ZM68.8784 35.665C68.8784 35.975 68.8584 36.255 68.8184 36.505H62.5034C62.5534 37.165 62.7984 37.695 63.2384 38.095C63.6784 38.495 64.2184 38.695 64.8584 38.695C65.7784 38.695 66.4284 38.31 66.8084 37.54H68.6534C68.4034 38.3 67.9484 38.925 67.2884 39.415C66.6384 39.895 65.8284 40.135 64.8584 40.135C64.0684 40.135 63.3584 39.96 62.7284 39.61C62.1084 39.25 61.6184 38.75 61.2584 38.11C60.9084 37.46 60.7334 36.71 60.7334 35.86C60.7334 35.01 60.9034 34.265 61.2434 33.625C61.5934 32.975 62.0784 32.475 62.6984 32.125C63.3284 31.775 64.0484 31.6 64.8584 31.6C65.6384 31.6 66.3334 31.77 66.9434 32.11C67.5534 32.45 68.0284 32.93 68.3684 33.55C68.7084 34.16 68.8784 34.865 68.8784 35.665ZM67.0934 35.125C67.0834 34.495 66.8584 33.99 66.4184 33.61C65.9784 33.23 65.4334 33.04 64.7834 33.04C64.1934 33.04 63.6884 33.23 63.2684 33.61C62.8484 33.98 62.5984 34.485 62.5184 35.125H67.0934ZM69.9012 35.83C69.9012 35 70.0712 34.265 70.4112 33.625C70.7612 32.985 71.2312 32.49 71.8212 32.14C72.4212 31.78 73.0812 31.6 73.8012 31.6C74.4512 31.6 75.0162 31.73 75.4962 31.99C75.9862 32.24 76.3762 32.555 76.6662 32.935V31.735H78.3912V40H76.6662V38.77C76.3762 39.16 75.9812 39.485 75.4812 39.745C74.9812 40.005 74.4112 40.135 73.7712 40.135C73.0612 40.135 72.4112 39.955 71.8212 39.595C71.2312 39.225 70.7612 38.715 70.4112 38.065C70.0712 37.405 69.9012 36.66 69.9012 35.83ZM76.6662 35.86C76.6662 35.29 76.5462 34.795 76.3062 34.375C76.0762 33.955 75.7712 33.635 75.3912 33.415C75.0112 33.195 74.6012 33.085 74.1612 33.085C73.7212 33.085 73.3112 33.195 72.9312 33.415C72.5512 33.625 72.2412 33.94 72.0012 34.36C71.7712 34.77 71.6562 35.26 71.6562 35.83C71.6562 36.4 71.7712 36.9 72.0012 37.33C72.2412 37.76 72.5512 38.09 72.9312 38.32C73.3212 38.54 73.7312 38.65 74.1612 38.65C74.6012 38.65 75.0112 38.54 75.3912 38.32C75.7712 38.1 76.0762 37.78 76.3062 37.36C76.5462 36.93 76.6662 36.43 76.6662 35.86ZM82.5422 33.13V37.705C82.5422 38.015 82.6122 38.24 82.7522 38.38C82.9022 38.51 83.1522 38.575 83.5022 38.575H84.5522V40H83.2022C82.4322 40 81.8422 39.82 81.4322 39.46C81.0222 39.1 80.8172 38.515 80.8172 37.705V33.13H79.8422V31.735H80.8172V29.68H82.5422V31.735H84.5522V33.13H82.5422ZM93.6133 35.665C93.6133 35.975 93.5933 36.255 93.5533 36.505H87.2383C87.2883 37.165 87.5333 37.695 87.9733 38.095C88.4133 38.495 88.9533 38.695 89.5933 38.695C90.5133 38.695 91.1633 38.31 91.5433 37.54H93.3883C93.1383 38.3 92.6833 38.925 92.0233 39.415C91.3733 39.895 90.5633 40.135 89.5933 40.135C88.8033 40.135 88.0933 39.96 87.4633 39.61C86.8433 39.25 86.3533 38.75 85.9933 38.11C85.6433 37.46 85.4683 36.71 85.4683 35.86C85.4683 35.01 85.6383 34.265 85.9783 33.625C86.3283 32.975 86.8133 32.475 87.4333 32.125C88.0633 31.775 88.7833 31.6 89.5933 31.6C90.3733 31.6 91.0683 31.77 91.6783 32.11C92.2883 32.45 92.7633 32.93 93.1033 33.55C93.4433 34.16 93.6133 34.865 93.6133 35.665ZM91.8283 35.125C91.8183 34.495 91.5933 33.99 91.1533 33.61C90.7133 33.23 90.1683 33.04 89.5183 33.04C88.9283 33.04 88.4233 33.23 88.0033 33.61C87.5833 33.98 87.3333 34.485 87.2533 35.125H91.8283ZM98.4426 35.83C98.4426 35 98.6126 34.265 98.9526 33.625C99.3026 32.985 99.7726 32.49 100.363 32.14C100.963 31.78 101.623 31.6 102.343 31.6C102.993 31.6 103.558 31.73 104.038 31.99C104.528 32.24 104.918 32.555 105.208 32.935V31.735H106.933V40H105.208V38.77C104.918 39.16 104.523 39.485 104.023 39.745C103.523 40.005 102.953 40.135 102.313 40.135C101.603 40.135 100.953 39.955 100.363 39.595C99.7726 39.225 99.3026 38.715 98.9526 38.065C98.6126 37.405 98.4426 36.66 98.4426 35.83ZM105.208 35.86C105.208 35.29 105.088 34.795 104.848 34.375C104.618 33.955 104.313 33.635 103.933 33.415C103.553 33.195 103.143 33.085 102.703 33.085C102.263 33.085 101.853 33.195 101.473 33.415C101.093 33.625 100.783 33.94 100.543 34.36C100.313 34.77 100.198 35.26 100.198 35.83C100.198 36.4 100.313 36.9 100.543 37.33C100.783 37.76 101.093 38.09 101.473 38.32C101.863 38.54 102.273 38.65 102.703 38.65C103.143 38.65 103.553 38.54 103.933 38.32C104.313 38.1 104.618 37.78 104.848 37.36C105.088 36.93 105.208 36.43 105.208 35.86ZM112.325 35.86C112.325 35.01 112.495 34.265 112.835 33.625C113.185 32.975 113.665 32.475 114.275 32.125C114.885 31.775 115.585 31.6 116.375 31.6C117.375 31.6 118.2 31.84 118.85 32.32C119.51 32.79 119.955 33.465 120.185 34.345H118.34C118.19 33.935 117.95 33.615 117.62 33.385C117.29 33.155 116.875 33.04 116.375 33.04C115.675 33.04 115.115 33.29 114.695 33.79C114.285 34.28 114.08 34.97 114.08 35.86C114.08 36.75 114.285 37.445 114.695 37.945C115.115 38.445 115.675 38.695 116.375 38.695C117.365 38.695 118.02 38.26 118.34 37.39H120.185C119.945 38.23 119.495 38.9 118.835 39.4C118.175 39.89 117.355 40.135 116.375 40.135C115.585 40.135 114.885 39.96 114.275 39.61C113.665 39.25 113.185 38.75 112.835 38.11C112.495 37.46 112.325 36.71 112.325 35.86ZM126.074 31.6C126.704 31.6 127.264 31.735 127.754 32.005C128.254 32.275 128.644 32.675 128.924 33.205C129.214 33.735 129.359 34.375 129.359 35.125V40H127.664V35.38C127.664 34.64 127.479 34.075 127.109 33.685C126.739 33.285 126.234 33.085 125.594 33.085C124.954 33.085 124.444 33.285 124.064 33.685C123.694 34.075 123.509 34.64 123.509 35.38V40H121.799V28.9H123.509V32.695C123.799 32.345 124.164 32.075 124.604 31.885C125.054 31.695 125.544 31.6 126.074 31.6ZM139.025 35.665C139.025 35.975 139.005 36.255 138.965 36.505H132.65C132.7 37.165 132.945 37.695 133.385 38.095C133.825 38.495 134.365 38.695 135.005 38.695C135.925 38.695 136.575 38.31 136.955 37.54H138.8C138.55 38.3 138.095 38.925 137.435 39.415C136.785 39.895 135.975 40.135 135.005 40.135C134.215 40.135 133.505 39.96 132.875 39.61C132.255 39.25 131.765 38.75 131.405 38.11C131.055 37.46 130.88 36.71 130.88 35.86C130.88 35.01 131.05 34.265 131.39 33.625C131.74 32.975 132.225 32.475 132.845 32.125C133.475 31.775 134.195 31.6 135.005 31.6C135.785 31.6 136.48 31.77 137.09 32.11C137.7 32.45 138.175 32.93 138.515 33.55C138.855 34.16 139.025 34.865 139.025 35.665ZM137.24 35.125C137.23 34.495 137.005 33.99 136.565 33.61C136.125 33.23 135.58 33.04 134.93 33.04C134.34 33.04 133.835 33.23 133.415 33.61C132.995 33.98 132.745 34.485 132.665 35.125H137.24ZM140.048 35.86C140.048 35.01 140.218 34.265 140.558 33.625C140.908 32.975 141.388 32.475 141.998 32.125C142.608 31.775 143.308 31.6 144.098 31.6C145.098 31.6 145.923 31.84 146.573 32.32C147.233 32.79 147.678 33.465 147.908 34.345H146.063C145.913 33.935 145.673 33.615 145.343 33.385C145.013 33.155 144.598 33.04 144.098 33.04C143.398 33.04 142.838 33.29 142.418 33.79C142.008 34.28 141.803 34.97 141.803 35.86C141.803 36.75 142.008 37.445 142.418 37.945C142.838 38.445 143.398 38.695 144.098 38.695C145.088 38.695 145.743 38.26 146.063 37.39H147.908C147.668 38.23 147.218 38.9 146.558 39.4C145.898 39.89 145.078 40.135 144.098 40.135C143.308 40.135 142.608 39.96 141.998 39.61C141.388 39.25 140.908 38.75 140.558 38.11C140.218 37.46 140.048 36.71 140.048 35.86ZM152.792 35.875L156.602 40H154.292L151.232 36.445V40H149.522V28.9H151.232V35.35L154.232 31.735H156.602L152.792 35.875ZM159.448 28.9V40H157.738V28.9H159.448ZM162.473 30.64C162.163 30.64 161.903 30.535 161.693 30.325C161.483 30.115 161.378 29.855 161.378 29.545C161.378 29.235 161.483 28.975 161.693 28.765C161.903 28.555 162.163 28.45 162.473 28.45C162.773 28.45 163.028 28.555 163.238 28.765C163.448 28.975 163.553 29.235 163.553 29.545C163.553 29.855 163.448 30.115 163.238 30.325C163.028 30.535 162.773 30.64 162.473 30.64ZM163.313 31.735V40H161.603V31.735H163.313ZM168.468 40.135C167.818 40.135 167.233 40.02 166.713 39.79C166.203 39.55 165.798 39.23 165.498 38.83C165.198 38.42 165.038 37.965 165.018 37.465H166.788C166.818 37.815 166.983 38.11 167.283 38.35C167.593 38.58 167.978 38.695 168.438 38.695C168.918 38.695 169.288 38.605 169.548 38.425C169.818 38.235 169.953 37.995 169.953 37.705C169.953 37.395 169.803 37.165 169.503 37.015C169.213 36.865 168.748 36.7 168.108 36.52C167.488 36.35 166.983 36.185 166.593 36.025C166.203 35.865 165.863 35.62 165.573 35.29C165.293 34.96 165.153 34.525 165.153 33.985C165.153 33.545 165.283 33.145 165.543 32.785C165.803 32.415 166.173 32.125 166.653 31.915C167.143 31.705 167.703 31.6 168.333 31.6C169.273 31.6 170.028 31.84 170.598 32.32C171.178 32.79 171.488 33.435 171.528 34.255H169.818C169.788 33.885 169.638 33.59 169.368 33.37C169.098 33.15 168.733 33.04 168.273 33.04C167.823 33.04 167.478 33.125 167.238 33.295C166.998 33.465 166.878 33.69 166.878 33.97C166.878 34.19 166.958 34.375 167.118 34.525C167.278 34.675 167.473 34.795 167.703 34.885C167.933 34.965 168.273 35.07 168.723 35.2C169.323 35.36 169.813 35.525 170.193 35.695C170.583 35.855 170.918 36.095 171.198 36.415C171.478 36.735 171.623 37.16 171.633 37.69C171.633 38.16 171.503 38.58 171.243 38.95C170.983 39.32 170.613 39.61 170.133 39.82C169.663 40.03 169.108 40.135 168.468 40.135ZM175.386 33.13V37.705C175.386 38.015 175.456 38.24 175.596 38.38C175.746 38.51 175.996 38.575 176.346 38.575H177.396V40H176.046C175.276 40 174.686 39.82 174.276 39.46C173.866 39.1 173.661 38.515 173.661 37.705V33.13H172.686V31.735H173.661V29.68H175.386V31.735H177.396V33.13H175.386ZM186.153 33.13H184.623V40H182.898V33.13H181.923V31.735H182.898V31.15C182.898 30.2 183.148 29.51 183.648 29.08C184.158 28.64 184.953 28.42 186.033 28.42V29.845C185.513 29.845 185.148 29.945 184.938 30.145C184.728 30.335 184.623 30.67 184.623 31.15V31.735H186.153V33.13ZM191.164 40.135C190.384 40.135 189.679 39.96 189.049 39.61C188.419 39.25 187.924 38.75 187.564 38.11C187.204 37.46 187.024 36.71 187.024 35.86C187.024 35.02 187.209 34.275 187.579 33.625C187.949 32.975 188.454 32.475 189.094 32.125C189.734 31.775 190.449 31.6 191.239 31.6C192.029 31.6 192.744 31.775 193.384 32.125C194.024 32.475 194.529 32.975 194.899 33.625C195.269 34.275 195.454 35.02 195.454 35.86C195.454 36.7 195.264 37.445 194.884 38.095C194.504 38.745 193.984 39.25 193.324 39.61C192.674 39.96 191.954 40.135 191.164 40.135ZM191.164 38.65C191.604 38.65 192.014 38.545 192.394 38.335C192.784 38.125 193.099 37.81 193.339 37.39C193.579 36.97 193.699 36.46 193.699 35.86C193.699 35.26 193.584 34.755 193.354 34.345C193.124 33.925 192.819 33.61 192.439 33.4C192.059 33.19 191.649 33.085 191.209 33.085C190.769 33.085 190.359 33.19 189.979 33.4C189.609 33.61 189.314 33.925 189.094 34.345C188.874 34.755 188.764 35.26 188.764 35.86C188.764 36.75 188.989 37.44 189.439 37.93C189.899 38.41 190.474 38.65 191.164 38.65ZM198.764 32.935C199.014 32.515 199.344 32.19 199.754 31.96C200.174 31.72 200.669 31.6 201.239 31.6V33.37H200.804C200.134 33.37 199.624 33.54 199.274 33.88C198.934 34.22 198.764 34.81 198.764 35.65V40H197.054V31.735H198.764V32.935ZM210.113 40.135C209.333 40.135 208.628 39.96 207.998 39.61C207.368 39.25 206.873 38.75 206.513 38.11C206.153 37.46 205.973 36.71 205.973 35.86C205.973 35.02 206.158 34.275 206.528 33.625C206.898 32.975 207.403 32.475 208.043 32.125C208.683 31.775 209.398 31.6 210.188 31.6C210.978 31.6 211.693 31.775 212.333 32.125C212.973 32.475 213.478 32.975 213.848 33.625C214.218 34.275 214.403 35.02 214.403 35.86C214.403 36.7 214.213 37.445 213.833 38.095C213.453 38.745 212.933 39.25 212.273 39.61C211.623 39.96 210.903 40.135 210.113 40.135ZM210.113 38.65C210.553 38.65 210.963 38.545 211.343 38.335C211.733 38.125 212.048 37.81 212.288 37.39C212.528 36.97 212.648 36.46 212.648 35.86C212.648 35.26 212.533 34.755 212.303 34.345C212.073 33.925 211.768 33.61 211.388 33.4C211.008 33.19 210.598 33.085 210.158 33.085C209.718 33.085 209.308 33.19 208.928 33.4C208.558 33.61 208.263 33.925 208.043 34.345C207.823 34.755 207.713 35.26 207.713 35.86C207.713 36.75 207.938 37.44 208.388 37.93C208.848 38.41 209.423 38.65 210.113 38.65ZM217.713 32.95C218.003 32.57 218.398 32.25 218.898 31.99C219.398 31.73 219.963 31.6 220.593 31.6C221.313 31.6 221.968 31.78 222.558 32.14C223.158 32.49 223.628 32.985 223.968 33.625C224.308 34.265 224.478 35 224.478 35.83C224.478 36.66 224.308 37.405 223.968 38.065C223.628 38.715 223.158 39.225 222.558 39.595C221.968 39.955 221.313 40.135 220.593 40.135C219.963 40.135 219.403 40.01 218.913 39.76C218.423 39.5 218.023 39.18 217.713 38.8V43.93H216.003V31.735H217.713V32.95ZM222.738 35.83C222.738 35.26 222.618 34.77 222.378 34.36C222.148 33.94 221.838 33.625 221.448 33.415C221.068 33.195 220.658 33.085 220.218 33.085C219.788 33.085 219.378 33.195 218.988 33.415C218.608 33.635 218.298 33.955 218.058 34.375C217.828 34.795 217.713 35.29 217.713 35.86C217.713 36.43 217.828 36.93 218.058 37.36C218.298 37.78 218.608 38.1 218.988 38.32C219.378 38.54 219.788 38.65 220.218 38.65C220.658 38.65 221.068 38.54 221.448 38.32C221.838 38.09 222.148 37.76 222.378 37.33C222.618 36.9 222.738 36.4 222.738 35.83ZM233.654 35.665C233.654 35.975 233.634 36.255 233.594 36.505H227.279C227.329 37.165 227.574 37.695 228.014 38.095C228.454 38.495 228.994 38.695 229.634 38.695C230.554 38.695 231.204 38.31 231.584 37.54H233.429C233.179 38.3 232.724 38.925 232.064 39.415C231.414 39.895 230.604 40.135 229.634 40.135C228.844 40.135 228.134 39.96 227.504 39.61C226.884 39.25 226.394 38.75 226.034 38.11C225.684 37.46 225.509 36.71 225.509 35.86C225.509 35.01 225.679 34.265 226.019 33.625C226.369 32.975 226.854 32.475 227.474 32.125C228.104 31.775 228.824 31.6 229.634 31.6C230.414 31.6 231.109 31.77 231.719 32.11C232.329 32.45 232.804 32.93 233.144 33.55C233.484 34.16 233.654 34.865 233.654 35.665ZM231.869 35.125C231.859 34.495 231.634 33.99 231.194 33.61C230.754 33.23 230.209 33.04 229.559 33.04C228.969 33.04 228.464 33.23 228.044 33.61C227.624 33.98 227.374 34.485 227.294 35.125H231.869ZM239.417 31.6C240.067 31.6 240.647 31.735 241.157 32.005C241.677 32.275 242.082 32.675 242.372 33.205C242.662 33.735 242.807 34.375 242.807 35.125V40H241.112V35.38C241.112 34.64 240.927 34.075 240.557 33.685C240.187 33.285 239.682 33.085 239.042 33.085C238.402 33.085 237.892 33.285 237.512 33.685C237.142 34.075 236.957 34.64 236.957 35.38V40H235.247V31.735H236.957V32.68C237.237 32.34 237.592 32.075 238.022 31.885C238.462 31.695 238.927 31.6 239.417 31.6ZM245.768 30.64C245.458 30.64 245.198 30.535 244.988 30.325C244.778 30.115 244.673 29.855 244.673 29.545C244.673 29.235 244.778 28.975 244.988 28.765C245.198 28.555 245.458 28.45 245.768 28.45C246.068 28.45 246.323 28.555 246.533 28.765C246.743 28.975 246.848 29.235 246.848 29.545C246.848 29.855 246.743 30.115 246.533 30.325C246.323 30.535 246.068 30.64 245.768 30.64ZM246.608 31.735V40H244.898V31.735H246.608ZM252.933 31.6C253.583 31.6 254.163 31.735 254.673 32.005C255.193 32.275 255.598 32.675 255.888 33.205C256.178 33.735 256.323 34.375 256.323 35.125V40H254.628V35.38C254.628 34.64 254.443 34.075 254.073 33.685C253.703 33.285 253.198 33.085 252.558 33.085C251.918 33.085 251.408 33.285 251.028 33.685C250.658 34.075 250.473 34.64 250.473 35.38V40H248.763V31.735H250.473V32.68C250.753 32.34 251.108 32.075 251.538 31.885C251.978 31.695 252.443 31.6 252.933 31.6ZM261.744 31.6C262.384 31.6 262.949 31.73 263.439 31.99C263.939 32.24 264.329 32.555 264.609 32.935V31.735H266.334V40.135C266.334 40.895 266.174 41.57 265.854 42.16C265.534 42.76 265.069 43.23 264.459 43.57C263.859 43.91 263.139 44.08 262.299 44.08C261.179 44.08 260.249 43.815 259.509 43.285C258.769 42.765 258.349 42.055 258.249 41.155H259.944C260.074 41.585 260.349 41.93 260.769 42.19C261.199 42.46 261.709 42.595 262.299 42.595C262.989 42.595 263.544 42.385 263.964 41.965C264.394 41.545 264.609 40.935 264.609 40.135V38.755C264.319 39.145 263.924 39.475 263.424 39.745C262.934 40.005 262.374 40.135 261.744 40.135C261.024 40.135 260.364 39.955 259.764 39.595C259.174 39.225 258.704 38.715 258.354 38.065C258.014 37.405 257.844 36.66 257.844 35.83C257.844 35 258.014 34.265 258.354 33.625C258.704 32.985 259.174 32.49 259.764 32.14C260.364 31.78 261.024 31.6 261.744 31.6ZM264.609 35.86C264.609 35.29 264.489 34.795 264.249 34.375C264.019 33.955 263.714 33.635 263.334 33.415C262.954 33.195 262.544 33.085 262.104 33.085C261.664 33.085 261.254 33.195 260.874 33.415C260.494 33.625 260.184 33.94 259.944 34.36C259.714 34.77 259.599 35.26 259.599 35.83C259.599 36.4 259.714 36.9 259.944 37.33C260.184 37.76 260.494 38.09 260.874 38.32C261.264 38.54 261.674 38.65 262.104 38.65C262.544 38.65 262.954 38.54 263.334 38.32C263.714 38.1 264.019 37.78 264.249 37.36C264.489 36.93 264.609 36.43 264.609 35.86ZM271.727 35.83C271.727 35 271.897 34.265 272.237 33.625C272.587 32.985 273.057 32.49 273.647 32.14C274.247 31.78 274.907 31.6 275.627 31.6C276.277 31.6 276.842 31.73 277.322 31.99C277.812 32.24 278.202 32.555 278.492 32.935V31.735H280.217V40H278.492V38.77C278.202 39.16 277.807 39.485 277.307 39.745C276.807 40.005 276.237 40.135 275.597 40.135C274.887 40.135 274.237 39.955 273.647 39.595C273.057 39.225 272.587 38.715 272.237 38.065C271.897 37.405 271.727 36.66 271.727 35.83ZM278.492 35.86C278.492 35.29 278.372 34.795 278.132 34.375C277.902 33.955 277.597 33.635 277.217 33.415C276.837 33.195 276.427 33.085 275.987 33.085C275.547 33.085 275.137 33.195 274.757 33.415C274.377 33.625 274.067 33.94 273.827 34.36C273.597 34.77 273.482 35.26 273.482 35.83C273.482 36.4 273.597 36.9 273.827 37.33C274.067 37.76 274.377 38.09 274.757 38.32C275.147 38.54 275.557 38.65 275.987 38.65C276.427 38.65 276.837 38.54 277.217 38.32C277.597 38.1 277.902 37.78 278.132 37.36C278.372 36.93 278.492 36.43 278.492 35.86ZM290.349 31.6C290.999 31.6 291.579 31.735 292.089 32.005C292.609 32.275 293.014 32.675 293.304 33.205C293.594 33.735 293.739 34.375 293.739 35.125V40H292.044V35.38C292.044 34.64 291.859 34.075 291.489 33.685C291.119 33.285 290.614 33.085 289.974 33.085C289.334 33.085 288.824 33.285 288.444 33.685C288.074 34.075 287.889 34.64 287.889 35.38V40H286.179V31.735H287.889V32.68C288.169 32.34 288.524 32.075 288.954 31.885C289.394 31.695 289.859 31.6 290.349 31.6ZM303.406 35.665C303.406 35.975 303.386 36.255 303.346 36.505H297.031C297.081 37.165 297.326 37.695 297.766 38.095C298.206 38.495 298.746 38.695 299.386 38.695C300.306 38.695 300.956 38.31 301.336 37.54H303.181C302.931 38.3 302.476 38.925 301.816 39.415C301.166 39.895 300.356 40.135 299.386 40.135C298.596 40.135 297.886 39.96 297.256 39.61C296.636 39.25 296.146 38.75 295.786 38.11C295.436 37.46 295.261 36.71 295.261 35.86C295.261 35.01 295.431 34.265 295.771 33.625C296.121 32.975 296.606 32.475 297.226 32.125C297.856 31.775 298.576 31.6 299.386 31.6C300.166 31.6 300.861 31.77 301.471 32.11C302.081 32.45 302.556 32.93 302.896 33.55C303.236 34.16 303.406 34.865 303.406 35.665ZM301.621 35.125C301.611 34.495 301.386 33.99 300.946 33.61C300.506 33.23 299.961 33.04 299.311 33.04C298.721 33.04 298.216 33.23 297.796 33.61C297.376 33.98 297.126 34.485 297.046 35.125H301.621ZM316.098 31.735L313.533 40H311.733L310.068 33.895L308.403 40H306.603L304.023 31.735H305.763L307.488 38.38L309.243 31.735H311.028L312.708 38.35L314.418 31.735H316.098ZM322.803 38.62H326.328V40H321.093V29.575H322.803V38.62ZM333.953 37.87H329.588L328.838 40H327.053L330.788 29.56H332.768L336.503 40H334.703L333.953 37.87ZM333.473 36.475L331.778 31.63L330.068 36.475H333.473ZM344.322 37.87H339.957L339.207 40H337.422L341.157 29.56H343.137L346.872 40H345.072L344.322 37.87ZM343.842 36.475L342.147 31.63L340.437 36.475H343.842ZM355.677 33.13H354.147V40H352.422V33.13H351.447V31.735H352.422V31.15C352.422 30.2 352.672 29.51 353.172 29.08C353.682 28.64 354.477 28.42 355.557 28.42V29.845C355.037 29.845 354.672 29.945 354.462 30.145C354.252 30.335 354.147 30.67 354.147 31.15V31.735H355.677V33.13ZM356.533 35.83C356.533 35 356.703 34.265 357.043 33.625C357.393 32.985 357.863 32.49 358.453 32.14C359.053 31.78 359.713 31.6 360.433 31.6C361.083 31.6 361.648 31.73 362.128 31.99C362.618 32.24 363.008 32.555 363.298 32.935V31.735H365.023V40H363.298V38.77C363.008 39.16 362.613 39.485 362.113 39.745C361.613 40.005 361.043 40.135 360.403 40.135C359.693 40.135 359.043 39.955 358.453 39.595C357.863 39.225 357.393 38.715 357.043 38.065C356.703 37.405 356.533 36.66 356.533 35.83ZM363.298 35.86C363.298 35.29 363.178 34.795 362.938 34.375C362.708 33.955 362.403 33.635 362.023 33.415C361.643 33.195 361.233 33.085 360.793 33.085C360.353 33.085 359.943 33.195 359.563 33.415C359.183 33.625 358.873 33.94 358.633 34.36C358.403 34.77 358.288 35.26 358.288 35.83C358.288 36.4 358.403 36.9 358.633 37.33C358.873 37.76 359.183 38.09 359.563 38.32C359.953 38.54 360.363 38.65 360.793 38.65C361.233 38.65 361.643 38.54 362.023 38.32C362.403 38.1 362.708 37.78 362.938 37.36C363.178 36.93 363.298 36.43 363.298 35.86ZM377.184 31.6C377.834 31.6 378.414 31.735 378.924 32.005C379.444 32.275 379.849 32.675 380.139 33.205C380.439 33.735 380.589 34.375 380.589 35.125V40H378.894V35.38C378.894 34.64 378.709 34.075 378.339 33.685C377.969 33.285 377.464 33.085 376.824 33.085C376.184 33.085 375.674 33.285 375.294 33.685C374.924 34.075 374.739 34.64 374.739 35.38V40H373.044V35.38C373.044 34.64 372.859 34.075 372.489 33.685C372.119 33.285 371.614 33.085 370.974 33.085C370.334 33.085 369.824 33.285 369.444 33.685C369.074 34.075 368.889 34.64 368.889 35.38V40H367.179V31.735H368.889V32.68C369.169 32.34 369.524 32.075 369.954 31.885C370.384 31.695 370.844 31.6 371.334 31.6C371.994 31.6 372.584 31.74 373.104 32.02C373.624 32.3 374.024 32.705 374.304 33.235C374.554 32.735 374.944 32.34 375.474 32.05C376.004 31.75 376.574 31.6 377.184 31.6ZM383.545 30.64C383.235 30.64 382.975 30.535 382.765 30.325C382.555 30.115 382.45 29.855 382.45 29.545C382.45 29.235 382.555 28.975 382.765 28.765C382.975 28.555 383.235 28.45 383.545 28.45C383.845 28.45 384.1 28.555 384.31 28.765C384.52 28.975 384.625 29.235 384.625 29.545C384.625 29.855 384.52 30.115 384.31 30.325C384.1 30.535 383.845 30.64 383.545 30.64ZM384.385 31.735V40H382.675V31.735H384.385ZM388.25 28.9V40H386.54V28.9H388.25ZM397.845 31.735L392.775 43.885H391.005L392.685 39.865L389.43 31.735H391.335L393.66 38.035L396.075 31.735H397.845ZM406.437 40.135C405.657 40.135 404.952 39.96 404.322 39.61C403.692 39.25 403.197 38.75 402.837 38.11C402.477 37.46 402.297 36.71 402.297 35.86C402.297 35.02 402.482 34.275 402.852 33.625C403.222 32.975 403.727 32.475 404.367 32.125C405.007 31.775 405.722 31.6 406.512 31.6C407.302 31.6 408.017 31.775 408.657 32.125C409.297 32.475 409.802 32.975 410.172 33.625C410.542 34.275 410.727 35.02 410.727 35.86C410.727 36.7 410.537 37.445 410.157 38.095C409.777 38.745 409.257 39.25 408.597 39.61C407.947 39.96 407.227 40.135 406.437 40.135ZM406.437 38.65C406.877 38.65 407.287 38.545 407.667 38.335C408.057 38.125 408.372 37.81 408.612 37.39C408.852 36.97 408.972 36.46 408.972 35.86C408.972 35.26 408.857 34.755 408.627 34.345C408.397 33.925 408.092 33.61 407.712 33.4C407.332 33.19 406.922 33.085 406.482 33.085C406.042 33.085 405.632 33.19 405.252 33.4C404.882 33.61 404.587 33.925 404.367 34.345C404.147 34.755 404.037 35.26 404.037 35.86C404.037 36.75 404.262 37.44 404.712 37.93C405.172 38.41 405.747 38.65 406.437 38.65ZM415.792 33.13H414.262V40H412.537V33.13H411.562V31.735H412.537V31.15C412.537 30.2 412.787 29.51 413.287 29.08C413.797 28.64 414.592 28.42 415.672 28.42V29.845C415.152 29.845 414.787 29.945 414.577 30.145C414.367 30.335 414.262 30.67 414.262 31.15V31.735H415.792V33.13ZM420.683 33.13H419.153V40H417.428V33.13H416.453V31.735H417.428V31.15C417.428 30.2 417.678 29.51 418.178 29.08C418.688 28.64 419.483 28.42 420.563 28.42V29.845C420.043 29.845 419.678 29.945 419.468 30.145C419.258 30.335 419.153 30.67 419.153 31.15V31.735H420.683V33.13ZM422.978 30.64C422.668 30.64 422.408 30.535 422.198 30.325C421.988 30.115 421.883 29.855 421.883 29.545C421.883 29.235 421.988 28.975 422.198 28.765C422.408 28.555 422.668 28.45 422.978 28.45C423.278 28.45 423.533 28.555 423.743 28.765C423.953 28.975 424.058 29.235 424.058 29.545C424.058 29.855 423.953 30.115 423.743 30.325C423.533 30.535 423.278 30.64 422.978 30.64ZM423.818 31.735V40H422.108V31.735H423.818ZM425.403 35.86C425.403 35.01 425.573 34.265 425.913 33.625C426.263 32.975 426.743 32.475 427.353 32.125C427.963 31.775 428.663 31.6 429.453 31.6C430.453 31.6 431.278 31.84 431.928 32.32C432.588 32.79 433.033 33.465 433.263 34.345H431.418C431.268 33.935 431.028 33.615 430.698 33.385C430.368 33.155 429.953 33.04 429.453 33.04C428.753 33.04 428.193 33.29 427.773 33.79C427.363 34.28 427.158 34.97 427.158 35.86C427.158 36.75 427.363 37.445 427.773 37.945C428.193 38.445 428.753 38.695 429.453 38.695C430.443 38.695 431.098 38.26 431.418 37.39H433.263C433.023 38.23 432.573 38.9 431.913 39.4C431.253 39.89 430.433 40.135 429.453 40.135C428.663 40.135 427.963 39.96 427.353 39.61C426.743 39.25 426.263 38.75 425.913 38.11C425.573 37.46 425.403 36.71 425.403 35.86ZM442.452 35.665C442.452 35.975 442.432 36.255 442.392 36.505H436.077C436.127 37.165 436.372 37.695 436.812 38.095C437.252 38.495 437.792 38.695 438.432 38.695C439.352 38.695 440.002 38.31 440.382 37.54H442.227C441.977 38.3 441.522 38.925 440.862 39.415C440.212 39.895 439.402 40.135 438.432 40.135C437.642 40.135 436.932 39.96 436.302 39.61C435.682 39.25 435.192 38.75 434.832 38.11C434.482 37.46 434.307 36.71 434.307 35.86C434.307 35.01 434.477 34.265 434.817 33.625C435.167 32.975 435.652 32.475 436.272 32.125C436.902 31.775 437.622 31.6 438.432 31.6C439.212 31.6 439.907 31.77 440.517 32.11C441.127 32.45 441.602 32.93 441.942 33.55C442.282 34.16 442.452 34.865 442.452 35.665ZM440.667 35.125C440.657 34.495 440.432 33.99 439.992 33.61C439.552 33.23 439.007 33.04 438.357 33.04C437.767 33.04 437.262 33.23 436.842 33.61C436.422 33.98 436.172 34.485 436.092 35.125H440.667ZM444.735 40.105C444.425 40.105 444.165 40 443.955 39.79C443.745 39.58 443.64 39.32 443.64 39.01C443.64 38.7 443.745 38.44 443.955 38.23C444.165 38.02 444.425 37.915 444.735 37.915C445.035 37.915 445.29 38.02 445.5 38.23C445.71 38.44 445.815 38.7 445.815 39.01C445.815 39.32 445.71 39.58 445.5 39.79C445.29 40 445.035 40.105 444.735 40.105Z" fill="black"/>
</g>
<defs>
<filter id="filter0_d_833_12127" x="0.7" y="0.7" width="492.6" height="72.6" filterUnits="userSpaceOnUse" color-interpolation-filters="sRGB">
<feFlood flood-opacity="0" result="BackgroundImageFix"/>
<feColorMatrix in="SourceAlpha" type="matrix" values="0 0 0 0 0 0 0 0 0 0 0 0 0 0 0 0 0 0 127 0" result="hardAlpha"/>
<feOffset dy="2"/>
<feGaussianBlur stdDeviation="5.15"/>
<feComposite in2="hardAlpha" operator="out"/>
<feColorMatrix type="matrix" values="0 0 0 0 0 0 0 0 0 0 0 0 0 0 0 0 0 0 0.1 0"/>
<feBlend mode="normal" in2="BackgroundImageFix" result="effect1_dropShadow_833_12127"/>
<feBlend mode="normal" in="SourceGraphic" in2="effect1_dropShadow_833_12127" result="shape"/>
</filter>
</defs>
</svg>
