<svg width="494" height="94" viewBox="0 0 494 94" fill="none" xmlns="http://www.w3.org/2000/svg">
<g filter="url(#filter0_d_833_11453)">
<rect x="11" y="9" width="472" height="72" rx="8" fill="#F8F9FF" shape-rendering="crispEdges"/>
<rect x="12" y="10" width="470" height="70" rx="7" stroke="#F0F0F0" stroke-width="2" shape-rendering="crispEdges"/>
<path d="M43.555 34.765C43.555 33.745 43.79 32.83 44.26 32.02C44.74 31.21 45.385 30.58 46.195 30.13C47.015 29.67 47.91 29.44 48.88 29.44C49.99 29.44 50.975 29.715 51.835 30.265C52.705 30.805 53.335 31.575 53.725 32.575H51.67C51.4 32.025 51.025 31.615 50.545 31.345C50.065 31.075 49.51 30.94 48.88 30.94C48.19 30.94 47.575 31.095 47.035 31.405C46.495 31.715 46.07 32.16 45.76 32.74C45.46 33.32 45.31 33.995 45.31 34.765C45.31 35.535 45.46 36.21 45.76 36.79C46.07 37.37 46.495 37.82 47.035 38.14C47.575 38.45 48.19 38.605 48.88 38.605C49.51 38.605 50.065 38.47 50.545 38.2C51.025 37.93 51.4 37.52 51.67 36.97H53.725C53.335 37.97 52.705 38.74 51.835 39.28C50.975 39.82 49.99 40.09 48.88 40.09C47.9 40.09 47.005 39.865 46.195 39.415C45.385 38.955 44.74 38.32 44.26 37.51C43.79 36.7 43.555 35.785 43.555 34.765ZM55.0666 35.83C55.0666 35 55.2366 34.265 55.5766 33.625C55.9266 32.985 56.3966 32.49 56.9866 32.14C57.5866 31.78 58.2466 31.6 58.9666 31.6C59.6166 31.6 60.1816 31.73 60.6616 31.99C61.1516 32.24 61.5416 32.555 61.8316 32.935V31.735H63.5566V40H61.8316V38.77C61.5416 39.16 61.1466 39.485 60.6466 39.745C60.1466 40.005 59.5766 40.135 58.9366 40.135C58.2266 40.135 57.5766 39.955 56.9866 39.595C56.3966 39.225 55.9266 38.715 55.5766 38.065C55.2366 37.405 55.0666 36.66 55.0666 35.83ZM61.8316 35.86C61.8316 35.29 61.7116 34.795 61.4716 34.375C61.2416 33.955 60.9366 33.635 60.5566 33.415C60.1766 33.195 59.7666 33.085 59.3266 33.085C58.8866 33.085 58.4766 33.195 58.0966 33.415C57.7166 33.625 57.4066 33.94 57.1666 34.36C56.9366 34.77 56.8216 35.26 56.8216 35.83C56.8216 36.4 56.9366 36.9 57.1666 37.33C57.4066 37.76 57.7166 38.09 58.0966 38.32C58.4866 38.54 58.8966 38.65 59.3266 38.65C59.7666 38.65 60.1766 38.54 60.5566 38.32C60.9366 38.1 61.2416 37.78 61.4716 37.36C61.7116 36.93 61.8316 36.43 61.8316 35.86ZM69.8826 31.6C70.5326 31.6 71.1126 31.735 71.6226 32.005C72.1426 32.275 72.5476 32.675 72.8376 33.205C73.1276 33.735 73.2726 34.375 73.2726 35.125V40H71.5776V35.38C71.5776 34.64 71.3926 34.075 71.0226 33.685C70.6526 33.285 70.1476 33.085 69.5076 33.085C68.8676 33.085 68.3576 33.285 67.9776 33.685C67.6076 34.075 67.4226 34.64 67.4226 35.38V40H65.7126V31.735H67.4226V32.68C67.7026 32.34 68.0576 32.075 68.4876 31.885C68.9276 31.695 69.3926 31.6 69.8826 31.6ZM84.5878 29.575V40H82.8778V29.575H84.5878ZM101.742 31.735V40H100.032V39.025C99.7619 39.365 99.4069 39.635 98.9669 39.835C98.5369 40.025 98.0769 40.12 97.5869 40.12C96.9369 40.12 96.3519 39.985 95.8319 39.715C95.3219 39.445 94.9169 39.045 94.6169 38.515C94.3269 37.985 94.1819 37.345 94.1819 36.595V31.735H95.8769V36.34C95.8769 37.08 96.0619 37.65 96.4319 38.05C96.8019 38.44 97.3069 38.635 97.9469 38.635C98.5869 38.635 99.0919 38.44 99.4619 38.05C99.8419 37.65 100.032 37.08 100.032 36.34V31.735H101.742ZM106.908 40.135C106.258 40.135 105.673 40.02 105.153 39.79C104.643 39.55 104.238 39.23 103.938 38.83C103.638 38.42 103.478 37.965 103.458 37.465H105.228C105.258 37.815 105.423 38.11 105.723 38.35C106.033 38.58 106.418 38.695 106.878 38.695C107.358 38.695 107.728 38.605 107.988 38.425C108.258 38.235 108.393 37.995 108.393 37.705C108.393 37.395 108.243 37.165 107.943 37.015C107.653 36.865 107.188 36.7 106.548 36.52C105.928 36.35 105.423 36.185 105.033 36.025C104.643 35.865 104.303 35.62 104.013 35.29C103.733 34.96 103.593 34.525 103.593 33.985C103.593 33.545 103.723 33.145 103.983 32.785C104.243 32.415 104.613 32.125 105.093 31.915C105.583 31.705 106.143 31.6 106.773 31.6C107.713 31.6 108.468 31.84 109.038 32.32C109.618 32.79 109.928 33.435 109.968 34.255H108.258C108.228 33.885 108.078 33.59 107.808 33.37C107.538 33.15 107.173 33.04 106.713 33.04C106.263 33.04 105.918 33.125 105.678 33.295C105.438 33.465 105.318 33.69 105.318 33.97C105.318 34.19 105.398 34.375 105.558 34.525C105.718 34.675 105.913 34.795 106.143 34.885C106.373 34.965 106.713 35.07 107.163 35.2C107.763 35.36 108.253 35.525 108.633 35.695C109.023 35.855 109.358 36.095 109.638 36.415C109.918 36.735 110.063 37.16 110.073 37.69C110.073 38.16 109.943 38.58 109.683 38.95C109.423 39.32 109.053 39.61 108.573 39.82C108.103 40.03 107.548 40.135 106.908 40.135ZM119.406 35.665C119.406 35.975 119.386 36.255 119.346 36.505H113.031C113.081 37.165 113.326 37.695 113.766 38.095C114.206 38.495 114.746 38.695 115.386 38.695C116.306 38.695 116.956 38.31 117.336 37.54H119.181C118.931 38.3 118.476 38.925 117.816 39.415C117.166 39.895 116.356 40.135 115.386 40.135C114.596 40.135 113.886 39.96 113.256 39.61C112.636 39.25 112.146 38.75 111.786 38.11C111.436 37.46 111.261 36.71 111.261 35.86C111.261 35.01 111.431 34.265 111.771 33.625C112.121 32.975 112.606 32.475 113.226 32.125C113.856 31.775 114.576 31.6 115.386 31.6C116.166 31.6 116.861 31.77 117.471 32.11C118.081 32.45 118.556 32.93 118.896 33.55C119.236 34.16 119.406 34.865 119.406 35.665ZM117.621 35.125C117.611 34.495 117.386 33.99 116.946 33.61C116.506 33.23 115.961 33.04 115.311 33.04C114.721 33.04 114.216 33.23 113.796 33.61C113.376 33.98 113.126 34.485 113.046 35.125H117.621ZM138.518 31.6C139.168 31.6 139.748 31.735 140.258 32.005C140.778 32.275 141.183 32.675 141.473 33.205C141.773 33.735 141.923 34.375 141.923 35.125V40H140.228V35.38C140.228 34.64 140.043 34.075 139.673 33.685C139.303 33.285 138.798 33.085 138.158 33.085C137.518 33.085 137.008 33.285 136.628 33.685C136.258 34.075 136.073 34.64 136.073 35.38V40H134.378V35.38C134.378 34.64 134.193 34.075 133.823 33.685C133.453 33.285 132.948 33.085 132.308 33.085C131.668 33.085 131.158 33.285 130.778 33.685C130.408 34.075 130.223 34.64 130.223 35.38V40H128.513V31.735H130.223V32.68C130.503 32.34 130.858 32.075 131.288 31.885C131.718 31.695 132.178 31.6 132.668 31.6C133.328 31.6 133.918 31.74 134.438 32.02C134.958 32.3 135.358 32.705 135.638 33.235C135.888 32.735 136.278 32.34 136.808 32.05C137.338 31.75 137.908 31.6 138.518 31.6ZM151.449 31.735L146.379 43.885H144.609L146.289 39.865L143.034 31.735H144.939L147.264 38.035L149.679 31.735H151.449ZM159.593 35.86C159.593 35.01 159.763 34.265 160.103 33.625C160.453 32.975 160.933 32.475 161.543 32.125C162.153 31.775 162.853 31.6 163.643 31.6C164.643 31.6 165.468 31.84 166.118 32.32C166.778 32.79 167.223 33.465 167.453 34.345H165.608C165.458 33.935 165.218 33.615 164.888 33.385C164.558 33.155 164.143 33.04 163.643 33.04C162.943 33.04 162.383 33.29 161.963 33.79C161.553 34.28 161.348 34.97 161.348 35.86C161.348 36.75 161.553 37.445 161.963 37.945C162.383 38.445 162.943 38.695 163.643 38.695C164.633 38.695 165.288 38.26 165.608 37.39H167.453C167.213 38.23 166.763 38.9 166.103 39.4C165.443 39.89 164.623 40.135 163.643 40.135C162.853 40.135 162.153 39.96 161.543 39.61C160.933 39.25 160.453 38.75 160.103 38.11C159.763 37.46 159.593 36.71 159.593 35.86ZM170.777 28.9V40H169.067V28.9H170.777ZM173.802 30.64C173.492 30.64 173.232 30.535 173.022 30.325C172.812 30.115 172.707 29.855 172.707 29.545C172.707 29.235 172.812 28.975 173.022 28.765C173.232 28.555 173.492 28.45 173.802 28.45C174.102 28.45 174.357 28.555 174.567 28.765C174.777 28.975 174.882 29.235 174.882 29.545C174.882 29.855 174.777 30.115 174.567 30.325C174.357 30.535 174.102 30.64 173.802 30.64ZM174.642 31.735V40H172.932V31.735H174.642ZM184.372 35.665C184.372 35.975 184.352 36.255 184.312 36.505H177.997C178.047 37.165 178.292 37.695 178.732 38.095C179.172 38.495 179.712 38.695 180.352 38.695C181.272 38.695 181.922 38.31 182.302 37.54H184.147C183.897 38.3 183.442 38.925 182.782 39.415C182.132 39.895 181.322 40.135 180.352 40.135C179.562 40.135 178.852 39.96 178.222 39.61C177.602 39.25 177.112 38.75 176.752 38.11C176.402 37.46 176.227 36.71 176.227 35.86C176.227 35.01 176.397 34.265 176.737 33.625C177.087 32.975 177.572 32.475 178.192 32.125C178.822 31.775 179.542 31.6 180.352 31.6C181.132 31.6 181.827 31.77 182.437 32.11C183.047 32.45 183.522 32.93 183.862 33.55C184.202 34.16 184.372 34.865 184.372 35.665ZM182.587 35.125C182.577 34.495 182.352 33.99 181.912 33.61C181.472 33.23 180.927 33.04 180.277 33.04C179.687 33.04 179.182 33.23 178.762 33.61C178.342 33.98 178.092 34.485 178.012 35.125H182.587ZM190.135 31.6C190.785 31.6 191.365 31.735 191.875 32.005C192.395 32.275 192.8 32.675 193.09 33.205C193.38 33.735 193.525 34.375 193.525 35.125V40H191.83V35.38C191.83 34.64 191.645 34.075 191.275 33.685C190.905 33.285 190.4 33.085 189.76 33.085C189.12 33.085 188.61 33.285 188.23 33.685C187.86 34.075 187.675 34.64 187.675 35.38V40H185.965V31.735H187.675V32.68C187.955 32.34 188.31 32.075 188.74 31.885C189.18 31.695 189.645 31.6 190.135 31.6ZM197.611 33.13V37.705C197.611 38.015 197.681 38.24 197.821 38.38C197.971 38.51 198.221 38.575 198.571 38.575H199.621V40H198.271C197.501 40 196.911 39.82 196.501 39.46C196.091 39.1 195.886 38.515 195.886 37.705V33.13H194.911V31.735H195.886V29.68H197.611V31.735H199.621V33.13H197.611ZM208.051 35.83C208.051 35 208.221 34.265 208.561 33.625C208.911 32.985 209.381 32.49 209.971 32.14C210.571 31.78 211.231 31.6 211.951 31.6C212.601 31.6 213.166 31.73 213.646 31.99C214.136 32.24 214.526 32.555 214.816 32.935V31.735H216.541V40H214.816V38.77C214.526 39.16 214.131 39.485 213.631 39.745C213.131 40.005 212.561 40.135 211.921 40.135C211.211 40.135 210.561 39.955 209.971 39.595C209.381 39.225 208.911 38.715 208.561 38.065C208.221 37.405 208.051 36.66 208.051 35.83ZM214.816 35.86C214.816 35.29 214.696 34.795 214.456 34.375C214.226 33.955 213.921 33.635 213.541 33.415C213.161 33.195 212.751 33.085 212.311 33.085C211.871 33.085 211.461 33.195 211.081 33.415C210.701 33.625 210.391 33.94 210.151 34.36C209.921 34.77 209.806 35.26 209.806 35.83C209.806 36.4 209.921 36.9 210.151 37.33C210.391 37.76 210.701 38.09 211.081 38.32C211.471 38.54 211.881 38.65 212.311 38.65C212.751 38.65 213.161 38.54 213.541 38.32C213.921 38.1 214.226 37.78 214.456 37.36C214.696 36.93 214.816 36.43 214.816 35.86ZM218.127 35.86C218.127 35.01 218.297 34.265 218.637 33.625C218.987 32.975 219.467 32.475 220.077 32.125C220.687 31.775 221.387 31.6 222.177 31.6C223.177 31.6 224.002 31.84 224.652 32.32C225.312 32.79 225.757 33.465 225.987 34.345H224.142C223.992 33.935 223.752 33.615 223.422 33.385C223.092 33.155 222.677 33.04 222.177 33.04C221.477 33.04 220.917 33.29 220.497 33.79C220.087 34.28 219.882 34.97 219.882 35.86C219.882 36.75 220.087 37.445 220.497 37.945C220.917 38.445 221.477 38.695 222.177 38.695C223.167 38.695 223.822 38.26 224.142 37.39H225.987C225.747 38.23 225.297 38.9 224.637 39.4C223.977 39.89 223.157 40.135 222.177 40.135C221.387 40.135 220.687 39.96 220.077 39.61C219.467 39.25 218.987 38.75 218.637 38.11C218.297 37.46 218.127 36.71 218.127 35.86ZM227.032 35.86C227.032 35.01 227.202 34.265 227.542 33.625C227.892 32.975 228.372 32.475 228.982 32.125C229.592 31.775 230.292 31.6 231.082 31.6C232.082 31.6 232.907 31.84 233.557 32.32C234.217 32.79 234.662 33.465 234.892 34.345H233.047C232.897 33.935 232.657 33.615 232.327 33.385C231.997 33.155 231.582 33.04 231.082 33.04C230.382 33.04 229.822 33.29 229.402 33.79C228.992 34.28 228.787 34.97 228.787 35.86C228.787 36.75 228.992 37.445 229.402 37.945C229.822 38.445 230.382 38.695 231.082 38.695C232.072 38.695 232.727 38.26 233.047 37.39H234.892C234.652 38.23 234.202 38.9 233.542 39.4C232.882 39.89 232.062 40.135 231.082 40.135C230.292 40.135 229.592 39.96 228.982 39.61C228.372 39.25 227.892 38.75 227.542 38.11C227.202 37.46 227.032 36.71 227.032 35.86ZM240.091 40.135C239.311 40.135 238.606 39.96 237.976 39.61C237.346 39.25 236.851 38.75 236.491 38.11C236.131 37.46 235.951 36.71 235.951 35.86C235.951 35.02 236.136 34.275 236.506 33.625C236.876 32.975 237.381 32.475 238.021 32.125C238.661 31.775 239.376 31.6 240.166 31.6C240.956 31.6 241.671 31.775 242.311 32.125C242.951 32.475 243.456 32.975 243.826 33.625C244.196 34.275 244.381 35.02 244.381 35.86C244.381 36.7 244.191 37.445 243.811 38.095C243.431 38.745 242.911 39.25 242.251 39.61C241.601 39.96 240.881 40.135 240.091 40.135ZM240.091 38.65C240.531 38.65 240.941 38.545 241.321 38.335C241.711 38.125 242.026 37.81 242.266 37.39C242.506 36.97 242.626 36.46 242.626 35.86C242.626 35.26 242.511 34.755 242.281 34.345C242.051 33.925 241.746 33.61 241.366 33.4C240.986 33.19 240.576 33.085 240.136 33.085C239.696 33.085 239.286 33.19 238.906 33.4C238.536 33.61 238.241 33.925 238.021 34.345C237.801 34.755 237.691 35.26 237.691 35.86C237.691 36.75 237.916 37.44 238.366 37.93C238.826 38.41 239.401 38.65 240.091 38.65ZM253.466 31.735V40H251.756V39.025C251.486 39.365 251.131 39.635 250.691 39.835C250.261 40.025 249.801 40.12 249.311 40.12C248.661 40.12 248.076 39.985 247.556 39.715C247.046 39.445 246.641 39.045 246.341 38.515C246.051 37.985 245.906 37.345 245.906 36.595V31.735H247.601V36.34C247.601 37.08 247.786 37.65 248.156 38.05C248.526 38.44 249.031 38.635 249.671 38.635C250.311 38.635 250.816 38.44 251.186 38.05C251.566 37.65 251.756 37.08 251.756 36.34V31.735H253.466ZM259.802 31.6C260.452 31.6 261.032 31.735 261.542 32.005C262.062 32.275 262.467 32.675 262.757 33.205C263.047 33.735 263.192 34.375 263.192 35.125V40H261.497V35.38C261.497 34.64 261.312 34.075 260.942 33.685C260.572 33.285 260.067 33.085 259.427 33.085C258.787 33.085 258.277 33.285 257.897 33.685C257.527 34.075 257.342 34.64 257.342 35.38V40H255.632V31.735H257.342V32.68C257.622 32.34 257.977 32.075 258.407 31.885C258.847 31.695 259.312 31.6 259.802 31.6ZM267.279 33.13V37.705C267.279 38.015 267.349 38.24 267.489 38.38C267.639 38.51 267.889 38.575 268.239 38.575H269.289V40H267.939C267.169 40 266.579 39.82 266.169 39.46C265.759 39.1 265.554 38.515 265.554 37.705V33.13H264.579V31.735H265.554V29.68H267.279V31.735H269.289V33.13H267.279ZM280.284 33.13V37.705C280.284 38.015 280.354 38.24 280.494 38.38C280.644 38.51 280.894 38.575 281.244 38.575H282.294V40H280.944C280.174 40 279.584 39.82 279.174 39.46C278.764 39.1 278.559 38.515 278.559 37.705V33.13H277.584V31.735H278.559V29.68H280.284V31.735H282.294V33.13H280.284ZM287.365 40.135C286.585 40.135 285.88 39.96 285.25 39.61C284.62 39.25 284.125 38.75 283.765 38.11C283.405 37.46 283.225 36.71 283.225 35.86C283.225 35.02 283.41 34.275 283.78 33.625C284.15 32.975 284.655 32.475 285.295 32.125C285.935 31.775 286.65 31.6 287.44 31.6C288.23 31.6 288.945 31.775 289.585 32.125C290.225 32.475 290.73 32.975 291.1 33.625C291.47 34.275 291.655 35.02 291.655 35.86C291.655 36.7 291.465 37.445 291.085 38.095C290.705 38.745 290.185 39.25 289.525 39.61C288.875 39.96 288.155 40.135 287.365 40.135ZM287.365 38.65C287.805 38.65 288.215 38.545 288.595 38.335C288.985 38.125 289.3 37.81 289.54 37.39C289.78 36.97 289.9 36.46 289.9 35.86C289.9 35.26 289.785 34.755 289.555 34.345C289.325 33.925 289.02 33.61 288.64 33.4C288.26 33.19 287.85 33.085 287.41 33.085C286.97 33.085 286.56 33.19 286.18 33.4C285.81 33.61 285.515 33.925 285.295 34.345C285.075 34.755 284.965 35.26 284.965 35.86C284.965 36.75 285.19 37.44 285.64 37.93C286.1 38.41 286.675 38.65 287.365 38.65ZM305.044 31.6C305.674 31.6 306.234 31.735 306.724 32.005C307.224 32.275 307.614 32.675 307.894 33.205C308.184 33.735 308.329 34.375 308.329 35.125V40H306.634V35.38C306.634 34.64 306.449 34.075 306.079 33.685C305.709 33.285 305.204 33.085 304.564 33.085C303.924 33.085 303.414 33.285 303.034 33.685C302.664 34.075 302.479 34.64 302.479 35.38V40H300.769V28.9H302.479V32.695C302.769 32.345 303.134 32.075 303.574 31.885C304.024 31.695 304.514 31.6 305.044 31.6ZM314.005 40.135C313.225 40.135 312.52 39.96 311.89 39.61C311.26 39.25 310.765 38.75 310.405 38.11C310.045 37.46 309.865 36.71 309.865 35.86C309.865 35.02 310.05 34.275 310.42 33.625C310.79 32.975 311.295 32.475 311.935 32.125C312.575 31.775 313.29 31.6 314.08 31.6C314.87 31.6 315.585 31.775 316.225 32.125C316.865 32.475 317.37 32.975 317.74 33.625C318.11 34.275 318.295 35.02 318.295 35.86C318.295 36.7 318.105 37.445 317.725 38.095C317.345 38.745 316.825 39.25 316.165 39.61C315.515 39.96 314.795 40.135 314.005 40.135ZM314.005 38.65C314.445 38.65 314.855 38.545 315.235 38.335C315.625 38.125 315.94 37.81 316.18 37.39C316.42 36.97 316.54 36.46 316.54 35.86C316.54 35.26 316.425 34.755 316.195 34.345C315.965 33.925 315.66 33.61 315.28 33.4C314.9 33.19 314.49 33.085 314.05 33.085C313.61 33.085 313.2 33.19 312.82 33.4C312.45 33.61 312.155 33.925 311.935 34.345C311.715 34.755 311.605 35.26 311.605 35.86C311.605 36.75 311.83 37.44 312.28 37.93C312.74 38.41 313.315 38.65 314.005 38.65ZM321.606 28.9V40H319.896V28.9H321.606ZM323.191 35.83C323.191 35 323.361 34.265 323.701 33.625C324.051 32.985 324.521 32.49 325.111 32.14C325.711 31.78 326.376 31.6 327.106 31.6C327.646 31.6 328.176 31.72 328.696 31.96C329.226 32.19 329.646 32.5 329.956 32.89V28.9H331.681V40H329.956V38.755C329.676 39.155 329.286 39.485 328.786 39.745C328.296 40.005 327.731 40.135 327.091 40.135C326.371 40.135 325.711 39.955 325.111 39.595C324.521 39.225 324.051 38.715 323.701 38.065C323.361 37.405 323.191 36.66 323.191 35.83ZM329.956 35.86C329.956 35.29 329.836 34.795 329.596 34.375C329.366 33.955 329.061 33.635 328.681 33.415C328.301 33.195 327.891 33.085 327.451 33.085C327.011 33.085 326.601 33.195 326.221 33.415C325.841 33.625 325.531 33.94 325.291 34.36C325.061 34.77 324.946 35.26 324.946 35.83C324.946 36.4 325.061 36.9 325.291 37.33C325.531 37.76 325.841 38.09 326.221 38.32C326.611 38.54 327.021 38.65 327.451 38.65C327.891 38.65 328.301 38.54 328.681 38.32C329.061 38.1 329.366 37.78 329.596 37.36C329.836 36.93 329.956 36.43 329.956 35.86ZM348.596 38.635V40.03H341.651L341.351 39.1C341.771 38.65 342.081 38.205 342.281 37.765C342.481 37.315 342.581 36.76 342.581 36.1C342.581 35.9 342.556 35.69 342.506 35.47H340.856V34.285H342.131C341.921 33.655 341.816 33.045 341.816 32.455C341.816 31.785 341.961 31.205 342.251 30.715C342.541 30.225 342.941 29.85 343.451 29.59C343.961 29.32 344.551 29.185 345.221 29.185C346.291 29.185 347.101 29.485 347.651 30.085C348.201 30.685 348.486 31.45 348.506 32.38H346.946C346.946 31.84 346.806 31.415 346.526 31.105C346.246 30.785 345.811 30.625 345.221 30.625C344.681 30.625 344.246 30.78 343.916 31.09C343.596 31.4 343.436 31.885 343.436 32.545C343.436 32.835 343.466 33.115 343.526 33.385C343.586 33.655 343.671 33.955 343.781 34.285H346.691V35.47H344.126C344.176 35.7 344.201 35.915 344.201 36.115C344.201 37.085 343.866 37.925 343.196 38.635H348.596ZM350.508 30.625V29.065H353.628V40H351.903V30.625H350.508ZM355.887 34.39C355.887 32.66 356.177 31.31 356.757 30.34C357.347 29.36 358.357 28.87 359.787 28.87C361.217 28.87 362.222 29.36 362.802 30.34C363.392 31.31 363.687 32.66 363.687 34.39C363.687 36.14 363.392 37.51 362.802 38.5C362.222 39.48 361.217 39.97 359.787 39.97C358.357 39.97 357.347 39.48 356.757 38.5C356.177 37.51 355.887 36.14 355.887 34.39ZM362.007 34.39C362.007 33.58 361.952 32.895 361.842 32.335C361.742 31.775 361.532 31.32 361.212 30.97C360.892 30.61 360.417 30.43 359.787 30.43C359.157 30.43 358.682 30.61 358.362 30.97C358.042 31.32 357.827 31.775 357.717 32.335C357.617 32.895 357.567 33.58 357.567 34.39C357.567 35.23 357.617 35.935 357.717 36.505C357.817 37.075 358.027 37.535 358.347 37.885C358.677 38.235 359.157 38.41 359.787 38.41C360.417 38.41 360.892 38.235 361.212 37.885C361.542 37.535 361.757 37.075 361.857 36.505C361.957 35.935 362.007 35.23 362.007 34.39ZM365.407 34.39C365.407 32.66 365.697 31.31 366.277 30.34C366.867 29.36 367.877 28.87 369.307 28.87C370.737 28.87 371.742 29.36 372.322 30.34C372.912 31.31 373.207 32.66 373.207 34.39C373.207 36.14 372.912 37.51 372.322 38.5C371.742 39.48 370.737 39.97 369.307 39.97C367.877 39.97 366.867 39.48 366.277 38.5C365.697 37.51 365.407 36.14 365.407 34.39ZM371.527 34.39C371.527 33.58 371.472 32.895 371.362 32.335C371.262 31.775 371.052 31.32 370.732 30.97C370.412 30.61 369.937 30.43 369.307 30.43C368.677 30.43 368.202 30.61 367.882 30.97C367.562 31.32 367.347 31.775 367.237 32.335C367.137 32.895 367.087 33.58 367.087 34.39C367.087 35.23 367.137 35.935 367.237 36.505C367.337 37.075 367.547 37.535 367.867 37.885C368.197 38.235 368.677 38.41 369.307 38.41C369.937 38.41 370.412 38.235 370.732 37.885C371.062 37.535 371.277 37.075 371.377 36.505C371.477 35.935 371.527 35.23 371.527 34.39ZM377.026 37.945L375.211 42.085H374.101L375.166 37.945H377.026ZM378.205 34.39C378.205 32.66 378.495 31.31 379.075 30.34C379.665 29.36 380.675 28.87 382.105 28.87C383.535 28.87 384.54 29.36 385.12 30.34C385.71 31.31 386.005 32.66 386.005 34.39C386.005 36.14 385.71 37.51 385.12 38.5C384.54 39.48 383.535 39.97 382.105 39.97C380.675 39.97 379.665 39.48 379.075 38.5C378.495 37.51 378.205 36.14 378.205 34.39ZM384.325 34.39C384.325 33.58 384.27 32.895 384.16 32.335C384.06 31.775 383.85 31.32 383.53 30.97C383.21 30.61 382.735 30.43 382.105 30.43C381.475 30.43 381 30.61 380.68 30.97C380.36 31.32 380.145 31.775 380.035 32.335C379.935 32.895 379.885 33.58 379.885 34.39C379.885 35.23 379.935 35.935 380.035 36.505C380.135 37.075 380.345 37.535 380.665 37.885C380.995 38.235 381.475 38.41 382.105 38.41C382.735 38.41 383.21 38.235 383.53 37.885C383.86 37.535 384.075 37.075 384.175 36.505C384.275 35.935 384.325 35.23 384.325 34.39ZM387.724 34.39C387.724 32.66 388.014 31.31 388.594 30.34C389.184 29.36 390.194 28.87 391.624 28.87C393.054 28.87 394.059 29.36 394.639 30.34C395.229 31.31 395.524 32.66 395.524 34.39C395.524 36.14 395.229 37.51 394.639 38.5C394.059 39.48 393.054 39.97 391.624 39.97C390.194 39.97 389.184 39.48 388.594 38.5C388.014 37.51 387.724 36.14 387.724 34.39ZM393.844 34.39C393.844 33.58 393.789 32.895 393.679 32.335C393.579 31.775 393.369 31.32 393.049 30.97C392.729 30.61 392.254 30.43 391.624 30.43C390.994 30.43 390.519 30.61 390.199 30.97C389.879 31.32 389.664 31.775 389.554 32.335C389.454 32.895 389.404 33.58 389.404 34.39C389.404 35.23 389.454 35.935 389.554 36.505C389.654 37.075 389.864 37.535 390.184 37.885C390.514 38.235 390.994 38.41 391.624 38.41C392.254 38.41 392.729 38.235 393.049 37.885C393.379 37.535 393.594 37.075 393.694 36.505C393.794 35.935 393.844 35.23 393.844 34.39ZM397.244 34.39C397.244 32.66 397.534 31.31 398.114 30.34C398.704 29.36 399.714 28.87 401.144 28.87C402.574 28.87 403.579 29.36 404.159 30.34C404.749 31.31 405.044 32.66 405.044 34.39C405.044 36.14 404.749 37.51 404.159 38.5C403.579 39.48 402.574 39.97 401.144 39.97C399.714 39.97 398.704 39.48 398.114 38.5C397.534 37.51 397.244 36.14 397.244 34.39ZM403.364 34.39C403.364 33.58 403.309 32.895 403.199 32.335C403.099 31.775 402.889 31.32 402.569 30.97C402.249 30.61 401.774 30.43 401.144 30.43C400.514 30.43 400.039 30.61 399.719 30.97C399.399 31.32 399.184 31.775 399.074 32.335C398.974 32.895 398.924 33.58 398.924 34.39C398.924 35.23 398.974 35.935 399.074 36.505C399.174 37.075 399.384 37.535 399.704 37.885C400.034 38.235 400.514 38.41 401.144 38.41C401.774 38.41 402.249 38.235 402.569 37.885C402.899 37.535 403.114 37.075 403.214 36.505C403.314 35.935 403.364 35.23 403.364 34.39ZM417.967 33.13H416.437V40H414.712V33.13H413.737V31.735H414.712V31.15C414.712 30.2 414.962 29.51 415.462 29.08C415.972 28.64 416.767 28.42 417.847 28.42V29.845C417.327 29.845 416.962 29.945 416.752 30.145C416.542 30.335 416.437 30.67 416.437 31.15V31.735H417.967V33.13ZM422.978 40.135C422.198 40.135 421.493 39.96 420.863 39.61C420.233 39.25 419.738 38.75 419.378 38.11C419.018 37.46 418.838 36.71 418.838 35.86C418.838 35.02 419.023 34.275 419.393 33.625C419.763 32.975 420.268 32.475 420.908 32.125C421.548 31.775 422.263 31.6 423.053 31.6C423.843 31.6 424.558 31.775 425.198 32.125C425.838 32.475 426.343 32.975 426.713 33.625C427.083 34.275 427.268 35.02 427.268 35.86C427.268 36.7 427.078 37.445 426.698 38.095C426.318 38.745 425.798 39.25 425.138 39.61C424.488 39.96 423.768 40.135 422.978 40.135ZM422.978 38.65C423.418 38.65 423.828 38.545 424.208 38.335C424.598 38.125 424.913 37.81 425.153 37.39C425.393 36.97 425.513 36.46 425.513 35.86C425.513 35.26 425.398 34.755 425.168 34.345C424.938 33.925 424.633 33.61 424.253 33.4C423.873 33.19 423.463 33.085 423.023 33.085C422.583 33.085 422.173 33.19 421.793 33.4C421.423 33.61 421.128 33.925 420.908 34.345C420.688 34.755 420.578 35.26 420.578 35.86C420.578 36.75 420.803 37.44 421.253 37.93C421.713 38.41 422.288 38.65 422.978 38.65ZM430.578 32.935C430.828 32.515 431.158 32.19 431.568 31.96C431.988 31.72 432.483 31.6 433.053 31.6V33.37H432.618C431.948 33.37 431.438 33.54 431.088 33.88C430.748 34.22 430.578 34.81 430.578 35.65V40H428.868V31.735H430.578V32.935ZM441.479 35.83C441.479 35 441.649 34.265 441.989 33.625C442.339 32.985 442.809 32.49 443.399 32.14C443.999 31.78 444.659 31.6 445.379 31.6C446.029 31.6 446.594 31.73 447.074 31.99C447.564 32.24 447.954 32.555 448.244 32.935V31.735H449.969V40H448.244V38.77C447.954 39.16 447.559 39.485 447.059 39.745C446.559 40.005 445.989 40.135 445.349 40.135C444.639 40.135 443.989 39.955 443.399 39.595C442.809 39.225 442.339 38.715 441.989 38.065C441.649 37.405 441.479 36.66 441.479 35.83ZM448.244 35.86C448.244 35.29 448.124 34.795 447.884 34.375C447.654 33.955 447.349 33.635 446.969 33.415C446.589 33.195 446.179 33.085 445.739 33.085C445.299 33.085 444.889 33.195 444.509 33.415C444.129 33.625 443.819 33.94 443.579 34.36C443.349 34.77 443.234 35.26 443.234 35.83C443.234 36.4 443.349 36.9 443.579 37.33C443.819 37.76 444.129 38.09 444.509 38.32C444.899 38.54 445.309 38.65 445.739 38.65C446.179 38.65 446.589 38.54 446.969 38.32C447.349 38.1 447.654 37.78 447.884 37.36C448.124 36.93 448.244 36.43 448.244 35.86ZM43.555 55.86C43.555 55.01 43.725 54.265 44.065 53.625C44.415 52.975 44.895 52.475 45.505 52.125C46.115 51.775 46.815 51.6 47.605 51.6C48.605 51.6 49.43 51.84 50.08 52.32C50.74 52.79 51.185 53.465 51.415 54.345H49.57C49.42 53.935 49.18 53.615 48.85 53.385C48.52 53.155 48.105 53.04 47.605 53.04C46.905 53.04 46.345 53.29 45.925 53.79C45.515 54.28 45.31 54.97 45.31 55.86C45.31 56.75 45.515 57.445 45.925 57.945C46.345 58.445 46.905 58.695 47.605 58.695C48.595 58.695 49.25 58.26 49.57 57.39H51.415C51.175 58.23 50.725 58.9 50.065 59.4C49.405 59.89 48.585 60.135 47.605 60.135C46.815 60.135 46.115 59.96 45.505 59.61C44.895 59.25 44.415 58.75 44.065 58.11C43.725 57.46 43.555 56.71 43.555 55.86ZM54.7391 52.935C54.9891 52.515 55.3191 52.19 55.7291 51.96C56.1491 51.72 56.6441 51.6 57.2141 51.6V53.37H56.7791C56.1091 53.37 55.5991 53.54 55.2491 53.88C54.9091 54.22 54.7391 54.81 54.7391 55.65V60H53.0291V51.735H54.7391V52.935ZM66.136 51.735L61.066 63.885H59.296L60.976 59.865L57.721 51.735H59.626L61.951 58.035L64.366 51.735H66.136ZM69.0464 52.95C69.3364 52.57 69.7314 52.25 70.2314 51.99C70.7314 51.73 71.2964 51.6 71.9264 51.6C72.6464 51.6 73.3014 51.78 73.8914 52.14C74.4914 52.49 74.9614 52.985 75.3014 53.625C75.6414 54.265 75.8114 55 75.8114 55.83C75.8114 56.66 75.6414 57.405 75.3014 58.065C74.9614 58.715 74.4914 59.225 73.8914 59.595C73.3014 59.955 72.6464 60.135 71.9264 60.135C71.2964 60.135 70.7364 60.01 70.2464 59.76C69.7564 59.5 69.3564 59.18 69.0464 58.8V63.93H67.3364V51.735H69.0464V52.95ZM74.0714 55.83C74.0714 55.26 73.9514 54.77 73.7114 54.36C73.4814 53.94 73.1714 53.625 72.7814 53.415C72.4014 53.195 71.9914 53.085 71.5514 53.085C71.1214 53.085 70.7114 53.195 70.3214 53.415C69.9414 53.635 69.6314 53.955 69.3914 54.375C69.1614 54.795 69.0464 55.29 69.0464 55.86C69.0464 56.43 69.1614 56.93 69.3914 57.36C69.6314 57.78 69.9414 58.1 70.3214 58.32C70.7114 58.54 71.1214 58.65 71.5514 58.65C71.9914 58.65 72.4014 58.54 72.7814 58.32C73.1714 58.09 73.4814 57.76 73.7114 57.33C73.9514 56.9 74.0714 56.4 74.0714 55.83ZM79.4075 53.13V57.705C79.4075 58.015 79.4775 58.24 79.6175 58.38C79.7675 58.51 80.0175 58.575 80.3675 58.575H81.4175V60H80.0675C79.2975 60 78.7075 59.82 78.2975 59.46C77.8875 59.1 77.6825 58.515 77.6825 57.705V53.13H76.7075V51.735H77.6825V49.68H79.4075V51.735H81.4175V53.13H79.4075ZM86.4885 60.135C85.7085 60.135 85.0035 59.96 84.3735 59.61C83.7435 59.25 83.2485 58.75 82.8885 58.11C82.5285 57.46 82.3485 56.71 82.3485 55.86C82.3485 55.02 82.5335 54.275 82.9035 53.625C83.2735 52.975 83.7785 52.475 84.4185 52.125C85.0585 51.775 85.7735 51.6 86.5635 51.6C87.3535 51.6 88.0685 51.775 88.7085 52.125C89.3485 52.475 89.8535 52.975 90.2235 53.625C90.5935 54.275 90.7785 55.02 90.7785 55.86C90.7785 56.7 90.5885 57.445 90.2085 58.095C89.8285 58.745 89.3085 59.25 88.6485 59.61C87.9985 59.96 87.2785 60.135 86.4885 60.135ZM86.4885 58.65C86.9285 58.65 87.3385 58.545 87.7185 58.335C88.1085 58.125 88.4235 57.81 88.6635 57.39C88.9035 56.97 89.0235 56.46 89.0235 55.86C89.0235 55.26 88.9085 54.755 88.6785 54.345C88.4485 53.925 88.1435 53.61 87.7635 53.4C87.3835 53.19 86.9735 53.085 86.5335 53.085C86.0935 53.085 85.6835 53.19 85.3035 53.4C84.9335 53.61 84.6385 53.925 84.4185 54.345C84.1985 54.755 84.0885 55.26 84.0885 55.86C84.0885 56.75 84.3135 57.44 84.7635 57.93C85.2235 58.41 85.7985 58.65 86.4885 58.65ZM97.0554 50.64C96.7454 50.64 96.4854 50.535 96.2754 50.325C96.0654 50.115 95.9604 49.855 95.9604 49.545C95.9604 49.235 96.0654 48.975 96.2754 48.765C96.4854 48.555 96.7454 48.45 97.0554 48.45C97.3554 48.45 97.6104 48.555 97.8204 48.765C98.0304 48.975 98.1354 49.235 98.1354 49.545C98.1354 49.855 98.0304 50.115 97.8204 50.325C97.6104 50.535 97.3554 50.64 97.0554 50.64ZM97.8954 51.735V60H96.1854V51.735H97.8954ZM104.221 51.6C104.871 51.6 105.451 51.735 105.961 52.005C106.481 52.275 106.886 52.675 107.176 53.205C107.466 53.735 107.611 54.375 107.611 55.125V60H105.916V55.38C105.916 54.64 105.731 54.075 105.361 53.685C104.991 53.285 104.486 53.085 103.846 53.085C103.206 53.085 102.696 53.285 102.316 53.685C101.946 54.075 101.761 54.64 101.761 55.38V60H100.051V51.735H101.761V52.68C102.041 52.34 102.396 52.075 102.826 51.885C103.266 51.695 103.731 51.6 104.221 51.6ZM112.897 58.47L115.237 51.735H117.052L113.902 60H111.862L108.727 51.735H110.557L112.897 58.47ZM125.829 55.665C125.829 55.975 125.809 56.255 125.769 56.505H119.454C119.504 57.165 119.749 57.695 120.189 58.095C120.629 58.495 121.169 58.695 121.809 58.695C122.729 58.695 123.379 58.31 123.759 57.54H125.604C125.354 58.3 124.899 58.925 124.239 59.415C123.589 59.895 122.779 60.135 121.809 60.135C121.019 60.135 120.309 59.96 119.679 59.61C119.059 59.25 118.569 58.75 118.209 58.11C117.859 57.46 117.684 56.71 117.684 55.86C117.684 55.01 117.854 54.265 118.194 53.625C118.544 52.975 119.029 52.475 119.649 52.125C120.279 51.775 120.999 51.6 121.809 51.6C122.589 51.6 123.284 51.77 123.894 52.11C124.504 52.45 124.979 52.93 125.319 53.55C125.659 54.16 125.829 54.865 125.829 55.665ZM124.044 55.125C124.034 54.495 123.809 53.99 123.369 53.61C122.929 53.23 122.384 53.04 121.734 53.04C121.144 53.04 120.639 53.23 120.219 53.61C119.799 53.98 119.549 54.485 119.469 55.125H124.044ZM130.422 60.135C129.772 60.135 129.187 60.02 128.667 59.79C128.157 59.55 127.752 59.23 127.452 58.83C127.152 58.42 126.992 57.965 126.972 57.465H128.742C128.772 57.815 128.937 58.11 129.237 58.35C129.547 58.58 129.932 58.695 130.392 58.695C130.872 58.695 131.242 58.605 131.502 58.425C131.772 58.235 131.907 57.995 131.907 57.705C131.907 57.395 131.757 57.165 131.457 57.015C131.167 56.865 130.702 56.7 130.062 56.52C129.442 56.35 128.937 56.185 128.547 56.025C128.157 55.865 127.817 55.62 127.527 55.29C127.247 54.96 127.107 54.525 127.107 53.985C127.107 53.545 127.237 53.145 127.497 52.785C127.757 52.415 128.127 52.125 128.607 51.915C129.097 51.705 129.657 51.6 130.287 51.6C131.227 51.6 131.982 51.84 132.552 52.32C133.132 52.79 133.442 53.435 133.482 54.255H131.772C131.742 53.885 131.592 53.59 131.322 53.37C131.052 53.15 130.687 53.04 130.227 53.04C129.777 53.04 129.432 53.125 129.192 53.295C128.952 53.465 128.832 53.69 128.832 53.97C128.832 54.19 128.912 54.375 129.072 54.525C129.232 54.675 129.427 54.795 129.657 54.885C129.887 54.965 130.227 55.07 130.677 55.2C131.277 55.36 131.767 55.525 132.147 55.695C132.537 55.855 132.872 56.095 133.152 56.415C133.432 56.735 133.577 57.16 133.587 57.69C133.587 58.16 133.457 58.58 133.197 58.95C132.937 59.32 132.567 59.61 132.087 59.82C131.617 60.03 131.062 60.135 130.422 60.135ZM137.34 53.13V57.705C137.34 58.015 137.41 58.24 137.55 58.38C137.7 58.51 137.95 58.575 138.3 58.575H139.35V60H138C137.23 60 136.64 59.82 136.23 59.46C135.82 59.1 135.615 58.515 135.615 57.705V53.13H134.64V51.735H135.615V49.68H137.34V51.735H139.35V53.13H137.34ZM150.841 51.6C151.491 51.6 152.071 51.735 152.581 52.005C153.101 52.275 153.506 52.675 153.796 53.205C154.096 53.735 154.246 54.375 154.246 55.125V60H152.551V55.38C152.551 54.64 152.366 54.075 151.996 53.685C151.626 53.285 151.121 53.085 150.481 53.085C149.841 53.085 149.331 53.285 148.951 53.685C148.581 54.075 148.396 54.64 148.396 55.38V60H146.701V55.38C146.701 54.64 146.516 54.075 146.146 53.685C145.776 53.285 145.271 53.085 144.631 53.085C143.991 53.085 143.481 53.285 143.101 53.685C142.731 54.075 142.546 54.64 142.546 55.38V60H140.836V51.735H142.546V52.68C142.826 52.34 143.181 52.075 143.611 51.885C144.041 51.695 144.501 51.6 144.991 51.6C145.651 51.6 146.241 51.74 146.761 52.02C147.281 52.3 147.681 52.705 147.961 53.235C148.211 52.735 148.601 52.34 149.131 52.05C149.661 51.75 150.231 51.6 150.841 51.6ZM163.907 55.665C163.907 55.975 163.887 56.255 163.847 56.505H157.532C157.582 57.165 157.827 57.695 158.267 58.095C158.707 58.495 159.247 58.695 159.887 58.695C160.807 58.695 161.457 58.31 161.837 57.54H163.682C163.432 58.3 162.977 58.925 162.317 59.415C161.667 59.895 160.857 60.135 159.887 60.135C159.097 60.135 158.387 59.96 157.757 59.61C157.137 59.25 156.647 58.75 156.287 58.11C155.937 57.46 155.762 56.71 155.762 55.86C155.762 55.01 155.932 54.265 156.272 53.625C156.622 52.975 157.107 52.475 157.727 52.125C158.357 51.775 159.077 51.6 159.887 51.6C160.667 51.6 161.362 51.77 161.972 52.11C162.582 52.45 163.057 52.93 163.397 53.55C163.737 54.16 163.907 54.865 163.907 55.665ZM162.122 55.125C162.112 54.495 161.887 53.99 161.447 53.61C161.007 53.23 160.462 53.04 159.812 53.04C159.222 53.04 158.717 53.23 158.297 53.61C157.877 53.98 157.627 54.485 157.547 55.125H162.122ZM169.67 51.6C170.32 51.6 170.9 51.735 171.41 52.005C171.93 52.275 172.335 52.675 172.625 53.205C172.915 53.735 173.06 54.375 173.06 55.125V60H171.365V55.38C171.365 54.64 171.18 54.075 170.81 53.685C170.44 53.285 169.935 53.085 169.295 53.085C168.655 53.085 168.145 53.285 167.765 53.685C167.395 54.075 167.21 54.64 167.21 55.38V60H165.5V51.735H167.21V52.68C167.49 52.34 167.845 52.075 168.275 51.885C168.715 51.695 169.18 51.6 169.67 51.6ZM177.146 53.13V57.705C177.146 58.015 177.216 58.24 177.356 58.38C177.506 58.51 177.756 58.575 178.106 58.575H179.156V60H177.806C177.036 60 176.446 59.82 176.036 59.46C175.626 59.1 175.421 58.515 175.421 57.705V53.13H174.446V51.735H175.421V49.68H177.146V51.735H179.156V53.13H177.146ZM187.448 60.135C186.798 60.135 186.213 60.02 185.693 59.79C185.183 59.55 184.778 59.23 184.478 58.83C184.178 58.42 184.018 57.965 183.998 57.465H185.768C185.798 57.815 185.963 58.11 186.263 58.35C186.573 58.58 186.958 58.695 187.418 58.695C187.898 58.695 188.268 58.605 188.528 58.425C188.798 58.235 188.933 57.995 188.933 57.705C188.933 57.395 188.783 57.165 188.483 57.015C188.193 56.865 187.728 56.7 187.088 56.52C186.468 56.35 185.963 56.185 185.573 56.025C185.183 55.865 184.843 55.62 184.553 55.29C184.273 54.96 184.133 54.525 184.133 53.985C184.133 53.545 184.263 53.145 184.523 52.785C184.783 52.415 185.153 52.125 185.633 51.915C186.123 51.705 186.683 51.6 187.313 51.6C188.253 51.6 189.008 51.84 189.578 52.32C190.158 52.79 190.468 53.435 190.508 54.255H188.798C188.768 53.885 188.618 53.59 188.348 53.37C188.078 53.15 187.713 53.04 187.253 53.04C186.803 53.04 186.458 53.125 186.218 53.295C185.978 53.465 185.858 53.69 185.858 53.97C185.858 54.19 185.938 54.375 186.098 54.525C186.258 54.675 186.453 54.795 186.683 54.885C186.913 54.965 187.253 55.07 187.703 55.2C188.303 55.36 188.793 55.525 189.173 55.695C189.563 55.855 189.898 56.095 190.178 56.415C190.458 56.735 190.603 57.16 190.613 57.69C190.613 58.16 190.483 58.58 190.223 58.95C189.963 59.32 189.593 59.61 189.113 59.82C188.643 60.03 188.088 60.135 187.448 60.135ZM191.801 55.86C191.801 55.01 191.971 54.265 192.311 53.625C192.661 52.975 193.141 52.475 193.751 52.125C194.361 51.775 195.061 51.6 195.851 51.6C196.851 51.6 197.676 51.84 198.326 52.32C198.986 52.79 199.431 53.465 199.661 54.345H197.816C197.666 53.935 197.426 53.615 197.096 53.385C196.766 53.155 196.351 53.04 195.851 53.04C195.151 53.04 194.591 53.29 194.171 53.79C193.761 54.28 193.556 54.97 193.556 55.86C193.556 56.75 193.761 57.445 194.171 57.945C194.591 58.445 195.151 58.695 195.851 58.695C196.841 58.695 197.496 58.26 197.816 57.39H199.661C199.421 58.23 198.971 58.9 198.311 59.4C197.651 59.89 196.831 60.135 195.851 60.135C195.061 60.135 194.361 59.96 193.751 59.61C193.141 59.25 192.661 58.75 192.311 58.11C191.971 57.46 191.801 56.71 191.801 55.86ZM205.55 51.6C206.18 51.6 206.74 51.735 207.23 52.005C207.73 52.275 208.12 52.675 208.4 53.205C208.69 53.735 208.835 54.375 208.835 55.125V60H207.14V55.38C207.14 54.64 206.955 54.075 206.585 53.685C206.215 53.285 205.71 53.085 205.07 53.085C204.43 53.085 203.92 53.285 203.54 53.685C203.17 54.075 202.985 54.64 202.985 55.38V60H201.275V48.9H202.985V52.695C203.275 52.345 203.64 52.075 204.08 51.885C204.53 51.695 205.02 51.6 205.55 51.6ZM218.501 55.665C218.501 55.975 218.481 56.255 218.441 56.505H212.126C212.176 57.165 212.421 57.695 212.861 58.095C213.301 58.495 213.841 58.695 214.481 58.695C215.401 58.695 216.051 58.31 216.431 57.54H218.276C218.026 58.3 217.571 58.925 216.911 59.415C216.261 59.895 215.451 60.135 214.481 60.135C213.691 60.135 212.981 59.96 212.351 59.61C211.731 59.25 211.241 58.75 210.881 58.11C210.531 57.46 210.356 56.71 210.356 55.86C210.356 55.01 210.526 54.265 210.866 53.625C211.216 52.975 211.701 52.475 212.321 52.125C212.951 51.775 213.671 51.6 214.481 51.6C215.261 51.6 215.956 51.77 216.566 52.11C217.176 52.45 217.651 52.93 217.991 53.55C218.331 54.16 218.501 54.865 218.501 55.665ZM216.716 55.125C216.706 54.495 216.481 53.99 216.041 53.61C215.601 53.23 215.056 53.04 214.406 53.04C213.816 53.04 213.311 53.23 212.891 53.61C212.471 53.98 212.221 54.485 212.141 55.125H216.716ZM230.099 51.6C230.749 51.6 231.329 51.735 231.839 52.005C232.359 52.275 232.764 52.675 233.054 53.205C233.354 53.735 233.504 54.375 233.504 55.125V60H231.809V55.38C231.809 54.64 231.624 54.075 231.254 53.685C230.884 53.285 230.379 53.085 229.739 53.085C229.099 53.085 228.589 53.285 228.209 53.685C227.839 54.075 227.654 54.64 227.654 55.38V60H225.959V55.38C225.959 54.64 225.774 54.075 225.404 53.685C225.034 53.285 224.529 53.085 223.889 53.085C223.249 53.085 222.739 53.285 222.359 53.685C221.989 54.075 221.804 54.64 221.804 55.38V60H220.094V51.735H221.804V52.68C222.084 52.34 222.439 52.075 222.869 51.885C223.299 51.695 223.759 51.6 224.249 51.6C224.909 51.6 225.499 51.74 226.019 52.02C226.539 52.3 226.939 52.705 227.219 53.235C227.469 52.735 227.859 52.34 228.389 52.05C228.919 51.75 229.489 51.6 230.099 51.6ZM243.165 55.665C243.165 55.975 243.145 56.255 243.105 56.505H236.79C236.84 57.165 237.085 57.695 237.525 58.095C237.965 58.495 238.505 58.695 239.145 58.695C240.065 58.695 240.715 58.31 241.095 57.54H242.94C242.69 58.3 242.235 58.925 241.575 59.415C240.925 59.895 240.115 60.135 239.145 60.135C238.355 60.135 237.645 59.96 237.015 59.61C236.395 59.25 235.905 58.75 235.545 58.11C235.195 57.46 235.02 56.71 235.02 55.86C235.02 55.01 235.19 54.265 235.53 53.625C235.88 52.975 236.365 52.475 236.985 52.125C237.615 51.775 238.335 51.6 239.145 51.6C239.925 51.6 240.62 51.77 241.23 52.11C241.84 52.45 242.315 52.93 242.655 53.55C242.995 54.16 243.165 54.865 243.165 55.665ZM241.38 55.125C241.37 54.495 241.145 53.99 240.705 53.61C240.265 53.23 239.72 53.04 239.07 53.04C238.48 53.04 237.975 53.23 237.555 53.61C237.135 53.98 236.885 54.485 236.805 55.125H241.38ZM247.563 49.425C248.583 49.425 249.398 49.705 250.008 50.265C250.628 50.825 250.938 51.59 250.938 52.56C250.938 53.57 250.618 54.33 249.978 54.84C249.338 55.35 248.488 55.605 247.428 55.605L247.368 56.79H245.883L245.808 54.435H246.303C247.273 54.435 248.013 54.305 248.523 54.045C249.043 53.785 249.303 53.29 249.303 52.56C249.303 52.03 249.148 51.615 248.838 51.315C248.538 51.015 248.118 50.865 247.578 50.865C247.038 50.865 246.613 51.01 246.303 51.3C245.993 51.59 245.838 51.995 245.838 52.515H244.233C244.233 51.915 244.368 51.38 244.638 50.91C244.908 50.44 245.293 50.075 245.793 49.815C246.303 49.555 246.893 49.425 247.563 49.425ZM246.603 60.105C246.293 60.105 246.033 60 245.823 59.79C245.613 59.58 245.508 59.32 245.508 59.01C245.508 58.7 245.613 58.44 245.823 58.23C246.033 58.02 246.293 57.915 246.603 57.915C246.903 57.915 247.158 58.02 247.368 58.23C247.578 58.44 247.683 58.7 247.683 59.01C247.683 59.32 247.578 59.58 247.368 59.79C247.158 60 246.903 60.105 246.603 60.105Z" fill="black"/>
</g>
<defs>
<filter id="filter0_d_833_11453" x="0.7" y="0.7" width="492.6" height="92.6" filterUnits="userSpaceOnUse" color-interpolation-filters="sRGB">
<feFlood flood-opacity="0" result="BackgroundImageFix"/>
<feColorMatrix in="SourceAlpha" type="matrix" values="0 0 0 0 0 0 0 0 0 0 0 0 0 0 0 0 0 0 127 0" result="hardAlpha"/>
<feOffset dy="2"/>
<feGaussianBlur stdDeviation="5.15"/>
<feComposite in2="hardAlpha" operator="out"/>
<feColorMatrix type="matrix" values="0 0 0 0 0 0 0 0 0 0 0 0 0 0 0 0 0 0 0.1 0"/>
<feBlend mode="normal" in2="BackgroundImageFix" result="effect1_dropShadow_833_11453"/>
<feBlend mode="normal" in="SourceGraphic" in2="effect1_dropShadow_833_11453" result="shape"/>
</filter>
</defs>
</svg>
