<svg width="405" height="74" viewBox="0 0 405 74" fill="none" xmlns="http://www.w3.org/2000/svg">
<rect x="102" width="303" height="49" rx="24.5" fill="url(#paint0_linear_1377_5170)"/>
<path d="M142.887 22.168C142.663 21.7573 142.355 21.4447 141.963 21.23C141.571 21.0153 141.114 20.908 140.591 20.908C140.013 20.908 139.499 21.0387 139.051 21.3C138.603 21.5613 138.253 21.9347 138.001 22.42C137.749 22.9053 137.623 23.4653 137.623 24.1C137.623 24.7533 137.749 25.3227 138.001 25.808C138.263 26.2933 138.622 26.6667 139.079 26.928C139.537 27.1893 140.069 27.32 140.675 27.32C141.422 27.32 142.033 27.124 142.509 26.732C142.985 26.3307 143.298 25.7753 143.447 25.066H140.087V23.568H145.379V25.276C145.249 25.9573 144.969 26.5873 144.539 27.166C144.11 27.7447 143.555 28.2113 142.873 28.566C142.201 28.9113 141.445 29.084 140.605 29.084C139.663 29.084 138.809 28.874 138.043 28.454C137.287 28.0247 136.69 27.432 136.251 26.676C135.822 25.92 135.607 25.0613 135.607 24.1C135.607 23.1387 135.822 22.28 136.251 21.524C136.69 20.7587 137.287 20.166 138.043 19.746C138.809 19.3167 139.658 19.102 140.591 19.102C141.693 19.102 142.649 19.3727 143.461 19.914C144.273 20.446 144.833 21.1973 145.141 22.168H142.887ZM154.039 24.954C154.039 25.234 154.021 25.486 153.983 25.71H148.313C148.36 26.27 148.556 26.7087 148.901 27.026C149.247 27.3433 149.671 27.502 150.175 27.502C150.903 27.502 151.421 27.1893 151.729 26.564H153.843C153.619 27.3107 153.19 27.9267 152.555 28.412C151.921 28.888 151.141 29.126 150.217 29.126C149.471 29.126 148.799 28.9627 148.201 28.636C147.613 28.3 147.151 27.8287 146.815 27.222C146.489 26.6153 146.325 25.9153 146.325 25.122C146.325 24.3193 146.489 23.6147 146.815 23.008C147.142 22.4013 147.599 21.9347 148.187 21.608C148.775 21.2813 149.452 21.118 150.217 21.118C150.955 21.118 151.613 21.2767 152.191 21.594C152.779 21.9113 153.232 22.364 153.549 22.952C153.876 23.5307 154.039 24.198 154.039 24.954ZM152.009 24.394C152 23.89 151.818 23.4887 151.463 23.19C151.109 22.882 150.675 22.728 150.161 22.728C149.676 22.728 149.265 22.8773 148.929 23.176C148.603 23.4653 148.402 23.8713 148.327 24.394H152.009ZM157.752 22.854V26.606C157.752 26.8673 157.813 27.0587 157.934 27.18C158.065 27.292 158.279 27.348 158.578 27.348H159.488V29H158.256C156.604 29 155.778 28.1973 155.778 26.592V22.854H154.854V21.244H155.778V19.326H157.752V21.244H159.488V22.854H157.752ZM163.73 25.094C163.73 24.31 163.884 23.6147 164.192 23.008C164.509 22.4013 164.934 21.9347 165.466 21.608C166.007 21.2813 166.609 21.118 167.272 21.118C167.85 21.118 168.354 21.2347 168.784 21.468C169.222 21.7013 169.572 21.9953 169.834 22.35V21.244H171.808V29H169.834V27.866C169.582 28.23 169.232 28.5333 168.784 28.776C168.345 29.0093 167.836 29.126 167.258 29.126C166.604 29.126 166.007 28.958 165.466 28.622C164.934 28.286 164.509 27.8147 164.192 27.208C163.884 26.592 163.73 25.8873 163.73 25.094ZM169.834 25.122C169.834 24.646 169.74 24.24 169.554 23.904C169.367 23.5587 169.115 23.2973 168.798 23.12C168.48 22.9333 168.14 22.84 167.776 22.84C167.412 22.84 167.076 22.9287 166.768 23.106C166.46 23.2833 166.208 23.5447 166.012 23.89C165.825 24.226 165.732 24.6273 165.732 25.094C165.732 25.5607 165.825 25.9713 166.012 26.326C166.208 26.6713 166.46 26.9373 166.768 27.124C167.085 27.3107 167.421 27.404 167.776 27.404C168.14 27.404 168.48 27.3153 168.798 27.138C169.115 26.9513 169.367 26.69 169.554 26.354C169.74 26.0087 169.834 25.598 169.834 25.122ZM176.582 24.1C176.582 23.1387 176.796 22.28 177.226 21.524C177.664 20.7587 178.257 20.166 179.004 19.746C179.76 19.3167 180.604 19.102 181.538 19.102C182.63 19.102 183.586 19.382 184.408 19.942C185.229 20.502 185.803 21.2767 186.13 22.266H183.876C183.652 21.7993 183.334 21.4493 182.924 21.216C182.522 20.9827 182.056 20.866 181.524 20.866C180.954 20.866 180.446 21.0013 179.998 21.272C179.559 21.5333 179.214 21.9067 178.962 22.392C178.719 22.8773 178.598 23.4467 178.598 24.1C178.598 24.744 178.719 25.3133 178.962 25.808C179.214 26.2933 179.559 26.6713 179.998 26.942C180.446 27.2033 180.954 27.334 181.524 27.334C182.056 27.334 182.522 27.2173 182.924 26.984C183.334 26.7413 183.652 26.3867 183.876 25.92H186.13C185.803 26.9187 185.229 27.698 184.408 28.258C183.596 28.8087 182.639 29.084 181.538 29.084C180.604 29.084 179.76 28.874 179.004 28.454C178.257 28.0247 177.664 27.432 177.226 26.676C176.796 25.92 176.582 25.0613 176.582 24.1ZM189.764 18.64V29H187.804V18.64H189.764ZM198.91 24.954C198.91 25.234 198.892 25.486 198.854 25.71H193.184C193.231 26.27 193.427 26.7087 193.772 27.026C194.118 27.3433 194.542 27.502 195.046 27.502C195.774 27.502 196.292 27.1893 196.6 26.564H198.714C198.49 27.3107 198.061 27.9267 197.426 28.412C196.792 28.888 196.012 29.126 195.088 29.126C194.342 29.126 193.67 28.9627 193.072 28.636C192.484 28.3 192.022 27.8287 191.686 27.222C191.36 26.6153 191.196 25.9153 191.196 25.122C191.196 24.3193 191.36 23.6147 191.686 23.008C192.013 22.4013 192.47 21.9347 193.058 21.608C193.646 21.2813 194.323 21.118 195.088 21.118C195.826 21.118 196.484 21.2767 197.062 21.594C197.65 21.9113 198.103 22.364 198.42 22.952C198.747 23.5307 198.91 24.198 198.91 24.954ZM196.88 24.394C196.871 23.89 196.689 23.4887 196.334 23.19C195.98 22.882 195.546 22.728 195.032 22.728C194.547 22.728 194.136 22.8773 193.8 23.176C193.474 23.4653 193.273 23.8713 193.198 24.394H196.88ZM199.837 25.094C199.837 24.31 199.991 23.6147 200.299 23.008C200.616 22.4013 201.041 21.9347 201.573 21.608C202.114 21.2813 202.716 21.118 203.379 21.118C203.958 21.118 204.462 21.2347 204.891 21.468C205.33 21.7013 205.68 21.9953 205.941 22.35V21.244H207.915V29H205.941V27.866C205.689 28.23 205.339 28.5333 204.891 28.776C204.452 29.0093 203.944 29.126 203.365 29.126C202.712 29.126 202.114 28.958 201.573 28.622C201.041 28.286 200.616 27.8147 200.299 27.208C199.991 26.592 199.837 25.8873 199.837 25.094ZM205.941 25.122C205.941 24.646 205.848 24.24 205.661 23.904C205.474 23.5587 205.222 23.2973 204.905 23.12C204.588 22.9333 204.247 22.84 203.883 22.84C203.519 22.84 203.183 22.9287 202.875 23.106C202.567 23.2833 202.315 23.5447 202.119 23.89C201.932 24.226 201.839 24.6273 201.839 25.094C201.839 25.5607 201.932 25.9713 202.119 26.326C202.315 26.6713 202.567 26.9373 202.875 27.124C203.192 27.3107 203.528 27.404 203.883 27.404C204.247 27.404 204.588 27.3153 204.905 27.138C205.222 26.9513 205.474 26.69 205.661 26.354C205.848 26.0087 205.941 25.598 205.941 25.122ZM211.789 22.448C212.041 22.0373 212.368 21.7153 212.769 21.482C213.18 21.2487 213.647 21.132 214.169 21.132V23.19H213.651C213.035 23.19 212.569 23.3347 212.251 23.624C211.943 23.9133 211.789 24.4173 211.789 25.136V29H209.829V21.244H211.789V22.448ZM218.321 25.094C218.321 24.31 218.475 23.6147 218.783 23.008C219.101 22.4013 219.525 21.9347 220.057 21.608C220.599 21.2813 221.201 21.118 221.863 21.118C222.442 21.118 222.946 21.2347 223.375 21.468C223.814 21.7013 224.164 21.9953 224.425 22.35V21.244H226.399V29H224.425V27.866C224.173 28.23 223.823 28.5333 223.375 28.776C222.937 29.0093 222.428 29.126 221.849 29.126C221.196 29.126 220.599 28.958 220.057 28.622C219.525 28.286 219.101 27.8147 218.783 27.208C218.475 26.592 218.321 25.8873 218.321 25.094ZM224.425 25.122C224.425 24.646 224.332 24.24 224.145 23.904C223.959 23.5587 223.707 23.2973 223.389 23.12C223.072 22.9333 222.731 22.84 222.367 22.84C222.003 22.84 221.667 22.9287 221.359 23.106C221.051 23.2833 220.799 23.5447 220.603 23.89C220.417 24.226 220.323 24.6273 220.323 25.094C220.323 25.5607 220.417 25.9713 220.603 26.326C220.799 26.6713 221.051 26.9373 221.359 27.124C221.677 27.3107 222.013 27.404 222.367 27.404C222.731 27.404 223.072 27.3153 223.389 27.138C223.707 26.9513 223.959 26.69 224.145 26.354C224.332 26.0087 224.425 25.598 224.425 25.122ZM232.612 21.132C233.536 21.132 234.282 21.426 234.852 22.014C235.421 22.5927 235.706 23.4047 235.706 24.45V29H233.746V24.716C233.746 24.1 233.592 23.6287 233.284 23.302C232.976 22.966 232.556 22.798 232.024 22.798C231.482 22.798 231.053 22.966 230.736 23.302C230.428 23.6287 230.274 24.1 230.274 24.716V29H228.314V21.244H230.274V22.21C230.535 21.874 230.866 21.6127 231.268 21.426C231.678 21.23 232.126 21.132 232.612 21.132ZM237.066 25.094C237.066 24.31 237.22 23.6147 237.528 23.008C237.845 22.4013 238.274 21.9347 238.816 21.608C239.357 21.2813 239.959 21.118 240.622 21.118C241.126 21.118 241.606 21.23 242.064 21.454C242.521 21.6687 242.885 21.958 243.156 22.322V18.64H245.144V29H243.156V27.852C242.913 28.2347 242.572 28.5427 242.134 28.776C241.695 29.0093 241.186 29.126 240.608 29.126C239.954 29.126 239.357 28.958 238.816 28.622C238.274 28.286 237.845 27.8147 237.528 27.208C237.22 26.592 237.066 25.8873 237.066 25.094ZM243.17 25.122C243.17 24.646 243.076 24.24 242.89 23.904C242.703 23.5587 242.451 23.2973 242.134 23.12C241.816 22.9333 241.476 22.84 241.112 22.84C240.748 22.84 240.412 22.9287 240.104 23.106C239.796 23.2833 239.544 23.5447 239.348 23.89C239.161 24.226 239.068 24.6273 239.068 25.094C239.068 25.5607 239.161 25.9713 239.348 26.326C239.544 26.6713 239.796 26.9373 240.104 27.124C240.421 27.3107 240.757 27.404 241.112 27.404C241.476 27.404 241.816 27.3153 242.134 27.138C242.451 26.9513 242.703 26.69 242.89 26.354C243.076 26.0087 243.17 25.598 243.17 25.122ZM255.434 29L253.278 25.192H252.354V29H250.394V19.228H254.062C254.818 19.228 255.462 19.3633 255.994 19.634C256.526 19.8953 256.922 20.2547 257.184 20.712C257.454 21.16 257.59 21.664 257.59 22.224C257.59 22.868 257.403 23.4513 257.03 23.974C256.656 24.4873 256.101 24.842 255.364 25.038L257.702 29H255.434ZM252.354 23.722H253.992C254.524 23.722 254.92 23.596 255.182 23.344C255.443 23.0827 255.574 22.7233 255.574 22.266C255.574 21.818 255.443 21.4727 255.182 21.23C254.92 20.978 254.524 20.852 253.992 20.852H252.354V23.722ZM266.572 24.954C266.572 25.234 266.554 25.486 266.516 25.71H260.846C260.893 26.27 261.089 26.7087 261.434 27.026C261.78 27.3433 262.204 27.502 262.708 27.502C263.436 27.502 263.954 27.1893 264.262 26.564H266.376C266.152 27.3107 265.723 27.9267 265.088 28.412C264.454 28.888 263.674 29.126 262.75 29.126C262.004 29.126 261.332 28.9627 260.734 28.636C260.146 28.3 259.684 27.8287 259.348 27.222C259.022 26.6153 258.858 25.9153 258.858 25.122C258.858 24.3193 259.022 23.6147 259.348 23.008C259.675 22.4013 260.132 21.9347 260.72 21.608C261.308 21.2813 261.985 21.118 262.75 21.118C263.488 21.118 264.146 21.2767 264.724 21.594C265.312 21.9113 265.765 22.364 266.082 22.952C266.409 23.5307 266.572 24.198 266.572 24.954ZM264.542 24.394C264.533 23.89 264.351 23.4887 263.996 23.19C263.642 22.882 263.208 22.728 262.694 22.728C262.209 22.728 261.798 22.8773 261.462 23.176C261.136 23.4653 260.935 23.8713 260.86 24.394H264.542ZM269.963 18.64V29H268.003V18.64H269.963ZM272.894 20.32C272.548 20.32 272.259 20.2127 272.026 19.998C271.802 19.774 271.69 19.4987 271.69 19.172C271.69 18.8453 271.802 18.5747 272.026 18.36C272.259 18.136 272.548 18.024 272.894 18.024C273.239 18.024 273.524 18.136 273.748 18.36C273.981 18.5747 274.098 18.8453 274.098 19.172C274.098 19.4987 273.981 19.774 273.748 19.998C273.524 20.2127 273.239 20.32 272.894 20.32ZM273.86 21.244V29H271.9V21.244H273.86ZM275.292 25.094C275.292 24.31 275.446 23.6147 275.754 23.008C276.071 22.4013 276.496 21.9347 277.028 21.608C277.569 21.2813 278.171 21.118 278.834 21.118C279.413 21.118 279.917 21.2347 280.346 21.468C280.785 21.7013 281.135 21.9953 281.396 22.35V21.244H283.37V29H281.396V27.866C281.144 28.23 280.794 28.5333 280.346 28.776C279.907 29.0093 279.399 29.126 278.82 29.126C278.167 29.126 277.569 28.958 277.028 28.622C276.496 28.286 276.071 27.8147 275.754 27.208C275.446 26.592 275.292 25.8873 275.292 25.094ZM281.396 25.122C281.396 24.646 281.303 24.24 281.116 23.904C280.929 23.5587 280.677 23.2973 280.36 23.12C280.043 22.9333 279.702 22.84 279.338 22.84C278.974 22.84 278.638 22.9287 278.33 23.106C278.022 23.2833 277.77 23.5447 277.574 23.89C277.387 24.226 277.294 24.6273 277.294 25.094C277.294 25.5607 277.387 25.9713 277.574 26.326C277.77 26.6713 278.022 26.9373 278.33 27.124C278.647 27.3107 278.983 27.404 279.338 27.404C279.702 27.404 280.043 27.3153 280.36 27.138C280.677 26.9513 280.929 26.69 281.116 26.354C281.303 26.0087 281.396 25.598 281.396 25.122ZM287.244 22.378C287.496 22.0047 287.842 21.7013 288.28 21.468C288.728 21.2347 289.237 21.118 289.806 21.118C290.469 21.118 291.066 21.2813 291.598 21.608C292.14 21.9347 292.564 22.4013 292.872 23.008C293.19 23.6053 293.348 24.3007 293.348 25.094C293.348 25.8873 293.19 26.592 292.872 27.208C292.564 27.8147 292.14 28.286 291.598 28.622C291.066 28.958 290.469 29.126 289.806 29.126C289.228 29.126 288.719 29.014 288.28 28.79C287.851 28.5567 287.506 28.258 287.244 27.894V29H285.284V18.64H287.244V22.378ZM291.346 25.094C291.346 24.6273 291.248 24.226 291.052 23.89C290.866 23.5447 290.614 23.2833 290.296 23.106C289.988 22.9287 289.652 22.84 289.288 22.84C288.934 22.84 288.598 22.9333 288.28 23.12C287.972 23.2973 287.72 23.5587 287.524 23.904C287.338 24.2493 287.244 24.6553 287.244 25.122C287.244 25.5887 287.338 25.9947 287.524 26.34C287.72 26.6853 287.972 26.9513 288.28 27.138C288.598 27.3153 288.934 27.404 289.288 27.404C289.652 27.404 289.988 27.3107 290.296 27.124C290.614 26.9373 290.866 26.6713 291.052 26.326C291.248 25.9807 291.346 25.57 291.346 25.094ZM296.733 18.64V29H294.773V18.64H296.733ZM305.879 24.954C305.879 25.234 305.86 25.486 305.823 25.71H300.153C300.2 26.27 300.396 26.7087 300.741 27.026C301.086 27.3433 301.511 27.502 302.015 27.502C302.743 27.502 303.261 27.1893 303.569 26.564H305.683C305.459 27.3107 305.03 27.9267 304.395 28.412C303.76 28.888 302.981 29.126 302.057 29.126C301.31 29.126 300.638 28.9627 300.041 28.636C299.453 28.3 298.991 27.8287 298.655 27.222C298.328 26.6153 298.165 25.9153 298.165 25.122C298.165 24.3193 298.328 23.6147 298.655 23.008C298.982 22.4013 299.439 21.9347 300.027 21.608C300.615 21.2813 301.292 21.118 302.057 21.118C302.794 21.118 303.452 21.2767 304.031 21.594C304.619 21.9113 305.072 22.364 305.389 22.952C305.716 23.5307 305.879 24.198 305.879 24.954ZM303.849 24.394C303.84 23.89 303.658 23.4887 303.303 23.19C302.948 22.882 302.514 22.728 302.001 22.728C301.516 22.728 301.105 22.8773 300.769 23.176C300.442 23.4653 300.242 23.8713 300.167 24.394H303.849ZM315.686 29L313.53 25.192H312.606V29H310.646V19.228H314.314C315.07 19.228 315.714 19.3633 316.246 19.634C316.778 19.8953 317.174 20.2547 317.436 20.712C317.706 21.16 317.842 21.664 317.842 22.224C317.842 22.868 317.655 23.4513 317.282 23.974C316.908 24.4873 316.353 24.842 315.616 25.038L317.954 29H315.686ZM312.606 23.722H314.244C314.776 23.722 315.172 23.596 315.434 23.344C315.695 23.0827 315.826 22.7233 315.826 22.266C315.826 21.818 315.695 21.4727 315.434 21.23C315.172 20.978 314.776 20.852 314.244 20.852H312.606V23.722ZM326.824 24.954C326.824 25.234 326.806 25.486 326.768 25.71H321.098C321.145 26.27 321.341 26.7087 321.686 27.026C322.032 27.3433 322.456 27.502 322.96 27.502C323.688 27.502 324.206 27.1893 324.514 26.564H326.628C326.404 27.3107 325.975 27.9267 325.34 28.412C324.706 28.888 323.926 29.126 323.002 29.126C322.256 29.126 321.584 28.9627 320.986 28.636C320.398 28.3 319.936 27.8287 319.6 27.222C319.274 26.6153 319.11 25.9153 319.11 25.122C319.11 24.3193 319.274 23.6147 319.6 23.008C319.927 22.4013 320.384 21.9347 320.972 21.608C321.56 21.2813 322.237 21.118 323.002 21.118C323.74 21.118 324.398 21.2767 324.976 21.594C325.564 21.9113 326.017 22.364 326.334 22.952C326.661 23.5307 326.824 24.198 326.824 24.954ZM324.794 24.394C324.785 23.89 324.603 23.4887 324.248 23.19C323.894 22.882 323.46 22.728 322.946 22.728C322.461 22.728 322.05 22.8773 321.714 23.176C321.388 23.4653 321.187 23.8713 321.112 24.394H324.794ZM331.223 29.126C330.588 29.126 330.019 29.014 329.515 28.79C329.011 28.5567 328.61 28.244 328.311 27.852C328.022 27.46 327.863 27.026 327.835 26.55H329.809C329.846 26.8487 329.991 27.096 330.243 27.292C330.504 27.488 330.826 27.586 331.209 27.586C331.582 27.586 331.872 27.5113 332.077 27.362C332.292 27.2127 332.399 27.0213 332.399 26.788C332.399 26.536 332.268 26.3493 332.007 26.228C331.755 26.0973 331.349 25.9573 330.789 25.808C330.21 25.668 329.734 25.5233 329.361 25.374C328.997 25.2247 328.68 24.996 328.409 24.688C328.148 24.38 328.017 23.9647 328.017 23.442C328.017 23.0127 328.138 22.6207 328.381 22.266C328.633 21.9113 328.988 21.6313 329.445 21.426C329.912 21.2207 330.458 21.118 331.083 21.118C332.007 21.118 332.744 21.3513 333.295 21.818C333.846 22.2753 334.149 22.896 334.205 23.68H332.329C332.301 23.372 332.17 23.1293 331.937 22.952C331.713 22.7653 331.41 22.672 331.027 22.672C330.672 22.672 330.397 22.7373 330.201 22.868C330.014 22.9987 329.921 23.1807 329.921 23.414C329.921 23.6753 330.052 23.876 330.313 24.016C330.574 24.1467 330.98 24.282 331.531 24.422C332.091 24.562 332.553 24.7067 332.917 24.856C333.281 25.0053 333.594 25.2387 333.855 25.556C334.126 25.864 334.266 26.2747 334.275 26.788C334.275 27.236 334.149 27.6373 333.897 27.992C333.654 28.3467 333.3 28.6267 332.833 28.832C332.376 29.028 331.839 29.126 331.223 29.126ZM337.844 22.364C338.096 22.0093 338.441 21.7153 338.88 21.482C339.328 21.2393 339.837 21.118 340.406 21.118C341.069 21.118 341.666 21.2813 342.198 21.608C342.739 21.9347 343.164 22.4013 343.472 23.008C343.789 23.6053 343.948 24.3007 343.948 25.094C343.948 25.8873 343.789 26.592 343.472 27.208C343.164 27.8147 342.739 28.286 342.198 28.622C341.666 28.958 341.069 29.126 340.406 29.126C339.837 29.126 339.333 29.0093 338.894 28.776C338.465 28.5427 338.115 28.2487 337.844 27.894V32.696H335.884V21.244H337.844V22.364ZM341.946 25.094C341.946 24.6273 341.848 24.226 341.652 23.89C341.465 23.5447 341.213 23.2833 340.896 23.106C340.588 22.9287 340.252 22.84 339.888 22.84C339.533 22.84 339.197 22.9333 338.88 23.12C338.572 23.2973 338.32 23.5587 338.124 23.904C337.937 24.2493 337.844 24.6553 337.844 25.122C337.844 25.5887 337.937 25.9947 338.124 26.34C338.32 26.6853 338.572 26.9513 338.88 27.138C339.197 27.3153 339.533 27.404 339.888 27.404C340.252 27.404 340.588 27.3107 340.896 27.124C341.213 26.9373 341.465 26.6713 341.652 26.326C341.848 25.9807 341.946 25.57 341.946 25.094ZM348.816 29.126C348.07 29.126 347.398 28.9627 346.8 28.636C346.203 28.3 345.732 27.8287 345.386 27.222C345.05 26.6153 344.882 25.9153 344.882 25.122C344.882 24.3287 345.055 23.6287 345.4 23.022C345.755 22.4153 346.236 21.9487 346.842 21.622C347.449 21.286 348.126 21.118 348.872 21.118C349.619 21.118 350.296 21.286 350.902 21.622C351.509 21.9487 351.985 22.4153 352.33 23.022C352.685 23.6287 352.862 24.3287 352.862 25.122C352.862 25.9153 352.68 26.6153 352.316 27.222C351.962 27.8287 351.476 28.3 350.86 28.636C350.254 28.9627 349.572 29.126 348.816 29.126ZM348.816 27.418C349.171 27.418 349.502 27.334 349.81 27.166C350.128 26.9887 350.38 26.7273 350.566 26.382C350.753 26.0367 350.846 25.6167 350.846 25.122C350.846 24.3847 350.65 23.82 350.258 23.428C349.876 23.0267 349.404 22.826 348.844 22.826C348.284 22.826 347.813 23.0267 347.43 23.428C347.057 23.82 346.87 24.3847 346.87 25.122C346.87 25.8593 347.052 26.4287 347.416 26.83C347.79 27.222 348.256 27.418 348.816 27.418ZM358.598 21.132C359.522 21.132 360.269 21.426 360.838 22.014C361.407 22.5927 361.692 23.4047 361.692 24.45V29H359.732V24.716C359.732 24.1 359.578 23.6287 359.27 23.302C358.962 22.966 358.542 22.798 358.01 22.798C357.469 22.798 357.039 22.966 356.722 23.302C356.414 23.6287 356.26 24.1 356.26 24.716V29H354.3V21.244H356.26V22.21C356.521 21.874 356.853 21.6127 357.254 21.426C357.665 21.23 358.113 21.132 358.598 21.132ZM366.524 29.126C365.889 29.126 365.32 29.014 364.816 28.79C364.312 28.5567 363.911 28.244 363.612 27.852C363.323 27.46 363.164 27.026 363.136 26.55H365.11C365.147 26.8487 365.292 27.096 365.544 27.292C365.805 27.488 366.127 27.586 366.51 27.586C366.883 27.586 367.173 27.5113 367.378 27.362C367.593 27.2127 367.7 27.0213 367.7 26.788C367.7 26.536 367.569 26.3493 367.308 26.228C367.056 26.0973 366.65 25.9573 366.09 25.808C365.511 25.668 365.035 25.5233 364.662 25.374C364.298 25.2247 363.981 24.996 363.71 24.688C363.449 24.38 363.318 23.9647 363.318 23.442C363.318 23.0127 363.439 22.6207 363.682 22.266C363.934 21.9113 364.289 21.6313 364.746 21.426C365.213 21.2207 365.759 21.118 366.384 21.118C367.308 21.118 368.045 21.3513 368.596 21.818C369.147 22.2753 369.45 22.896 369.506 23.68H367.63C367.602 23.372 367.471 23.1293 367.238 22.952C367.014 22.7653 366.711 22.672 366.328 22.672C365.973 22.672 365.698 22.7373 365.502 22.868C365.315 22.9987 365.222 23.1807 365.222 23.414C365.222 23.6753 365.353 23.876 365.614 24.016C365.875 24.1467 366.281 24.282 366.832 24.422C367.392 24.562 367.854 24.7067 368.218 24.856C368.582 25.0053 368.895 25.2387 369.156 25.556C369.427 25.864 369.567 26.2747 369.576 26.788C369.576 27.236 369.45 27.6373 369.198 27.992C368.955 28.3467 368.601 28.6267 368.134 28.832C367.677 29.028 367.14 29.126 366.524 29.126ZM378.395 24.954C378.395 25.234 378.376 25.486 378.339 25.71H372.669C372.715 26.27 372.911 26.7087 373.257 27.026C373.602 27.3433 374.027 27.502 374.531 27.502C375.259 27.502 375.777 27.1893 376.085 26.564H378.199C377.975 27.3107 377.545 27.9267 376.911 28.412C376.276 28.888 375.497 29.126 374.573 29.126C373.826 29.126 373.154 28.9627 372.557 28.636C371.969 28.3 371.507 27.8287 371.171 27.222C370.844 26.6153 370.681 25.9153 370.681 25.122C370.681 24.3193 370.844 23.6147 371.171 23.008C371.497 22.4013 371.955 21.9347 372.543 21.608C373.131 21.2813 373.807 21.118 374.573 21.118C375.31 21.118 375.968 21.2767 376.547 21.594C377.135 21.9113 377.587 22.364 377.905 22.952C378.231 23.5307 378.395 24.198 378.395 24.954ZM376.365 24.394C376.355 23.89 376.173 23.4887 375.819 23.19C375.464 22.882 375.03 22.728 374.517 22.728C374.031 22.728 373.621 22.8773 373.285 23.176C372.958 23.4653 372.757 23.8713 372.683 24.394H376.365Z" fill="white"/>
<path d="M94.5374 26.4166C86.5099 36.081 75.1321 45.1584 61.9984 45.3035C53.6051 45.3962 44.8509 39.5439 42.1804 31.5343C39.6583 23.9697 40.2758 15.2408 47.2025 10.4022C50.8129 7.88023 55.0637 7.26813 58.4369 10.5389C63.5904 15.5358 62.2075 25.6426 59.4922 31.4594C51.0181 49.6124 30.7138 63.8714 10.6874 64.7481" stroke="url(#paint1_linear_1377_5170)" stroke-width="3" stroke-linecap="round"/>
<path d="M24.3164 70.9565C20.9905 69.8604 13.4773 67.1228 10.0313 64.9413" stroke="url(#paint2_linear_1377_5170)" stroke-width="3" stroke-linecap="round"/>
<path d="M10.0312 64.9409C12.566 62.5085 18.1807 56.7775 20.3609 53.3132" stroke="url(#paint3_linear_1377_5170)" stroke-width="3" stroke-linecap="round"/>
<defs>
<linearGradient id="paint0_linear_1377_5170" x1="102" y1="24.5" x2="405" y2="24.5" gradientUnits="userSpaceOnUse">
<stop stop-color="#0058FF"/>
<stop offset="0.918269" stop-color="#0492FF"/>
</linearGradient>
<linearGradient id="paint1_linear_1377_5170" x1="44.641" y1="10.0268" x2="54.9939" y2="55.431" gradientUnits="userSpaceOnUse">
<stop stop-color="#21C8F6"/>
<stop offset="1" stop-color="#035AFF"/>
</linearGradient>
<linearGradient id="paint2_linear_1377_5170" x1="16.185" y1="63.5382" x2="18.1947" y2="72.3524" gradientUnits="userSpaceOnUse">
<stop stop-color="#21C8F6"/>
<stop offset="1" stop-color="#035AFF"/>
</linearGradient>
<linearGradient id="paint3_linear_1377_5170" x1="14.2072" y1="54.7163" x2="16.217" y2="63.5305" gradientUnits="userSpaceOnUse">
<stop stop-color="#21C8F6"/>
<stop offset="1" stop-color="#035AFF"/>
</linearGradient>
</defs>
</svg>
