<svg width="354" height="74" viewBox="0 0 354 74" fill="none" xmlns="http://www.w3.org/2000/svg">
<rect x="102.055" y="0.39502" width="251" height="49" rx="24.5" fill="url(#paint0_linear_1377_5150)"/>
<path d="M173.354 27.533H169.462L168.818 29.395H166.76L170.274 19.609H172.556L176.07 29.395H173.998L173.354 27.533ZM172.822 25.965L171.408 21.877L169.994 25.965H172.822ZM180.351 29.521C179.716 29.521 179.147 29.409 178.643 29.185C178.139 28.9517 177.738 28.639 177.439 28.247C177.15 27.855 176.991 27.421 176.963 26.945H178.937C178.974 27.2437 179.119 27.491 179.371 27.687C179.632 27.883 179.954 27.981 180.337 27.981C180.71 27.981 181 27.9064 181.205 27.757C181.42 27.6077 181.527 27.4164 181.527 27.183C181.527 26.931 181.396 26.7444 181.135 26.623C180.883 26.4924 180.477 26.3524 179.917 26.203C179.338 26.063 178.862 25.9184 178.489 25.769C178.125 25.6197 177.808 25.391 177.537 25.083C177.276 24.775 177.145 24.3597 177.145 23.837C177.145 23.4077 177.266 23.0157 177.509 22.661C177.761 22.3064 178.116 22.0264 178.573 21.821C179.04 21.6157 179.586 21.513 180.211 21.513C181.135 21.513 181.872 21.7464 182.423 22.213C182.974 22.6704 183.277 23.291 183.333 24.075H181.457C181.429 23.767 181.298 23.5244 181.065 23.347C180.841 23.1604 180.538 23.067 180.155 23.067C179.8 23.067 179.525 23.1324 179.329 23.263C179.142 23.3937 179.049 23.5757 179.049 23.809C179.049 24.0704 179.18 24.271 179.441 24.411C179.702 24.5417 180.108 24.677 180.659 24.817C181.219 24.957 181.681 25.1017 182.045 25.251C182.409 25.4004 182.722 25.6337 182.983 25.951C183.254 26.259 183.394 26.6697 183.403 27.183C183.403 27.631 183.277 28.0324 183.025 28.387C182.782 28.7417 182.428 29.0217 181.961 29.227C181.504 29.423 180.967 29.521 180.351 29.521ZM189.604 29.395L186.972 26.091V29.395H185.012V19.035H186.972V24.929L189.576 21.639H192.124L188.708 25.531L192.152 29.395H189.604ZM204.294 19.623L200.99 25.993V29.395H199.03V25.993L195.712 19.623H197.924L200.024 24.089L202.11 19.623H204.294ZM208.868 29.521C208.121 29.521 207.449 29.3577 206.852 29.031C206.255 28.695 205.783 28.2237 205.438 27.617C205.102 27.0104 204.934 26.3104 204.934 25.517C204.934 24.7237 205.107 24.0237 205.452 23.417C205.807 22.8104 206.287 22.3437 206.894 22.017C207.501 21.681 208.177 21.513 208.924 21.513C209.671 21.513 210.347 21.681 210.954 22.017C211.561 22.3437 212.037 22.8104 212.382 23.417C212.737 24.0237 212.914 24.7237 212.914 25.517C212.914 26.3104 212.732 27.0104 212.368 27.617C212.013 28.2237 211.528 28.695 210.912 29.031C210.305 29.3577 209.624 29.521 208.868 29.521ZM208.868 27.813C209.223 27.813 209.554 27.729 209.862 27.561C210.179 27.3837 210.431 27.1224 210.618 26.777C210.805 26.4317 210.898 26.0117 210.898 25.517C210.898 24.7797 210.702 24.215 210.31 23.823C209.927 23.4217 209.456 23.221 208.896 23.221C208.336 23.221 207.865 23.4217 207.482 23.823C207.109 24.215 206.922 24.7797 206.922 25.517C206.922 26.2544 207.104 26.8237 207.468 27.225C207.841 27.617 208.308 27.813 208.868 27.813ZM221.674 21.639V29.395H219.7V28.415C219.448 28.751 219.116 29.017 218.706 29.213C218.304 29.3997 217.866 29.493 217.39 29.493C216.783 29.493 216.246 29.367 215.78 29.115C215.313 28.8537 214.944 28.4757 214.674 27.981C214.412 27.477 214.282 26.8797 214.282 26.189V21.639H216.242V25.909C216.242 26.525 216.396 27.001 216.704 27.337C217.012 27.6637 217.432 27.827 217.964 27.827C218.505 27.827 218.93 27.6637 219.238 27.337C219.546 27.001 219.7 26.525 219.7 25.909V21.639H221.674ZM225.568 22.843C225.82 22.4324 226.146 22.1104 226.548 21.877C226.958 21.6437 227.425 21.527 227.948 21.527V23.585H227.43C226.814 23.585 226.347 23.7297 226.03 24.019C225.722 24.3084 225.568 24.8124 225.568 25.531V29.395H223.608V21.639H225.568V22.843ZM239.884 31.117L238.4 29.339C237.989 29.4417 237.569 29.493 237.14 29.493C236.225 29.493 235.385 29.2784 234.62 28.849C233.854 28.4197 233.248 27.827 232.8 27.071C232.352 26.3057 232.128 25.4424 232.128 24.481C232.128 23.529 232.352 22.675 232.8 21.919C233.248 21.1537 233.854 20.5564 234.62 20.127C235.385 19.6977 236.225 19.483 237.14 19.483C238.064 19.483 238.904 19.6977 239.66 20.127C240.425 20.5564 241.027 21.1537 241.466 21.919C241.914 22.675 242.138 23.529 242.138 24.481C242.138 25.349 241.951 26.1424 241.578 26.861C241.214 27.5704 240.714 28.149 240.08 28.597L242.32 31.117H239.884ZM234.144 24.481C234.144 25.1344 234.27 25.7084 234.522 26.203C234.774 26.6977 235.124 27.0804 235.572 27.351C236.029 27.6124 236.552 27.743 237.14 27.743C237.728 27.743 238.246 27.6124 238.694 27.351C239.142 27.0804 239.492 26.6977 239.744 26.203C239.996 25.7084 240.122 25.1344 240.122 24.481C240.122 23.8277 239.996 23.2584 239.744 22.773C239.492 22.2784 239.142 21.9004 238.694 21.639C238.246 21.3777 237.728 21.247 237.14 21.247C236.552 21.247 236.029 21.3777 235.572 21.639C235.124 21.9004 234.774 22.2784 234.522 22.773C234.27 23.2584 234.144 23.8277 234.144 24.481ZM250.945 21.639V29.395H248.971V28.415C248.719 28.751 248.388 29.017 247.977 29.213C247.576 29.3997 247.137 29.493 246.661 29.493C246.055 29.493 245.518 29.367 245.051 29.115C244.585 28.8537 244.216 28.4757 243.945 27.981C243.684 27.477 243.553 26.8797 243.553 26.189V21.639H245.513V25.909C245.513 26.525 245.667 27.001 245.975 27.337C246.283 27.6637 246.703 27.827 247.235 27.827C247.777 27.827 248.201 27.6637 248.509 27.337C248.817 27.001 248.971 26.525 248.971 25.909V21.639H250.945ZM260.089 25.349C260.089 25.629 260.07 25.881 260.033 26.105H254.363C254.41 26.665 254.606 27.1037 254.951 27.421C255.296 27.7384 255.721 27.897 256.225 27.897C256.953 27.897 257.471 27.5844 257.779 26.959H259.893C259.669 27.7057 259.24 28.3217 258.605 28.807C257.97 29.283 257.191 29.521 256.267 29.521C255.52 29.521 254.848 29.3577 254.251 29.031C253.663 28.695 253.201 28.2237 252.865 27.617C252.538 27.0104 252.375 26.3104 252.375 25.517C252.375 24.7144 252.538 24.0097 252.865 23.403C253.192 22.7964 253.649 22.3297 254.237 22.003C254.825 21.6764 255.502 21.513 256.267 21.513C257.004 21.513 257.662 21.6717 258.241 21.989C258.829 22.3064 259.282 22.759 259.599 23.347C259.926 23.9257 260.089 24.593 260.089 25.349ZM258.059 24.789C258.05 24.285 257.868 23.8837 257.513 23.585C257.158 23.277 256.724 23.123 256.211 23.123C255.726 23.123 255.315 23.2724 254.979 23.571C254.652 23.8604 254.452 24.2664 254.377 24.789H258.059ZM264.488 29.521C263.853 29.521 263.284 29.409 262.78 29.185C262.276 28.9517 261.874 28.639 261.576 28.247C261.286 27.855 261.128 27.421 261.1 26.945H263.074C263.111 27.2437 263.256 27.491 263.508 27.687C263.769 27.883 264.091 27.981 264.474 27.981C264.847 27.981 265.136 27.9064 265.342 27.757C265.556 27.6077 265.664 27.4164 265.664 27.183C265.664 26.931 265.533 26.7444 265.272 26.623C265.02 26.4924 264.614 26.3524 264.054 26.203C263.475 26.063 262.999 25.9184 262.626 25.769C262.262 25.6197 261.944 25.391 261.674 25.083C261.412 24.775 261.282 24.3597 261.282 23.837C261.282 23.4077 261.403 23.0157 261.646 22.661C261.898 22.3064 262.252 22.0264 262.71 21.821C263.176 21.6157 263.722 21.513 264.348 21.513C265.272 21.513 266.009 21.7464 266.56 22.213C267.11 22.6704 267.414 23.291 267.47 24.075H265.594C265.566 23.767 265.435 23.5244 265.202 23.347C264.978 23.1604 264.674 23.067 264.292 23.067C263.937 23.067 263.662 23.1324 263.466 23.263C263.279 23.3937 263.186 23.5757 263.186 23.809C263.186 24.0704 263.316 24.271 263.578 24.411C263.839 24.5417 264.245 24.677 264.796 24.817C265.356 24.957 265.818 25.1017 266.182 25.251C266.546 25.4004 266.858 25.6337 267.12 25.951C267.39 26.259 267.53 26.6697 267.54 27.183C267.54 27.631 267.414 28.0324 267.162 28.387C266.919 28.7417 266.564 29.0217 266.098 29.227C265.64 29.423 265.104 29.521 264.488 29.521ZM271.431 23.249V27.001C271.431 27.2624 271.491 27.4537 271.613 27.575C271.743 27.687 271.958 27.743 272.257 27.743H273.167V29.395H271.935C270.283 29.395 269.457 28.5924 269.457 26.987V23.249H268.533V21.639H269.457V19.721H271.431V21.639H273.167V23.249H271.431ZM275.57 20.715C275.225 20.715 274.936 20.6077 274.702 20.393C274.478 20.169 274.366 19.8937 274.366 19.567C274.366 19.2404 274.478 18.9697 274.702 18.755C274.936 18.531 275.225 18.419 275.57 18.419C275.916 18.419 276.2 18.531 276.424 18.755C276.658 18.9697 276.774 19.2404 276.774 19.567C276.774 19.8937 276.658 20.169 276.424 20.393C276.2 20.6077 275.916 20.715 275.57 20.715ZM276.536 21.639V29.395H274.576V21.639H276.536ZM281.917 29.521C281.17 29.521 280.498 29.3577 279.901 29.031C279.304 28.695 278.832 28.2237 278.487 27.617C278.151 27.0104 277.983 26.3104 277.983 25.517C277.983 24.7237 278.156 24.0237 278.501 23.417C278.856 22.8104 279.336 22.3437 279.943 22.017C280.55 21.681 281.226 21.513 281.973 21.513C282.72 21.513 283.396 21.681 284.003 22.017C284.61 22.3437 285.086 22.8104 285.431 23.417C285.786 24.0237 285.963 24.7237 285.963 25.517C285.963 26.3104 285.781 27.0104 285.417 27.617C285.062 28.2237 284.577 28.695 283.961 29.031C283.354 29.3577 282.673 29.521 281.917 29.521ZM281.917 27.813C282.272 27.813 282.603 27.729 282.911 27.561C283.228 27.3837 283.48 27.1224 283.667 26.777C283.854 26.4317 283.947 26.0117 283.947 25.517C283.947 24.7797 283.751 24.215 283.359 23.823C282.976 23.4217 282.505 23.221 281.945 23.221C281.385 23.221 280.914 23.4217 280.531 23.823C280.158 24.215 279.971 24.7797 279.971 25.517C279.971 26.2544 280.153 26.8237 280.517 27.225C280.89 27.617 281.357 27.813 281.917 27.813ZM291.699 21.527C292.623 21.527 293.369 21.821 293.939 22.409C294.508 22.9877 294.793 23.7997 294.793 24.845V29.395H292.833V25.111C292.833 24.495 292.679 24.0237 292.371 23.697C292.063 23.361 291.643 23.193 291.111 23.193C290.569 23.193 290.14 23.361 289.823 23.697C289.515 24.0237 289.361 24.495 289.361 25.111V29.395H287.401V21.639H289.361V22.605C289.622 22.269 289.953 22.0077 290.355 21.821C290.765 21.625 291.213 21.527 291.699 21.527Z" fill="white"/>
<path d="M94.5374 26.4161C86.5099 36.0805 75.1321 45.1579 61.9984 45.303C53.6051 45.3957 44.8509 39.5435 42.1804 31.5338C39.6583 23.9692 40.2758 15.2403 47.2025 10.4018C50.8129 7.87974 55.0637 7.26764 58.4369 10.5384C63.5904 15.5353 62.2075 25.6421 59.4922 31.4589C51.0181 49.6119 30.7138 63.8709 10.6874 64.7476" stroke="url(#paint1_linear_1377_5150)" stroke-width="3" stroke-linecap="round"/>
<path d="M24.3164 70.9561C20.9905 69.8599 13.4773 67.1223 10.0313 64.9408" stroke="url(#paint2_linear_1377_5150)" stroke-width="3" stroke-linecap="round"/>
<path d="M10.0312 64.9404C12.566 62.508 18.1807 56.777 20.3609 53.3127" stroke="url(#paint3_linear_1377_5150)" stroke-width="3" stroke-linecap="round"/>
<defs>
<linearGradient id="paint0_linear_1377_5150" x1="102.055" y1="24.895" x2="353.055" y2="24.895" gradientUnits="userSpaceOnUse">
<stop stop-color="#0058FF"/>
<stop offset="0.918269" stop-color="#0492FF"/>
</linearGradient>
<linearGradient id="paint1_linear_1377_5150" x1="44.641" y1="10.0263" x2="54.9939" y2="55.4305" gradientUnits="userSpaceOnUse">
<stop stop-color="#21C8F6"/>
<stop offset="1" stop-color="#035AFF"/>
</linearGradient>
<linearGradient id="paint2_linear_1377_5150" x1="16.185" y1="63.5377" x2="18.1947" y2="72.3519" gradientUnits="userSpaceOnUse">
<stop stop-color="#21C8F6"/>
<stop offset="1" stop-color="#035AFF"/>
</linearGradient>
<linearGradient id="paint3_linear_1377_5150" x1="14.2072" y1="54.7158" x2="16.217" y2="63.53" gradientUnits="userSpaceOnUse">
<stop stop-color="#21C8F6"/>
<stop offset="1" stop-color="#035AFF"/>
</linearGradient>
</defs>
</svg>
