<svg width="417" height="74" viewBox="0 0 417 74" fill="none" xmlns="http://www.w3.org/2000/svg">
<rect x="102.002" width="315" height="49" rx="24.5" fill="url(#paint0_linear_1377_5160)"/>
<path d="M145.731 24.1C145.731 23.1387 145.946 22.28 146.375 21.524C146.814 20.7587 147.407 20.166 148.153 19.746C148.909 19.3167 149.754 19.102 150.687 19.102C151.779 19.102 152.736 19.382 153.557 19.942C154.379 20.502 154.953 21.2767 155.279 22.266H153.025C152.801 21.7993 152.484 21.4493 152.073 21.216C151.672 20.9827 151.205 20.866 150.673 20.866C150.104 20.866 149.595 21.0013 149.147 21.272C148.709 21.5333 148.363 21.9067 148.111 22.392C147.869 22.8773 147.747 23.4467 147.747 24.1C147.747 24.744 147.869 25.3133 148.111 25.808C148.363 26.2933 148.709 26.6713 149.147 26.942C149.595 27.2033 150.104 27.334 150.673 27.334C151.205 27.334 151.672 27.2173 152.073 26.984C152.484 26.7413 152.801 26.3867 153.025 25.92H155.279C154.953 26.9187 154.379 27.698 153.557 28.258C152.745 28.8087 151.789 29.084 150.687 29.084C149.754 29.084 148.909 28.874 148.153 28.454C147.407 28.0247 146.814 27.432 146.375 26.676C145.946 25.92 145.731 25.0613 145.731 24.1ZM160.397 29.126C159.651 29.126 158.979 28.9627 158.381 28.636C157.784 28.3 157.313 27.8287 156.967 27.222C156.631 26.6153 156.463 25.9153 156.463 25.122C156.463 24.3287 156.636 23.6287 156.981 23.022C157.336 22.4153 157.817 21.9487 158.423 21.622C159.03 21.286 159.707 21.118 160.453 21.118C161.2 21.118 161.877 21.286 162.483 21.622C163.09 21.9487 163.566 22.4153 163.911 23.022C164.266 23.6287 164.443 24.3287 164.443 25.122C164.443 25.9153 164.261 26.6153 163.897 27.222C163.543 27.8287 163.057 28.3 162.441 28.636C161.835 28.9627 161.153 29.126 160.397 29.126ZM160.397 27.418C160.752 27.418 161.083 27.334 161.391 27.166C161.709 26.9887 161.961 26.7273 162.147 26.382C162.334 26.0367 162.427 25.6167 162.427 25.122C162.427 24.3847 162.231 23.82 161.839 23.428C161.457 23.0267 160.985 22.826 160.425 22.826C159.865 22.826 159.394 23.0267 159.011 23.428C158.638 23.82 158.451 24.3847 158.451 25.122C158.451 25.8593 158.633 26.4287 158.997 26.83C159.371 27.222 159.837 27.418 160.397 27.418ZM175.513 21.132C176.465 21.132 177.23 21.426 177.809 22.014C178.397 22.5927 178.691 23.4047 178.691 24.45V29H176.731V24.716C176.731 24.1093 176.577 23.6473 176.269 23.33C175.961 23.0033 175.541 22.84 175.009 22.84C174.477 22.84 174.052 23.0033 173.735 23.33C173.427 23.6473 173.273 24.1093 173.273 24.716V29H171.313V24.716C171.313 24.1093 171.159 23.6473 170.851 23.33C170.543 23.0033 170.123 22.84 169.591 22.84C169.05 22.84 168.62 23.0033 168.303 23.33C167.995 23.6473 167.841 24.1093 167.841 24.716V29H165.881V21.244H167.841V22.182C168.093 21.8553 168.415 21.5987 168.807 21.412C169.208 21.2253 169.647 21.132 170.123 21.132C170.73 21.132 171.271 21.2627 171.747 21.524C172.223 21.776 172.592 22.14 172.853 22.616C173.105 22.168 173.469 21.8087 173.945 21.538C174.43 21.2673 174.953 21.132 175.513 21.132ZM182.511 22.364C182.763 22.0093 183.108 21.7153 183.547 21.482C183.995 21.2393 184.504 21.118 185.073 21.118C185.736 21.118 186.333 21.2813 186.865 21.608C187.406 21.9347 187.831 22.4013 188.139 23.008C188.456 23.6053 188.615 24.3007 188.615 25.094C188.615 25.8873 188.456 26.592 188.139 27.208C187.831 27.8147 187.406 28.286 186.865 28.622C186.333 28.958 185.736 29.126 185.073 29.126C184.504 29.126 184 29.0093 183.561 28.776C183.132 28.5427 182.782 28.2487 182.511 27.894V32.696H180.551V21.244H182.511V22.364ZM186.613 25.094C186.613 24.6273 186.515 24.226 186.319 23.89C186.132 23.5447 185.88 23.2833 185.563 23.106C185.255 22.9287 184.919 22.84 184.555 22.84C184.2 22.84 183.864 22.9333 183.547 23.12C183.239 23.2973 182.987 23.5587 182.791 23.904C182.604 24.2493 182.511 24.6553 182.511 25.122C182.511 25.5887 182.604 25.9947 182.791 26.34C182.987 26.6853 183.239 26.9513 183.547 27.138C183.864 27.3153 184.2 27.404 184.555 27.404C184.919 27.404 185.255 27.3107 185.563 27.124C185.88 26.9373 186.132 26.6713 186.319 26.326C186.515 25.9807 186.613 25.57 186.613 25.094ZM189.535 25.094C189.535 24.31 189.689 23.6147 189.997 23.008C190.315 22.4013 190.739 21.9347 191.271 21.608C191.813 21.2813 192.415 21.118 193.077 21.118C193.656 21.118 194.16 21.2347 194.589 21.468C195.028 21.7013 195.378 21.9953 195.639 22.35V21.244H197.613V29H195.639V27.866C195.387 28.23 195.037 28.5333 194.589 28.776C194.151 29.0093 193.642 29.126 193.063 29.126C192.41 29.126 191.813 28.958 191.271 28.622C190.739 28.286 190.315 27.8147 189.997 27.208C189.689 26.592 189.535 25.8873 189.535 25.094ZM195.639 25.122C195.639 24.646 195.546 24.24 195.359 23.904C195.173 23.5587 194.921 23.2973 194.603 23.12C194.286 22.9333 193.945 22.84 193.581 22.84C193.217 22.84 192.881 22.9287 192.573 23.106C192.265 23.2833 192.013 23.5447 191.817 23.89C191.631 24.226 191.537 24.6273 191.537 25.094C191.537 25.5607 191.631 25.9713 191.817 26.326C192.013 26.6713 192.265 26.9373 192.573 27.124C192.891 27.3107 193.227 27.404 193.581 27.404C193.945 27.404 194.286 27.3153 194.603 27.138C194.921 26.9513 195.173 26.69 195.359 26.354C195.546 26.0087 195.639 25.598 195.639 25.122ZM203.826 21.132C204.75 21.132 205.496 21.426 206.066 22.014C206.635 22.5927 206.92 23.4047 206.92 24.45V29H204.96V24.716C204.96 24.1 204.806 23.6287 204.498 23.302C204.19 22.966 203.77 22.798 203.238 22.798C202.696 22.798 202.267 22.966 201.95 23.302C201.642 23.6287 201.488 24.1 201.488 24.716V29H199.528V21.244H201.488V22.21C201.749 21.874 202.08 21.6127 202.482 21.426C202.892 21.23 203.34 21.132 203.826 21.132ZM209.777 20.32C209.432 20.32 209.143 20.2127 208.909 19.998C208.685 19.774 208.573 19.4987 208.573 19.172C208.573 18.8453 208.685 18.5747 208.909 18.36C209.143 18.136 209.432 18.024 209.777 18.024C210.123 18.024 210.407 18.136 210.631 18.36C210.865 18.5747 210.981 18.8453 210.981 19.172C210.981 19.4987 210.865 19.774 210.631 19.998C210.407 20.2127 210.123 20.32 209.777 20.32ZM210.743 21.244V29H208.783V21.244H210.743ZM216.124 29.126C215.377 29.126 214.705 28.9627 214.108 28.636C213.511 28.3 213.039 27.8287 212.694 27.222C212.358 26.6153 212.19 25.9153 212.19 25.122C212.19 24.3287 212.363 23.6287 212.708 23.022C213.063 22.4153 213.543 21.9487 214.15 21.622C214.757 21.286 215.433 21.118 216.18 21.118C216.927 21.118 217.603 21.286 218.21 21.622C218.817 21.9487 219.293 22.4153 219.638 23.022C219.993 23.6287 220.17 24.3287 220.17 25.122C220.17 25.9153 219.988 26.6153 219.624 27.222C219.269 27.8287 218.784 28.3 218.168 28.636C217.561 28.9627 216.88 29.126 216.124 29.126ZM216.124 27.418C216.479 27.418 216.81 27.334 217.118 27.166C217.435 26.9887 217.687 26.7273 217.874 26.382C218.061 26.0367 218.154 25.6167 218.154 25.122C218.154 24.3847 217.958 23.82 217.566 23.428C217.183 23.0267 216.712 22.826 216.152 22.826C215.592 22.826 215.121 23.0267 214.738 23.428C214.365 23.82 214.178 24.3847 214.178 25.122C214.178 25.8593 214.36 26.4287 214.724 26.83C215.097 27.222 215.564 27.418 216.124 27.418ZM225.906 21.132C226.83 21.132 227.576 21.426 228.146 22.014C228.715 22.5927 229 23.4047 229 24.45V29H227.04V24.716C227.04 24.1 226.886 23.6287 226.578 23.302C226.27 22.966 225.85 22.798 225.318 22.798C224.776 22.798 224.347 22.966 224.03 23.302C223.722 23.6287 223.568 24.1 223.568 24.716V29H221.608V21.244H223.568V22.21C223.829 21.874 224.16 21.6127 224.562 21.426C224.972 21.23 225.42 21.132 225.906 21.132ZM240.191 27.138H236.299L235.655 29H233.597L237.111 19.214H239.393L242.907 29H240.835L240.191 27.138ZM239.659 25.57L238.245 21.482L236.831 25.57H239.659ZM248.519 21.132C249.443 21.132 250.19 21.426 250.759 22.014C251.328 22.5927 251.613 23.4047 251.613 24.45V29H249.653V24.716C249.653 24.1 249.499 23.6287 249.191 23.302C248.883 22.966 248.463 22.798 247.931 22.798C247.39 22.798 246.96 22.966 246.643 23.302C246.335 23.6287 246.181 24.1 246.181 24.716V29H244.221V21.244H246.181V22.21C246.442 21.874 246.774 21.6127 247.175 21.426C247.586 21.23 248.034 21.132 248.519 21.132ZM252.973 25.094C252.973 24.31 253.127 23.6147 253.435 23.008C253.752 22.4013 254.177 21.9347 254.709 21.608C255.25 21.2813 255.852 21.118 256.515 21.118C257.093 21.118 257.597 21.2347 258.027 21.468C258.465 21.7013 258.815 21.9953 259.077 22.35V21.244H261.051V29H259.077V27.866C258.825 28.23 258.475 28.5333 258.027 28.776C257.588 29.0093 257.079 29.126 256.501 29.126C255.847 29.126 255.25 28.958 254.709 28.622C254.177 28.286 253.752 27.8147 253.435 27.208C253.127 26.592 252.973 25.8873 252.973 25.094ZM259.077 25.122C259.077 24.646 258.983 24.24 258.797 23.904C258.61 23.5587 258.358 23.2973 258.041 23.12C257.723 22.9333 257.383 22.84 257.019 22.84C256.655 22.84 256.319 22.9287 256.011 23.106C255.703 23.2833 255.451 23.5447 255.255 23.89C255.068 24.226 254.975 24.6273 254.975 25.094C254.975 25.5607 255.068 25.9713 255.255 26.326C255.451 26.6713 255.703 26.9373 256.011 27.124C256.328 27.3107 256.664 27.404 257.019 27.404C257.383 27.404 257.723 27.3153 258.041 27.138C258.358 26.9513 258.61 26.69 258.797 26.354C258.983 26.0087 259.077 25.598 259.077 25.122ZM264.925 18.64V29H262.965V18.64H264.925ZM274.282 21.244L269.48 32.668H267.394L269.074 28.804L265.966 21.244H268.164L270.166 26.662L272.196 21.244H274.282ZM278.306 29.126C277.671 29.126 277.102 29.014 276.598 28.79C276.094 28.5567 275.693 28.244 275.394 27.852C275.105 27.46 274.946 27.026 274.918 26.55H276.892C276.929 26.8487 277.074 27.096 277.326 27.292C277.587 27.488 277.909 27.586 278.292 27.586C278.665 27.586 278.955 27.5113 279.16 27.362C279.375 27.2127 279.482 27.0213 279.482 26.788C279.482 26.536 279.351 26.3493 279.09 26.228C278.838 26.0973 278.432 25.9573 277.872 25.808C277.293 25.668 276.817 25.5233 276.444 25.374C276.08 25.2247 275.763 24.996 275.492 24.688C275.231 24.38 275.1 23.9647 275.1 23.442C275.1 23.0127 275.221 22.6207 275.464 22.266C275.716 21.9113 276.071 21.6313 276.528 21.426C276.995 21.2207 277.541 21.118 278.166 21.118C279.09 21.118 279.827 21.3513 280.378 21.818C280.929 22.2753 281.232 22.896 281.288 23.68H279.412C279.384 23.372 279.253 23.1293 279.02 22.952C278.796 22.7653 278.493 22.672 278.11 22.672C277.755 22.672 277.48 22.7373 277.284 22.868C277.097 22.9987 277.004 23.1807 277.004 23.414C277.004 23.6753 277.135 23.876 277.396 24.016C277.657 24.1467 278.063 24.282 278.614 24.422C279.174 24.562 279.636 24.7067 280 24.856C280.364 25.0053 280.677 25.2387 280.938 25.556C281.209 25.864 281.349 26.2747 281.358 26.788C281.358 27.236 281.232 27.6373 280.98 27.992C280.737 28.3467 280.383 28.6267 279.916 28.832C279.459 29.028 278.922 29.126 278.306 29.126ZM290.177 24.954C290.177 25.234 290.158 25.486 290.121 25.71H284.451C284.498 26.27 284.694 26.7087 285.039 27.026C285.384 27.3433 285.809 27.502 286.313 27.502C287.041 27.502 287.559 27.1893 287.867 26.564H289.981C289.757 27.3107 289.328 27.9267 288.693 28.412C288.058 28.888 287.279 29.126 286.355 29.126C285.608 29.126 284.936 28.9627 284.339 28.636C283.751 28.3 283.289 27.8287 282.953 27.222C282.626 26.6153 282.463 25.9153 282.463 25.122C282.463 24.3193 282.626 23.6147 282.953 23.008C283.28 22.4013 283.737 21.9347 284.325 21.608C284.913 21.2813 285.59 21.118 286.355 21.118C287.092 21.118 287.75 21.2767 288.329 21.594C288.917 21.9113 289.37 22.364 289.687 22.952C290.014 23.5307 290.177 24.198 290.177 24.954ZM288.147 24.394C288.138 23.89 287.956 23.4887 287.601 23.19C287.246 22.882 286.812 22.728 286.299 22.728C285.814 22.728 285.403 22.8773 285.067 23.176C284.74 23.4653 284.54 23.8713 284.465 24.394H288.147ZM294.576 29.126C293.941 29.126 293.372 29.014 292.868 28.79C292.364 28.5567 291.962 28.244 291.664 27.852C291.374 27.46 291.216 27.026 291.188 26.55H293.162C293.199 26.8487 293.344 27.096 293.596 27.292C293.857 27.488 294.179 27.586 294.562 27.586C294.935 27.586 295.224 27.5113 295.43 27.362C295.644 27.2127 295.752 27.0213 295.752 26.788C295.752 26.536 295.621 26.3493 295.36 26.228C295.108 26.0973 294.702 25.9573 294.142 25.808C293.563 25.668 293.087 25.5233 292.714 25.374C292.35 25.2247 292.032 24.996 291.762 24.688C291.5 24.38 291.37 23.9647 291.37 23.442C291.37 23.0127 291.491 22.6207 291.734 22.266C291.986 21.9113 292.34 21.6313 292.798 21.426C293.264 21.2207 293.81 21.118 294.436 21.118C295.36 21.118 296.097 21.3513 296.648 21.818C297.198 22.2753 297.502 22.896 297.558 23.68H295.682C295.654 23.372 295.523 23.1293 295.29 22.952C295.066 22.7653 294.762 22.672 294.38 22.672C294.025 22.672 293.75 22.7373 293.554 22.868C293.367 22.9987 293.274 23.1807 293.274 23.414C293.274 23.6753 293.404 23.876 293.666 24.016C293.927 24.1467 294.333 24.282 294.884 24.422C295.444 24.562 295.906 24.7067 296.27 24.856C296.634 25.0053 296.946 25.2387 297.208 25.556C297.478 25.864 297.618 26.2747 297.628 26.788C297.628 27.236 297.502 27.6373 297.25 27.992C297.007 28.3467 296.652 28.6267 296.186 28.832C295.728 29.028 295.192 29.126 294.576 29.126ZM310.342 19.228L307.038 25.598V29H305.078V25.598L301.76 19.228H303.972L306.072 23.694L308.158 19.228H310.342ZM314.917 29.126C314.17 29.126 313.498 28.9627 312.901 28.636C312.304 28.3 311.832 27.8287 311.487 27.222C311.151 26.6153 310.983 25.9153 310.983 25.122C310.983 24.3287 311.156 23.6287 311.501 23.022C311.856 22.4153 312.336 21.9487 312.943 21.622C313.55 21.286 314.226 21.118 314.973 21.118C315.72 21.118 316.396 21.286 317.003 21.622C317.61 21.9487 318.086 22.4153 318.431 23.022C318.786 23.6287 318.963 24.3287 318.963 25.122C318.963 25.9153 318.781 26.6153 318.417 27.222C318.062 27.8287 317.577 28.3 316.961 28.636C316.354 28.9627 315.673 29.126 314.917 29.126ZM314.917 27.418C315.272 27.418 315.603 27.334 315.911 27.166C316.228 26.9887 316.48 26.7273 316.667 26.382C316.854 26.0367 316.947 25.6167 316.947 25.122C316.947 24.3847 316.751 23.82 316.359 23.428C315.976 23.0267 315.505 22.826 314.945 22.826C314.385 22.826 313.914 23.0267 313.531 23.428C313.158 23.82 312.971 24.3847 312.971 25.122C312.971 25.8593 313.153 26.4287 313.517 26.83C313.89 27.222 314.357 27.418 314.917 27.418ZM327.723 21.244V29H325.749V28.02C325.497 28.356 325.165 28.622 324.755 28.818C324.353 29.0047 323.915 29.098 323.439 29.098C322.832 29.098 322.295 28.972 321.829 28.72C321.362 28.4587 320.993 28.0807 320.723 27.586C320.461 27.082 320.331 26.4847 320.331 25.794V21.244H322.291V25.514C322.291 26.13 322.445 26.606 322.753 26.942C323.061 27.2687 323.481 27.432 324.013 27.432C324.554 27.432 324.979 27.2687 325.287 26.942C325.595 26.606 325.749 26.13 325.749 25.514V21.244H327.723ZM331.616 22.448C331.868 22.0373 332.195 21.7153 332.596 21.482C333.007 21.2487 333.474 21.132 333.996 21.132V23.19H333.478C332.862 23.19 332.396 23.3347 332.078 23.624C331.77 23.9133 331.616 24.4173 331.616 25.136V29H329.656V21.244H331.616V22.448ZM345.933 30.722L344.449 28.944C344.038 29.0467 343.618 29.098 343.189 29.098C342.274 29.098 341.434 28.8833 340.669 28.454C339.903 28.0247 339.297 27.432 338.849 26.676C338.401 25.9107 338.177 25.0473 338.177 24.086C338.177 23.134 338.401 22.28 338.849 21.524C339.297 20.7587 339.903 20.1613 340.669 19.732C341.434 19.3027 342.274 19.088 343.189 19.088C344.113 19.088 344.953 19.3027 345.709 19.732C346.474 20.1613 347.076 20.7587 347.515 21.524C347.963 22.28 348.187 23.134 348.187 24.086C348.187 24.954 348 25.7473 347.627 26.466C347.263 27.1753 346.763 27.754 346.129 28.202L348.369 30.722H345.933ZM340.193 24.086C340.193 24.7393 340.319 25.3133 340.571 25.808C340.823 26.3027 341.173 26.6853 341.621 26.956C342.078 27.2173 342.601 27.348 343.189 27.348C343.777 27.348 344.295 27.2173 344.743 26.956C345.191 26.6853 345.541 26.3027 345.793 25.808C346.045 25.3133 346.171 24.7393 346.171 24.086C346.171 23.4327 346.045 22.8633 345.793 22.378C345.541 21.8833 345.191 21.5053 344.743 21.244C344.295 20.9827 343.777 20.852 343.189 20.852C342.601 20.852 342.078 20.9827 341.621 21.244C341.173 21.5053 340.823 21.8833 340.571 22.378C340.319 22.8633 340.193 23.4327 340.193 24.086ZM356.994 21.244V29H355.02V28.02C354.768 28.356 354.437 28.622 354.026 28.818C353.625 29.0047 353.186 29.098 352.71 29.098C352.103 29.098 351.567 28.972 351.1 28.72C350.633 28.4587 350.265 28.0807 349.994 27.586C349.733 27.082 349.602 26.4847 349.602 25.794V21.244H351.562V25.514C351.562 26.13 351.716 26.606 352.024 26.942C352.332 27.2687 352.752 27.432 353.284 27.432C353.825 27.432 354.25 27.2687 354.558 26.942C354.866 26.606 355.02 26.13 355.02 25.514V21.244H356.994ZM366.138 24.954C366.138 25.234 366.119 25.486 366.082 25.71H360.412C360.459 26.27 360.655 26.7087 361 27.026C361.345 27.3433 361.77 27.502 362.274 27.502C363.002 27.502 363.52 27.1893 363.828 26.564H365.942C365.718 27.3107 365.289 27.9267 364.654 28.412C364.019 28.888 363.24 29.126 362.316 29.126C361.569 29.126 360.897 28.9627 360.3 28.636C359.712 28.3 359.25 27.8287 358.914 27.222C358.587 26.6153 358.424 25.9153 358.424 25.122C358.424 24.3193 358.587 23.6147 358.914 23.008C359.241 22.4013 359.698 21.9347 360.286 21.608C360.874 21.2813 361.551 21.118 362.316 21.118C363.053 21.118 363.711 21.2767 364.29 21.594C364.878 21.9113 365.331 22.364 365.648 22.952C365.975 23.5307 366.138 24.198 366.138 24.954ZM364.108 24.394C364.099 23.89 363.917 23.4887 363.562 23.19C363.207 22.882 362.773 22.728 362.26 22.728C361.775 22.728 361.364 22.8773 361.028 23.176C360.701 23.4653 360.501 23.8713 360.426 24.394H364.108ZM369.529 22.448C369.781 22.0373 370.107 21.7153 370.509 21.482C370.919 21.2487 371.386 21.132 371.909 21.132V23.19H371.391C370.775 23.19 370.308 23.3347 369.991 23.624C369.683 23.9133 369.529 24.4173 369.529 25.136V29H367.569V21.244H369.529V22.448ZM380.649 21.244L375.847 32.668H373.761L375.441 28.804L372.333 21.244H374.531L376.533 26.662L378.563 21.244H380.649Z" fill="white"/>
<path d="M94.5374 26.4166C86.5099 36.081 75.1321 45.1584 61.9984 45.3035C53.6051 45.3962 44.8509 39.5439 42.1804 31.5343C39.6583 23.9697 40.2758 15.2408 47.2025 10.4022C50.8129 7.88023 55.0637 7.26813 58.4369 10.5389C63.5904 15.5358 62.2075 25.6426 59.4922 31.4594C51.0181 49.6124 30.7138 63.8714 10.6874 64.7481" stroke="url(#paint1_linear_1377_5160)" stroke-width="3" stroke-linecap="round"/>
<path d="M24.3164 70.9565C20.9905 69.8604 13.4773 67.1228 10.0313 64.9413" stroke="url(#paint2_linear_1377_5160)" stroke-width="3" stroke-linecap="round"/>
<path d="M10.0312 64.9409C12.566 62.5085 18.1807 56.7775 20.3609 53.3132" stroke="url(#paint3_linear_1377_5160)" stroke-width="3" stroke-linecap="round"/>
<defs>
<linearGradient id="paint0_linear_1377_5160" x1="102.002" y1="24.5" x2="417.002" y2="24.5" gradientUnits="userSpaceOnUse">
<stop stop-color="#0058FF"/>
<stop offset="0.918269" stop-color="#0492FF"/>
</linearGradient>
<linearGradient id="paint1_linear_1377_5160" x1="44.641" y1="10.0268" x2="54.9939" y2="55.431" gradientUnits="userSpaceOnUse">
<stop stop-color="#21C8F6"/>
<stop offset="1" stop-color="#035AFF"/>
</linearGradient>
<linearGradient id="paint2_linear_1377_5160" x1="16.185" y1="63.5382" x2="18.1947" y2="72.3524" gradientUnits="userSpaceOnUse">
<stop stop-color="#21C8F6"/>
<stop offset="1" stop-color="#035AFF"/>
</linearGradient>
<linearGradient id="paint3_linear_1377_5160" x1="14.2072" y1="54.7163" x2="16.217" y2="63.5305" gradientUnits="userSpaceOnUse">
<stop stop-color="#21C8F6"/>
<stop offset="1" stop-color="#035AFF"/>
</linearGradient>
</defs>
</svg>
