<svg width="519" height="403" viewBox="0 0 519 403" fill="none" xmlns="http://www.w3.org/2000/svg">
<rect x="2.63415" y="2.55016" width="513.61" height="397.61" rx="14.3049" fill="white"/>
<rect x="2.63415" y="2.55016" width="513.61" height="397.61" rx="14.3049" stroke="#CECECE" stroke-width="3.73171"/>
<g clip-path="url(#clip0_975_2631)">
<g clip-path="url(#clip1_975_2631)">
<rect width="637.001" height="413.713" transform="translate(-133.84 17.2715)" fill="white"/>
<g clip-path="url(#clip2_975_2631)">
<rect width="509.348" height="413.713" transform="translate(-6.18652 17.2715)" fill="white"/>
<g filter="url(#filter0_d_975_2631)">
<path d="M48.3339 149.058H46.0902C45.9885 149.058 45.9059 149.141 45.9059 149.243C45.8042 152.853 42.7278 155.726 39.0286 155.478C35.6344 155.243 32.9649 152.294 33.0475 148.9C33.0602 148.296 33.1619 147.717 33.3272 147.164C33.6005 146.281 34.0581 145.48 34.6556 144.806C35.8378 143.471 37.554 142.632 39.4735 142.632C41.3931 142.632 42.6071 143.249 43.7385 144.253C43.9355 144.425 44.1198 144.609 44.2914 144.806L46.1474 142.95C45.9694 142.76 45.7851 142.575 45.5944 142.397C43.98 140.916 41.8316 140.014 39.4672 140.014C37.1027 140.014 34.4458 141.145 32.7869 142.95C32.1894 143.605 31.6873 144.342 31.2996 145.149C30.6576 146.484 30.3398 147.997 30.4288 149.599C30.683 154.092 34.3124 157.773 38.7998 158.097C44.0372 158.465 48.4038 154.385 48.5119 149.262C48.5119 149.154 48.4229 149.065 48.3212 149.065L48.3339 149.058Z" fill="url(#paint0_linear_975_2631)"/>
<path d="M51.1485 141.184C51.3138 141.184 51.4028 141.387 51.282 141.508L47.64 145.15L45.6187 147.165L41.3156 151.468L40.9788 151.805C40.1525 152.637 38.805 152.637 37.9723 151.805L37.6291 151.461L34.54 148.372L34.7498 148.163C35.6524 147.26 37.1143 147.26 38.0105 148.163L39.4724 149.625L44.2903 144.807L47.8561 141.241C47.8942 141.203 47.9387 141.184 47.9896 141.184H51.1422H51.1485Z" fill="url(#paint1_linear_975_2631)"/>
<path opacity="0.1" d="M46.1541 142.944L44.2981 144.8C44.1265 144.603 43.9422 144.418 43.7451 144.247L45.6011 142.391C45.7918 142.569 45.9761 142.753 46.1541 142.944Z" fill="#181919"/>
<rect x="63.7959" y="140.514" width="359" height="164" rx="11.5" fill="#E4E4E4"/>
<rect x="63.7959" y="140.514" width="359" height="164" rx="11.5" fill="url(#paint2_radial_975_2631)"/>
<rect x="63.7959" y="140.514" width="359" height="164" rx="11.5" fill="url(#paint3_radial_975_2631)"/>
<rect x="63.7959" y="140.514" width="359" height="164" rx="11.5" stroke="#D7D7D7"/>
<path d="M248.078 194.188C248.078 193.607 247.847 193.051 247.436 192.64C247.026 192.23 246.469 191.999 245.889 191.999C245.308 191.999 244.752 192.23 244.341 192.64C243.931 193.051 243.7 193.607 243.7 194.188V196.377H234.945C233.203 196.377 231.533 197.068 230.302 198.3C229.07 199.531 228.379 201.201 228.379 202.943V216.076C228.379 217.817 229.07 219.487 230.302 220.719C231.533 221.95 233.203 222.642 234.945 222.642H246.274C246.461 222.14 246.712 221.666 247.027 221.219C247.771 220.169 248.822 219.381 250.047 218.938L252.149 218.264H234.945C234.364 218.264 233.808 218.034 233.397 217.623C232.987 217.213 232.756 216.656 232.756 216.076V202.943C232.756 202.362 232.987 201.806 233.397 201.395C233.808 200.985 234.364 200.754 234.945 200.754H256.833C257.413 200.754 257.97 200.985 258.38 201.395C258.791 201.806 259.021 202.362 259.021 202.943V211.16L259.604 209.378C260.085 208.065 260.873 207.014 261.924 206.27C262.388 205.937 262.879 205.679 263.399 205.495V202.943C263.399 201.201 262.707 199.531 261.476 198.3C260.244 197.068 258.574 196.377 256.833 196.377H248.078V194.188ZM230.567 229.208H247.697C248.378 229.903 249.216 230.425 250.139 230.732L254.78 232.264C255.441 232.487 256.053 232.837 256.841 233.538L256.885 233.586H230.567C229.987 233.586 229.43 233.816 229.02 234.227C228.609 234.637 228.379 235.194 228.379 235.775V237.307C228.379 241.443 230.165 244.201 233.115 246.036C236.197 247.953 240.658 248.907 245.889 248.907C246.094 248.907 246.299 248.906 246.502 248.903C251.501 248.831 255.736 247.874 258.684 246.036C259.919 245.269 260.948 244.337 261.727 243.208L261.967 243.405C262.58 243.842 263.237 244.149 263.937 244.324C263.433 245.409 263.284 246.626 263.51 247.8C263.511 247.805 263.512 247.809 263.513 247.813C262.745 248.544 261.902 249.194 261 249.752C256.955 252.278 251.566 253.285 245.889 253.285C240.242 253.285 234.853 252.269 230.804 249.752C226.623 247.156 224.001 243.019 224.001 237.307V235.775C224.001 234.033 224.693 232.363 225.924 231.131C227.156 229.9 228.826 229.208 230.567 229.208ZM242.606 209.509C242.606 210.38 242.26 211.215 241.644 211.831C241.028 212.446 240.193 212.792 239.322 212.792C238.452 212.792 237.617 212.446 237.001 211.831C236.385 211.215 236.039 210.38 236.039 209.509C236.039 208.638 236.385 207.803 237.001 207.188C237.617 206.572 238.452 206.226 239.322 206.226C240.193 206.226 241.028 206.572 241.644 207.188C242.26 207.803 242.606 208.638 242.606 209.509ZM252.455 212.792C253.326 212.792 254.161 212.446 254.777 211.831C255.392 211.215 255.738 210.38 255.738 209.509C255.738 208.638 255.392 207.803 254.777 207.188C254.161 206.572 253.326 206.226 252.455 206.226C251.584 206.226 250.749 206.572 250.134 207.188C249.518 207.803 249.172 208.638 249.172 209.509C249.172 210.38 249.518 211.215 250.134 211.831C250.749 212.446 251.584 212.792 252.455 212.792Z" fill="#B8B8B8"/>
<path d="M259.604 209.378L259.021 211.16V215.953H263.399V205.495C262.879 205.679 262.388 205.937 261.924 206.27C260.873 207.014 260.085 208.065 259.604 209.378Z" fill="#B8B8B8"/>
<path d="M261.476 220.596C262.707 219.364 263.399 217.694 263.399 215.953H259.021C259.021 216.533 258.791 217.09 258.38 217.5C257.97 217.911 257.413 218.141 256.833 218.141V222.519C258.574 222.519 260.244 221.827 261.476 220.596Z" fill="#B8B8B8"/>
<path d="M247.027 221.219C246.712 221.666 246.461 222.14 246.274 222.642L256.833 222.519V218.141L252.149 218.264L250.047 218.938C248.822 219.381 247.771 220.169 247.027 221.219Z" fill="#B8B8B8"/>
<path d="M246.502 248.903C251.501 248.831 255.736 247.874 258.684 246.036C259.919 245.269 260.948 244.337 261.727 243.208L261.967 243.405C262.58 243.842 263.237 244.149 263.937 244.324C263.433 245.409 263.284 246.626 263.51 247.8C266.187 245.247 267.776 241.754 267.776 237.307V235.775C267.776 234.033 267.085 232.363 265.853 231.131C264.622 229.9 262.952 229.208 261.21 229.208V233.586C261.791 233.586 262.347 233.816 262.758 234.227C263.168 234.637 263.399 235.194 263.399 235.775V237.307C263.399 241.443 261.613 244.201 258.662 246.036C255.702 247.877 251.469 248.831 246.502 248.903Z" fill="#B8B8B8"/>
<path d="M247.697 229.208C248.378 229.903 249.216 230.425 250.139 230.732L254.78 232.264C255.441 232.487 256.053 232.837 256.841 233.538L256.885 233.586H261.21V229.208H247.697Z" fill="#B8B8B8"/>
<rect x="260.145" y="180.999" width="40.8571" height="14.1429" rx="7.07143" fill="white"/>
<circle cx="268.788" cy="188.07" r="2.35714" fill="#F1F0F0"/>
<circle cx="276.645" cy="188.07" r="2.35714" fill="#E3E3E3"/>
<circle cx="284.502" cy="188.07" r="2.35714" fill="#C2C2C2"/>
<circle cx="292.359" cy="188.07" r="2.35714" fill="#B8B8B8"/>
</g>
<g filter="url(#filter1_d_975_2631)">
<path d="M89.001 58.6348C89.001 51.7528 94.5799 46.1738 101.462 46.1738H486.54C493.422 46.1738 499.001 51.7528 499.001 58.6348V112.897C499.001 119.779 493.422 125.358 486.54 125.358H101.462C94.5799 125.358 89.001 119.779 89.001 112.897V58.6348Z" fill="#F8F9FF" shape-rendering="crispEdges"/>
<path d="M101.462 46.9072H486.54C493.017 46.9072 498.268 52.1576 498.268 58.6348V112.896C498.268 119.374 493.017 124.625 486.54 124.625H101.462C94.9848 124.625 89.7344 119.374 89.7344 112.896V58.6348C89.7344 52.1576 94.9848 46.9072 101.462 46.9072Z" stroke="#F0F0F0" stroke-width="1.46599" shape-rendering="crispEdges"/>
<path d="M114.304 67.1021V74.7656H113.304V67.1021H114.304ZM116.449 66.0136L116.317 68.2016H115.625L115.482 66.0136H116.449ZM119.871 73.842L121.74 68.7404H122.806L120.442 74.7656H119.277L116.913 68.7404H117.99L119.871 73.842ZM129.222 71.5221C129.222 71.7127 129.211 71.9143 129.189 72.1268H124.374C124.41 72.7206 124.612 73.186 124.978 73.5232C125.352 73.853 125.803 74.018 126.331 74.018C126.763 74.018 127.122 73.919 127.408 73.7211C127.701 73.5159 127.907 73.2447 128.024 72.9075H129.101C128.94 73.4865 128.618 73.9593 128.134 74.3258C127.65 74.685 127.049 74.8646 126.331 74.8646C125.759 74.8646 125.246 74.7363 124.791 74.4798C124.344 74.2232 123.992 73.8604 123.736 73.3913C123.479 72.9148 123.351 72.3651 123.351 71.742C123.351 71.119 123.476 70.5729 123.725 70.1038C123.974 69.6347 124.322 69.2755 124.769 69.0263C125.224 68.7697 125.744 68.6414 126.331 68.6414C126.902 68.6414 127.408 68.7661 127.848 69.0153C128.288 69.2645 128.625 69.609 128.86 70.0488C129.101 70.4813 129.222 70.9724 129.222 71.5221ZM128.189 71.3132C128.189 70.9321 128.105 70.6059 127.936 70.3347C127.767 70.0561 127.536 69.8472 127.243 69.708C126.957 69.5614 126.639 69.4881 126.287 69.4881C125.781 69.4881 125.348 69.6493 124.989 69.9718C124.637 70.2943 124.436 70.7415 124.385 71.3132H128.189ZM138.431 68.6304C139.164 68.6304 139.758 68.854 140.213 69.3011C140.667 69.7409 140.894 70.3786 140.894 71.2143V74.7656H139.905V71.3572C139.905 70.7561 139.754 70.298 139.454 69.9828C139.153 69.6603 138.743 69.499 138.222 69.499C137.695 69.499 137.273 69.664 136.958 69.9938C136.65 70.3237 136.496 70.8038 136.496 71.4342V74.7656H135.496V68.7404H136.496V69.598C136.694 69.2901 136.962 69.0519 137.299 68.8833C137.643 68.7147 138.021 68.6304 138.431 68.6304ZM145.09 74.8646C144.526 74.8646 144.013 74.7363 143.551 74.4798C143.097 74.2232 142.738 73.8604 142.474 73.3913C142.217 72.9148 142.089 72.3651 142.089 71.742C142.089 71.1263 142.221 70.5839 142.485 70.1148C142.756 69.6383 143.122 69.2755 143.584 69.0263C144.046 68.7697 144.563 68.6414 145.134 68.6414C145.706 68.6414 146.223 68.7697 146.685 69.0263C147.147 69.2755 147.509 69.6347 147.773 70.1038C148.044 70.5729 148.18 71.119 148.18 71.742C148.18 72.3651 148.041 72.9148 147.762 73.3913C147.491 73.8604 147.121 74.2232 146.652 74.4798C146.183 74.7363 145.662 74.8646 145.09 74.8646ZM145.09 73.985C145.45 73.985 145.787 73.9007 146.102 73.7321C146.417 73.5635 146.67 73.3106 146.861 72.9734C147.059 72.6363 147.158 72.2258 147.158 71.742C147.158 71.2582 147.062 70.8478 146.872 70.5106C146.681 70.1734 146.432 69.9242 146.124 69.7629C145.816 69.5943 145.483 69.51 145.123 69.51C144.757 69.51 144.42 69.5943 144.112 69.7629C143.811 69.9242 143.569 70.1734 143.386 70.5106C143.203 70.8478 143.111 71.2582 143.111 71.742C143.111 72.2331 143.199 72.6473 143.375 72.9844C143.559 73.3216 143.8 73.5745 144.101 73.7431C144.401 73.9044 144.731 73.985 145.09 73.985ZM150.65 69.565V73.1164C150.65 73.4096 150.712 73.6185 150.837 73.7431C150.962 73.8604 151.178 73.919 151.486 73.919H152.222V74.7656H151.321C150.764 74.7656 150.346 74.6374 150.067 74.3808C149.789 74.1243 149.649 73.7028 149.649 73.1164V69.565H148.869V68.7404H149.649V67.2231H150.65V68.7404H152.222V69.565H150.65ZM153.885 67.7618C153.695 67.7618 153.534 67.6959 153.402 67.5639C153.27 67.432 153.204 67.2707 153.204 67.0802C153.204 66.8896 153.27 66.7283 153.402 66.5964C153.534 66.4644 153.695 66.3985 153.885 66.3985C154.069 66.3985 154.223 66.4644 154.347 66.5964C154.479 66.7283 154.545 66.8896 154.545 67.0802C154.545 67.2707 154.479 67.432 154.347 67.5639C154.223 67.6959 154.069 67.7618 153.885 67.7618ZM154.369 68.7404V74.7656H153.369V68.7404H154.369ZM155.635 71.742C155.635 71.119 155.759 70.5766 156.008 70.1148C156.258 69.6456 156.602 69.2828 157.042 69.0263C157.489 68.7697 157.999 68.6414 158.57 68.6414C159.311 68.6414 159.919 68.821 160.395 69.1802C160.879 69.5394 161.198 70.0378 161.352 70.6755H160.274C160.172 70.309 159.97 70.0195 159.67 69.8069C159.377 69.5943 159.01 69.4881 158.57 69.4881C157.999 69.4881 157.537 69.686 157.185 70.0818C156.833 70.4703 156.657 71.0237 156.657 71.742C156.657 72.4677 156.833 73.0284 157.185 73.4242C157.537 73.8201 157.999 74.018 158.57 74.018C159.01 74.018 159.377 73.9153 159.67 73.7101C159.963 73.5049 160.165 73.2117 160.274 72.8305H161.352C161.191 73.4462 160.868 73.941 160.384 74.3148C159.901 74.6813 159.296 74.8646 158.57 74.8646C157.999 74.8646 157.489 74.7363 157.042 74.4798C156.602 74.2232 156.258 73.8604 156.008 73.3913C155.759 72.9221 155.635 72.3724 155.635 71.742ZM168.119 71.5221C168.119 71.7127 168.108 71.9143 168.086 72.1268H163.27C163.306 72.7206 163.508 73.186 163.874 73.5232C164.248 73.853 164.699 74.018 165.227 74.018C165.659 74.018 166.018 73.919 166.304 73.7211C166.598 73.5159 166.803 73.2447 166.92 72.9075H167.998C167.836 73.4865 167.514 73.9593 167.03 74.3258C166.546 74.685 165.945 74.8646 165.227 74.8646C164.655 74.8646 164.142 74.7363 163.688 74.4798C163.24 74.2232 162.889 73.8604 162.632 73.3913C162.375 72.9148 162.247 72.3651 162.247 71.742C162.247 71.119 162.372 70.5729 162.621 70.1038C162.87 69.6347 163.218 69.2755 163.666 69.0263C164.12 68.7697 164.64 68.6414 165.227 68.6414C165.799 68.6414 166.304 68.7661 166.744 69.0153C167.184 69.2645 167.521 69.609 167.756 70.0488C167.998 70.4813 168.119 70.9724 168.119 71.5221ZM167.085 71.3132C167.085 70.9321 167.001 70.6059 166.832 70.3347C166.664 70.0561 166.433 69.8472 166.139 69.708C165.854 69.5614 165.535 69.4881 165.183 69.4881C164.677 69.4881 164.245 69.6493 163.885 69.9718C163.534 70.2943 163.332 70.7415 163.281 71.3132H167.085ZM168.999 71.731C168.999 71.1153 169.124 70.5766 169.373 70.1148C169.622 69.6456 169.963 69.2828 170.396 69.0263C170.836 68.7697 171.327 68.6414 171.869 68.6414C172.338 68.6414 172.774 68.7514 173.177 68.9713C173.581 69.1839 173.888 69.4661 174.101 69.8179V66.6294H175.113V74.7656H174.101V73.6331C173.903 73.9923 173.61 74.2892 173.221 74.5237C172.833 74.751 172.379 74.8646 171.858 74.8646C171.323 74.8646 170.836 74.7326 170.396 74.4688C169.963 74.2049 169.622 73.8347 169.373 73.3583C169.124 72.8818 168.999 72.3394 168.999 71.731ZM174.101 71.742C174.101 71.2876 174.009 70.8917 173.826 70.5546C173.643 70.2174 173.394 69.9608 173.079 69.7849C172.771 69.6017 172.43 69.51 172.056 69.51C171.682 69.51 171.341 69.598 171.033 69.7739C170.726 69.9498 170.48 70.2064 170.297 70.5436C170.114 70.8807 170.022 71.2766 170.022 71.731C170.022 72.1928 170.114 72.596 170.297 72.9405C170.48 73.2776 170.726 73.5379 171.033 73.7211C171.341 73.897 171.682 73.985 172.056 73.985C172.43 73.985 172.771 73.897 173.079 73.7211C173.394 73.5379 173.643 73.2776 173.826 72.9405C174.009 72.596 174.101 72.1965 174.101 71.742ZM187.1 68.7404V74.7656H186.099V73.875C185.909 74.1829 185.641 74.4248 185.296 74.6007C184.959 74.7693 184.585 74.8536 184.175 74.8536C183.706 74.8536 183.284 74.7583 182.911 74.5677C182.537 74.3698 182.24 74.0766 182.02 73.6881C181.807 73.2996 181.701 72.8269 181.701 72.2698V68.7404H182.691V72.1378C182.691 72.7316 182.841 73.1897 183.141 73.5122C183.442 73.8274 183.852 73.985 184.373 73.985C184.908 73.985 185.329 73.8201 185.637 73.4902C185.945 73.1604 186.099 72.6803 186.099 72.0499V68.7404H187.1ZM191.659 68.6304C192.392 68.6304 192.985 68.854 193.44 69.3011C193.894 69.7409 194.122 70.3786 194.122 71.2143V74.7656H193.132V71.3572C193.132 70.7561 192.982 70.298 192.681 69.9828C192.381 69.6603 191.97 69.499 191.45 69.499C190.922 69.499 190.501 69.664 190.185 69.9938C189.878 70.3237 189.724 70.8038 189.724 71.4342V74.7656H188.723V68.7404H189.724V69.598C189.921 69.2901 190.189 69.0519 190.526 68.8833C190.871 68.7147 191.248 68.6304 191.659 68.6304ZM201.034 68.7404V74.7656H200.033V73.875C199.842 74.1829 199.575 74.4248 199.23 74.6007C198.893 74.7693 198.519 74.8536 198.109 74.8536C197.64 74.8536 197.218 74.7583 196.844 74.5677C196.471 74.3698 196.174 74.0766 195.954 73.6881C195.741 73.2996 195.635 72.8269 195.635 72.2698V68.7404H196.625V72.1378C196.625 72.7316 196.775 73.1897 197.075 73.5122C197.376 73.8274 197.786 73.985 198.307 73.985C198.842 73.985 199.263 73.8201 199.571 73.4902C199.879 73.1604 200.033 72.6803 200.033 72.0499V68.7404H201.034ZM204.79 74.8646C204.328 74.8646 203.914 74.7876 203.547 74.6337C203.181 74.4724 202.891 74.2525 202.679 73.974C202.466 73.6881 202.349 73.3619 202.327 72.9954H203.361C203.39 73.296 203.529 73.5415 203.778 73.7321C204.035 73.9227 204.368 74.018 204.779 74.018C205.16 74.018 205.461 73.9337 205.681 73.7651C205.9 73.5965 206.01 73.3839 206.01 73.1274C206.01 72.8635 205.893 72.6693 205.659 72.5446C205.424 72.4127 205.061 72.2844 204.57 72.1598C204.123 72.0425 203.756 71.9253 203.471 71.808C203.192 71.6834 202.95 71.5038 202.745 71.2692C202.547 71.0273 202.448 70.7122 202.448 70.3237C202.448 70.0158 202.54 69.7336 202.723 69.4771C202.906 69.2205 203.166 69.0189 203.504 68.8723C203.841 68.7184 204.226 68.6414 204.658 68.6414C205.325 68.6414 205.864 68.81 206.274 69.1472C206.685 69.4844 206.905 69.9462 206.934 70.5326H205.933C205.911 70.2174 205.783 69.9645 205.549 69.7739C205.321 69.5833 205.013 69.4881 204.625 69.4881C204.266 69.4881 203.98 69.565 203.767 69.7189C203.555 69.8729 203.449 70.0744 203.449 70.3237C203.449 70.5216 203.511 70.6865 203.635 70.8184C203.767 70.943 203.929 71.0457 204.119 71.1263C204.317 71.1996 204.588 71.2839 204.933 71.3792C205.365 71.4965 205.717 71.6137 205.988 71.731C206.26 71.841 206.49 72.0096 206.681 72.2368C206.879 72.464 206.982 72.7609 206.989 73.1274C206.989 73.4572 206.897 73.7541 206.714 74.018C206.531 74.2818 206.271 74.4908 205.933 74.6447C205.604 74.7913 205.222 74.8646 204.79 74.8646ZM213.679 68.7404V74.7656H212.678V73.875C212.488 74.1829 212.22 74.4248 211.876 74.6007C211.539 74.7693 211.165 74.8536 210.754 74.8536C210.285 74.8536 209.864 74.7583 209.49 74.5677C209.116 74.3698 208.819 74.0766 208.599 73.6881C208.387 73.2996 208.28 72.8269 208.28 72.2698V68.7404H209.27V72.1378C209.27 72.7316 209.42 73.1897 209.721 73.5122C210.021 73.8274 210.432 73.985 210.952 73.985C211.487 73.985 211.909 73.8201 212.217 73.4902C212.524 73.1604 212.678 72.6803 212.678 72.0499V68.7404H213.679ZM214.928 71.731C214.928 71.1153 215.053 70.5766 215.302 70.1148C215.552 69.6456 215.892 69.2828 216.325 69.0263C216.765 68.7697 217.252 68.6414 217.787 68.6414C218.315 68.6414 218.773 68.7551 219.162 68.9823C219.55 69.2095 219.84 69.4954 220.03 69.8399V68.7404H221.042V74.7656H220.03V73.6441C219.832 73.996 219.535 74.2892 219.14 74.5237C218.751 74.751 218.297 74.8646 217.776 74.8646C217.241 74.8646 216.757 74.7326 216.325 74.4688C215.892 74.2049 215.552 73.8347 215.302 73.3583C215.053 72.8818 214.928 72.3394 214.928 71.731ZM220.03 71.742C220.03 71.2876 219.938 70.8917 219.755 70.5546C219.572 70.2174 219.323 69.9608 219.008 69.7849C218.7 69.6017 218.359 69.51 217.985 69.51C217.611 69.51 217.27 69.598 216.963 69.7739C216.655 69.9498 216.409 70.2064 216.226 70.5436C216.043 70.8807 215.951 71.2766 215.951 71.731C215.951 72.1928 216.043 72.596 216.226 72.9405C216.409 73.2776 216.655 73.5379 216.963 73.7211C217.27 73.897 217.611 73.985 217.985 73.985C218.359 73.985 218.7 73.897 219.008 73.7211C219.323 73.5379 219.572 73.2776 219.755 72.9405C219.938 72.596 220.03 72.1965 220.03 71.742ZM223.667 66.6294V74.7656H222.666V66.6294H223.667ZM231.545 69.565V73.1164C231.545 73.4096 231.608 73.6185 231.732 73.7431C231.857 73.8604 232.073 73.919 232.381 73.919H233.118V74.7656H232.216C231.659 74.7656 231.241 74.6374 230.963 74.3808C230.684 74.1243 230.545 73.7028 230.545 73.1164V69.565H229.764V68.7404H230.545V67.2231H231.545V68.7404H233.118V69.565H231.545ZM235.265 69.7189C235.44 69.3744 235.69 69.1069 236.012 68.9163C236.342 68.7257 236.742 68.6304 237.211 68.6304V69.664H236.947C235.825 69.664 235.265 70.2724 235.265 71.4891V74.7656H234.264V68.7404H235.265V69.7189ZM237.926 71.731C237.926 71.1153 238.05 70.5766 238.3 70.1148C238.549 69.6456 238.89 69.2828 239.322 69.0263C239.762 68.7697 240.249 68.6414 240.785 68.6414C241.312 68.6414 241.77 68.7551 242.159 68.9823C242.547 69.2095 242.837 69.4954 243.028 69.8399V68.7404H244.039V74.7656H243.028V73.6441C242.83 73.996 242.533 74.2892 242.137 74.5237C241.748 74.751 241.294 74.8646 240.774 74.8646C240.238 74.8646 239.755 74.7326 239.322 74.4688C238.89 74.2049 238.549 73.8347 238.3 73.3583C238.05 72.8818 237.926 72.3394 237.926 71.731ZM243.028 71.742C243.028 71.2876 242.936 70.8917 242.753 70.5546C242.569 70.2174 242.32 69.9608 242.005 69.7849C241.697 69.6017 241.356 69.51 240.982 69.51C240.609 69.51 240.268 69.598 239.96 69.7739C239.652 69.9498 239.407 70.2064 239.223 70.5436C239.04 70.8807 238.948 71.2766 238.948 71.731C238.948 72.1928 239.04 72.596 239.223 72.9405C239.407 73.2776 239.652 73.5379 239.96 73.7211C240.268 73.897 240.609 73.985 240.982 73.985C241.356 73.985 241.697 73.897 242.005 73.7211C242.32 73.5379 242.569 73.2776 242.753 72.9405C242.936 72.596 243.028 72.1965 243.028 71.742ZM248.6 68.6304C249.333 68.6304 249.926 68.854 250.381 69.3011C250.835 69.7409 251.062 70.3786 251.062 71.2143V74.7656H250.073V71.3572C250.073 70.7561 249.923 70.298 249.622 69.9828C249.322 69.6603 248.911 69.499 248.391 69.499C247.863 69.499 247.441 69.664 247.126 69.9938C246.818 70.3237 246.664 70.8038 246.664 71.4342V74.7656H245.664V68.7404H246.664V69.598C246.862 69.2901 247.13 69.0519 247.467 68.8833C247.812 68.7147 248.189 68.6304 248.6 68.6304ZM254.764 74.8646C254.302 74.8646 253.888 74.7876 253.521 74.6337C253.155 74.4724 252.865 74.2525 252.653 73.974C252.44 73.6881 252.323 73.3619 252.301 72.9954H253.334C253.364 73.296 253.503 73.5415 253.752 73.7321C254.009 73.9227 254.342 74.018 254.753 74.018C255.134 74.018 255.435 73.9337 255.654 73.7651C255.874 73.5965 255.984 73.3839 255.984 73.1274C255.984 72.8635 255.867 72.6693 255.632 72.5446C255.398 72.4127 255.035 72.2844 254.544 72.1598C254.097 72.0425 253.73 71.9253 253.444 71.808C253.166 71.6834 252.924 71.5038 252.719 71.2692C252.521 71.0273 252.422 70.7122 252.422 70.3237C252.422 70.0158 252.514 69.7336 252.697 69.4771C252.88 69.2205 253.14 69.0189 253.477 68.8723C253.815 68.7184 254.199 68.6414 254.632 68.6414C255.299 68.6414 255.838 68.81 256.248 69.1472C256.659 69.4844 256.879 69.9462 256.908 70.5326H255.907C255.885 70.2174 255.757 69.9645 255.522 69.7739C255.295 69.5833 254.987 69.4881 254.599 69.4881C254.24 69.4881 253.954 69.565 253.741 69.7189C253.529 69.8729 253.422 70.0744 253.422 70.3237C253.422 70.5216 253.485 70.6865 253.609 70.8184C253.741 70.943 253.903 71.0457 254.093 71.1263C254.291 71.1996 254.562 71.2839 254.907 71.3792C255.339 71.4965 255.691 71.6137 255.962 71.731C256.233 71.841 256.464 72.0096 256.655 72.2368C256.853 72.464 256.955 72.7609 256.963 73.1274C256.963 73.4572 256.871 73.7541 256.688 74.018C256.505 74.2818 256.244 74.4908 255.907 74.6447C255.577 74.7913 255.196 74.8646 254.764 74.8646ZM257.935 71.731C257.935 71.1153 258.06 70.5766 258.309 70.1148C258.558 69.6456 258.899 69.2828 259.332 69.0263C259.772 68.7697 260.259 68.6414 260.794 68.6414C261.322 68.6414 261.78 68.7551 262.168 68.9823C262.557 69.2095 262.847 69.4954 263.037 69.8399V68.7404H264.049V74.7656H263.037V73.6441C262.839 73.996 262.542 74.2892 262.147 74.5237C261.758 74.751 261.304 74.8646 260.783 74.8646C260.248 74.8646 259.764 74.7326 259.332 74.4688C258.899 74.2049 258.558 73.8347 258.309 73.3583C258.06 72.8818 257.935 72.3394 257.935 71.731ZM263.037 71.742C263.037 71.2876 262.945 70.8917 262.762 70.5546C262.579 70.2174 262.33 69.9608 262.015 69.7849C261.707 69.6017 261.366 69.51 260.992 69.51C260.618 69.51 260.277 69.598 259.97 69.7739C259.662 69.9498 259.416 70.2064 259.233 70.5436C259.05 70.8807 258.958 71.2766 258.958 71.731C258.958 72.1928 259.05 72.596 259.233 72.9405C259.416 73.2776 259.662 73.5379 259.97 73.7211C260.277 73.897 260.618 73.985 260.992 73.985C261.366 73.985 261.707 73.897 262.015 73.7211C262.33 73.5379 262.579 73.2776 262.762 72.9405C262.945 72.596 263.037 72.1965 263.037 71.742ZM265.3 71.742C265.3 71.119 265.424 70.5766 265.673 70.1148C265.923 69.6456 266.267 69.2828 266.707 69.0263C267.154 68.7697 267.664 68.6414 268.235 68.6414C268.976 68.6414 269.584 68.821 270.06 69.1802C270.544 69.5394 270.863 70.0378 271.017 70.6755H269.94C269.837 70.309 269.635 70.0195 269.335 69.8069C269.042 69.5943 268.675 69.4881 268.235 69.4881C267.664 69.4881 267.202 69.686 266.85 70.0818C266.498 70.4703 266.322 71.0237 266.322 71.742C266.322 72.4677 266.498 73.0284 266.85 73.4242C267.202 73.8201 267.664 74.018 268.235 74.018C268.675 74.018 269.042 73.9153 269.335 73.7101C269.628 73.5049 269.83 73.2117 269.94 72.8305H271.017C270.856 73.4462 270.533 73.941 270.049 74.3148C269.566 74.6813 268.961 74.8646 268.235 74.8646C267.664 74.8646 267.154 74.7363 266.707 74.4798C266.267 74.2232 265.923 73.8604 265.673 73.3913C265.424 72.9221 265.3 72.3724 265.3 71.742ZM273.507 69.565V73.1164C273.507 73.4096 273.569 73.6185 273.693 73.7431C273.818 73.8604 274.034 73.919 274.342 73.919H275.079V74.7656H274.177C273.62 74.7656 273.202 74.6374 272.924 74.3808C272.645 74.1243 272.506 73.7028 272.506 73.1164V69.565H271.725V68.7404H272.506V67.2231H273.507V68.7404H275.079V69.565H273.507ZM276.742 67.7618C276.551 67.7618 276.39 67.6959 276.258 67.5639C276.126 67.432 276.06 67.2707 276.06 67.0802C276.06 66.8896 276.126 66.7283 276.258 66.5964C276.39 66.4644 276.551 66.3985 276.742 66.3985C276.925 66.3985 277.079 66.4644 277.204 66.5964C277.336 66.7283 277.402 66.8896 277.402 67.0802C277.402 67.2707 277.336 67.432 277.204 67.5639C277.079 67.6959 276.925 67.7618 276.742 67.7618ZM277.226 68.7404V74.7656H276.225V68.7404H277.226ZM281.493 74.8646C280.928 74.8646 280.415 74.7363 279.953 74.4798C279.499 74.2232 279.14 73.8604 278.876 73.3913C278.619 72.9148 278.491 72.3651 278.491 71.742C278.491 71.1263 278.623 70.5839 278.887 70.1148C279.158 69.6383 279.525 69.2755 279.986 69.0263C280.448 68.7697 280.965 68.6414 281.537 68.6414C282.108 68.6414 282.625 68.7697 283.087 69.0263C283.549 69.2755 283.912 69.6347 284.175 70.1038C284.447 70.5729 284.582 71.119 284.582 71.742C284.582 72.3651 284.443 72.9148 284.164 73.3913C283.893 73.8604 283.523 74.2232 283.054 74.4798C282.585 74.7363 282.064 74.8646 281.493 74.8646ZM281.493 73.985C281.852 73.985 282.189 73.9007 282.504 73.7321C282.819 73.5635 283.072 73.3106 283.263 72.9734C283.461 72.6363 283.56 72.2258 283.56 71.742C283.56 71.2582 283.464 70.8478 283.274 70.5106C283.083 70.1734 282.834 69.9242 282.526 69.7629C282.218 69.5943 281.885 69.51 281.526 69.51C281.159 69.51 280.822 69.5943 280.514 69.7629C280.214 69.9242 279.972 70.1734 279.788 70.5106C279.605 70.8478 279.514 71.2582 279.514 71.742C279.514 72.2331 279.602 72.6473 279.778 72.9844C279.961 73.3216 280.203 73.5745 280.503 73.7431C280.804 73.9044 281.134 73.985 281.493 73.985ZM288.767 68.6304C289.5 68.6304 290.094 68.854 290.549 69.3011C291.003 69.7409 291.23 70.3786 291.23 71.2143V74.7656H290.241V71.3572C290.241 70.7561 290.091 70.298 289.79 69.9828C289.489 69.6603 289.079 69.499 288.559 69.499C288.031 69.499 287.609 69.664 287.294 69.9938C286.986 70.3237 286.832 70.8038 286.832 71.4342V74.7656H285.832V68.7404H286.832V69.598C287.03 69.2901 287.298 69.0519 287.635 68.8833C287.98 68.7147 288.357 68.6304 288.767 68.6304ZM294.932 74.8646C294.47 74.8646 294.056 74.7876 293.689 74.6337C293.323 74.4724 293.033 74.2525 292.821 73.974C292.608 73.6881 292.491 73.3619 292.469 72.9954H293.502C293.532 73.296 293.671 73.5415 293.92 73.7321C294.177 73.9227 294.51 74.018 294.921 74.018C295.302 74.018 295.602 73.9337 295.822 73.7651C296.042 73.5965 296.152 73.3839 296.152 73.1274C296.152 72.8635 296.035 72.6693 295.8 72.5446C295.566 72.4127 295.203 72.2844 294.712 72.1598C294.265 72.0425 293.898 71.9253 293.612 71.808C293.334 71.6834 293.092 71.5038 292.887 71.2692C292.689 71.0273 292.59 70.7122 292.59 70.3237C292.59 70.0158 292.681 69.7336 292.865 69.4771C293.048 69.2205 293.308 69.0189 293.645 68.8723C293.983 68.7184 294.367 68.6414 294.8 68.6414C295.467 68.6414 296.006 68.81 296.416 69.1472C296.827 69.4844 297.046 69.9462 297.076 70.5326H296.075C296.053 70.2174 295.925 69.9645 295.69 69.7739C295.463 69.5833 295.155 69.4881 294.767 69.4881C294.408 69.4881 294.122 69.565 293.909 69.7189C293.697 69.8729 293.59 70.0744 293.59 70.3237C293.59 70.5216 293.653 70.6865 293.777 70.8184C293.909 70.943 294.071 71.0457 294.261 71.1263C294.459 71.1996 294.73 71.2839 295.075 71.3792C295.507 71.4965 295.859 71.6137 296.13 71.731C296.401 71.841 296.632 72.0096 296.823 72.2368C297.021 72.464 297.123 72.7609 297.131 73.1274C297.131 73.4572 297.039 73.7541 296.856 74.018C296.673 74.2818 296.412 74.4908 296.075 74.6447C295.745 74.7913 295.364 74.8646 294.932 74.8646ZM304.013 67.7618C303.822 67.7618 303.661 67.6959 303.529 67.5639C303.397 67.432 303.331 67.2707 303.331 67.0802C303.331 66.8896 303.397 66.7283 303.529 66.5964C303.661 66.4644 303.822 66.3985 304.013 66.3985C304.196 66.3985 304.35 66.4644 304.474 66.5964C304.606 66.7283 304.672 66.8896 304.672 67.0802C304.672 67.2707 304.606 67.432 304.474 67.5639C304.35 67.6959 304.196 67.7618 304.013 67.7618ZM304.496 68.7404V74.7656H303.496V68.7404H304.496ZM309.071 68.6304C309.804 68.6304 310.398 68.854 310.853 69.3011C311.307 69.7409 311.534 70.3786 311.534 71.2143V74.7656H310.545V71.3572C310.545 70.7561 310.394 70.298 310.094 69.9828C309.793 69.6603 309.383 69.499 308.862 69.499C308.335 69.499 307.913 69.664 307.598 69.9938C307.29 70.3237 307.136 70.8038 307.136 71.4342V74.7656H306.136V68.7404H307.136V69.598C307.334 69.2901 307.602 69.0519 307.939 68.8833C308.283 68.7147 308.661 68.6304 309.071 68.6304ZM317.748 71.731C317.748 71.1153 317.872 70.5766 318.121 70.1148C318.371 69.6456 318.711 69.2828 319.144 69.0263C319.584 68.7697 320.071 68.6414 320.606 68.6414C321.134 68.6414 321.592 68.7551 321.981 68.9823C322.369 69.2095 322.659 69.4954 322.849 69.8399V68.7404H323.861V74.7656H322.849V73.6441C322.651 73.996 322.354 74.2892 321.959 74.5237C321.57 74.751 321.116 74.8646 320.595 74.8646C320.06 74.8646 319.576 74.7326 319.144 74.4688C318.711 74.2049 318.371 73.8347 318.121 73.3583C317.872 72.8818 317.748 72.3394 317.748 71.731ZM322.849 71.742C322.849 71.2876 322.758 70.8917 322.574 70.5546C322.391 70.2174 322.142 69.9608 321.827 69.7849C321.519 69.6017 321.178 69.51 320.804 69.51C320.43 69.51 320.089 69.598 319.782 69.7739C319.474 69.9498 319.228 70.2064 319.045 70.5436C318.862 70.8807 318.77 71.2766 318.77 71.731C318.77 72.1928 318.862 72.596 319.045 72.9405C319.228 73.2776 319.474 73.5379 319.782 73.7211C320.089 73.897 320.43 73.985 320.804 73.985C321.178 73.985 321.519 73.897 321.827 73.7211C322.142 73.5379 322.391 73.2776 322.574 72.9405C322.758 72.596 322.849 72.1965 322.849 71.742ZM330.13 71.742C330.13 71.119 330.255 70.5766 330.504 70.1148C330.753 69.6456 331.098 69.2828 331.538 69.0263C331.985 68.7697 332.494 68.6414 333.066 68.6414C333.806 68.6414 334.415 68.821 334.891 69.1802C335.375 69.5394 335.694 70.0378 335.848 70.6755H334.77C334.668 70.309 334.466 70.0195 334.166 69.8069C333.872 69.5943 333.506 69.4881 333.066 69.4881C332.494 69.4881 332.033 69.686 331.681 70.0818C331.329 70.4703 331.153 71.0237 331.153 71.742C331.153 72.4677 331.329 73.0284 331.681 73.4242C332.033 73.8201 332.494 74.018 333.066 74.018C333.506 74.018 333.872 73.9153 334.166 73.7101C334.459 73.5049 334.66 73.2117 334.77 72.8305H335.848C335.687 73.4462 335.364 73.941 334.88 74.3148C334.396 74.6813 333.792 74.8646 333.066 74.8646C332.494 74.8646 331.985 74.7363 331.538 74.4798C331.098 74.2232 330.753 73.8604 330.504 73.3913C330.255 72.9221 330.13 72.3724 330.13 71.742ZM338.117 66.6294V74.7656H337.117V66.6294H338.117ZM340.273 67.7618C340.083 67.7618 339.922 67.6959 339.79 67.5639C339.658 67.432 339.592 67.2707 339.592 67.0802C339.592 66.8896 339.658 66.7283 339.79 66.5964C339.922 66.4644 340.083 66.3985 340.273 66.3985C340.457 66.3985 340.611 66.4644 340.735 66.5964C340.867 66.7283 340.933 66.8896 340.933 67.0802C340.933 67.2707 340.867 67.432 340.735 67.5639C340.611 67.6959 340.457 67.7618 340.273 67.7618ZM340.757 68.7404V74.7656H339.757V68.7404H340.757ZM347.894 71.5221C347.894 71.7127 347.883 71.9143 347.861 72.1268H343.045C343.082 72.7206 343.283 73.186 343.65 73.5232C344.024 73.853 344.475 74.018 345.002 74.018C345.435 74.018 345.794 73.919 346.08 73.7211C346.373 73.5159 346.578 73.2447 346.696 72.9075H347.773C347.612 73.4865 347.289 73.9593 346.805 74.3258C346.322 74.685 345.721 74.8646 345.002 74.8646C344.431 74.8646 343.917 74.7363 343.463 74.4798C343.016 74.2232 342.664 73.8604 342.407 73.3913C342.151 72.9148 342.023 72.3651 342.023 71.742C342.023 71.119 342.147 70.5729 342.396 70.1038C342.646 69.6347 342.994 69.2755 343.441 69.0263C343.895 68.7697 344.416 68.6414 345.002 68.6414C345.574 68.6414 346.08 68.7661 346.52 69.0153C346.959 69.2645 347.297 69.609 347.531 70.0488C347.773 70.4813 347.894 70.9724 347.894 71.5221ZM346.86 71.3132C346.86 70.9321 346.776 70.6059 346.608 70.3347C346.439 70.0561 346.208 69.8472 345.915 69.708C345.629 69.5614 345.31 69.4881 344.958 69.4881C344.453 69.4881 344.02 69.6493 343.661 69.9718C343.309 70.2943 343.107 70.7415 343.056 71.3132H346.86ZM352.084 68.6304C352.817 68.6304 353.411 68.854 353.866 69.3011C354.32 69.7409 354.547 70.3786 354.547 71.2143V74.7656H353.558V71.3572C353.558 70.7561 353.407 70.298 353.107 69.9828C352.806 69.6603 352.396 69.499 351.875 69.499C351.348 69.499 350.926 69.664 350.611 69.9938C350.303 70.3237 350.149 70.8038 350.149 71.4342V74.7656H349.149V68.7404H350.149V69.598C350.347 69.2901 350.615 69.0519 350.952 68.8833C351.296 68.7147 351.674 68.6304 352.084 68.6304ZM357.336 69.565V73.1164C357.336 73.4096 357.398 73.6185 357.523 73.7431C357.648 73.8604 357.864 73.919 358.172 73.919H358.908V74.7656H358.007C357.45 74.7656 357.032 74.6374 356.753 74.3808C356.475 74.1243 356.336 73.7028 356.336 73.1164V69.565H355.555V68.7404H356.336V67.2231H357.336V68.7404H358.908V69.565H357.336ZM372.319 68.6304C372.788 68.6304 373.206 68.7294 373.572 68.9273C373.939 69.1179 374.228 69.4074 374.441 69.7959C374.654 70.1844 374.76 70.6572 374.76 71.2143V74.7656H373.77V71.3572C373.77 70.7561 373.62 70.298 373.32 69.9828C373.026 69.6603 372.627 69.499 372.121 69.499C371.601 69.499 371.186 69.6676 370.879 70.0048C370.571 70.3347 370.417 70.8148 370.417 71.4452V74.7656H369.427V71.3572C369.427 70.7561 369.277 70.298 368.977 69.9828C368.683 69.6603 368.284 69.499 367.778 69.499C367.258 69.499 366.843 69.6676 366.536 70.0048C366.228 70.3347 366.074 70.8148 366.074 71.4452V74.7656H365.073V68.7404H366.074V69.609C366.272 69.2938 366.536 69.0519 366.865 68.8833C367.203 68.7147 367.573 68.6304 367.976 68.6304C368.482 68.6304 368.929 68.7441 369.317 68.9713C369.706 69.1985 369.995 69.532 370.186 69.9718C370.355 69.5467 370.633 69.2168 371.022 68.9823C371.41 68.7477 371.843 68.6304 372.319 68.6304ZM375.961 71.731C375.961 71.1153 376.086 70.5766 376.335 70.1148C376.584 69.6456 376.925 69.2828 377.358 69.0263C377.797 68.7697 378.285 68.6414 378.82 68.6414C379.348 68.6414 379.806 68.7551 380.194 68.9823C380.583 69.2095 380.872 69.4954 381.063 69.8399V68.7404H382.074V74.7656H381.063V73.6441C380.865 73.996 380.568 74.2892 380.172 74.5237C379.784 74.751 379.329 74.8646 378.809 74.8646C378.274 74.8646 377.79 74.7326 377.358 74.4688C376.925 74.2049 376.584 73.8347 376.335 73.3583C376.086 72.8818 375.961 72.3394 375.961 71.731ZM381.063 71.742C381.063 71.2876 380.971 70.8917 380.788 70.5546C380.605 70.2174 380.356 69.9608 380.04 69.7849C379.733 69.6017 379.392 69.51 379.018 69.51C378.644 69.51 378.303 69.598 377.995 69.7739C377.688 69.9498 377.442 70.2064 377.259 70.5436C377.075 70.8807 376.984 71.2766 376.984 71.731C376.984 72.1928 377.075 72.596 377.259 72.9405C377.442 73.2776 377.688 73.5379 377.995 73.7211C378.303 73.897 378.644 73.985 379.018 73.985C379.392 73.985 379.733 73.897 380.04 73.7211C380.356 73.5379 380.605 73.2776 380.788 72.9405C380.971 72.596 381.063 72.1965 381.063 71.742ZM384.92 69.565V73.1164C384.92 73.4096 384.982 73.6185 385.107 73.7431C385.231 73.8604 385.448 73.919 385.755 73.919H386.492V74.7656H385.59C385.033 74.7656 384.616 74.6374 384.337 74.3808C384.059 74.1243 383.919 73.7028 383.919 73.1164V69.565H383.139V68.7404H383.919V67.2231H384.92V68.7404H386.492V69.565H384.92ZM388.859 69.565V73.1164C388.859 73.4096 388.921 73.6185 389.046 73.7431C389.17 73.8604 389.387 73.919 389.694 73.919H390.431V74.7656H389.53C388.972 74.7656 388.555 74.6374 388.276 74.3808C387.998 74.1243 387.858 73.7028 387.858 73.1164V69.565H387.078V68.7404H387.858V67.2231H388.859V68.7404H390.431V69.565H388.859ZM397.075 71.5221C397.075 71.7127 397.064 71.9143 397.042 72.1268H392.226C392.263 72.7206 392.464 73.186 392.831 73.5232C393.205 73.853 393.655 74.018 394.183 74.018C394.616 74.018 394.975 73.919 395.261 73.7211C395.554 73.5159 395.759 73.2447 395.876 72.9075H396.954C396.793 73.4865 396.47 73.9593 395.986 74.3258C395.503 74.685 394.902 74.8646 394.183 74.8646C393.611 74.8646 393.098 74.7363 392.644 74.4798C392.197 74.2232 391.845 73.8604 391.588 73.3913C391.332 72.9148 391.204 72.3651 391.204 71.742C391.204 71.119 391.328 70.5729 391.577 70.1038C391.827 69.6347 392.175 69.2755 392.622 69.0263C393.076 68.7697 393.597 68.6414 394.183 68.6414C394.755 68.6414 395.261 68.7661 395.701 69.0153C396.14 69.2645 396.477 69.609 396.712 70.0488C396.954 70.4813 397.075 70.9724 397.075 71.5221ZM396.041 71.3132C396.041 70.9321 395.957 70.6059 395.788 70.3347C395.62 70.0561 395.389 69.8472 395.096 69.708C394.81 69.5614 394.491 69.4881 394.139 69.4881C393.633 69.4881 393.201 69.6493 392.842 69.9718C392.49 70.2943 392.288 70.7415 392.237 71.3132H396.041ZM399.33 69.7189C399.506 69.3744 399.755 69.1069 400.078 68.9163C400.408 68.7257 400.807 68.6304 401.276 68.6304V69.664H401.012C399.891 69.664 399.33 70.2724 399.33 71.4891V74.7656H398.33V68.7404H399.33V69.7189ZM415.41 68.7404L413.53 74.7656H412.497L411.045 69.9828L409.594 74.7656H408.56L406.669 68.7404H407.692L409.077 73.7981L410.572 68.7404H411.595L413.057 73.8091L414.421 68.7404H415.41ZM419.328 68.6304C419.782 68.6304 420.193 68.7294 420.559 68.9273C420.926 69.1179 421.212 69.4074 421.417 69.7959C421.629 70.1844 421.736 70.6572 421.736 71.2143V74.7656H420.746V71.3572C420.746 70.7561 420.596 70.298 420.295 69.9828C419.995 69.6603 419.584 69.499 419.064 69.499C418.536 69.499 418.115 69.664 417.8 69.9938C417.492 70.3237 417.338 70.8038 417.338 71.4342V74.7656H416.337V66.6294H417.338V69.598C417.536 69.2901 417.807 69.0519 418.151 68.8833C418.503 68.7147 418.895 68.6304 419.328 68.6304ZM428.802 71.5221C428.802 71.7127 428.791 71.9143 428.769 72.1268H423.953C423.99 72.7206 424.191 73.186 424.558 73.5232C424.931 73.853 425.382 74.018 425.91 74.018C426.342 74.018 426.702 73.919 426.987 73.7211C427.281 73.5159 427.486 73.2447 427.603 72.9075H428.681C428.519 73.4865 428.197 73.9593 427.713 74.3258C427.229 74.685 426.628 74.8646 425.91 74.8646C425.338 74.8646 424.825 74.7363 424.371 74.4798C423.924 74.2232 423.572 73.8604 423.315 73.3913C423.059 72.9148 422.93 72.3651 422.93 71.742C422.93 71.119 423.055 70.5729 423.304 70.1038C423.553 69.6347 423.902 69.2755 424.349 69.0263C424.803 68.7697 425.324 68.6414 425.91 68.6414C426.482 68.6414 426.987 68.7661 427.427 69.0153C427.867 69.2645 428.204 69.609 428.439 70.0488C428.681 70.4813 428.802 70.9724 428.802 71.5221ZM427.768 71.3132C427.768 70.9321 427.684 70.6059 427.515 70.3347C427.347 70.0561 427.116 69.8472 426.823 69.708C426.537 69.5614 426.218 69.4881 425.866 69.4881C425.36 69.4881 424.928 69.6493 424.569 69.9718C424.217 70.2943 424.015 70.7415 423.964 71.3132H427.768ZM431.057 69.7189C431.233 69.3744 431.482 69.1069 431.805 68.9163C432.134 68.7257 432.534 68.6304 433.003 68.6304V69.664H432.739C431.618 69.664 431.057 70.2724 431.057 71.4891V74.7656H430.056V68.7404H431.057V69.7189ZM439.59 71.5221C439.59 71.7127 439.579 71.9143 439.557 72.1268H434.741C434.777 72.7206 434.979 73.186 435.345 73.5232C435.719 73.853 436.17 74.018 436.698 74.018C437.13 74.018 437.489 73.919 437.775 73.7211C438.069 73.5159 438.274 73.2447 438.391 72.9075H439.469C439.307 73.4865 438.985 73.9593 438.501 74.3258C438.017 74.685 437.416 74.8646 436.698 74.8646C436.126 74.8646 435.613 74.7363 435.159 74.4798C434.711 74.2232 434.36 73.8604 434.103 73.3913C433.846 72.9148 433.718 72.3651 433.718 71.742C433.718 71.119 433.843 70.5729 434.092 70.1038C434.341 69.6347 434.689 69.2755 435.137 69.0263C435.591 68.7697 436.111 68.6414 436.698 68.6414C437.27 68.6414 437.775 68.7661 438.215 69.0153C438.655 69.2645 438.992 69.609 439.227 70.0488C439.469 70.4813 439.59 70.9724 439.59 71.5221ZM438.556 71.3132C438.556 70.9321 438.472 70.6059 438.303 70.3347C438.135 70.0561 437.904 69.8472 437.61 69.708C437.325 69.5614 437.006 69.4881 436.654 69.4881C436.148 69.4881 435.716 69.6493 435.356 69.9718C435.005 70.2943 434.803 70.7415 434.752 71.3132H438.556ZM448.315 69.565H447.05V74.7656H446.05V69.565H445.269V68.7404H446.05V68.3116C446.05 67.6372 446.222 67.1461 446.567 66.8383C446.918 66.5231 447.479 66.3655 448.249 66.3655V67.2011C447.809 67.2011 447.497 67.2891 447.314 67.465C447.138 67.6336 447.05 67.9158 447.05 68.3116V68.7404H448.315V69.565ZM454.759 68.7404V74.7656H453.758V73.875C453.568 74.1829 453.3 74.4248 452.956 74.6007C452.619 74.7693 452.245 74.8536 451.834 74.8536C451.365 74.8536 450.944 74.7583 450.57 74.5677C450.196 74.3698 449.899 74.0766 449.679 73.6881C449.467 73.2996 449.36 72.8269 449.36 72.2698V68.7404H450.35V72.1378C450.35 72.7316 450.5 73.1897 450.801 73.5122C451.101 73.8274 451.512 73.985 452.032 73.985C452.567 73.985 452.989 73.8201 453.297 73.4902C453.604 73.1604 453.758 72.6803 453.758 72.0499V68.7404H454.759ZM459.318 68.6304C460.051 68.6304 460.645 68.854 461.099 69.3011C461.554 69.7409 461.781 70.3786 461.781 71.2143V74.7656H460.791V71.3572C460.791 70.7561 460.641 70.298 460.34 69.9828C460.04 69.6603 459.629 69.499 459.109 69.499C458.581 69.499 458.16 69.664 457.845 69.9938C457.537 70.3237 457.383 70.8038 457.383 71.4342V74.7656H456.382V68.7404H457.383V69.598C457.581 69.2901 457.848 69.0519 458.185 68.8833C458.53 68.7147 458.907 68.6304 459.318 68.6304ZM462.975 71.731C462.975 71.1153 463.1 70.5766 463.349 70.1148C463.598 69.6456 463.939 69.2828 464.372 69.0263C464.812 68.7697 465.303 68.6414 465.845 68.6414C466.314 68.6414 466.75 68.7514 467.153 68.9713C467.557 69.1839 467.864 69.4661 468.077 69.8179V66.6294H469.089V74.7656H468.077V73.6331C467.879 73.9923 467.586 74.2892 467.197 74.5237C466.809 74.751 466.355 74.8646 465.834 74.8646C465.299 74.8646 464.812 74.7326 464.372 74.4688C463.939 74.2049 463.598 73.8347 463.349 73.3583C463.1 72.8818 462.975 72.3394 462.975 71.731ZM468.077 71.742C468.077 71.2876 467.985 70.8917 467.802 70.5546C467.619 70.2174 467.37 69.9608 467.055 69.7849C466.747 69.6017 466.406 69.51 466.032 69.51C465.658 69.51 465.317 69.598 465.009 69.7739C464.702 69.9498 464.456 70.2064 464.273 70.5436C464.09 70.8807 463.998 71.2766 463.998 71.731C463.998 72.1928 464.09 72.596 464.273 72.9405C464.456 73.2776 464.702 73.5379 465.009 73.7211C465.317 73.897 465.658 73.985 466.032 73.985C466.406 73.985 466.747 73.897 467.055 73.7211C467.37 73.5379 467.619 73.2776 467.802 72.9405C467.985 72.596 468.077 72.1965 468.077 71.742ZM472.846 74.8646C472.385 74.8646 471.971 74.7876 471.604 74.6337C471.238 74.4724 470.948 74.2525 470.735 73.974C470.523 73.6881 470.406 73.3619 470.384 72.9954H471.417C471.446 73.296 471.586 73.5415 471.835 73.7321C472.091 73.9227 472.425 74.018 472.835 74.018C473.217 74.018 473.517 73.9337 473.737 73.7651C473.957 73.5965 474.067 73.3839 474.067 73.1274C474.067 72.8635 473.95 72.6693 473.715 72.5446C473.48 72.4127 473.118 72.2844 472.627 72.1598C472.179 72.0425 471.813 71.9253 471.527 71.808C471.249 71.6834 471.007 71.5038 470.801 71.2692C470.603 71.0273 470.505 70.7122 470.505 70.3237C470.505 70.0158 470.596 69.7336 470.779 69.4771C470.963 69.2205 471.223 69.0189 471.56 68.8723C471.897 68.7184 472.282 68.6414 472.715 68.6414C473.382 68.6414 473.92 68.81 474.331 69.1472C474.741 69.4844 474.961 69.9462 474.99 70.5326H473.99C473.968 70.2174 473.84 69.9645 473.605 69.7739C473.378 69.5833 473.07 69.4881 472.682 69.4881C472.322 69.4881 472.036 69.565 471.824 69.7189C471.611 69.8729 471.505 70.0744 471.505 70.3237C471.505 70.5216 471.567 70.6865 471.692 70.8184C471.824 70.943 471.985 71.0457 472.176 71.1263C472.374 71.1996 472.645 71.2839 472.989 71.3792C473.422 71.4965 473.774 71.6137 474.045 71.731C474.316 71.841 474.547 72.0096 474.738 72.2368C474.935 72.464 475.038 72.7609 475.045 73.1274C475.045 73.4572 474.954 73.7541 474.771 74.018C474.587 74.2818 474.327 74.4908 473.99 74.6447C473.66 74.7913 473.279 74.8646 472.846 74.8646ZM112.93 86.731C112.93 86.1153 113.054 85.5766 113.304 85.1148C113.553 84.6456 113.894 84.2828 114.326 84.0263C114.766 83.7697 115.253 83.6414 115.788 83.6414C116.316 83.6414 116.774 83.7551 117.163 83.9823C117.551 84.2095 117.841 84.4954 118.031 84.8399V83.7404H119.043V89.7656H118.031V88.6441C117.834 88.996 117.537 89.2892 117.141 89.5237C116.752 89.751 116.298 89.8646 115.778 89.8646C115.242 89.8646 114.759 89.7326 114.326 89.4688C113.894 89.2049 113.553 88.8347 113.304 88.3583C113.054 87.8818 112.93 87.3394 112.93 86.731ZM118.031 86.742C118.031 86.2876 117.94 85.8917 117.757 85.5546C117.573 85.2174 117.324 84.9608 117.009 84.7849C116.701 84.6017 116.36 84.51 115.986 84.51C115.613 84.51 115.272 84.598 114.964 84.7739C114.656 84.9498 114.41 85.2064 114.227 85.5436C114.044 85.8807 113.952 86.2766 113.952 86.731C113.952 87.1928 114.044 87.596 114.227 87.9405C114.41 88.2776 114.656 88.5379 114.964 88.7211C115.272 88.897 115.613 88.985 115.986 88.985C116.36 88.985 116.701 88.897 117.009 88.7211C117.324 88.5379 117.573 88.2776 117.757 87.9405C117.94 87.596 118.031 87.1965 118.031 86.742ZM121.668 84.7189C121.844 84.3744 122.094 84.1069 122.416 83.9163C122.746 83.7257 123.145 83.6304 123.614 83.6304V84.664H123.351C122.229 84.664 121.668 85.2724 121.668 86.4891V89.7656H120.668V83.7404H121.668V84.7189ZM130.201 86.5221C130.201 86.7127 130.19 86.9143 130.168 87.1268H125.352C125.389 87.7206 125.59 88.186 125.957 88.5232C126.331 88.853 126.782 89.018 127.309 89.018C127.742 89.018 128.101 88.919 128.387 88.7211C128.68 88.5159 128.885 88.2447 129.003 87.9075H130.08C129.919 88.4865 129.596 88.9593 129.112 89.3258C128.629 89.685 128.028 89.8646 127.309 89.8646C126.738 89.8646 126.224 89.7363 125.77 89.4798C125.323 89.2232 124.971 88.8604 124.715 88.3913C124.458 87.9148 124.33 87.3651 124.33 86.742C124.33 86.119 124.454 85.5729 124.704 85.1038C124.953 84.6347 125.301 84.2755 125.748 84.0263C126.202 83.7697 126.723 83.6414 127.309 83.6414C127.881 83.6414 128.387 83.7661 128.827 84.0153C129.266 84.2645 129.604 84.609 129.838 85.0488C130.08 85.4813 130.201 85.9724 130.201 86.5221ZM129.167 86.3132C129.167 85.9321 129.083 85.6059 128.915 85.3347C128.746 85.0561 128.515 84.8472 128.222 84.708C127.936 84.5614 127.617 84.4881 127.265 84.4881C126.76 84.4881 126.327 84.6493 125.968 84.9718C125.616 85.2943 125.415 85.7415 125.363 86.3132H129.167ZM135.853 84.8619C136.058 84.5027 136.358 84.2095 136.754 83.9823C137.15 83.7551 137.601 83.6414 138.107 83.6414C138.649 83.6414 139.136 83.7697 139.569 84.0263C140.001 84.2828 140.342 84.6456 140.591 85.1148C140.841 85.5766 140.965 86.1153 140.965 86.731C140.965 87.3394 140.841 87.8818 140.591 88.3583C140.342 88.8347 139.998 89.2049 139.558 89.4688C139.125 89.7326 138.642 89.8646 138.107 89.8646C137.586 89.8646 137.128 89.751 136.732 89.5237C136.344 89.2965 136.05 89.007 135.853 88.6551V89.7656H134.852V81.6294H135.853V84.8619ZM139.943 86.731C139.943 86.2766 139.851 85.8807 139.668 85.5436C139.485 85.2064 139.235 84.9498 138.92 84.7739C138.612 84.598 138.271 84.51 137.898 84.51C137.531 84.51 137.19 84.6017 136.875 84.7849C136.567 84.9608 136.318 85.221 136.127 85.5656C135.944 85.9027 135.853 86.2949 135.853 86.742C135.853 87.1965 135.944 87.596 136.127 87.9405C136.318 88.2776 136.567 88.5379 136.875 88.7211C137.19 88.897 137.531 88.985 137.898 88.985C138.271 88.985 138.612 88.897 138.92 88.7211C139.235 88.5379 139.485 88.2776 139.668 87.9405C139.851 87.596 139.943 87.1928 139.943 86.731ZM147.714 86.5221C147.714 86.7127 147.703 86.9143 147.681 87.1268H142.865C142.902 87.7206 143.103 88.186 143.47 88.5232C143.843 88.853 144.294 89.018 144.822 89.018C145.255 89.018 145.614 88.919 145.9 88.7211C146.193 88.5159 146.398 88.2447 146.515 87.9075H147.593C147.432 88.4865 147.109 88.9593 146.625 89.3258C146.141 89.685 145.54 89.8646 144.822 89.8646C144.25 89.8646 143.737 89.7363 143.283 89.4798C142.836 89.2232 142.484 88.8604 142.227 88.3913C141.971 87.9148 141.842 87.3651 141.842 86.742C141.842 86.119 141.967 85.5729 142.216 85.1038C142.465 84.6347 142.814 84.2755 143.261 84.0263C143.715 83.7697 144.236 83.6414 144.822 83.6414C145.394 83.6414 145.9 83.7661 146.339 84.0153C146.779 84.2645 147.116 84.609 147.351 85.0488C147.593 85.4813 147.714 85.9724 147.714 86.5221ZM146.68 86.3132C146.68 85.9321 146.596 85.6059 146.427 85.3347C146.259 85.0561 146.028 84.8472 145.735 84.708C145.449 84.5614 145.13 84.4881 144.778 84.4881C144.272 84.4881 143.84 84.6493 143.481 84.9718C143.129 85.2943 142.927 85.7415 142.876 86.3132H146.68ZM149.485 82.7618C149.295 82.7618 149.133 82.6959 149.001 82.5639C148.869 82.432 148.804 82.2707 148.804 82.0802C148.804 81.8896 148.869 81.7283 149.001 81.5964C149.133 81.4644 149.295 81.3985 149.485 81.3985C149.668 81.3985 149.822 81.4644 149.947 81.5964C150.079 81.7283 150.145 81.8896 150.145 82.0802C150.145 82.2707 150.079 82.432 149.947 82.5639C149.822 82.6959 149.668 82.7618 149.485 82.7618ZM149.969 83.7404V89.7656H148.968V83.7404H149.969ZM154.544 83.6304C155.277 83.6304 155.871 83.854 156.325 84.3011C156.78 84.7409 157.007 85.3786 157.007 86.2143V89.7656H156.017V86.3572C156.017 85.7561 155.867 85.298 155.566 84.9828C155.266 84.6603 154.855 84.499 154.335 84.499C153.807 84.499 153.386 84.664 153.071 84.9938C152.763 85.3237 152.609 85.8038 152.609 86.4342V89.7656H151.608V83.7404H152.609V84.598C152.807 84.2901 153.074 84.0519 153.411 83.8833C153.756 83.7147 154.133 83.6304 154.544 83.6304ZM161.06 83.6414C161.58 83.6414 162.035 83.7551 162.423 83.9823C162.819 84.2095 163.112 84.4954 163.303 84.8399V83.7404H164.315V89.8976C164.315 90.4473 164.197 90.9348 163.963 91.3599C163.728 91.7924 163.391 92.1295 162.951 92.3714C162.519 92.6133 162.013 92.7343 161.434 92.7343C160.642 92.7343 159.983 92.5473 159.455 92.1735C158.927 91.7997 158.615 91.2903 158.52 90.6452H159.51C159.62 91.0117 159.847 91.3049 160.191 91.5248C160.536 91.752 160.95 91.8657 161.434 91.8657C161.984 91.8657 162.431 91.6934 162.775 91.3489C163.127 91.0044 163.303 90.5206 163.303 89.8976V88.6331C163.105 88.985 162.812 89.2782 162.423 89.5127C162.035 89.7473 161.58 89.8646 161.06 89.8646C160.525 89.8646 160.037 89.7326 159.598 89.4688C159.165 89.2049 158.824 88.8347 158.575 88.3583C158.326 87.8818 158.201 87.3394 158.201 86.731C158.201 86.1153 158.326 85.5766 158.575 85.1148C158.824 84.6456 159.165 84.2828 159.598 84.0263C160.037 83.7697 160.525 83.6414 161.06 83.6414ZM163.303 86.742C163.303 86.2876 163.211 85.8917 163.028 85.5546C162.845 85.2174 162.596 84.9608 162.28 84.7849C161.973 84.6017 161.632 84.51 161.258 84.51C160.884 84.51 160.543 84.598 160.235 84.7739C159.928 84.9498 159.682 85.2064 159.499 85.5436C159.315 85.8807 159.224 86.2766 159.224 86.731C159.224 87.1928 159.315 87.596 159.499 87.9405C159.682 88.2776 159.928 88.5379 160.235 88.7211C160.543 88.897 160.884 88.985 161.258 88.985C161.632 88.985 161.973 88.897 162.28 88.7211C162.596 88.5379 162.845 88.2776 163.028 87.9405C163.211 87.596 163.303 87.1965 163.303 86.742ZM176.581 83.6304C177.051 83.6304 177.468 83.7294 177.835 83.9273C178.201 84.1179 178.491 84.4074 178.703 84.7959C178.916 85.1844 179.022 85.6572 179.022 86.2143V89.7656H178.033V86.3572C178.033 85.7561 177.882 85.298 177.582 84.9828C177.289 84.6603 176.889 84.499 176.383 84.499C175.863 84.499 175.449 84.6676 175.141 85.0048C174.833 85.3347 174.679 85.8148 174.679 86.4452V89.7656H173.69V86.3572C173.69 85.7561 173.539 85.298 173.239 84.9828C172.946 84.6603 172.546 84.499 172.04 84.499C171.52 84.499 171.106 84.6676 170.798 85.0048C170.49 85.3347 170.336 85.8148 170.336 86.4452V89.7656H169.336V83.7404H170.336V84.609C170.534 84.2938 170.798 84.0519 171.128 83.8833C171.465 83.7147 171.835 83.6304 172.238 83.6304C172.744 83.6304 173.191 83.7441 173.58 83.9713C173.968 84.1985 174.258 84.532 174.448 84.9718C174.617 84.5467 174.895 84.2168 175.284 83.9823C175.672 83.7477 176.105 83.6304 176.581 83.6304ZM183.225 89.8646C182.661 89.8646 182.148 89.7363 181.686 89.4798C181.232 89.2232 180.872 88.8604 180.609 88.3913C180.352 87.9148 180.224 87.3651 180.224 86.742C180.224 86.1263 180.356 85.5839 180.62 85.1148C180.891 84.6383 181.257 84.2755 181.719 84.0263C182.181 83.7697 182.698 83.6414 183.269 83.6414C183.841 83.6414 184.358 83.7697 184.82 84.0263C185.281 84.2755 185.644 84.6347 185.908 85.1038C186.179 85.5729 186.315 86.119 186.315 86.742C186.315 87.3651 186.176 87.9148 185.897 88.3913C185.626 88.8604 185.256 89.2232 184.787 89.4798C184.318 89.7363 183.797 89.8646 183.225 89.8646ZM183.225 88.985C183.585 88.985 183.922 88.9007 184.237 88.7321C184.552 88.5635 184.805 88.3106 184.996 87.9734C185.193 87.6363 185.292 87.2258 185.292 86.742C185.292 86.2582 185.197 85.8478 185.007 85.5106C184.816 85.1734 184.567 84.9242 184.259 84.7629C183.951 84.5943 183.617 84.51 183.258 84.51C182.892 84.51 182.555 84.5943 182.247 84.7629C181.946 84.9242 181.704 85.1734 181.521 85.5106C181.338 85.8478 181.246 86.2582 181.246 86.742C181.246 87.2331 181.334 87.6473 181.51 87.9844C181.693 88.3216 181.935 88.5745 182.236 88.7431C182.536 88.9044 182.866 88.985 183.225 88.985ZM189.807 88.842L191.677 83.7404H192.743L190.379 89.7656H189.214L186.85 83.7404H187.927L189.807 88.842ZM199.159 86.5221C199.159 86.7127 199.148 86.9143 199.126 87.1268H194.31C194.347 87.7206 194.549 88.186 194.915 88.5232C195.289 88.853 195.74 89.018 196.267 89.018C196.7 89.018 197.059 88.919 197.345 88.7211C197.638 88.5159 197.843 88.2447 197.961 87.9075H199.038C198.877 88.4865 198.554 88.9593 198.071 89.3258C197.587 89.685 196.986 89.8646 196.267 89.8646C195.696 89.8646 195.183 89.7363 194.728 89.4798C194.281 89.2232 193.929 88.8604 193.673 88.3913C193.416 87.9148 193.288 87.3651 193.288 86.742C193.288 86.119 193.412 85.5729 193.662 85.1038C193.911 84.6347 194.259 84.2755 194.706 84.0263C195.161 83.7697 195.681 83.6414 196.267 83.6414C196.839 83.6414 197.345 83.7661 197.785 84.0153C198.225 84.2645 198.562 84.609 198.796 85.0488C199.038 85.4813 199.159 85.9724 199.159 86.5221ZM198.126 86.3132C198.126 85.9321 198.041 85.6059 197.873 85.3347C197.704 85.0561 197.473 84.8472 197.18 84.708C196.894 84.5614 196.575 84.4881 196.224 84.4881C195.718 84.4881 195.285 84.6493 194.926 84.9718C194.574 85.2943 194.373 85.7415 194.321 86.3132H198.126ZM200.04 86.731C200.04 86.1153 200.165 85.5766 200.414 85.1148C200.663 84.6456 201.004 84.2828 201.436 84.0263C201.876 83.7697 202.367 83.6414 202.91 83.6414C203.379 83.6414 203.815 83.7514 204.218 83.9713C204.621 84.1839 204.929 84.4661 205.142 84.8179V81.6294H206.153V89.7656H205.142V88.6331C204.944 88.9923 204.651 89.2892 204.262 89.5237C203.874 89.751 203.419 89.8646 202.899 89.8646C202.364 89.8646 201.876 89.7326 201.436 89.4688C201.004 89.2049 200.663 88.8347 200.414 88.3583C200.165 87.8818 200.04 87.3394 200.04 86.731ZM205.142 86.742C205.142 86.2876 205.05 85.8917 204.867 85.5546C204.684 85.2174 204.434 84.9608 204.119 84.7849C203.811 84.6017 203.47 84.51 203.097 84.51C202.723 84.51 202.382 84.598 202.074 84.7739C201.766 84.9498 201.521 85.2064 201.337 85.5436C201.154 85.8807 201.063 86.2766 201.063 86.731C201.063 87.1928 201.154 87.596 201.337 87.9405C201.521 88.2776 201.766 88.5379 202.074 88.7211C202.382 88.897 202.723 88.985 203.097 88.985C203.47 88.985 203.811 88.897 204.119 88.7211C204.434 88.5379 204.684 88.2776 204.867 87.9405C205.05 87.596 205.142 87.1965 205.142 86.742ZM212.395 84.565V88.1164C212.395 88.4096 212.457 88.6185 212.582 88.7431C212.706 88.8604 212.923 88.919 213.23 88.919H213.967V89.7656H213.066C212.508 89.7656 212.091 89.6374 211.812 89.3808C211.534 89.1243 211.394 88.7028 211.394 88.1164V84.565H210.614V83.7404H211.394V82.2231H212.395V83.7404H213.967V84.565H212.395ZM218.104 83.6304C218.559 83.6304 218.969 83.7294 219.335 83.9273C219.702 84.1179 219.988 84.4074 220.193 84.7959C220.406 85.1844 220.512 85.6572 220.512 86.2143V89.7656H219.522V86.3572C219.522 85.7561 219.372 85.298 219.072 84.9828C218.771 84.6603 218.361 84.499 217.84 84.499C217.312 84.499 216.891 84.664 216.576 84.9938C216.268 85.3237 216.114 85.8038 216.114 86.4342V89.7656H215.113V81.6294H216.114V84.598C216.312 84.2901 216.583 84.0519 216.928 83.8833C217.279 83.7147 217.672 83.6304 218.104 83.6304ZM223.081 84.7189C223.257 84.3744 223.506 84.1069 223.829 83.9163C224.158 83.7257 224.558 83.6304 225.027 83.6304V84.664H224.763C223.642 84.664 223.081 85.2724 223.081 86.4891V89.7656H222.08V83.7404H223.081V84.7189ZM228.744 89.8646C228.179 89.8646 227.666 89.7363 227.205 89.4798C226.75 89.2232 226.391 88.8604 226.127 88.3913C225.87 87.9148 225.742 87.3651 225.742 86.742C225.742 86.1263 225.874 85.5839 226.138 85.1148C226.409 84.6383 226.776 84.2755 227.238 84.0263C227.699 83.7697 228.216 83.6414 228.788 83.6414C229.36 83.6414 229.876 83.7697 230.338 84.0263C230.8 84.2755 231.163 84.6347 231.427 85.1038C231.698 85.5729 231.833 86.119 231.833 86.742C231.833 87.3651 231.694 87.9148 231.416 88.3913C231.144 88.8604 230.774 89.2232 230.305 89.4798C229.836 89.7363 229.316 89.8646 228.744 89.8646ZM228.744 88.985C229.103 88.985 229.44 88.9007 229.755 88.7321C230.071 88.5635 230.323 88.3106 230.514 87.9734C230.712 87.6363 230.811 87.2258 230.811 86.742C230.811 86.2582 230.716 85.8478 230.525 85.5106C230.334 85.1734 230.085 84.9242 229.777 84.7629C229.469 84.5943 229.136 84.51 228.777 84.51C228.41 84.51 228.073 84.5943 227.765 84.7629C227.465 84.9242 227.223 85.1734 227.04 85.5106C226.856 85.8478 226.765 86.2582 226.765 86.742C226.765 87.2331 226.853 87.6473 227.029 87.9844C227.212 88.3216 227.454 88.5745 227.754 88.7431C228.055 88.9044 228.385 88.985 228.744 88.985ZM238.427 83.7404V89.7656H237.426V88.875C237.235 89.1829 236.968 89.4248 236.623 89.6007C236.286 89.7693 235.912 89.8536 235.502 89.8536C235.033 89.8536 234.611 89.7583 234.237 89.5677C233.864 89.3698 233.567 89.0766 233.347 88.6881C233.134 88.2996 233.028 87.8269 233.028 87.2698V83.7404H234.018V87.1378C234.018 87.7316 234.168 88.1897 234.468 88.5122C234.769 88.8274 235.179 88.985 235.7 88.985C236.235 88.985 236.656 88.8201 236.964 88.4902C237.272 88.1604 237.426 87.6803 237.426 87.0499V83.7404H238.427ZM242.535 83.6414C243.055 83.6414 243.51 83.7551 243.898 83.9823C244.294 84.2095 244.587 84.4954 244.778 84.8399V83.7404H245.789V89.8976C245.789 90.4473 245.672 90.9348 245.437 91.3599C245.203 91.7924 244.866 92.1295 244.426 92.3714C243.993 92.6133 243.488 92.7343 242.909 92.7343C242.117 92.7343 241.457 92.5473 240.929 92.1735C240.402 91.7997 240.09 91.2903 239.995 90.6452H240.984C241.094 91.0117 241.322 91.3049 241.666 91.5248C242.011 91.752 242.425 91.8657 242.909 91.8657C243.458 91.8657 243.905 91.6934 244.25 91.3489C244.602 91.0044 244.778 90.5206 244.778 89.8976V88.6331C244.58 88.985 244.287 89.2782 243.898 89.5127C243.51 89.7473 243.055 89.8646 242.535 89.8646C242 89.8646 241.512 89.7326 241.072 89.4688C240.64 89.2049 240.299 88.8347 240.05 88.3583C239.801 87.8818 239.676 87.3394 239.676 86.731C239.676 86.1153 239.801 85.5766 240.05 85.1148C240.299 84.6456 240.64 84.2828 241.072 84.0263C241.512 83.7697 242 83.6414 242.535 83.6414ZM244.778 86.742C244.778 86.2876 244.686 85.8917 244.503 85.5546C244.32 85.2174 244.07 84.9608 243.755 84.7849C243.447 84.6017 243.106 84.51 242.733 84.51C242.359 84.51 242.018 84.598 241.71 84.7739C241.402 84.9498 241.157 85.2064 240.973 85.5436C240.79 85.8807 240.699 86.2766 240.699 86.731C240.699 87.1928 240.79 87.596 240.973 87.9405C241.157 88.2776 241.402 88.5379 241.71 88.7211C242.018 88.897 242.359 88.985 242.733 88.985C243.106 88.985 243.447 88.897 243.755 88.7211C244.07 88.5379 244.32 88.2776 244.503 87.9405C244.686 87.596 244.778 87.1965 244.778 86.742ZM250.405 83.6304C250.859 83.6304 251.27 83.7294 251.636 83.9273C252.003 84.1179 252.289 84.4074 252.494 84.7959C252.706 85.1844 252.813 85.6572 252.813 86.2143V89.7656H251.823V86.3572C251.823 85.7561 251.673 85.298 251.372 84.9828C251.072 84.6603 250.661 84.499 250.141 84.499C249.613 84.499 249.192 84.664 248.876 84.9938C248.569 85.3237 248.415 85.8038 248.415 86.4342V89.7656H247.414V81.6294H248.415V84.598C248.613 84.2901 248.884 84.0519 249.228 83.8833C249.58 83.7147 249.972 83.6304 250.405 83.6304ZM265.023 83.6304C265.492 83.6304 265.91 83.7294 266.276 83.9273C266.643 84.1179 266.932 84.4074 267.145 84.7959C267.358 85.1844 267.464 85.6572 267.464 86.2143V89.7656H266.474V86.3572C266.474 85.7561 266.324 85.298 266.024 84.9828C265.73 84.6603 265.331 84.499 264.825 84.499C264.305 84.499 263.891 84.6676 263.583 85.0048C263.275 85.3347 263.121 85.8148 263.121 86.4452V89.7656H262.131V86.3572C262.131 85.7561 261.981 85.298 261.681 84.9828C261.387 84.6603 260.988 84.499 260.482 84.499C259.962 84.499 259.548 84.6676 259.24 85.0048C258.932 85.3347 258.778 85.8148 258.778 86.4452V89.7656H257.777V83.7404H258.778V84.609C258.976 84.2938 259.24 84.0519 259.57 83.8833C259.907 83.7147 260.277 83.6304 260.68 83.6304C261.186 83.6304 261.633 83.7441 262.021 83.9713C262.41 84.1985 262.699 84.532 262.89 84.9718C263.059 84.5467 263.337 84.2168 263.726 83.9823C264.114 83.7477 264.547 83.6304 265.023 83.6304ZM274.383 83.7404V89.7656H273.382V88.875C273.192 89.1829 272.924 89.4248 272.58 89.6007C272.242 89.7693 271.869 89.8536 271.458 89.8536C270.989 89.8536 270.567 89.7583 270.194 89.5677C269.82 89.3698 269.523 89.0766 269.303 88.6881C269.091 88.2996 268.984 87.8269 268.984 87.2698V83.7404H269.974V87.1378C269.974 87.7316 270.124 88.1897 270.425 88.5122C270.725 88.8274 271.136 88.985 271.656 88.985C272.191 88.985 272.613 88.8201 272.92 88.4902C273.228 88.1604 273.382 87.6803 273.382 87.0499V83.7404H274.383ZM277.007 81.6294V89.7656H276.006V81.6294H277.007ZM279.866 84.565V88.1164C279.866 88.4096 279.929 88.6185 280.053 88.7431C280.178 88.8604 280.394 88.919 280.702 88.919H281.439V89.7656H280.537C279.98 89.7656 279.562 89.6374 279.284 89.3808C279.005 89.1243 278.866 88.7028 278.866 88.1164V84.565H278.085V83.7404H278.866V82.2231H279.866V83.7404H281.439V84.565H279.866ZM283.102 82.7618C282.911 82.7618 282.75 82.6959 282.618 82.5639C282.486 82.432 282.42 82.2707 282.42 82.0802C282.42 81.8896 282.486 81.7283 282.618 81.5964C282.75 81.4644 282.911 81.3985 283.102 81.3985C283.285 81.3985 283.439 81.4644 283.564 81.5964C283.695 81.7283 283.761 81.8896 283.761 82.0802C283.761 82.2707 283.695 82.432 283.564 82.5639C283.439 82.6959 283.285 82.7618 283.102 82.7618ZM283.586 83.7404V89.7656H282.585V83.7404H283.586ZM286.225 84.8509C286.423 84.5064 286.716 84.2205 287.105 83.9933C287.501 83.7587 287.959 83.6414 288.479 83.6414C289.014 83.6414 289.498 83.7697 289.931 84.0263C290.37 84.2828 290.715 84.6456 290.964 85.1148C291.213 85.5766 291.338 86.1153 291.338 86.731C291.338 87.3394 291.213 87.8818 290.964 88.3583C290.715 88.8347 290.37 89.2049 289.931 89.4688C289.498 89.7326 289.014 89.8646 288.479 89.8646C287.966 89.8646 287.512 89.751 287.116 89.5237C286.727 89.2892 286.431 88.9996 286.225 88.6551V92.6243H285.225V83.7404H286.225V84.8509ZM290.315 86.731C290.315 86.2766 290.224 85.8807 290.041 85.5436C289.857 85.2064 289.608 84.9498 289.293 84.7739C288.985 84.598 288.644 84.51 288.27 84.51C287.904 84.51 287.563 84.6017 287.248 84.7849C286.94 84.9608 286.691 85.221 286.5 85.5656C286.317 85.9027 286.225 86.2949 286.225 86.742C286.225 87.1965 286.317 87.596 286.5 87.9405C286.691 88.2776 286.94 88.5379 287.248 88.7211C287.563 88.897 287.904 88.985 288.27 88.985C288.644 88.985 288.985 88.897 289.293 88.7211C289.608 88.5379 289.857 88.2776 290.041 87.9405C290.224 87.596 290.315 87.1928 290.315 86.731ZM293.59 81.6294V89.7656H292.589V81.6294H293.59ZM300.726 86.5221C300.726 86.7127 300.715 86.9143 300.693 87.1268H295.877C295.914 87.7206 296.116 88.186 296.482 88.5232C296.856 88.853 297.307 89.018 297.835 89.018C298.267 89.018 298.626 88.919 298.912 88.7211C299.205 88.5159 299.411 88.2447 299.528 87.9075H300.605C300.444 88.4865 300.122 88.9593 299.638 89.3258C299.154 89.685 298.553 89.8646 297.835 89.8646C297.263 89.8646 296.75 89.7363 296.295 89.4798C295.848 89.2232 295.496 88.8604 295.24 88.3913C294.983 87.9148 294.855 87.3651 294.855 86.742C294.855 86.119 294.98 85.5729 295.229 85.1038C295.478 84.6347 295.826 84.2755 296.273 84.0263C296.728 83.7697 297.248 83.6414 297.835 83.6414C298.406 83.6414 298.912 83.7661 299.352 84.0153C299.792 84.2645 300.129 84.609 300.363 85.0488C300.605 85.4813 300.726 85.9724 300.726 86.5221ZM299.693 86.3132C299.693 85.9321 299.608 85.6059 299.44 85.3347C299.271 85.0561 299.04 84.8472 298.747 84.708C298.461 84.5614 298.142 84.4881 297.791 84.4881C297.285 84.4881 296.852 84.6493 296.493 84.9718C296.141 85.2943 295.94 85.7415 295.888 86.3132H299.693ZM306.378 84.8619C306.583 84.5027 306.884 84.2095 307.279 83.9823C307.675 83.7551 308.126 83.6414 308.632 83.6414C309.174 83.6414 309.662 83.7697 310.094 84.0263C310.527 84.2828 310.867 84.6456 311.117 85.1148C311.366 85.5766 311.491 86.1153 311.491 86.731C311.491 87.3394 311.366 87.8818 311.117 88.3583C310.867 88.8347 310.523 89.2049 310.083 89.4688C309.651 89.7326 309.167 89.8646 308.632 89.8646C308.111 89.8646 307.653 89.751 307.257 89.5237C306.869 89.2965 306.576 89.007 306.378 88.6551V89.7656H305.377V81.6294H306.378V84.8619ZM310.468 86.731C310.468 86.2766 310.376 85.8807 310.193 85.5436C310.01 85.2064 309.761 84.9498 309.445 84.7739C309.138 84.598 308.797 84.51 308.423 84.51C308.056 84.51 307.716 84.6017 307.4 84.7849C307.093 84.9608 306.843 85.221 306.653 85.5656C306.469 85.9027 306.378 86.2949 306.378 86.742C306.378 87.1965 306.469 87.596 306.653 87.9405C306.843 88.2776 307.093 88.5379 307.4 88.7211C307.716 88.897 308.056 88.985 308.423 88.985C308.797 88.985 309.138 88.897 309.445 88.7211C309.761 88.5379 310.01 88.2776 310.193 87.9405C310.376 87.596 310.468 87.1928 310.468 86.731ZM318.085 83.7404V89.7656H317.085V88.875C316.894 89.1829 316.626 89.4248 316.282 89.6007C315.945 89.7693 315.571 89.8536 315.16 89.8536C314.691 89.8536 314.27 89.7583 313.896 89.5677C313.522 89.3698 313.225 89.0766 313.005 88.6881C312.793 88.2996 312.687 87.8269 312.687 87.2698V83.7404H313.676V87.1378C313.676 87.7316 313.826 88.1897 314.127 88.5122C314.427 88.8274 314.838 88.985 315.358 88.985C315.893 88.985 316.315 88.8201 316.623 88.4902C316.931 88.1604 317.085 87.6803 317.085 87.0499V83.7404H318.085ZM321.841 89.8646C321.38 89.8646 320.966 89.7876 320.599 89.6337C320.233 89.4724 319.943 89.2525 319.73 88.974C319.518 88.6881 319.401 88.3619 319.379 87.9954H320.412C320.441 88.296 320.581 88.5415 320.83 88.7321C321.086 88.9227 321.42 89.018 321.83 89.018C322.212 89.018 322.512 88.9337 322.732 88.7651C322.952 88.5965 323.062 88.3839 323.062 88.1274C323.062 87.8635 322.945 87.6693 322.71 87.5446C322.476 87.4127 322.113 87.2844 321.622 87.1598C321.174 87.0425 320.808 86.9253 320.522 86.808C320.244 86.6834 320.002 86.5038 319.796 86.2692C319.599 86.0273 319.5 85.7122 319.5 85.3237C319.5 85.0158 319.591 84.7336 319.774 84.4771C319.958 84.2205 320.218 84.0189 320.555 83.8723C320.892 83.7184 321.277 83.6414 321.71 83.6414C322.377 83.6414 322.915 83.81 323.326 84.1472C323.736 84.4844 323.956 84.9462 323.985 85.5326H322.985C322.963 85.2174 322.835 84.9645 322.6 84.7739C322.373 84.5833 322.065 84.4881 321.677 84.4881C321.317 84.4881 321.032 84.565 320.819 84.7189C320.606 84.8729 320.5 85.0744 320.5 85.3237C320.5 85.5216 320.562 85.6865 320.687 85.8184C320.819 85.943 320.98 86.0457 321.171 86.1263C321.369 86.1996 321.64 86.2839 321.984 86.3792C322.417 86.4965 322.769 86.6137 323.04 86.731C323.311 86.841 323.542 87.0096 323.733 87.2368C323.931 87.464 324.033 87.7609 324.04 88.1274C324.04 88.4572 323.949 88.7541 323.766 89.018C323.582 89.2818 323.322 89.4908 322.985 89.6447C322.655 89.7913 322.274 89.8646 321.841 89.8646ZM325.904 82.7618C325.713 82.7618 325.552 82.6959 325.42 82.5639C325.288 82.432 325.222 82.2707 325.222 82.0802C325.222 81.8896 325.288 81.7283 325.42 81.5964C325.552 81.4644 325.713 81.3985 325.904 81.3985C326.087 81.3985 326.241 81.4644 326.365 81.5964C326.497 81.7283 326.563 81.8896 326.563 82.0802C326.563 82.2707 326.497 82.432 326.365 82.5639C326.241 82.6959 326.087 82.7618 325.904 82.7618ZM326.387 83.7404V89.7656H325.387V83.7404H326.387ZM330.962 83.6304C331.695 83.6304 332.289 83.854 332.744 84.3011C333.198 84.7409 333.425 85.3786 333.425 86.2143V89.7656H332.436V86.3572C332.436 85.7561 332.285 85.298 331.985 84.9828C331.684 84.6603 331.274 84.499 330.753 84.499C330.226 84.499 329.804 84.664 329.489 84.9938C329.181 85.3237 329.027 85.8038 329.027 86.4342V89.7656H328.027V83.7404H329.027V84.598C329.225 84.2901 329.493 84.0519 329.83 83.8833C330.174 83.7147 330.552 83.6304 330.962 83.6304ZM340.491 86.5221C340.491 86.7127 340.48 86.9143 340.458 87.1268H335.642C335.679 87.7206 335.881 88.186 336.247 88.5232C336.621 88.853 337.072 89.018 337.599 89.018C338.032 89.018 338.391 88.919 338.677 88.7211C338.97 88.5159 339.175 88.2447 339.293 87.9075H340.37C340.209 88.4865 339.886 88.9593 339.403 89.3258C338.919 89.685 338.318 89.8646 337.599 89.8646C337.028 89.8646 336.515 89.7363 336.06 89.4798C335.613 89.2232 335.261 88.8604 335.005 88.3913C334.748 87.9148 334.62 87.3651 334.62 86.742C334.62 86.119 334.744 85.5729 334.994 85.1038C335.243 84.6347 335.591 84.2755 336.038 84.0263C336.493 83.7697 337.013 83.6414 337.599 83.6414C338.171 83.6414 338.677 83.7661 339.117 84.0153C339.557 84.2645 339.894 84.609 340.128 85.0488C340.37 85.4813 340.491 85.9724 340.491 86.5221ZM339.458 86.3132C339.458 85.9321 339.373 85.6059 339.205 85.3347C339.036 85.0561 338.805 84.8472 338.512 84.708C338.226 84.5614 337.907 84.4881 337.555 84.4881C337.05 84.4881 336.617 84.6493 336.258 84.9718C335.906 85.2943 335.705 85.7415 335.653 86.3132H339.458ZM343.879 89.8646C343.417 89.8646 343.003 89.7876 342.636 89.6337C342.27 89.4724 341.98 89.2525 341.768 88.974C341.555 88.6881 341.438 88.3619 341.416 87.9954H342.45C342.479 88.296 342.618 88.5415 342.867 88.7321C343.124 88.9227 343.457 89.018 343.868 89.018C344.249 89.018 344.55 88.9337 344.769 88.7651C344.989 88.5965 345.099 88.3839 345.099 88.1274C345.099 87.8635 344.982 87.6693 344.747 87.5446C344.513 87.4127 344.15 87.2844 343.659 87.1598C343.212 87.0425 342.845 86.9253 342.559 86.808C342.281 86.6834 342.039 86.5038 341.834 86.2692C341.636 86.0273 341.537 85.7122 341.537 85.3237C341.537 85.0158 341.629 84.7336 341.812 84.4771C341.995 84.2205 342.255 84.0189 342.592 83.8723C342.93 83.7184 343.314 83.6414 343.747 83.6414C344.414 83.6414 344.953 83.81 345.363 84.1472C345.774 84.4844 345.994 84.9462 346.023 85.5326H345.022C345 85.2174 344.872 84.9645 344.638 84.7739C344.41 84.5833 344.102 84.4881 343.714 84.4881C343.355 84.4881 343.069 84.565 342.856 84.7189C342.644 84.8729 342.537 85.0744 342.537 85.3237C342.537 85.5216 342.6 85.6865 342.724 85.8184C342.856 85.943 343.018 86.0457 343.208 86.1263C343.406 86.1996 343.677 86.2839 344.022 86.3792C344.454 86.4965 344.806 86.6137 345.077 86.731C345.349 86.841 345.579 87.0096 345.77 87.2368C345.968 87.464 346.071 87.7609 346.078 88.1274C346.078 88.4572 345.986 88.7541 345.803 89.018C345.62 89.2818 345.36 89.4908 345.022 89.6447C344.692 89.7913 344.311 89.8646 343.879 89.8646ZM349.557 89.8646C349.096 89.8646 348.681 89.7876 348.315 89.6337C347.948 89.4724 347.659 89.2525 347.446 88.974C347.234 88.6881 347.116 88.3619 347.094 87.9954H348.128C348.157 88.296 348.297 88.5415 348.546 88.7321C348.802 88.9227 349.136 89.018 349.546 89.018C349.927 89.018 350.228 88.9337 350.448 88.7651C350.668 88.5965 350.778 88.3839 350.778 88.1274C350.778 87.8635 350.66 87.6693 350.426 87.5446C350.191 87.4127 349.829 87.2844 349.337 87.1598C348.89 87.0425 348.524 86.9253 348.238 86.808C347.959 86.6834 347.718 86.5038 347.512 86.2692C347.314 86.0273 347.215 85.7122 347.215 85.3237C347.215 85.0158 347.307 84.7336 347.49 84.4771C347.674 84.2205 347.934 84.0189 348.271 83.8723C348.608 83.7184 348.993 83.6414 349.425 83.6414C350.092 83.6414 350.631 83.81 351.042 84.1472C351.452 84.4844 351.672 84.9462 351.701 85.5326H350.701C350.679 85.2174 350.551 84.9645 350.316 84.7739C350.089 84.5833 349.781 84.4881 349.392 84.4881C349.033 84.4881 348.747 84.565 348.535 84.7189C348.322 84.8729 348.216 85.0744 348.216 85.3237C348.216 85.5216 348.278 85.6865 348.403 85.8184C348.535 85.943 348.696 86.0457 348.887 86.1263C349.085 86.1996 349.356 86.2839 349.7 86.3792C350.133 86.4965 350.485 86.6137 350.756 86.731C351.027 86.841 351.258 87.0096 351.448 87.2368C351.646 87.464 351.749 87.7609 351.756 88.1274C351.756 88.4572 351.665 88.7541 351.481 89.018C351.298 89.2818 351.038 89.4908 350.701 89.6447C350.371 89.7913 349.99 89.8646 349.557 89.8646ZM361.997 86.5221C361.997 86.7127 361.986 86.9143 361.964 87.1268H357.148C357.184 87.7206 357.386 88.186 357.753 88.5232C358.126 88.853 358.577 89.018 359.105 89.018C359.537 89.018 359.897 88.919 360.182 88.7211C360.476 88.5159 360.681 88.2447 360.798 87.9075H361.876C361.714 88.4865 361.392 88.9593 360.908 89.3258C360.424 89.685 359.823 89.8646 359.105 89.8646C358.533 89.8646 358.02 89.7363 357.566 89.4798C357.118 89.2232 356.767 88.8604 356.51 88.3913C356.254 87.9148 356.125 87.3651 356.125 86.742C356.125 86.119 356.25 85.5729 356.499 85.1038C356.748 84.6347 357.096 84.2755 357.544 84.0263C357.998 83.7697 358.519 83.6414 359.105 83.6414C359.677 83.6414 360.182 83.7661 360.622 84.0153C361.062 84.2645 361.399 84.609 361.634 85.0488C361.876 85.4813 361.997 85.9724 361.997 86.5221ZM360.963 86.3132C360.963 85.9321 360.879 85.6059 360.71 85.3347C360.542 85.0561 360.311 84.8472 360.017 84.708C359.732 84.5614 359.413 84.4881 359.061 84.4881C358.555 84.4881 358.123 84.6493 357.764 84.9718C357.412 85.2943 357.21 85.7415 357.159 86.3132H360.963ZM366.187 83.6304C366.92 83.6304 367.514 83.854 367.968 84.3011C368.423 84.7409 368.65 85.3786 368.65 86.2143V89.7656H367.66V86.3572C367.66 85.7561 367.51 85.298 367.209 84.9828C366.909 84.6603 366.498 84.499 365.978 84.499C365.45 84.499 365.029 84.664 364.714 84.9938C364.406 85.3237 364.252 85.8038 364.252 86.4342V89.7656H363.251V83.7404H364.252V84.598C364.45 84.2901 364.717 84.0519 365.054 83.8833C365.399 83.7147 365.776 83.6304 366.187 83.6304ZM371.439 84.565V88.1164C371.439 88.4096 371.501 88.6185 371.626 88.7431C371.75 88.8604 371.966 88.919 372.274 88.919H373.011V89.7656H372.109C371.552 89.7656 371.134 89.6374 370.856 89.3808C370.577 89.1243 370.438 88.7028 370.438 88.1164V84.565H369.657V83.7404H370.438V82.2231H371.439V83.7404H373.011V84.565H371.439ZM374.674 82.7618C374.483 82.7618 374.322 82.6959 374.19 82.5639C374.058 82.432 373.992 82.2707 373.992 82.0802C373.992 81.8896 374.058 81.7283 374.19 81.5964C374.322 81.4644 374.483 81.3985 374.674 81.3985C374.857 81.3985 375.011 81.4644 375.136 81.5964C375.268 81.7283 375.334 81.8896 375.334 82.0802C375.334 82.2707 375.268 82.432 375.136 82.5639C375.011 82.6959 374.857 82.7618 374.674 82.7618ZM375.158 83.7404V89.7656H374.157V83.7404H375.158ZM378.017 84.565V88.1164C378.017 88.4096 378.08 88.6185 378.204 88.7431C378.329 88.8604 378.545 88.919 378.853 88.919H379.59V89.7656H378.688C378.131 89.7656 377.713 89.6374 377.435 89.3808C377.156 89.1243 377.017 88.7028 377.017 88.1164V84.565H376.236V83.7404H377.017V82.2231H378.017V83.7404H379.59V84.565H378.017ZM381.253 82.7618C381.062 82.7618 380.901 82.6959 380.769 82.5639C380.637 82.432 380.571 82.2707 380.571 82.0802C380.571 81.8896 380.637 81.7283 380.769 81.5964C380.901 81.4644 381.062 81.3985 381.253 81.3985C381.436 81.3985 381.59 81.4644 381.715 81.5964C381.847 81.7283 381.913 81.8896 381.913 82.0802C381.913 82.2707 381.847 82.432 381.715 82.5639C381.59 82.6959 381.436 82.7618 381.253 82.7618ZM381.737 83.7404V89.7656H380.736V83.7404H381.737ZM388.873 86.5221C388.873 86.7127 388.862 86.9143 388.84 87.1268H384.025C384.061 87.7206 384.263 88.186 384.629 88.5232C385.003 88.853 385.454 89.018 385.982 89.018C386.414 89.018 386.773 88.919 387.059 88.7211C387.352 88.5159 387.558 88.2447 387.675 87.9075H388.752C388.591 88.4865 388.269 88.9593 387.785 89.3258C387.301 89.685 386.7 89.8646 385.982 89.8646C385.41 89.8646 384.897 89.7363 384.442 89.4798C383.995 89.2232 383.643 88.8604 383.387 88.3913C383.13 87.9148 383.002 87.3651 383.002 86.742C383.002 86.119 383.127 85.5729 383.376 85.1038C383.625 84.6347 383.973 84.2755 384.42 84.0263C384.875 83.7697 385.395 83.6414 385.982 83.6414C386.553 83.6414 387.059 83.7661 387.499 84.0153C387.939 84.2645 388.276 84.609 388.511 85.0488C388.752 85.4813 388.873 85.9724 388.873 86.5221ZM387.84 86.3132C387.84 85.9321 387.756 85.6059 387.587 85.3347C387.418 85.0561 387.187 84.8472 386.894 84.708C386.608 84.5614 386.29 84.4881 385.938 84.4881C385.432 84.4881 384.999 84.6493 384.64 84.9718C384.288 85.2943 384.087 85.7415 384.036 86.3132H387.84ZM392.261 89.8646C391.799 89.8646 391.385 89.7876 391.019 89.6337C390.652 89.4724 390.363 89.2525 390.15 88.974C389.937 88.6881 389.82 88.3619 389.798 87.9954H390.832C390.861 88.296 391 88.5415 391.25 88.7321C391.506 88.9227 391.84 89.018 392.25 89.018C392.631 89.018 392.932 88.9337 393.152 88.7651C393.372 88.5965 393.482 88.3839 393.482 88.1274C393.482 87.8635 393.364 87.6693 393.13 87.5446C392.895 87.4127 392.532 87.2844 392.041 87.1598C391.594 87.0425 391.228 86.9253 390.942 86.808C390.663 86.6834 390.421 86.5038 390.216 86.2692C390.018 86.0273 389.919 85.7122 389.919 85.3237C389.919 85.0158 390.011 84.7336 390.194 84.4771C390.377 84.2205 390.638 84.0189 390.975 83.8723C391.312 83.7184 391.697 83.6414 392.129 83.6414C392.796 83.6414 393.335 83.81 393.745 84.1472C394.156 84.4844 394.376 84.9462 394.405 85.5326H393.405C393.383 85.2174 393.254 84.9645 393.02 84.7739C392.793 84.5833 392.485 84.4881 392.096 84.4881C391.737 84.4881 391.451 84.565 391.239 84.7189C391.026 84.8729 390.92 85.0744 390.92 85.3237C390.92 85.5216 390.982 85.6865 391.107 85.8184C391.239 85.943 391.4 86.0457 391.59 86.1263C391.788 86.1996 392.06 86.2839 392.404 86.3792C392.836 86.4965 393.188 86.6137 393.46 86.731C393.731 86.841 393.962 87.0096 394.152 87.2368C394.35 87.464 394.453 87.7609 394.46 88.1274C394.46 88.4572 394.368 88.7541 394.185 89.018C394.002 89.2818 393.742 89.4908 393.405 89.6447C393.075 89.7913 392.694 89.8646 392.261 89.8646ZM396.125 89.8316C395.935 89.8316 395.774 89.7656 395.642 89.6337C395.51 89.5017 395.444 89.3405 395.444 89.1499C395.444 88.9593 395.51 88.7981 395.642 88.6661C395.774 88.5342 395.935 88.4682 396.125 88.4682C396.309 88.4682 396.463 88.5342 396.587 88.6661C396.719 88.7981 396.785 88.9593 396.785 89.1499C396.785 89.3405 396.719 89.5017 396.587 89.6337C396.463 89.7656 396.309 89.8316 396.125 89.8316ZM411.077 82.1021L408.856 89.7656H407.735L405.953 83.5975L404.106 89.7656L402.996 89.7766L400.852 82.1021H401.918L403.589 88.6002L405.437 82.1021H406.558L408.317 88.5782L409.999 82.1021H411.077ZM415.097 83.6304C415.551 83.6304 415.962 83.7294 416.328 83.9273C416.695 84.1179 416.98 84.4074 417.186 84.7959C417.398 85.1844 417.504 85.6572 417.504 86.2143V89.7656H416.515V86.3572C416.515 85.7561 416.365 85.298 416.064 84.9828C415.764 84.6603 415.353 84.499 414.833 84.499C414.305 84.499 413.883 84.664 413.568 84.9938C413.26 85.3237 413.107 85.8038 413.107 86.4342V89.7656H412.106V81.6294H413.107V84.598C413.304 84.2901 413.576 84.0519 413.92 83.8833C414.272 83.7147 414.664 83.6304 415.097 83.6304ZM418.699 86.731C418.699 86.1153 418.824 85.5766 419.073 85.1148C419.322 84.6456 419.663 84.2828 420.095 84.0263C420.535 83.7697 421.023 83.6414 421.558 83.6414C422.086 83.6414 422.544 83.7551 422.932 83.9823C423.321 84.2095 423.61 84.4954 423.801 84.8399V83.7404H424.812V89.7656H423.801V88.6441C423.603 88.996 423.306 89.2892 422.91 89.5237C422.522 89.751 422.067 89.8646 421.547 89.8646C421.012 89.8646 420.528 89.7326 420.095 89.4688C419.663 89.2049 419.322 88.8347 419.073 88.3583C418.824 87.8818 418.699 87.3394 418.699 86.731ZM423.801 86.742C423.801 86.2876 423.709 85.8917 423.526 85.5546C423.343 85.2174 423.093 84.9608 422.778 84.7849C422.47 84.6017 422.129 84.51 421.756 84.51C421.382 84.51 421.041 84.598 420.733 84.7739C420.425 84.9498 420.18 85.2064 419.996 85.5436C419.813 85.8807 419.722 86.2766 419.722 86.731C419.722 87.1928 419.813 87.596 419.996 87.9405C420.18 88.2776 420.425 88.5379 420.733 88.7211C421.041 88.897 421.382 88.985 421.756 88.985C422.129 88.985 422.47 88.897 422.778 88.7211C423.093 88.5379 423.343 88.2776 423.526 87.9405C423.709 87.596 423.801 87.1965 423.801 86.742ZM427.658 84.565V88.1164C427.658 88.4096 427.72 88.6185 427.844 88.7431C427.969 88.8604 428.185 88.919 428.493 88.919H429.23V89.7656H428.328C427.771 89.7656 427.353 89.6374 427.075 89.3808C426.796 89.1243 426.657 88.7028 426.657 88.1164V84.565H425.876V83.7404H426.657V82.2231H427.658V83.7404H429.23V84.565H427.658ZM435.906 89.8646C435.444 89.8646 435.03 89.7876 434.663 89.6337C434.297 89.4724 434.007 89.2525 433.794 88.974C433.582 88.6881 433.465 88.3619 433.443 87.9954H434.476C434.505 88.296 434.645 88.5415 434.894 88.7321C435.151 88.9227 435.484 89.018 435.895 89.018C436.276 89.018 436.576 88.9337 436.796 88.7651C437.016 88.5965 437.126 88.3839 437.126 88.1274C437.126 87.8635 437.009 87.6693 436.774 87.5446C436.54 87.4127 436.177 87.2844 435.686 87.1598C435.238 87.0425 434.872 86.9253 434.586 86.808C434.308 86.6834 434.066 86.5038 433.86 86.2692C433.663 86.0273 433.564 85.7122 433.564 85.3237C433.564 85.0158 433.655 84.7336 433.838 84.4771C434.022 84.2205 434.282 84.0189 434.619 83.8723C434.956 83.7184 435.341 83.6414 435.774 83.6414C436.441 83.6414 436.979 83.81 437.39 84.1472C437.8 84.4844 438.02 84.9462 438.05 85.5326H437.049C437.027 85.2174 436.899 84.9645 436.664 84.7739C436.437 84.5833 436.129 84.4881 435.741 84.4881C435.381 84.4881 435.096 84.565 434.883 84.7189C434.67 84.8729 434.564 85.0744 434.564 85.3237C434.564 85.5216 434.626 85.6865 434.751 85.8184C434.883 85.943 435.044 86.0457 435.235 86.1263C435.433 86.1996 435.704 86.2839 436.048 86.3792C436.481 86.4965 436.833 86.6137 437.104 86.731C437.375 86.841 437.606 87.0096 437.797 87.2368C437.995 87.464 438.097 87.7609 438.104 88.1274C438.104 88.4572 438.013 88.7541 437.83 89.018C437.646 89.2818 437.386 89.4908 437.049 89.6447C436.719 89.7913 436.338 89.8646 435.906 89.8646ZM442.442 83.6304C442.896 83.6304 443.306 83.7294 443.673 83.9273C444.039 84.1179 444.325 84.4074 444.531 84.7959C444.743 85.1844 444.849 85.6572 444.849 86.2143V89.7656H443.86V86.3572C443.86 85.7561 443.71 85.298 443.409 84.9828C443.109 84.6603 442.698 84.499 442.178 84.499C441.65 84.499 441.228 84.664 440.913 84.9938C440.605 85.3237 440.451 85.8038 440.451 86.4342V89.7656H439.451V81.6294H440.451V84.598C440.649 84.2901 440.921 84.0519 441.265 83.8833C441.617 83.7147 442.009 83.6304 442.442 83.6304ZM449.046 89.8646C448.481 89.8646 447.968 89.7363 447.506 89.4798C447.052 89.2232 446.693 88.8604 446.429 88.3913C446.172 87.9148 446.044 87.3651 446.044 86.742C446.044 86.1263 446.176 85.5839 446.44 85.1148C446.711 84.6383 447.078 84.2755 447.539 84.0263C448.001 83.7697 448.518 83.6414 449.09 83.6414C449.661 83.6414 450.178 83.7697 450.64 84.0263C451.102 84.2755 451.465 84.6347 451.728 85.1038C452 85.5729 452.135 86.119 452.135 86.742C452.135 87.3651 451.996 87.9148 451.717 88.3913C451.446 88.8604 451.076 89.2232 450.607 89.4798C450.138 89.7363 449.617 89.8646 449.046 89.8646ZM449.046 88.985C449.405 88.985 449.742 88.9007 450.057 88.7321C450.372 88.5635 450.625 88.3106 450.816 87.9734C451.014 87.6363 451.113 87.2258 451.113 86.742C451.113 86.2582 451.017 85.8478 450.827 85.5106C450.636 85.1734 450.387 84.9242 450.079 84.7629C449.771 84.5943 449.438 84.51 449.079 84.51C448.712 84.51 448.375 84.5943 448.067 84.7629C447.767 84.9242 447.525 85.1734 447.341 85.5106C447.158 85.8478 447.067 86.2582 447.067 86.742C447.067 87.2331 447.155 87.6473 447.33 87.9844C447.514 88.3216 447.756 88.5745 448.056 88.7431C448.357 88.9044 448.686 88.985 449.046 88.985ZM458.728 83.7404V89.7656H457.728V88.875C457.537 89.1829 457.27 89.4248 456.925 89.6007C456.588 89.7693 456.214 89.8536 455.804 89.8536C455.335 89.8536 454.913 89.7583 454.539 89.5677C454.165 89.3698 453.869 89.0766 453.649 88.6881C453.436 88.2996 453.33 87.8269 453.33 87.2698V83.7404H454.319V87.1378C454.319 87.7316 454.47 88.1897 454.77 88.5122C455.071 88.8274 455.481 88.985 456.002 88.985C456.537 88.985 456.958 88.8201 457.266 88.4902C457.574 88.1604 457.728 87.6803 457.728 87.0499V83.7404H458.728ZM461.352 81.6294V89.7656H460.352V81.6294H461.352ZM462.618 86.731C462.618 86.1153 462.742 85.5766 462.992 85.1148C463.241 84.6456 463.582 84.2828 464.014 84.0263C464.454 83.7697 464.945 83.6414 465.487 83.6414C465.957 83.6414 466.393 83.7514 466.796 83.9713C467.199 84.1839 467.507 84.4661 467.719 84.8179V81.6294H468.731V89.7656H467.719V88.6331C467.521 88.9923 467.228 89.2892 466.84 89.5237C466.451 89.751 465.997 89.8646 465.476 89.8646C464.941 89.8646 464.454 89.7326 464.014 89.4688C463.582 89.2049 463.241 88.8347 462.992 88.3583C462.742 87.8818 462.618 87.3394 462.618 86.731ZM467.719 86.742C467.719 86.2876 467.628 85.8917 467.444 85.5546C467.261 85.2174 467.012 84.9608 466.697 84.7849C466.389 84.6017 466.048 84.51 465.674 84.51C465.3 84.51 464.96 84.598 464.652 84.7739C464.344 84.9498 464.098 85.2064 463.915 85.5436C463.732 85.8807 463.64 86.2766 463.64 86.731C463.64 87.1928 463.732 87.596 463.915 87.9405C464.098 88.2776 464.344 88.5379 464.652 88.7211C464.96 88.897 465.3 88.985 465.674 88.985C466.048 88.985 466.389 88.897 466.697 88.7211C467.012 88.5379 467.261 88.2776 467.444 87.9405C467.628 87.596 467.719 87.1965 467.719 86.742ZM474.753 82.1021V89.7656H473.752V82.1021H474.753ZM112.93 100.731C112.93 100.115 113.054 99.5766 113.304 99.1148C113.553 98.6456 113.894 98.2828 114.326 98.0263C114.766 97.7697 115.257 97.6414 115.799 97.6414C116.269 97.6414 116.705 97.7514 117.108 97.9713C117.511 98.1839 117.819 98.4661 118.031 98.8179V95.6294H119.043V103.766H118.031V102.633C117.834 102.992 117.54 103.289 117.152 103.524C116.763 103.751 116.309 103.865 115.788 103.865C115.253 103.865 114.766 103.733 114.326 103.469C113.894 103.205 113.553 102.835 113.304 102.358C113.054 101.882 112.93 101.339 112.93 100.731ZM118.031 100.742C118.031 100.288 117.94 99.8917 117.757 99.5546C117.573 99.2174 117.324 98.9608 117.009 98.7849C116.701 98.6017 116.36 98.51 115.986 98.51C115.613 98.51 115.272 98.598 114.964 98.7739C114.656 98.9498 114.41 99.2064 114.227 99.5436C114.044 99.8807 113.952 100.277 113.952 100.731C113.952 101.193 114.044 101.596 114.227 101.94C114.41 102.278 114.656 102.538 114.964 102.721C115.272 102.897 115.613 102.985 115.986 102.985C116.36 102.985 116.701 102.897 117.009 102.721C117.324 102.538 117.573 102.278 117.757 101.94C117.94 101.596 118.031 101.196 118.031 100.742ZM123.296 103.865C122.731 103.865 122.218 103.736 121.756 103.48C121.302 103.223 120.943 102.86 120.679 102.391C120.422 101.915 120.294 101.365 120.294 100.742C120.294 100.126 120.426 99.5839 120.69 99.1148C120.961 98.6383 121.328 98.2755 121.789 98.0263C122.251 97.7697 122.768 97.6414 123.34 97.6414C123.911 97.6414 124.428 97.7697 124.89 98.0263C125.352 98.2755 125.715 98.6347 125.978 99.1038C126.25 99.5729 126.385 100.119 126.385 100.742C126.385 101.365 126.246 101.915 125.967 102.391C125.696 102.86 125.326 103.223 124.857 103.48C124.388 103.736 123.867 103.865 123.296 103.865ZM123.296 102.985C123.655 102.985 123.992 102.901 124.307 102.732C124.622 102.564 124.875 102.311 125.066 101.973C125.264 101.636 125.363 101.226 125.363 100.742C125.363 100.258 125.267 99.8478 125.077 99.5106C124.886 99.1734 124.637 98.9242 124.329 98.7629C124.021 98.5943 123.688 98.51 123.329 98.51C122.962 98.51 122.625 98.5943 122.317 98.7629C122.017 98.9242 121.775 99.1734 121.591 99.5106C121.408 99.8478 121.317 100.258 121.317 100.742C121.317 101.233 121.405 101.647 121.58 101.984C121.764 102.322 122.006 102.575 122.306 102.743C122.607 102.904 122.936 102.985 123.296 102.985ZM129.592 96.0032C130.318 96.0032 130.904 96.2084 131.351 96.6189C131.798 97.0294 132.022 97.5791 132.022 98.2682C132.022 99.0378 131.784 99.6095 131.307 99.9834C130.831 100.35 130.186 100.533 129.372 100.533L129.339 101.578H128.47L128.426 99.8404H128.745C129.471 99.8404 130.039 99.7305 130.449 99.5106C130.86 99.2907 131.065 98.8765 131.065 98.2682C131.065 97.8284 130.933 97.4802 130.669 97.2236C130.406 96.9671 130.05 96.8388 129.603 96.8388C129.148 96.8388 128.789 96.9634 128.525 97.2126C128.269 97.4545 128.141 97.788 128.141 98.2132H127.195C127.195 97.7734 127.294 97.3886 127.492 97.0587C127.69 96.7215 127.968 96.4613 128.327 96.2781C128.694 96.0948 129.115 96.0032 129.592 96.0032ZM128.899 103.832C128.709 103.832 128.547 103.766 128.415 103.634C128.283 103.502 128.218 103.34 128.218 103.15C128.218 102.959 128.283 102.798 128.415 102.666C128.547 102.534 128.709 102.468 128.899 102.468C129.082 102.468 129.236 102.534 129.361 102.666C129.493 102.798 129.559 102.959 129.559 103.15C129.559 103.34 129.493 103.502 129.361 103.634C129.236 103.766 129.082 103.832 128.899 103.832Z" fill="black"/>
</g>
</g>
</g>
</g>
<defs>
<filter id="filter0_d_975_2631" x="-1.19741" y="115.875" width="456.106" height="441.395" filterUnits="userSpaceOnUse" color-interpolation-filters="sRGB">
<feFlood flood-opacity="0" result="BackgroundImageFix"/>
<feColorMatrix in="SourceAlpha" type="matrix" values="0 0 0 0 0 0 0 0 0 0 0 0 0 0 0 0 0 0 127 0" result="hardAlpha"/>
<feOffset dy="1.49464"/>
<feGaussianBlur stdDeviation="3.8487"/>
<feComposite in2="hardAlpha" operator="out"/>
<feColorMatrix type="matrix" values="0 0 0 0 0 0 0 0 0 0 0 0 0 0 0 0 0 0 0.1 0"/>
<feBlend mode="normal" in2="BackgroundImageFix" result="effect1_dropShadow_975_2631"/>
<feBlend mode="normal" in="SourceGraphic" in2="effect1_dropShadow_975_2631" result="shape"/>
</filter>
<filter id="filter1_d_975_2631" x="81.4511" y="40.09" width="425.1" height="94.2833" filterUnits="userSpaceOnUse" color-interpolation-filters="sRGB">
<feFlood flood-opacity="0" result="BackgroundImageFix"/>
<feColorMatrix in="SourceAlpha" type="matrix" values="0 0 0 0 0 0 0 0 0 0 0 0 0 0 0 0 0 0 127 0" result="hardAlpha"/>
<feOffset dy="1.46599"/>
<feGaussianBlur stdDeviation="3.77493"/>
<feComposite in2="hardAlpha" operator="out"/>
<feColorMatrix type="matrix" values="0 0 0 0 0 0 0 0 0 0 0 0 0 0 0 0 0 0 0.1 0"/>
<feBlend mode="normal" in2="BackgroundImageFix" result="effect1_dropShadow_975_2631"/>
<feBlend mode="normal" in="SourceGraphic" in2="effect1_dropShadow_975_2631" result="shape"/>
</filter>
<linearGradient id="paint0_linear_975_2631" x1="39.4799" y1="139.823" x2="39.4799" y2="157.34" gradientUnits="userSpaceOnUse">
<stop stop-color="#0A58EB"/>
</linearGradient>
<linearGradient id="paint1_linear_975_2631" x1="42.9428" y1="140.078" x2="42.9428" y2="157.595" gradientUnits="userSpaceOnUse">
<stop stop-color="#0A58EB"/>
</linearGradient>
<radialGradient id="paint2_radial_975_2631" cx="0" cy="0" r="1" gradientUnits="userSpaceOnUse" gradientTransform="translate(143.501 203.999) rotate(118.608) scale(152.46 19.7583)">
<stop stop-color="white"/>
<stop offset="1" stop-color="#E4E4E4" stop-opacity="0"/>
</radialGradient>
<radialGradient id="paint3_radial_975_2631" cx="0" cy="0" r="1" gradientUnits="userSpaceOnUse" gradientTransform="translate(407.501 262.999) rotate(116.12) scale(86.9102 17.8169)">
<stop stop-color="white"/>
<stop offset="1" stop-color="#E4E4E4" stop-opacity="0"/>
</radialGradient>
<clipPath id="clip0_975_2631">
<rect x="16.9395" y="16.8555" width="485" height="369" rx="8.295" fill="white"/>
</clipPath>
<clipPath id="clip1_975_2631">
<rect width="637.001" height="413.713" fill="white" transform="translate(-133.84 17.2715)"/>
</clipPath>
<clipPath id="clip2_975_2631">
<rect width="509.348" height="413.713" fill="white" transform="translate(-6.18652 17.2715)"/>
</clipPath>
</defs>
</svg>
